<?xml version="1.0" standalone="no"?>
<!DOCTYPE svg PUBLIC "-//W3C//DTD SVG 20010904//EN"
 "http://www.w3.org/TR/2001/REC-SVG-20010904/DTD/svg10.dtd">
<svg version="1.0" xmlns="http://www.w3.org/2000/svg"
 width="260.000000pt" height="260.000000pt" viewBox="0 0 260.000000 260.000000"
 preserveAspectRatio="xMidYMid meet">
<metadata>
Created by potrace 1.14, written by Peter Selinger 2001-2017
</metadata>
<g transform="translate(0.000000,260.000000) scale(0.100000,-0.100000)"
fill="#000000" stroke="none">
<path d="M1205 2085 l-25 -24 0 -221 0 -220 25 0 c24 0 25 3 25 60 l0 60 85 0
85 0 0 -60 c0 -58 1 -60 26 -60 l25 0 -3 219 c-3 217 -3 220 -27 245 -23 24
-31 26 -108 26 -76 0 -86 -2 -108 -25z m195 -150 l0 -115 -85 0 -85 0 0 115 0
115 85 0 85 0 0 -115z"/>
<path d="M1147 2023 c-11 -10 -8 -151 3 -158 6 -4 10 25 10 79 0 86 -1 92 -13
79z"/>
<path d="M827 1533 c-4 -3 -7 -17 -7 -30 0 -19 5 -23 30 -23 l30 0 2 -212 3
-213 33 -3 32 -3 0 215 0 216 30 0 c27 0 30 3 30 30 l0 30 -88 0 c-49 0 -92
-3 -95 -7z"/>
<path d="M1076 1519 l-26 -20 0 -205 c0 -245 0 -244 103 -244 109 0 107 -5
107 238 0 114 -4 212 -8 218 -26 39 -133 47 -176 13z m119 -224 l0 -180 -40 0
-40 0 -3 170 c-1 93 0 175 3 183 3 9 18 12 42 10 l38 -3 0 -180z"/>
<path d="M1328 1534 c-5 -4 -8 -115 -8 -246 l0 -238 80 0 c73 0 83 2 106 25
l25 25 -3 195 c-3 187 -4 195 -26 217 -18 18 -36 23 -95 26 -39 2 -75 0 -79
-4z m130 -241 l2 -183 -35 0 -35 0 0 186 0 185 33 -3 32 -3 3 -182z"/>
<path d="M1622 1530 c-38 -16 -43 -52 -40 -253 3 -185 4 -189 27 -208 34 -27
129 -27 165 2 l26 20 0 199 c0 238 -1 242 -96 247 -32 1 -69 -2 -82 -7z m106
-62 c14 -14 17 -325 3 -346 -5 -8 -22 -12 -42 -10 l-34 3 -3 170 c-1 93 0 175
2 182 7 16 58 17 74 1z"/>
<path d="M672 962 c-9 -7 -12 -61 -10 -238 l3 -229 119 -3 c86 -2 122 1 127
10 12 19 9 441 -3 455 -12 15 -214 18 -236 5z m78 -92 c0 -5 -2 -10 -4 -10 -3
0 -8 5 -11 10 -3 6 -1 10 4 10 6 0 11 -4 11 -10z m0 -90 c0 -5 -5 -10 -11 -10
-5 0 -7 5 -4 10 3 6 8 10 11 10 2 0 4 -4 4 -10z m0 -100 c0 -5 -5 -10 -11 -10
-5 0 -7 5 -4 10 3 6 8 10 11 10 2 0 4 -4 4 -10z m90 0 c0 -5 -4 -10 -10 -10
-5 0 -10 5 -10 10 0 6 5 10 10 10 6 0 10 -4 10 -10z m-90 -100 c0 -5 -2 -10
-4 -10 -3 0 -8 5 -11 10 -3 6 -1 10 4 10 6 0 11 -4 11 -10z m90 0 c0 -5 -4
-10 -10 -10 -5 0 -10 5 -10 10 0 6 5 10 10 10 6 0 10 -4 10 -10z"/>
<path d="M991 944 c-17 -22 -21 -41 -21 -100 0 -40 3 -79 6 -88 3 -9 33 -30
65 -48 l60 -33 -3 -65 c-3 -62 -4 -65 -28 -65 -18 0 -26 7 -30 25 -4 19 -13
26 -38 28 -29 3 -32 1 -32 -23 0 -28 16 -66 34 -77 6 -4 39 -8 72 -8 78 0 88
11 92 106 6 107 2 116 -68 153 l-60 32 0 65 0 64 29 0 c26 0 30 -4 33 -32 3
-29 7 -33 36 -36 31 -3 32 -2 32 36 0 25 -8 49 -21 66 -18 23 -28 26 -79 26
-51 0 -61 -3 -79 -26z"/>
<path d="M1254 962 c-29 -19 -34 -56 -34 -240 0 -238 -2 -234 115 -230 106 4
105 0 105 239 0 173 -1 188 -21 213 -18 23 -27 26 -87 26 -37 0 -72 -4 -78 -8z
m114 -234 l-3 -183 -35 0 -35 0 -3 183 -2 182 40 0 40 0 -2 -182z"/>
<path d="M1500 730 l0 -240 75 0 c73 0 75 1 75 24 0 22 -5 25 -42 28 l-43 3
-3 213 -2 212 -30 0 -30 0 0 -240z"/>
</g>
</svg>
