<svg xmlns="http://www.w3.org/2000/svg" xmlns:xlink="http://www.w3.org/1999/xlink" width="500" zoomAndPan="magnify" viewBox="0 0 375 299.999988" height="400" preserveAspectRatio="xMidYMid meet" version="1.0"><path fill="#808285" d="M 309.367188 71.9375 C 310.289062 73.007812 311.160156 74.121094 311.976562 75.28125 C 312.789062 76.4375 313.546875 77.632812 314.246094 78.863281 C 314.941406 80.09375 315.578125 81.355469 316.152344 82.652344 C 316.726562 83.945312 317.234375 85.261719 317.679688 86.605469 C 318.125 87.949219 318.5 89.3125 318.8125 90.695312 C 319.121094 92.074219 319.363281 93.46875 319.539062 94.871094 C 319.710938 96.277344 319.816406 97.6875 319.851562 99.101562 C 319.886719 100.515625 319.851562 101.925781 319.75 103.339844 C 319.644531 104.75 319.472656 106.152344 319.230469 107.546875 C 318.988281 108.941406 318.679688 110.320312 318.304688 111.683594 C 317.925781 113.046875 317.484375 114.386719 316.976562 115.707031 C 316.464844 117.027344 315.894531 118.320312 315.257812 119.582031 C 314.621094 120.847656 313.925781 122.078125 313.167969 123.273438 C 312.414062 124.46875 311.601562 125.621094 310.730469 126.738281 C 309.859375 127.851562 308.9375 128.921875 307.960938 129.945312 C 306.988281 130.972656 305.964844 131.945312 304.890625 132.867188 C 303.820312 133.792969 302.707031 134.660156 301.550781 135.476562 C 300.394531 136.289062 299.199219 137.046875 297.96875 137.742188 C 296.738281 138.441406 295.476562 139.074219 294.183594 139.648438 C 292.890625 140.21875 291.574219 140.726562 290.230469 141.171875 C 288.886719 141.613281 287.523438 141.992188 286.144531 142.300781 C 284.761719 142.609375 283.371094 142.851562 281.96875 143.023438 C 280.5625 143.195312 279.152344 143.300781 277.738281 143.332031 C 276.324219 143.367188 274.914062 143.332031 273.5 143.226562 C 272.089844 143.121094 270.6875 142.949219 269.292969 142.707031 C 267.898438 142.464844 266.519531 142.152344 265.15625 141.777344 C 263.792969 141.398438 262.449219 140.953125 261.132812 140.445312 C 259.8125 139.933594 258.519531 139.359375 257.253906 138.722656 C 255.992188 138.085938 254.761719 137.390625 253.566406 136.632812 C 252.371094 135.875 251.214844 135.0625 250.097656 134.191406 C 248.984375 133.320312 247.914062 132.394531 246.886719 131.417969 C 245.863281 130.441406 244.886719 129.417969 243.964844 128.347656 C 243.039062 127.273438 242.167969 126.160156 241.355469 125.003906 C 240.539062 123.847656 239.78125 122.652344 239.085938 121.421875 C 238.386719 120.1875 237.75 118.925781 237.175781 117.632812 C 236.605469 116.339844 236.09375 115.019531 235.648438 113.675781 C 235.207031 112.332031 234.828125 110.96875 234.519531 109.589844 C 234.207031 108.207031 233.964844 106.816406 233.792969 105.410156 C 233.617188 104.007812 233.515625 102.597656 233.480469 101.183594 C 233.445312 99.769531 233.476562 98.355469 233.582031 96.945312 C 233.683594 95.53125 233.859375 94.128906 234.097656 92.734375 C 234.339844 91.34375 234.648438 89.964844 235.027344 88.597656 C 235.402344 87.234375 235.847656 85.894531 236.355469 84.574219 C 236.863281 83.253906 237.4375 81.960938 238.070312 80.699219 C 238.707031 79.433594 239.402344 78.207031 240.160156 77.011719 C 240.917969 75.816406 241.730469 74.660156 242.601562 73.546875 C 243.46875 72.429688 244.394531 71.359375 245.367188 70.335938 C 246.34375 69.3125 247.367188 68.335938 248.4375 67.414062 C 249.507812 66.488281 250.621094 65.621094 251.777344 64.808594 C 252.933594 63.992188 254.128906 63.238281 255.359375 62.539062 C 256.589844 61.84375 257.851562 61.207031 259.144531 60.636719 C 260.4375 60.0625 261.757812 59.554688 263.101562 59.109375 C 264.445312 58.667969 265.804688 58.292969 267.1875 57.980469 C 268.566406 57.671875 269.957031 57.433594 271.363281 57.257812 C 272.765625 57.085938 274.175781 56.984375 275.589844 56.949219 C 277.003906 56.914062 278.417969 56.949219 279.828125 57.054688 C 281.238281 57.160156 282.640625 57.332031 284.035156 57.574219 C 285.429688 57.820312 286.808594 58.128906 288.171875 58.507812 C 289.535156 58.886719 290.878906 59.328125 292.199219 59.839844 C 293.519531 60.347656 294.8125 60.921875 296.074219 61.558594 C 297.339844 62.195312 298.570312 62.890625 299.765625 63.648438 C 300.960938 64.40625 302.117188 65.222656 303.230469 66.09375 C 304.347656 66.964844 305.417969 67.886719 306.441406 68.863281 C 307.46875 69.839844 308.441406 70.863281 309.367188 71.9375 Z M 309.367188 71.9375 " fill-opacity="1" fill-rule="nonzero"/><path fill="#808285" d="M 271.574219 16.144531 C 271.960938 16.589844 272.324219 17.054688 272.664062 17.539062 C 273.003906 18.023438 273.320312 18.519531 273.613281 19.035156 C 273.902344 19.550781 274.167969 20.078125 274.410156 20.617188 C 274.648438 21.15625 274.859375 21.707031 275.046875 22.269531 C 275.230469 22.828125 275.390625 23.398438 275.519531 23.972656 C 275.648438 24.550781 275.75 25.132812 275.824219 25.71875 C 275.894531 26.304688 275.9375 26.894531 275.953125 27.484375 C 275.96875 28.074219 275.953125 28.664062 275.910156 29.253906 C 275.867188 29.84375 275.796875 30.429688 275.695312 31.011719 C 275.59375 31.59375 275.464844 32.167969 275.308594 32.738281 C 275.148438 33.308594 274.964844 33.867188 274.753906 34.417969 C 274.539062 34.96875 274.300781 35.507812 274.035156 36.035156 C 273.769531 36.5625 273.480469 37.078125 273.164062 37.578125 C 272.847656 38.074219 272.507812 38.558594 272.144531 39.023438 C 271.78125 39.488281 271.398438 39.933594 270.988281 40.363281 C 270.582031 40.789062 270.15625 41.199219 269.707031 41.582031 C 269.261719 41.96875 268.796875 42.332031 268.3125 42.671875 C 267.832031 43.011719 267.332031 43.328125 266.816406 43.617188 C 266.304688 43.910156 265.777344 44.175781 265.238281 44.414062 C 264.699219 44.652344 264.148438 44.863281 263.585938 45.050781 C 263.023438 45.234375 262.457031 45.390625 261.878906 45.519531 C 261.304688 45.648438 260.722656 45.75 260.136719 45.824219 C 259.550781 45.894531 258.960938 45.9375 258.371094 45.953125 C 257.78125 45.964844 257.191406 45.953125 256.601562 45.90625 C 256.011719 45.863281 255.425781 45.792969 254.84375 45.691406 C 254.261719 45.589844 253.6875 45.460938 253.117188 45.300781 C 252.550781 45.144531 251.988281 44.957031 251.4375 44.746094 C 250.886719 44.53125 250.347656 44.292969 249.820312 44.027344 C 249.292969 43.761719 248.777344 43.46875 248.277344 43.15625 C 247.78125 42.839844 247.296875 42.5 246.832031 42.132812 C 246.367188 41.769531 245.917969 41.386719 245.492188 40.976562 C 245.0625 40.570312 244.65625 40.140625 244.269531 39.695312 C 243.882812 39.246094 243.519531 38.78125 243.179688 38.300781 C 242.839844 37.816406 242.523438 37.316406 242.234375 36.804688 C 241.941406 36.289062 241.675781 35.761719 241.4375 35.222656 C 241.195312 34.679688 240.984375 34.128906 240.800781 33.570312 C 240.613281 33.007812 240.457031 32.441406 240.328125 31.863281 C 240.195312 31.285156 240.09375 30.707031 240.023438 30.117188 C 239.949219 29.53125 239.90625 28.945312 239.890625 28.351562 C 239.878906 27.761719 239.890625 27.171875 239.933594 26.582031 C 239.976562 25.996094 240.050781 25.410156 240.152344 24.828125 C 240.253906 24.246094 240.382812 23.667969 240.539062 23.101562 C 240.695312 22.53125 240.878906 21.96875 241.09375 21.417969 C 241.304688 20.867188 241.542969 20.328125 241.808594 19.800781 C 242.074219 19.273438 242.367188 18.761719 242.683594 18.261719 C 242.996094 17.761719 243.335938 17.28125 243.699219 16.816406 C 244.0625 16.347656 244.449219 15.902344 244.855469 15.476562 C 245.261719 15.046875 245.691406 14.640625 246.136719 14.253906 C 246.585938 13.867188 247.050781 13.507812 247.53125 13.167969 C 248.015625 12.828125 248.515625 12.511719 249.027344 12.21875 C 249.542969 11.929688 250.070312 11.664062 250.609375 11.425781 C 251.148438 11.1875 251.699219 10.972656 252.257812 10.789062 C 252.820312 10.601562 253.390625 10.445312 253.964844 10.316406 C 254.542969 10.1875 255.121094 10.085938 255.710938 10.015625 C 256.296875 9.941406 256.882812 9.898438 257.472656 9.886719 C 258.066406 9.871094 258.65625 9.886719 259.242188 9.929688 C 259.832031 9.972656 260.417969 10.046875 261 10.148438 C 261.582031 10.25 262.15625 10.378906 262.726562 10.535156 C 263.296875 10.695312 263.855469 10.878906 264.410156 11.09375 C 264.960938 11.304688 265.5 11.542969 266.027344 11.808594 C 266.554688 12.074219 267.066406 12.367188 267.566406 12.683594 C 268.066406 13 268.546875 13.339844 269.015625 13.703125 C 269.480469 14.066406 269.925781 14.453125 270.355469 14.859375 C 270.78125 15.269531 271.191406 15.695312 271.574219 16.144531 Z M 271.574219 16.144531 " fill-opacity="1" fill-rule="nonzero"/><path fill="#58595b" d="M 323.332031 151.296875 C 323.339844 132.914062 313.433594 115.949219 297.414062 106.917969 C 299.957031 80.132812 280.285156 56.359375 253.480469 53.820312 C 250.417969 53.53125 247.335938 53.53125 244.273438 53.820312 C 230.425781 29.3125 199.316406 20.664062 174.792969 34.503906 C 166.707031 39.066406 160.023438 45.742188 155.460938 53.820312 C 128.652344 51.28125 104.863281 70.933594 102.320312 97.71875 C 102.03125 100.777344 102.03125 103.859375 102.320312 106.917969 C 77.792969 120.753906 69.140625 151.839844 82.988281 176.347656 C 87.554688 184.421875 94.238281 191.101562 102.320312 195.664062 C 99.777344 222.449219 119.449219 246.21875 146.253906 248.761719 C 149.316406 249.050781 152.398438 249.050781 155.460938 248.761719 C 169.308594 273.265625 200.417969 281.914062 224.945312 268.078125 C 233.027344 263.515625 239.710938 256.835938 244.277344 248.761719 C 271.082031 251.300781 294.875 231.644531 297.414062 204.859375 C 297.707031 201.800781 297.707031 198.722656 297.414062 195.664062 C 313.433594 186.628906 323.335938 169.675781 323.332031 151.296875 Z M 323.332031 151.296875 " fill-opacity="1" fill-rule="nonzero"/><path fill="#808285" d="M 196.207031 72.035156 C 193.417969 68.808594 190.253906 66.101562 186.839844 63.910156 C 198.316406 81.722656 195.242188 105.710938 178.757812 119.949219 C 163.933594 132.753906 142.890625 133.683594 127.195312 123.597656 C 128.285156 125.289062 129.496094 126.929688 130.847656 128.496094 C 146.453125 146.558594 173.730469 148.5625 191.78125 132.972656 C 209.828125 117.378906 211.808594 90.097656 196.207031 72.035156 Z M 196.207031 72.035156 " fill-opacity="1" fill-rule="nonzero"/><path fill="#377de2" d="M 292.964844 151.289062 C 292.964844 152.8125 292.925781 154.335938 292.851562 155.859375 C 292.777344 157.378906 292.664062 158.898438 292.515625 160.414062 C 292.367188 161.933594 292.179688 163.445312 291.957031 164.953125 C 291.730469 166.457031 291.472656 167.960938 291.175781 169.453125 C 290.878906 170.949219 290.542969 172.433594 290.171875 173.914062 C 289.804688 175.390625 289.398438 176.859375 288.953125 178.316406 C 288.511719 179.773438 288.035156 181.222656 287.519531 182.65625 C 287.007812 184.089844 286.460938 185.511719 285.875 186.917969 C 285.292969 188.328125 284.675781 189.71875 284.023438 191.097656 C 283.371094 192.476562 282.6875 193.835938 281.96875 195.179688 C 281.25 196.523438 280.5 197.847656 279.71875 199.15625 C 278.933594 200.460938 278.117188 201.75 277.273438 203.015625 C 276.425781 204.285156 275.550781 205.527344 274.640625 206.753906 C 273.734375 207.976562 272.796875 209.175781 271.828125 210.355469 C 270.863281 211.53125 269.867188 212.6875 268.84375 213.816406 C 267.820312 214.945312 266.769531 216.046875 265.695312 217.125 C 264.617188 218.203125 263.511719 219.253906 262.382812 220.277344 C 261.253906 221.300781 260.101562 222.292969 258.925781 223.261719 C 257.746094 224.226562 256.546875 225.164062 255.320312 226.074219 C 254.097656 226.980469 252.851562 227.859375 251.585938 228.703125 C 250.316406 229.550781 249.03125 230.367188 247.722656 231.148438 C 246.417969 231.933594 245.09375 232.683594 243.75 233.402344 C 242.40625 234.121094 241.042969 234.804688 239.667969 235.457031 C 238.289062 236.109375 236.894531 236.726562 235.488281 237.308594 C 234.082031 237.890625 232.660156 238.4375 231.226562 238.953125 C 229.789062 239.464844 228.34375 239.945312 226.886719 240.386719 C 225.429688 240.828125 223.960938 241.234375 222.480469 241.605469 C 221.003906 241.976562 219.515625 242.308594 218.023438 242.605469 C 216.527344 242.902344 215.027344 243.164062 213.519531 243.386719 C 212.011719 243.609375 210.5 243.796875 208.984375 243.945312 C 207.46875 244.097656 205.949219 244.207031 204.425781 244.28125 C 202.90625 244.359375 201.382812 244.394531 199.859375 244.394531 C 198.335938 244.394531 196.8125 244.359375 195.289062 244.28125 C 193.769531 244.207031 192.25 244.097656 190.734375 243.945312 C 189.21875 243.796875 187.707031 243.609375 186.199219 243.386719 C 184.691406 243.164062 183.191406 242.902344 181.695312 242.605469 C 180.199219 242.308594 178.714844 241.976562 177.238281 241.605469 C 175.757812 241.234375 174.289062 240.828125 172.832031 240.386719 C 171.375 239.945312 169.929688 239.464844 168.492188 238.953125 C 167.058594 238.4375 165.636719 237.890625 164.230469 237.308594 C 162.820312 236.726562 161.429688 236.109375 160.050781 235.457031 C 158.675781 234.804688 157.3125 234.121094 155.96875 233.402344 C 154.625 232.683594 153.300781 231.933594 151.992188 231.148438 C 150.6875 230.367188 149.398438 229.550781 148.132812 228.703125 C 146.867188 227.859375 145.621094 226.980469 144.398438 226.074219 C 143.171875 225.164062 141.972656 224.226562 140.792969 223.261719 C 139.617188 222.292969 138.464844 221.300781 137.335938 220.277344 C 136.207031 219.253906 135.101562 218.203125 134.023438 217.125 C 132.945312 216.046875 131.898438 214.945312 130.875 213.816406 C 129.851562 212.6875 128.855469 211.53125 127.890625 210.355469 C 126.921875 209.175781 125.984375 207.976562 125.078125 206.753906 C 124.167969 205.527344 123.292969 204.285156 122.445312 203.015625 C 121.597656 201.75 120.785156 200.460938 120 199.15625 C 119.21875 197.847656 118.46875 196.523438 117.75 195.179688 C 117.03125 193.835938 116.34375 192.476562 115.695312 191.097656 C 115.042969 189.71875 114.425781 188.328125 113.84375 186.917969 C 113.257812 185.511719 112.710938 184.089844 112.199219 182.65625 C 111.683594 181.222656 111.207031 179.773438 110.765625 178.316406 C 110.320312 176.859375 109.914062 175.390625 109.546875 173.914062 C 109.175781 172.433594 108.839844 170.949219 108.542969 169.453125 C 108.246094 167.960938 107.988281 166.457031 107.761719 164.953125 C 107.539062 163.445312 107.351562 161.933594 107.203125 160.414062 C 107.054688 158.898438 106.941406 157.378906 106.867188 155.859375 C 106.792969 154.335938 106.753906 152.8125 106.753906 151.289062 C 106.753906 149.765625 106.792969 148.242188 106.867188 146.722656 C 106.941406 145.199219 107.054688 143.679688 107.203125 142.164062 C 107.351562 140.648438 107.539062 139.136719 107.761719 137.628906 C 107.988281 136.121094 108.246094 134.621094 108.542969 133.125 C 108.839844 131.632812 109.175781 130.144531 109.546875 128.667969 C 109.914062 127.1875 110.320312 125.722656 110.765625 124.261719 C 111.207031 122.804688 111.683594 121.359375 112.199219 119.921875 C 112.710938 118.488281 113.257812 117.066406 113.84375 115.660156 C 114.425781 114.253906 115.042969 112.859375 115.695312 111.484375 C 116.34375 110.105469 117.03125 108.746094 117.75 107.402344 C 118.46875 106.058594 119.21875 104.730469 120 103.425781 C 120.785156 102.117188 121.597656 100.832031 122.445312 99.5625 C 123.292969 98.296875 124.167969 97.050781 125.078125 95.828125 C 125.984375 94.601562 126.921875 93.402344 127.890625 92.226562 C 128.855469 91.046875 129.851562 89.894531 130.875 88.765625 C 131.898438 87.636719 132.945312 86.53125 134.023438 85.453125 C 135.101562 84.378906 136.207031 83.328125 137.335938 82.304688 C 138.464844 81.28125 139.617188 80.285156 140.792969 79.320312 C 141.972656 78.351562 143.171875 77.414062 144.398438 76.507812 C 145.621094 75.597656 146.867188 74.722656 148.132812 73.875 C 149.398438 73.03125 150.6875 72.214844 151.992188 71.429688 C 153.300781 70.648438 154.625 69.898438 155.96875 69.179688 C 157.3125 68.460938 158.675781 67.777344 160.050781 67.125 C 161.429688 66.472656 162.820312 65.855469 164.230469 65.273438 C 165.636719 64.6875 167.058594 64.140625 168.492188 63.628906 C 169.929688 63.113281 171.375 62.636719 172.832031 62.195312 C 174.289062 61.75 175.757812 61.34375 177.238281 60.976562 C 178.714844 60.605469 180.199219 60.269531 181.695312 59.972656 C 183.191406 59.675781 184.691406 59.417969 186.199219 59.191406 C 187.707031 58.96875 189.21875 58.78125 190.734375 58.632812 C 192.25 58.484375 193.769531 58.371094 195.289062 58.296875 C 196.8125 58.222656 198.335938 58.183594 199.859375 58.183594 C 201.382812 58.183594 202.90625 58.222656 204.425781 58.296875 C 205.949219 58.371094 207.46875 58.484375 208.984375 58.632812 C 210.5 58.78125 212.011719 58.96875 213.519531 59.191406 C 215.027344 59.417969 216.527344 59.675781 218.023438 59.972656 C 219.515625 60.269531 221.003906 60.605469 222.480469 60.976562 C 223.960938 61.34375 225.429688 61.75 226.886719 62.195312 C 228.34375 62.636719 229.789062 63.113281 231.226562 63.628906 C 232.660156 64.140625 234.082031 64.6875 235.488281 65.273438 C 236.894531 65.855469 238.289062 66.472656 239.667969 67.125 C 241.042969 67.777344 242.40625 68.460938 243.75 69.179688 C 245.09375 69.898438 246.417969 70.648438 247.722656 71.429688 C 249.03125 72.214844 250.316406 73.03125 251.585938 73.875 C 252.851562 74.722656 254.097656 75.597656 255.320312 76.507812 C 256.546875 77.414062 257.746094 78.351562 258.925781 79.320312 C 260.101562 80.285156 261.253906 81.28125 262.382812 82.304688 C 263.511719 83.328125 264.617188 84.378906 265.695312 85.453125 C 266.769531 86.53125 267.820312 87.636719 268.84375 88.765625 C 269.867188 89.894531 270.863281 91.046875 271.828125 92.226562 C 272.796875 93.402344 273.734375 94.601562 274.640625 95.828125 C 275.550781 97.050781 276.425781 98.296875 277.273438 99.5625 C 278.117188 100.832031 278.933594 102.117188 279.71875 103.425781 C 280.5 104.730469 281.25 106.058594 281.96875 107.402344 C 282.6875 108.746094 283.371094 110.105469 284.023438 111.480469 C 284.675781 112.859375 285.292969 114.253906 285.875 115.660156 C 286.460938 117.066406 287.007812 118.488281 287.519531 119.921875 C 288.035156 121.359375 288.511719 122.804688 288.953125 124.261719 C 289.398438 125.722656 289.804688 127.1875 290.171875 128.667969 C 290.542969 130.144531 290.878906 131.632812 291.175781 133.125 C 291.472656 134.621094 291.730469 136.121094 291.957031 137.628906 C 292.179688 139.136719 292.367188 140.648438 292.515625 142.164062 C 292.664062 143.679688 292.777344 145.199219 292.851562 146.722656 C 292.925781 148.242188 292.964844 149.765625 292.964844 151.289062 Z M 292.964844 151.289062 " fill-opacity="1" fill-rule="nonzero"/><path fill="#2266d3" d="M 260.363281 80.519531 C 274.289062 96.792969 282.699219 117.925781 282.699219 141.027344 C 282.699219 192.445312 241.015625 234.128906 189.597656 234.128906 C 166.5 234.128906 145.367188 225.71875 129.09375 211.792969 C 146.167969 231.746094 171.539062 244.394531 199.859375 244.394531 C 251.28125 244.394531 292.964844 202.707031 292.964844 151.289062 C 292.964844 122.964844 280.316406 97.597656 260.363281 80.519531 Z M 260.363281 80.519531 " fill-opacity="1" fill-rule="nonzero"/><path fill="#91b56b" d="M 200.710938 97.40625 L 204.210938 88.660156 C 204.488281 87.960938 205.0625 87.417969 205.777344 87.171875 L 219.117188 82.632812 C 219.726562 82.425781 220.234375 82 220.546875 81.4375 L 230.554688 63.363281 C 220.941406 60.007812 210.613281 58.183594 199.859375 58.183594 C 196.46875 58.183594 193.121094 58.367188 189.824219 58.71875 L 187.019531 82.003906 C 186.96875 82.421875 187.023438 82.839844 187.171875 83.234375 L 192.542969 97.367188 C 192.921875 98.371094 193.882812 99.03125 194.957031 99.03125 L 198.3125 99.03125 C 199.367188 99.03125 200.320312 98.390625 200.710938 97.40625 Z M 200.710938 97.40625 " fill-opacity="1" fill-rule="nonzero"/><path fill="#91b56b" d="M 290.003906 157.953125 C 288.785156 157.074219 288.40625 155.429688 289.121094 154.105469 L 289.214844 153.929688 C 289.9375 152.585938 291.550781 152.003906 292.957031 152.5625 C 292.960938 152.136719 292.964844 151.714844 292.964844 151.289062 C 292.964844 122.203125 279.628906 96.238281 258.742188 79.164062 L 249.871094 89.042969 C 249.378906 89.589844 249.105469 90.304688 249.105469 91.042969 L 249.105469 103.625 C 249.105469 105.28125 247.761719 106.621094 246.109375 106.621094 L 244.046875 106.621094 C 242.945312 106.621094 241.9375 106.019531 241.410156 105.050781 L 238.339844 99.378906 C 237.730469 98.253906 236.472656 97.640625 235.210938 97.851562 L 230.703125 98.601562 C 229.257812 98.84375 228.199219 100.09375 228.199219 101.558594 L 228.199219 103.1875 C 228.199219 104.152344 228.660156 105.054688 229.441406 105.617188 L 233.519531 108.566406 C 234.449219 109.238281 234.914062 110.378906 234.71875 111.507812 L 233.796875 116.804688 C 233.625 117.804688 232.957031 118.644531 232.027344 119.046875 L 224.691406 122.1875 C 223.589844 122.660156 222.875 123.746094 222.875 124.945312 L 222.875 125.292969 C 222.875 126.949219 224.21875 128.289062 225.871094 128.289062 L 235.433594 128.289062 C 236.160156 128.289062 236.859375 128.027344 237.40625 127.546875 L 241.84375 123.664062 C 242.359375 123.214844 243.015625 122.953125 243.699219 122.925781 L 250.640625 122.648438 C 251.585938 122.609375 252.492188 123.023438 253.089844 123.757812 L 257.707031 129.457031 C 258.273438 130.160156 259.128906 130.570312 260.035156 130.570312 L 262.351562 130.570312 C 263.117188 130.570312 263.855469 130.273438 264.414062 129.746094 L 270.195312 124.253906 C 270.804688 123.675781 271.625 123.378906 272.464844 123.4375 L 280.664062 124 C 281.613281 124.066406 282.472656 124.578125 282.984375 125.382812 L 285.554688 129.421875 C 286.5625 131.003906 285.882812 133.113281 284.136719 133.8125 L 282.632812 134.414062 C 282.085938 134.632812 281.484375 134.683594 280.902344 134.5625 L 275.203125 133.363281 C 274.785156 133.273438 274.351562 133.277344 273.9375 133.367188 L 272.859375 133.609375 C 270.59375 134.113281 269.734375 136.890625 271.320312 138.582031 L 272.734375 140.089844 C 273.183594 140.570312 273.464844 141.183594 273.53125 141.839844 L 274.894531 155.484375 C 274.929688 155.847656 275.03125 156.203125 275.195312 156.527344 L 281.34375 168.820312 C 281.851562 169.835938 282.890625 170.476562 284.023438 170.476562 L 290.980469 170.476562 C 291.710938 166.988281 292.25 163.429688 292.578125 159.8125 Z M 290.003906 157.953125 " fill-opacity="1" fill-rule="nonzero"/><path fill="#76a34f" d="M 292.957031 150.164062 C 292.804688 123.664062 280.574219 97.648438 260.367188 80.523438 C 270.800781 92.71875 278.140625 107.644531 281.160156 124.078125 C 281.910156 124.261719 282.566406 124.726562 282.984375 125.382812 L 285.554688 129.421875 C 286.5625 131.003906 285.882812 133.117188 284.140625 133.8125 C 284.074219 133.851562 282.480469 134.46875 282.472656 134.472656 C 283.210938 144.777344 282.152344 155.511719 279.53125 165.199219 L 281.34375 168.824219 C 281.851562 169.839844 282.890625 170.480469 284.023438 170.480469 L 290.984375 170.480469 C 291.71875 166.960938 292.253906 163.398438 292.578125 159.8125 L 290.003906 157.953125 C 287.152344 155.898438 289.695312 151.265625 292.953125 152.5625 C 292.964844 151.765625 292.96875 150.964844 292.957031 150.164062 Z M 292.957031 150.164062 " fill-opacity="1" fill-rule="nonzero"/><path fill="#91b56b" d="M 155.269531 220.988281 L 160.902344 217.859375 C 160.988281 217.8125 161.070312 217.761719 161.148438 217.707031 L 171.292969 210.605469 C 171.554688 210.421875 171.785156 210.191406 171.972656 209.929688 L 174.730469 206.023438 C 175.042969 205.585938 175.46875 205.242188 175.964844 205.042969 L 183.636719 201.929688 C 184.398438 201.621094 184.988281 200.988281 185.246094 200.207031 L 187.628906 192.921875 C 187.78125 192.449219 188.058594 192.027344 188.429688 191.699219 L 193.613281 187.089844 C 194.828125 186.007812 194.871094 184.128906 193.710938 182.992188 L 188.679688 178.074219 C 188.15625 177.5625 187.453125 177.273438 186.722656 177.273438 L 183.023438 177.273438 C 181.78125 177.273438 180.6875 176.457031 180.335938 175.265625 L 178.425781 168.820312 C 178.210938 168.089844 177.707031 167.476562 177.03125 167.128906 L 168.5625 162.738281 C 168.515625 162.710938 168.46875 162.6875 168.425781 162.660156 L 157.617188 156.257812 C 156.578125 155.640625 155.257812 155.761719 154.347656 156.554688 L 153.402344 157.378906 C 152.449219 158.210938 151.054688 158.300781 150.003906 157.597656 L 147.242188 155.75 C 146.730469 155.40625 146.347656 154.910156 146.148438 154.328125 L 142.484375 143.625 C 142.097656 142.492188 141.03125 141.730469 139.832031 141.730469 L 136.347656 141.730469 C 134.585938 141.730469 133.261719 140.125 133.59375 138.394531 L 134.644531 132.980469 C 134.898438 131.664062 136.050781 130.710938 137.394531 130.710938 L 151.789062 130.710938 C 152.71875 130.710938 166.429688 119.292969 169.855469 116.429688 C 170.359375 116.007812 170.988281 115.78125 171.644531 115.78125 L 182.75 115.78125 C 184.300781 115.78125 185.554688 114.527344 185.554688 112.980469 L 185.554688 104.683594 C 185.554688 104.269531 185.460938 103.859375 185.285156 103.484375 L 179.84375 91.960938 C 179.625 91.503906 179.289062 91.109375 178.863281 90.828125 L 168.941406 84.210938 C 167.078125 82.96875 164.585938 84.304688 164.585938 86.542969 L 164.585938 89.171875 C 164.585938 90.039062 164.183594 90.859375 163.496094 91.390625 L 158.425781 95.308594 C 157.441406 96.070312 156.074219 96.089844 155.066406 95.359375 L 147.523438 89.898438 C 146.847656 89.410156 146.425781 88.644531 146.371094 87.8125 L 145.835938 79.792969 C 145.78125 78.953125 146.105469 78.128906 146.726562 77.554688 L 149.363281 75.105469 C 150.1875 74.339844 151.390625 74.140625 152.414062 74.601562 L 157.851562 77.035156 C 159.484375 77.769531 161.375 76.804688 161.738281 75.050781 L 162.507812 71.355469 C 162.695312 70.460938 162.433594 69.535156 161.8125 68.867188 L 160.121094 67.0625 C 136.738281 78.117188 118.691406 98.621094 110.925781 123.652344 L 114.648438 131.414062 C 114.765625 131.652344 114.914062 131.875 115.09375 132.074219 L 130.324219 148.996094 C 130.648438 149.355469 131.058594 149.625 131.519531 149.78125 L 137.339844 151.71875 C 137.949219 151.921875 138.46875 152.328125 138.816406 152.871094 L 142.972656 159.402344 C 143.160156 159.699219 143.402344 159.957031 143.6875 160.164062 L 145.597656 161.550781 C 146.542969 162.238281 146.960938 163.441406 146.648438 164.566406 L 143.933594 174.335938 C 143.730469 175.074219 143.835938 175.863281 144.226562 176.519531 L 151.152344 188.167969 C 151.339844 188.480469 151.460938 188.828125 151.515625 189.1875 L 152.382812 194.96875 C 152.460938 195.480469 152.394531 196.003906 152.191406 196.476562 L 140.84375 223.300781 C 143.609375 225.566406 146.503906 227.679688 149.519531 229.621094 L 154.25 221.964844 C 154.5 221.558594 154.851562 221.222656 155.269531 220.988281 Z M 155.269531 220.988281 " fill-opacity="1" fill-rule="nonzero"/><path fill="#91b56b" d="M 269.714844 190.671875 L 283.933594 183.324219 C 284.925781 182.808594 285.554688 181.78125 285.554688 180.664062 L 285.554688 179.597656 C 285.554688 178.179688 284.5625 176.957031 283.175781 176.664062 L 279.15625 175.820312 C 278.617188 175.707031 278.117188 175.445312 277.71875 175.066406 L 272.234375 169.886719 C 271.75 169.429688 271.433594 168.828125 271.332031 168.171875 L 268.824219 152.121094 C 268.703125 151.363281 268.296875 150.675781 267.6875 150.207031 L 260.511719 144.703125 C 259.988281 144.300781 259.347656 144.082031 258.6875 144.082031 L 251.125 144.082031 C 250.296875 144.082031 249.5 143.738281 248.933594 143.128906 L 240.449219 134.027344 C 239.882812 133.417969 239.089844 133.074219 238.257812 133.074219 L 224.972656 133.074219 C 224.566406 133.074219 224.164062 133.15625 223.789062 133.316406 L 217.34375 136.078125 C 216.714844 136.347656 216.199219 136.824219 215.878906 137.429688 L 207.351562 153.496094 C 206.824219 154.492188 206.898438 155.703125 207.546875 156.625 L 215.480469 167.910156 C 216.039062 168.710938 216.953125 169.183594 217.929688 169.183594 L 230.0625 169.183594 C 231.40625 169.183594 232.589844 170.082031 232.949219 171.378906 L 237.78125 188.777344 C 237.949219 189.382812 237.921875 190.027344 237.707031 190.617188 L 235.519531 196.546875 C 235.425781 196.800781 235.367188 197.066406 235.347656 197.339844 L 233.917969 214.816406 C 233.878906 215.300781 233.960938 215.789062 234.152344 216.238281 L 236.386719 221.457031 C 236.914062 222.6875 238.195312 223.421875 239.523438 223.25 L 247.75 222.1875 C 248.585938 222.078125 249.339844 221.625 249.820312 220.933594 L 256.847656 210.898438 C 256.976562 210.710938 257.132812 210.539062 257.304688 210.382812 L 263.679688 204.679688 C 264.066406 204.335938 264.355469 203.894531 264.519531 203.40625 L 268.25 192.375 C 268.5 191.640625 269.023438 191.03125 269.714844 190.671875 Z M 269.714844 190.671875 " fill-opacity="1" fill-rule="nonzero"/><path fill="#76a34f" d="M 269.714844 190.671875 L 283.933594 183.324219 C 284.925781 182.808594 285.554688 181.78125 285.554688 180.664062 L 285.554688 179.597656 C 285.554688 178.179688 284.5625 176.957031 283.175781 176.664062 L 279.15625 175.820312 C 278.617188 175.707031 278.117188 175.445312 277.71875 175.066406 L 276.664062 174.070312 C 269.054688 194.117188 254.71875 210.851562 236.414062 221.519531 C 236.960938 222.714844 238.21875 223.417969 239.523438 223.25 L 247.75 222.1875 C 248.585938 222.078125 249.339844 221.625 249.820312 220.933594 L 256.847656 210.898438 C 256.976562 210.710938 257.132812 210.539062 257.304688 210.382812 L 263.679688 204.679688 C 264.066406 204.335938 264.355469 203.894531 264.519531 203.40625 L 268.25 192.375 C 268.5 191.640625 269.023438 191.03125 269.714844 190.671875 Z M 269.714844 190.671875 " fill-opacity="1" fill-rule="nonzero"/><path fill="#939598" d="M 144.558594 225.515625 C 145.347656 226.304688 146.097656 227.132812 146.804688 227.996094 C 147.511719 228.859375 148.179688 229.753906 148.796875 230.679688 C 149.417969 231.609375 149.992188 232.566406 150.519531 233.550781 C 151.042969 234.535156 151.519531 235.542969 151.949219 236.574219 C 152.375 237.605469 152.75 238.65625 153.074219 239.726562 C 153.398438 240.792969 153.671875 241.875 153.886719 242.96875 C 154.105469 244.066406 154.269531 245.167969 154.378906 246.28125 C 154.488281 247.390625 154.542969 248.503906 154.542969 249.621094 C 154.542969 250.738281 154.488281 251.851562 154.378906 252.960938 C 154.269531 254.074219 154.105469 255.175781 153.890625 256.273438 C 153.671875 257.367188 153.398438 258.449219 153.074219 259.515625 C 152.75 260.585938 152.375 261.636719 151.949219 262.667969 C 151.523438 263.699219 151.046875 264.707031 150.519531 265.691406 C 149.992188 266.675781 149.417969 267.632812 148.800781 268.5625 C 148.179688 269.488281 147.515625 270.382812 146.804688 271.246094 C 146.097656 272.109375 145.347656 272.9375 144.558594 273.726562 C 143.769531 274.515625 142.945312 275.265625 142.082031 275.972656 C 141.21875 276.679688 140.320312 277.347656 139.394531 277.964844 C 138.464844 278.585938 137.507812 279.160156 136.523438 279.6875 C 135.539062 280.210938 134.53125 280.6875 133.5 281.117188 C 132.46875 281.542969 131.417969 281.917969 130.351562 282.242188 C 129.28125 282.566406 128.199219 282.839844 127.105469 283.054688 C 126.011719 283.273438 124.90625 283.4375 123.796875 283.546875 C 122.683594 283.65625 121.570312 283.710938 120.453125 283.710938 C 119.339844 283.710938 118.222656 283.65625 117.113281 283.546875 C 116 283.4375 114.898438 283.273438 113.804688 283.058594 C 112.707031 282.839844 111.628906 282.566406 110.558594 282.242188 C 109.492188 281.921875 108.441406 281.542969 107.410156 281.117188 C 106.378906 280.691406 105.371094 280.214844 104.382812 279.6875 C 103.398438 279.160156 102.445312 278.585938 101.515625 277.96875 C 100.585938 277.347656 99.691406 276.683594 98.828125 275.972656 C 97.964844 275.265625 97.136719 274.515625 96.347656 273.726562 C 95.558594 272.9375 94.8125 272.113281 94.101562 271.25 C 93.394531 270.386719 92.730469 269.488281 92.109375 268.5625 C 91.488281 267.632812 90.914062 266.675781 90.390625 265.691406 C 89.863281 264.707031 89.386719 263.699219 88.960938 262.667969 C 88.53125 261.636719 88.15625 260.585938 87.832031 259.519531 C 87.507812 258.449219 87.238281 257.367188 87.019531 256.273438 C 86.800781 255.179688 86.636719 254.074219 86.527344 252.964844 C 86.417969 251.851562 86.363281 250.738281 86.363281 249.621094 C 86.363281 248.503906 86.417969 247.390625 86.527344 246.28125 C 86.636719 245.167969 86.800781 244.066406 87.019531 242.972656 C 87.238281 241.875 87.507812 240.792969 87.832031 239.726562 C 88.15625 238.65625 88.53125 237.609375 88.957031 236.578125 C 89.386719 235.542969 89.863281 234.535156 90.390625 233.550781 C 90.914062 232.566406 91.488281 231.609375 92.109375 230.683594 C 92.730469 229.753906 93.394531 228.859375 94.101562 227.996094 C 94.808594 227.132812 95.558594 226.304688 96.347656 225.515625 C 97.136719 224.726562 97.964844 223.976562 98.828125 223.269531 C 99.691406 222.5625 100.585938 221.898438 101.515625 221.277344 C 102.441406 220.65625 103.398438 220.082031 104.382812 219.558594 C 105.367188 219.03125 106.375 218.554688 107.40625 218.125 C 108.4375 217.699219 109.488281 217.324219 110.558594 217 C 111.625 216.675781 112.707031 216.40625 113.800781 216.1875 C 114.898438 215.96875 116 215.804688 117.113281 215.695312 C 118.222656 215.585938 119.335938 215.53125 120.453125 215.53125 C 121.570312 215.53125 122.683594 215.585938 123.792969 215.695312 C 124.90625 215.804688 126.007812 215.96875 127.105469 216.1875 C 128.199219 216.402344 129.28125 216.675781 130.347656 217 C 131.417969 217.324219 132.46875 217.699219 133.5 218.125 C 134.53125 218.554688 135.539062 219.03125 136.523438 219.554688 C 137.507812 220.082031 138.464844 220.65625 139.394531 221.277344 C 140.320312 221.898438 141.214844 222.5625 142.078125 223.269531 C 142.941406 223.976562 143.769531 224.726562 144.558594 225.515625 Z M 144.558594 225.515625 " fill-opacity="1" fill-rule="nonzero"/><path fill="#808285" d="M 176.441406 216.804688 C 177.277344 217.234375 178.09375 217.707031 178.886719 218.21875 C 179.679688 218.730469 180.445312 219.277344 181.183594 219.867188 C 181.921875 220.453125 182.632812 221.074219 183.308594 221.730469 C 183.984375 222.386719 184.628906 223.074219 185.238281 223.792969 C 185.851562 224.515625 186.421875 225.261719 186.960938 226.039062 C 187.496094 226.8125 187.992188 227.613281 188.449219 228.441406 C 188.910156 229.265625 189.324219 230.109375 189.699219 230.976562 C 190.074219 231.839844 190.40625 232.722656 190.695312 233.621094 C 190.980469 234.519531 191.226562 235.429688 191.425781 236.351562 C 191.621094 237.273438 191.777344 238.203125 191.882812 239.140625 C 191.992188 240.078125 192.050781 241.019531 192.066406 241.960938 C 192.082031 242.90625 192.050781 243.847656 191.972656 244.789062 C 191.894531 245.726562 191.773438 246.664062 191.601562 247.589844 C 191.433594 248.519531 191.21875 249.4375 190.957031 250.34375 C 190.699219 251.25 190.394531 252.140625 190.050781 253.019531 C 189.703125 253.894531 189.3125 254.753906 188.878906 255.59375 C 188.449219 256.433594 187.976562 257.25 187.464844 258.039062 C 186.953125 258.832031 186.40625 259.597656 185.820312 260.335938 C 185.230469 261.078125 184.609375 261.785156 183.953125 262.460938 C 183.296875 263.140625 182.609375 263.785156 181.890625 264.394531 C 181.167969 265.003906 180.421875 265.578125 179.644531 266.113281 C 178.871094 266.648438 178.070312 267.144531 177.246094 267.605469 C 176.417969 268.0625 175.574219 268.476562 174.707031 268.851562 C 173.84375 269.226562 172.960938 269.558594 172.0625 269.847656 C 171.164062 270.136719 170.253906 270.378906 169.332031 270.578125 C 168.410156 270.777344 167.480469 270.929688 166.542969 271.035156 C 165.605469 271.144531 164.664062 271.207031 163.722656 271.21875 C 162.777344 271.234375 161.835938 271.203125 160.894531 271.125 C 159.957031 271.046875 159.023438 270.925781 158.09375 270.753906 C 157.164062 270.585938 156.25 270.371094 155.339844 270.113281 C 154.433594 269.851562 153.542969 269.550781 152.664062 269.203125 C 151.789062 268.855469 150.929688 268.464844 150.089844 268.035156 C 149.253906 267.601562 148.4375 267.132812 147.644531 266.621094 C 146.851562 266.109375 146.085938 265.558594 145.347656 264.972656 C 144.609375 264.386719 143.898438 263.761719 143.222656 263.105469 C 142.546875 262.449219 141.902344 261.761719 141.292969 261.042969 C 140.679688 260.324219 140.109375 259.574219 139.570312 258.800781 C 139.035156 258.023438 138.539062 257.222656 138.082031 256.398438 C 137.621094 255.574219 137.207031 254.726562 136.832031 253.863281 C 136.457031 252.996094 136.125 252.113281 135.835938 251.214844 C 135.550781 250.316406 135.304688 249.40625 135.105469 248.484375 C 134.910156 247.5625 134.753906 246.632812 134.648438 245.695312 C 134.539062 244.757812 134.480469 243.816406 134.464844 242.875 C 134.449219 241.929688 134.480469 240.988281 134.558594 240.050781 C 134.636719 239.109375 134.757812 238.175781 134.929688 237.246094 C 135.097656 236.320312 135.3125 235.402344 135.574219 234.496094 C 135.832031 233.585938 136.136719 232.695312 136.484375 231.816406 C 136.828125 230.941406 137.21875 230.082031 137.652344 229.242188 C 138.082031 228.40625 138.554688 227.589844 139.066406 226.796875 C 139.578125 226.003906 140.125 225.238281 140.710938 224.5 C 141.300781 223.761719 141.921875 223.054688 142.578125 222.375 C 143.234375 221.699219 143.921875 221.054688 144.640625 220.445312 C 145.363281 219.835938 146.109375 219.261719 146.886719 218.722656 C 147.660156 218.1875 148.460938 217.691406 149.285156 217.234375 C 150.113281 216.773438 150.957031 216.359375 151.824219 215.984375 C 152.6875 215.609375 153.570312 215.277344 154.46875 214.988281 C 155.367188 214.703125 156.277344 214.457031 157.199219 214.257812 C 158.121094 214.0625 159.050781 213.90625 159.988281 213.800781 C 160.925781 213.695312 161.867188 213.632812 162.808594 213.617188 C 163.753906 213.601562 164.695312 213.632812 165.636719 213.710938 C 166.574219 213.789062 167.507812 213.914062 168.4375 214.082031 C 169.367188 214.25 170.28125 214.464844 171.191406 214.726562 C 172.097656 214.984375 172.988281 215.289062 173.867188 215.636719 C 174.742188 215.980469 175.601562 216.371094 176.441406 216.804688 Z M 176.441406 216.804688 " fill-opacity="1" fill-rule="nonzero"/><path fill="#939598" d="M 316.167969 201.828125 C 316.765625 203.070312 317.300781 204.335938 317.777344 205.628906 C 318.25 206.925781 318.660156 208.238281 319.003906 209.574219 C 319.347656 210.90625 319.628906 212.253906 319.839844 213.617188 C 320.050781 214.976562 320.199219 216.347656 320.277344 217.722656 C 320.355469 219.097656 320.363281 220.472656 320.308594 221.851562 C 320.25 223.226562 320.125 224.597656 319.933594 225.960938 C 319.742188 227.328125 319.484375 228.679688 319.15625 230.019531 C 318.832031 231.355469 318.441406 232.675781 317.988281 233.976562 C 317.535156 235.277344 317.015625 236.554688 316.4375 237.804688 C 315.859375 239.054688 315.21875 240.273438 314.519531 241.460938 C 313.820312 242.648438 313.0625 243.796875 312.25 244.910156 C 311.4375 246.023438 310.574219 247.09375 309.65625 248.121094 C 308.738281 249.148438 307.773438 250.128906 306.757812 251.0625 C 305.742188 251.996094 304.6875 252.875 303.585938 253.707031 C 302.484375 254.535156 301.347656 255.308594 300.167969 256.027344 C 298.992188 256.742188 297.785156 257.402344 296.542969 258 C 295.300781 258.597656 294.035156 259.132812 292.742188 259.609375 C 291.445312 260.082031 290.132812 260.492188 288.796875 260.835938 C 287.464844 261.179688 286.117188 261.460938 284.753906 261.671875 C 283.394531 261.882812 282.023438 262.027344 280.648438 262.105469 C 279.273438 262.183594 277.898438 262.195312 276.519531 262.136719 C 275.144531 262.082031 273.773438 261.957031 272.410156 261.765625 C 271.042969 261.570312 269.691406 261.3125 268.355469 260.988281 C 267.015625 260.664062 265.695312 260.273438 264.394531 259.820312 C 263.09375 259.367188 261.816406 258.847656 260.566406 258.269531 C 259.316406 257.6875 258.097656 257.050781 256.910156 256.351562 C 255.722656 255.648438 254.574219 254.894531 253.460938 254.082031 C 252.347656 253.269531 251.277344 252.402344 250.25 251.484375 C 249.222656 250.570312 248.242188 249.601562 247.308594 248.589844 C 246.375 247.574219 245.496094 246.515625 244.664062 245.417969 C 243.835938 244.316406 243.0625 243.175781 242.347656 242 C 241.628906 240.824219 240.972656 239.617188 240.371094 238.375 C 239.773438 237.132812 239.238281 235.867188 238.765625 234.570312 C 238.289062 233.277344 237.878906 231.964844 237.535156 230.628906 C 237.191406 229.296875 236.914062 227.949219 236.699219 226.585938 C 236.488281 225.226562 236.34375 223.855469 236.265625 222.480469 C 236.1875 221.105469 236.175781 219.726562 236.234375 218.351562 C 236.289062 216.976562 236.414062 215.605469 236.609375 214.238281 C 236.800781 212.875 237.058594 211.523438 237.382812 210.183594 C 237.707031 208.84375 238.097656 207.523438 238.550781 206.222656 C 239.007812 204.921875 239.523438 203.648438 240.101562 202.398438 C 240.683594 201.148438 241.324219 199.929688 242.023438 198.742188 C 242.722656 197.554688 243.476562 196.40625 244.289062 195.292969 C 245.101562 194.179688 245.96875 193.109375 246.886719 192.082031 C 247.804688 191.054688 248.769531 190.074219 249.78125 189.140625 C 250.796875 188.207031 251.855469 187.324219 252.953125 186.496094 C 254.054688 185.667969 255.195312 184.894531 256.371094 184.175781 C 257.546875 183.460938 258.757812 182.800781 259.996094 182.203125 C 261.238281 181.605469 262.503906 181.070312 263.800781 180.59375 C 265.09375 180.121094 266.40625 179.710938 267.742188 179.367188 C 269.074219 179.023438 270.421875 178.742188 271.785156 178.53125 C 273.144531 178.316406 274.515625 178.171875 275.890625 178.09375 C 277.265625 178.015625 278.644531 178.007812 280.019531 178.0625 C 281.394531 178.121094 282.765625 178.246094 284.132812 178.4375 C 285.496094 178.628906 286.847656 178.886719 288.1875 179.214844 C 289.527344 179.539062 290.847656 179.925781 292.148438 180.382812 C 293.449219 180.835938 294.722656 181.355469 295.972656 181.933594 C 297.222656 182.511719 298.441406 183.152344 299.628906 183.851562 C 300.816406 184.550781 301.964844 185.308594 303.078125 186.121094 C 304.191406 186.933594 305.261719 187.796875 306.289062 188.714844 C 307.316406 189.632812 308.296875 190.597656 309.230469 191.613281 C 310.164062 192.628906 311.046875 193.683594 311.875 194.785156 C 312.703125 195.886719 313.476562 197.023438 314.195312 198.199219 C 314.910156 199.378906 315.570312 200.585938 316.167969 201.828125 Z M 316.167969 201.828125 " fill-opacity="1" fill-rule="nonzero"/><path fill="#808285" d="M 319.484375 211.59375 C 317.085938 199.964844 310.105469 190.457031 300.816406 184.5625 C 303.460938 188.734375 305.40625 193.449219 306.460938 198.570312 C 311.152344 221.328125 296.507812 243.582031 273.75 248.273438 C 262.621094 250.570312 251.609375 248.234375 242.714844 242.589844 C 251.808594 256.957031 269.136719 264.929688 286.773438 261.296875 C 309.53125 256.601562 324.175781 234.351562 319.484375 211.59375 Z M 319.484375 211.59375 " fill-opacity="1" fill-rule="nonzero"/><path fill="#58595b" d="M 319.484375 211.59375 C 317.425781 201.613281 311.992188 193.195312 304.621094 187.28125 C 308.652344 192.308594 311.582031 198.339844 312.972656 205.082031 C 317.664062 227.839844 303.019531 250.089844 280.261719 254.785156 C 267.480469 257.417969 254.863281 253.957031 245.421875 246.382812 C 254.992188 258.320312 270.757812 264.597656 286.773438 261.296875 C 309.53125 256.601562 324.175781 234.351562 319.484375 211.59375 Z M 319.484375 211.59375 " fill-opacity="1" fill-rule="nonzero"/><path fill="#808285" d="M 310.386719 173.714844 C 310.664062 174.285156 310.910156 174.867188 311.128906 175.464844 C 311.34375 176.058594 311.535156 176.664062 311.691406 177.277344 C 311.851562 177.890625 311.980469 178.507812 312.078125 179.136719 C 312.175781 179.761719 312.242188 180.390625 312.277344 181.023438 C 312.3125 181.65625 312.316406 182.289062 312.292969 182.921875 C 312.265625 183.554688 312.207031 184.1875 312.117188 184.8125 C 312.03125 185.441406 311.910156 186.0625 311.761719 186.679688 C 311.613281 187.292969 311.433594 187.902344 311.226562 188.5 C 311.015625 189.097656 310.777344 189.683594 310.511719 190.257812 C 310.246094 190.835938 309.949219 191.394531 309.628906 191.941406 C 309.308594 192.488281 308.960938 193.015625 308.585938 193.527344 C 308.210938 194.039062 307.816406 194.53125 307.390625 195.003906 C 306.96875 195.476562 306.527344 195.929688 306.058594 196.355469 C 305.59375 196.785156 305.105469 197.191406 304.601562 197.574219 C 304.09375 197.953125 303.570312 198.308594 303.03125 198.640625 C 302.488281 198.96875 301.933594 199.273438 301.363281 199.546875 C 300.792969 199.824219 300.207031 200.070312 299.613281 200.285156 C 299.019531 200.503906 298.414062 200.691406 297.800781 200.851562 C 297.1875 201.011719 296.566406 201.136719 295.941406 201.234375 C 295.316406 201.332031 294.6875 201.402344 294.054688 201.4375 C 293.421875 201.472656 292.789062 201.476562 292.15625 201.449219 C 291.519531 201.425781 290.890625 201.367188 290.261719 201.277344 C 289.636719 201.191406 289.015625 201.070312 288.398438 200.921875 C 287.78125 200.773438 287.175781 200.59375 286.578125 200.382812 C 285.980469 200.175781 285.390625 199.9375 284.816406 199.671875 C 284.242188 199.40625 283.683594 199.109375 283.136719 198.789062 C 282.589844 198.46875 282.0625 198.121094 281.550781 197.746094 C 281.039062 197.371094 280.546875 196.972656 280.074219 196.550781 C 279.601562 196.128906 279.148438 195.6875 278.71875 195.21875 C 278.289062 194.753906 277.886719 194.265625 277.503906 193.761719 C 277.125 193.253906 276.769531 192.730469 276.4375 192.191406 C 276.109375 191.648438 275.804688 191.09375 275.53125 190.523438 C 275.253906 189.949219 275.007812 189.367188 274.789062 188.773438 C 274.574219 188.179688 274.382812 187.574219 274.226562 186.960938 C 274.066406 186.347656 273.9375 185.726562 273.839844 185.101562 C 273.742188 184.472656 273.675781 183.84375 273.640625 183.210938 C 273.605469 182.578125 273.601562 181.945312 273.625 181.3125 C 273.652344 180.679688 273.710938 180.050781 273.796875 179.421875 C 273.886719 178.796875 274.003906 178.171875 274.15625 177.558594 C 274.304688 176.941406 274.484375 176.335938 274.691406 175.738281 C 274.902344 175.136719 275.140625 174.550781 275.40625 173.976562 C 275.671875 173.402344 275.96875 172.839844 276.289062 172.296875 C 276.609375 171.75 276.957031 171.21875 277.332031 170.707031 C 277.707031 170.195312 278.101562 169.703125 278.523438 169.230469 C 278.945312 168.757812 279.390625 168.308594 279.859375 167.878906 C 280.324219 167.449219 280.808594 167.046875 281.316406 166.664062 C 281.824219 166.28125 282.347656 165.925781 282.886719 165.597656 C 283.429688 165.265625 283.984375 164.964844 284.554688 164.6875 C 285.125 164.414062 285.710938 164.167969 286.304688 163.949219 C 286.898438 163.730469 287.503906 163.542969 288.117188 163.382812 C 288.730469 163.226562 289.351562 163.097656 289.976562 163 C 290.601562 162.902344 291.230469 162.835938 291.863281 162.800781 C 292.496094 162.765625 293.128906 162.757812 293.761719 162.785156 C 294.398438 162.8125 295.027344 162.871094 295.65625 162.957031 C 296.28125 163.046875 296.902344 163.164062 297.519531 163.3125 C 298.136719 163.464844 298.742188 163.644531 299.339844 163.851562 C 299.9375 164.0625 300.523438 164.296875 301.101562 164.566406 C 301.675781 164.832031 302.234375 165.125 302.78125 165.449219 C 303.328125 165.769531 303.855469 166.117188 304.367188 166.492188 C 304.878906 166.863281 305.371094 167.261719 305.84375 167.683594 C 306.316406 168.105469 306.769531 168.550781 307.199219 169.015625 C 307.625 169.484375 308.03125 169.96875 308.414062 170.476562 C 308.792969 170.980469 309.148438 171.503906 309.480469 172.046875 C 309.808594 172.585938 310.113281 173.144531 310.386719 173.714844 Z M 310.386719 173.714844 " fill-opacity="1" fill-rule="nonzero"/><path fill="#808285" d="M 169.171875 35.707031 C 170.097656 36.777344 170.964844 37.894531 171.78125 39.050781 C 172.597656 40.207031 173.351562 41.402344 174.050781 42.632812 C 174.746094 43.867188 175.382812 45.128906 175.957031 46.421875 C 176.53125 47.714844 177.039062 49.035156 177.484375 50.378906 C 177.925781 51.722656 178.304688 53.085938 178.613281 54.464844 C 178.925781 55.847656 179.164062 57.238281 179.339844 58.644531 C 179.511719 60.046875 179.617188 61.457031 179.652344 62.871094 C 179.6875 64.289062 179.652344 65.699219 179.546875 67.113281 C 179.445312 68.523438 179.273438 69.925781 179.03125 71.320312 C 178.789062 72.714844 178.480469 74.09375 178.101562 75.457031 C 177.722656 76.820312 177.28125 78.160156 176.773438 79.480469 C 176.261719 80.800781 175.691406 82.09375 175.054688 83.355469 C 174.417969 84.617188 173.722656 85.847656 172.964844 87.042969 C 172.207031 88.238281 171.394531 89.394531 170.523438 90.507812 C 169.65625 91.625 168.730469 92.691406 167.757812 93.71875 C 166.78125 94.742188 165.757812 95.714844 164.6875 96.640625 C 163.617188 97.5625 162.5 98.429688 161.34375 99.246094 C 160.1875 100.058594 158.996094 100.816406 157.761719 101.511719 C 156.53125 102.207031 155.269531 102.84375 153.976562 103.414062 C 152.683594 103.988281 151.367188 104.496094 150.023438 104.9375 C 148.679688 105.382812 147.316406 105.757812 145.9375 106.066406 C 144.554688 106.375 143.164062 106.617188 141.757812 106.789062 C 140.355469 106.960938 138.945312 107.0625 137.53125 107.097656 C 136.117188 107.132812 134.703125 107.097656 133.292969 106.992188 C 131.882812 106.886719 130.480469 106.710938 129.085938 106.46875 C 127.691406 106.226562 126.3125 105.917969 124.949219 105.539062 C 123.585938 105.160156 122.242188 104.714844 120.921875 104.207031 C 119.605469 103.695312 118.3125 103.121094 117.046875 102.484375 C 115.785156 101.847656 114.554688 101.152344 113.359375 100.394531 C 112.164062 99.636719 111.007812 98.820312 109.890625 97.949219 C 108.777344 97.078125 107.707031 96.152344 106.683594 95.175781 C 105.65625 94.203125 104.683594 93.175781 103.757812 92.105469 C 102.835938 91.03125 101.964844 89.917969 101.148438 88.761719 C 100.335938 87.601562 99.578125 86.410156 98.882812 85.175781 C 98.183594 83.945312 97.546875 82.683594 96.976562 81.390625 C 96.402344 80.09375 95.890625 78.777344 95.449219 77.433594 C 95.003906 76.089844 94.628906 74.726562 94.316406 73.34375 C 94.007812 71.964844 93.765625 70.570312 93.589844 69.167969 C 93.417969 67.761719 93.3125 66.351562 93.277344 64.9375 C 93.246094 63.523438 93.277344 62.109375 93.382812 60.699219 C 93.488281 59.289062 93.660156 57.886719 93.902344 56.492188 C 94.144531 55.097656 94.453125 53.71875 94.828125 52.355469 C 95.207031 50.992188 95.648438 49.652344 96.160156 48.332031 C 96.667969 47.011719 97.238281 45.71875 97.875 44.457031 C 98.511719 43.191406 99.207031 41.964844 99.964844 40.769531 C 100.722656 39.574219 101.535156 38.417969 102.40625 37.304688 C 103.277344 36.1875 104.199219 35.117188 105.175781 34.09375 C 106.148438 33.070312 107.171875 32.097656 108.246094 31.171875 C 109.316406 30.25 110.429688 29.378906 111.585938 28.566406 C 112.742188 27.753906 113.9375 26.996094 115.167969 26.300781 C 116.398438 25.605469 117.660156 24.96875 118.953125 24.394531 C 120.246094 23.824219 121.566406 23.316406 122.910156 22.871094 C 124.253906 22.429688 125.613281 22.054688 126.996094 21.746094 C 128.375 21.4375 129.765625 21.195312 131.171875 21.023438 C 132.574219 20.851562 133.984375 20.746094 135.398438 20.714844 C 136.8125 20.679688 138.226562 20.714844 139.636719 20.820312 C 141.046875 20.925781 142.449219 21.097656 143.84375 21.339844 C 145.238281 21.585938 146.617188 21.894531 147.980469 22.273438 C 149.34375 22.652344 150.6875 23.097656 152.007812 23.605469 C 153.328125 24.117188 154.617188 24.691406 155.882812 25.328125 C 157.148438 25.964844 158.375 26.660156 159.570312 27.417969 C 160.765625 28.175781 161.921875 28.992188 163.039062 29.863281 C 164.152344 30.734375 165.222656 31.65625 166.25 32.632812 C 167.273438 33.609375 168.25 34.632812 169.171875 35.707031 Z M 169.171875 35.707031 " fill-opacity="1" fill-rule="nonzero"/><path fill="#808285" d="M 131.277344 65.816406 C 132.199219 66.886719 133.070312 68.003906 133.886719 69.160156 C 134.699219 70.316406 135.457031 71.511719 136.15625 72.742188 C 136.851562 73.976562 137.488281 75.238281 138.0625 76.53125 C 138.636719 77.824219 139.144531 79.144531 139.589844 80.488281 C 140.035156 81.832031 140.410156 83.195312 140.722656 84.574219 C 141.03125 85.957031 141.273438 87.347656 141.449219 88.753906 C 141.621094 90.15625 141.726562 91.566406 141.761719 92.980469 C 141.796875 94.394531 141.761719 95.808594 141.660156 97.21875 C 141.554688 98.628906 141.382812 100.035156 141.140625 101.425781 C 140.898438 102.820312 140.589844 104.199219 140.214844 105.5625 C 139.835938 106.925781 139.394531 108.269531 138.886719 109.589844 C 138.375 110.910156 137.804688 112.199219 137.167969 113.464844 C 136.53125 114.726562 135.835938 115.957031 135.078125 117.152344 C 134.324219 118.347656 133.511719 119.503906 132.640625 120.617188 C 131.769531 121.734375 130.847656 122.804688 129.871094 123.828125 C 128.898438 124.851562 127.875 125.824219 126.800781 126.75 C 125.730469 127.671875 124.617188 128.542969 123.460938 129.355469 C 122.304688 130.171875 121.109375 130.925781 119.878906 131.625 C 118.648438 132.320312 117.386719 132.957031 116.09375 133.527344 C 114.800781 134.101562 113.484375 134.609375 112.140625 135.050781 C 110.796875 135.496094 109.433594 135.871094 108.054688 136.179688 C 106.671875 136.492188 105.28125 136.730469 103.878906 136.90625 C 102.472656 137.078125 101.0625 137.179688 99.648438 137.214844 C 98.234375 137.25 96.824219 137.214844 95.410156 137.109375 C 94 137.003906 92.597656 136.832031 91.203125 136.585938 C 89.808594 136.34375 88.429688 136.035156 87.066406 135.65625 C 85.703125 135.277344 84.359375 134.835938 83.042969 134.324219 C 81.722656 133.816406 80.429688 133.242188 79.164062 132.605469 C 77.902344 131.96875 76.671875 131.269531 75.476562 130.511719 C 74.28125 129.757812 73.125 128.941406 72.007812 128.070312 C 70.894531 127.199219 69.824219 126.277344 68.796875 125.300781 C 67.773438 124.324219 66.796875 123.300781 65.875 122.226562 C 64.949219 121.15625 64.078125 120.042969 63.265625 118.882812 C 62.449219 117.726562 61.691406 116.53125 60.996094 115.300781 C 60.296875 114.070312 59.660156 112.808594 59.085938 111.511719 C 58.515625 110.21875 58.003906 108.898438 57.558594 107.554688 C 57.117188 106.210938 56.738281 104.851562 56.429688 103.46875 C 56.117188 102.089844 55.875 100.695312 55.703125 99.292969 C 55.527344 97.886719 55.425781 96.476562 55.390625 95.0625 C 55.355469 93.648438 55.386719 92.234375 55.492188 90.824219 C 55.59375 89.414062 55.769531 88.011719 56.007812 86.617188 C 56.25 85.222656 56.558594 83.84375 56.9375 82.480469 C 57.3125 81.117188 57.757812 79.773438 58.265625 78.457031 C 58.773438 77.136719 59.347656 75.84375 59.980469 74.578125 C 60.617188 73.316406 61.3125 72.085938 62.070312 70.890625 C 62.828125 69.695312 63.640625 68.542969 64.511719 67.425781 C 65.378906 66.3125 66.304688 65.242188 67.277344 64.21875 C 68.253906 63.191406 69.277344 62.21875 70.347656 61.292969 C 71.417969 60.371094 72.53125 59.5 73.6875 58.6875 C 74.84375 57.875 76.039062 57.117188 77.269531 56.421875 C 78.5 55.722656 79.761719 55.089844 81.054688 54.515625 C 82.347656 53.945312 83.667969 53.433594 85.011719 52.992188 C 86.355469 52.546875 87.714844 52.171875 89.097656 51.863281 C 90.476562 51.554688 91.867188 51.3125 93.273438 51.140625 C 94.675781 50.96875 96.085938 50.863281 97.5 50.828125 C 98.914062 50.796875 100.328125 50.832031 101.738281 50.9375 C 103.148438 51.039062 104.550781 51.214844 105.945312 51.457031 C 107.339844 51.699219 108.71875 52.007812 110.082031 52.386719 C 111.445312 52.765625 112.789062 53.210938 114.109375 53.71875 C 115.429688 54.230469 116.722656 54.800781 117.984375 55.4375 C 119.25 56.074219 120.480469 56.773438 121.675781 57.53125 C 122.871094 58.289062 124.027344 59.101562 125.140625 59.972656 C 126.257812 60.84375 127.328125 61.769531 128.351562 62.746094 C 129.378906 63.722656 130.351562 64.746094 131.277344 65.816406 Z M 131.277344 65.816406 " fill-opacity="1" fill-rule="nonzero"/><path fill="#939598" d="M 98.636719 132.019531 C 97.191406 132.019531 96.03125 130.847656 96.03125 129.414062 C 96.03125 127.96875 97.191406 126.8125 98.636719 126.8125 L 98.648438 126.8125 C 100.082031 126.8125 101.238281 127.984375 101.238281 129.414062 C 101.238281 130.835938 100.082031 132.007812 98.648438 132.007812 C 98.648438 132.019531 98.636719 132.019531 98.636719 132.019531 Z M 88.363281 130.496094 C 88.113281 130.496094 87.851562 130.457031 87.605469 130.378906 C 80.707031 128.296875 74.558594 124.3125 69.84375 118.839844 C 63.867188 111.941406 60.574219 103.125 60.574219 94.035156 C 60.574219 93.046875 60.613281 92.109375 60.691406 91.222656 C 61.421875 81.105469 66.042969 71.875 73.726562 65.246094 C 79.925781 59.894531 87.503906 56.746094 95.640625 56.132812 L 99.15625 55.859375 L 100.210938 52.488281 C 102.320312 45.769531 106.265625 39.765625 111.617188 35.144531 C 118.503906 29.191406 127.308594 25.910156 136.410156 25.910156 C 147.476562 25.910156 157.972656 30.714844 165.199219 39.089844 C 165.652344 39.609375 165.875 40.285156 165.820312 40.976562 C 165.785156 41.667969 165.457031 42.304688 164.9375 42.761719 C 163.882812 43.660156 162.164062 43.527344 161.265625 42.488281 C 155.015625 35.261719 145.964844 31.121094 136.40625 31.121094 C 128.570312 31.121094 120.964844 33.945312 115.015625 39.089844 C 110.390625 43.074219 106.992188 48.253906 105.183594 54.050781 L 103.59375 59.101562 C 103.28125 60.128906 102.382812 60.847656 101.316406 60.925781 L 96.027344 61.328125 C 89.011719 61.863281 82.472656 64.582031 77.136719 69.191406 C 70.519531 74.910156 66.523438 82.878906 65.871094 91.628906 C 65.820312 92.394531 65.78125 93.203125 65.78125 94.035156 C 65.796875 101.980469 68.554688 109.386719 73.777344 115.441406 C 77.851562 120.144531 83.136719 123.59375 89.101562 125.390625 C 89.101562 125.390625 89.117188 125.390625 89.117188 125.40625 C 90.496094 125.820312 91.265625 127.265625 90.863281 128.648438 C 90.523438 129.753906 89.519531 130.496094 88.363281 130.496094 Z M 88.363281 130.496094 " fill-opacity="1" fill-rule="nonzero"/></svg>