<svg xmlns="http://www.w3.org/2000/svg" xmlns:xlink="http://www.w3.org/1999/xlink" width="500" zoomAndPan="magnify" viewBox="0 0 375 299.999988" height="400" preserveAspectRatio="xMidYMid meet" version="1.0"><defs><clipPath id="c1d21c0f67"><path d="M 3.933594 143.246094 L 96.359375 143.246094 L 96.359375 283.578125 L 3.933594 283.578125 Z M 3.933594 143.246094 " clip-rule="nonzero"/></clipPath><clipPath id="e064fcb0e0"><path d="M 246.238281 116.589844 L 371.308594 116.589844 L 371.308594 270.289062 L 246.238281 270.289062 Z M 246.238281 116.589844 " clip-rule="nonzero"/></clipPath><clipPath id="4b205e8f32"><path d="M 315 73.269531 L 371.308594 73.269531 L 371.308594 134.082031 L 315 134.082031 Z M 315 73.269531 " clip-rule="nonzero"/></clipPath></defs><path fill="#329250" d="M 96.386719 194.4375 L 95.753906 205.675781 L 67.175781 160.550781 C 67.171875 160.386719 67.164062 160.226562 67.15625 160.0625 C 66.753906 150.074219 74.984375 142.628906 84.382812 144.476562 L 121.792969 150.484375 L 118.726562 181.066406 L 107.421875 182.550781 C 101.367188 183.34375 96.730469 188.339844 96.386719 194.4375 " fill-opacity="1" fill-rule="nonzero"/><path fill="#f78e75" d="M 121.792969 150.484375 L 137.394531 152.992188 L 142.359375 100.316406 C 142.179688 98.402344 142.367188 96.476562 142.910156 94.730469 L 147.535156 79.925781 C 148.265625 77.582031 148.394531 75.046875 147.917969 72.550781 L 146.78125 66.664062 C 146.023438 62.746094 149.292969 59.496094 153.039062 60.5 C 157.007812 61.5625 160.804688 63.5625 164.074219 66.335938 C 169.980469 71.34375 172.160156 79.234375 169.328125 85.355469 C 169.328125 85.355469 168.351562 87.59375 167.101562 90.421875 C 164.1875 97.023438 162.695312 104.167969 162.734375 111.386719 L 161.742188 167.785156 C 161.597656 175.875 155.074219 182.414062 146.988281 182.511719 C 138.835938 182.613281 128.785156 182 118.726562 181.066406 L 121.792969 150.484375 " fill-opacity="1" fill-rule="nonzero"/><g clip-path="url(#c1d21c0f67)"><path fill="#3ea962" d="M 78.226562 143.484375 L 28.558594 143.429688 C 13.660156 146.929688 3.625 160.035156 3.9375 175.578125 L 5.453125 250.171875 C 5.707031 262.691406 14.539062 273.386719 26.777344 276 L 67.113281 283.234375 C 77.292969 285.464844 88.054688 277.5 89.296875 266.820312 L 94.050781 225.972656 C 96.136719 208.054688 96.675781 190.175781 95.664062 172.535156 C 94.820312 157.851562 94.683594 143.515625 78.226562 143.484375 " fill-opacity="1" fill-rule="nonzero"/></g><path fill="#f78e75" d="M 43.347656 112.742188 L 44.765625 112.917969 C 53.625 114.003906 59.96875 122.007812 59.011719 130.886719 L 57.082031 148.816406 C 56.679688 152.578125 55.566406 156.226562 53.800781 159.574219 C 51.667969 163.625 46.292969 164.582031 42.890625 161.515625 L 32.460938 152.117188 C 29.554688 149.5 27.984375 145.710938 28.1875 141.804688 L 27.613281 121.085938 L 31.585938 115.765625 L 43.347656 112.742188 " fill-opacity="1" fill-rule="nonzero"/><path fill="#f36920" d="M 73.34375 83.429688 C 71.6875 75.644531 65.476562 69.617188 57.652344 68.171875 C 38.273438 64.601562 39.234375 64.730469 39.234375 64.730469 C 31.839844 63.554688 25.226562 67.328125 21.871094 72.703125 C 21.199219 73.78125 20.390625 74.730469 19.476562 75.542969 C 15.3125 79.238281 12.164062 83.929688 11.394531 89.441406 L 11.390625 89.488281 C 10.410156 96.519531 12.136719 103.660156 16.21875 109.46875 L 20.441406 115.476562 C 23.925781 120.433594 30.480469 122.140625 35.941406 119.515625 L 69.304688 103.46875 C 70.273438 103.007812 71.316406 102.753906 72.351562 102.476562 L 73.671875 89.523438 C 73.882812 87.488281 73.769531 85.433594 73.34375 83.429688 " fill-opacity="1" fill-rule="nonzero"/><path fill="#f78e75" d="M 27.761719 115.734375 L 25.910156 98.734375 C 25.824219 92.339844 30.417969 86.84375 36.726562 85.796875 L 56.359375 82.539062 C 61.519531 81.683594 66.867188 83.9375 69.429688 88.5 C 71.050781 91.382812 72.136719 94.636719 72.539062 98.152344 L 75.035156 120.109375 C 76.210938 130.449219 69.027344 139.878906 58.75 141.488281 C 49.230469 142.972656 39.566406 139.882812 32.675781 133.144531 C 29.90625 130.433594 28.269531 126.777344 28.089844 122.910156 L 27.761719 115.734375 " fill-opacity="1" fill-rule="nonzero"/><path fill="#f78e75" d="M 28.792969 125.054688 C 24.425781 126.425781 19.191406 122.316406 16.910156 115.726562 C 15.292969 111.0625 16.839844 106.488281 20.113281 106.234375 C 22.683594 106.035156 25.433594 108.667969 26.53125 112.382812 L 29.535156 122.539062 C 29.882812 123.699219 29.550781 124.816406 28.792969 125.054688 " fill-opacity="1" fill-rule="nonzero"/><path fill="#f36920" d="M 74.746094 117.550781 C 74.457031 119.472656 73.019531 121.847656 70.992188 121.417969 C 69.28125 121.050781 69.09375 120.984375 66.816406 118.378906 C 63.667969 114.769531 47.46875 115.90625 44.792969 123.152344 C 44.167969 124.839844 43.707031 125.351562 42.160156 126.3125 C 37.730469 129.070312 29.53125 122.691406 26.929688 110.183594 C 26.484375 108.054688 26.578125 105.871094 23.84375 106.675781 C 24.878906 112.601562 24.953125 118.660156 25.941406 124.597656 C 27.488281 133.863281 32.480469 141.289062 40.777344 145.71875 C 47.65625 149.394531 57.695312 147.792969 64.621094 145.136719 C 68.625 143.601562 71.402344 141.027344 73.269531 137.800781 C 75.242188 134.378906 75.851562 130.335938 75.511719 126.402344 L 74.746094 117.550781 " fill-opacity="1" fill-rule="nonzero"/><path fill="#2c4da1" d="M 68.921875 101.722656 C 69.46875 103.144531 68.765625 104.738281 67.347656 105.285156 C 65.929688 105.832031 64.335938 105.128906 63.789062 103.707031 C 63.242188 102.292969 63.945312 100.695312 65.363281 100.148438 C 66.78125 99.601562 68.375 100.308594 68.921875 101.722656 " fill-opacity="1" fill-rule="nonzero"/><path fill="#2c4da1" d="M 45.890625 105.316406 C 46.464844 106.722656 45.796875 108.332031 44.386719 108.90625 C 42.980469 109.484375 41.375 108.8125 40.800781 107.402344 C 40.222656 106 40.894531 104.390625 42.300781 103.8125 C 43.707031 103.238281 45.316406 103.910156 45.890625 105.316406 " fill-opacity="1" fill-rule="nonzero"/><path fill="#ffffff" d="M 49.625 125.925781 C 48.265625 126.15625 47.820312 127.976562 48.871094 128.964844 C 51.734375 131.652344 55.644531 132.96875 59.613281 132.148438 C 63.261719 131.398438 66.1875 129.058594 67.949219 125.929688 C 68.707031 124.582031 67.574219 122.871094 66.113281 123.117188 L 49.625 125.925781 " fill-opacity="1" fill-rule="nonzero"/><path fill="#329250" d="M 59.109375 188.867188 C 55.398438 189.324219 51.777344 189.71875 48.355469 190.054688 C 36.039062 191.273438 24.308594 184.558594 19.128906 173.308594 L 18.039062 170.941406 C 14.902344 164.128906 19.558594 156.285156 27.039062 155.785156 L 50.535156 154.207031 L 59.109375 188.867188 " fill-opacity="1" fill-rule="nonzero"/><path fill="#e73152" d="M 227.785156 254.910156 C 220.292969 247.675781 218.246094 236.46875 222.699219 227.054688 L 248.152344 173.214844 C 249.914062 169.5 254.996094 169.070312 257.40625 172.402344 C 265.269531 183.261719 268.441406 197.003906 265.765625 210.386719 C 262.917969 224.617188 257.722656 239.214844 250.898438 251.964844 C 246.433594 260.308594 235.292969 262.152344 228.484375 255.582031 L 227.785156 254.910156 " fill-opacity="1" fill-rule="nonzero"/><path fill="#f04162" d="M 242.285156 216.257812 L 232.519531 179.957031 L 213.917969 184.742188 L 218.335938 236.527344 C 218.960938 243.84375 222.539062 250.347656 227.933594 254.804688 L 237.535156 241.691406 C 242.894531 234.375 244.640625 225.015625 242.285156 216.257812 " fill-opacity="1" fill-rule="nonzero"/><g clip-path="url(#e064fcb0e0)"><path fill="#f04162" d="M 347.859375 252.359375 C 346.445312 262.589844 337.703125 270.214844 327.375 270.214844 L 273.265625 270.214844 C 259.992188 270.214844 249.359375 259.058594 250.175781 245.808594 C 250.988281 232.65625 250.730469 218.320312 249.042969 204.535156 L 246.511719 183.835938 C 245.109375 172.34375 254.113281 160.148438 266.339844 156.976562 L 302.484375 147.609375 L 328.488281 154.839844 L 340.476562 116.914062 L 371.140625 134.003906 C 370.101562 146.507812 367.347656 159.488281 363.183594 171.464844 C 358.773438 184.132812 355.460938 197.152344 353.632812 210.441406 L 347.859375 252.359375 " fill-opacity="1" fill-rule="nonzero"/></g><path fill="#2c4da1" d="M 270.160156 82.351562 C 270.480469 82.117188 270.808594 81.90625 271.136719 81.691406 C 274.941406 76.46875 279.683594 72.394531 286.144531 70.160156 C 297.015625 66.398438 307.53125 73.554688 317.863281 81.261719 C 322.121094 84.4375 327.058594 86.582031 332.292969 87.484375 C 332.347656 87.496094 332.40625 87.503906 332.460938 87.515625 C 336.832031 88.265625 339.664062 92.566406 338.632812 96.882812 L 334.527344 114.070312 C 329.628906 134.578125 311.265625 149.242188 290.191406 148.945312 C 290.070312 148.945312 289.953125 148.941406 289.832031 148.9375 C 275.035156 148.679688 267.5625 137.738281 264.066406 124.425781 L 259.835938 101.109375 C 258.402344 93.203125 262.710938 85.371094 270.160156 82.351562 " fill-opacity="1" fill-rule="nonzero"/><path fill="#f78e75" d="M 275.171875 161.226562 C 276.765625 156.742188 280.457031 153.320312 285.066406 152.121094 L 286.675781 151.707031 L 284.765625 128.320312 L 309.414062 123.199219 C 309.839844 128.652344 310.992188 134.394531 312.679688 139.660156 C 315.039062 147.035156 320.9375 152.738281 328.402344 154.8125 C 327.511719 157.082031 326.328125 159.390625 324.910156 161.683594 L 275.171875 161.226562 " fill-opacity="1" fill-rule="nonzero"/><path fill="#f78e75" d="M 264.902344 121.105469 L 265.378906 119.40625 C 266.140625 116.675781 266.546875 113.855469 266.503906 111.019531 C 266.464844 108.355469 266.476562 105.695312 266.539062 103.046875 C 266.699219 96.429688 270.011719 90.324219 275.363281 86.484375 C 279.699219 85.441406 284.359375 85.355469 288.671875 86.472656 C 291.546875 87.21875 293.925781 89.234375 295.101562 91.964844 L 298.332031 99.472656 C 301.257812 106.273438 306.199219 111.867188 312.335938 115.644531 C 315.175781 117.390625 318.265625 118.753906 321.542969 119.648438 L 321.039062 122.082031 C 320.152344 126.367188 317.199219 129.757812 312.214844 130.632812 C 311.570312 130.746094 310.941406 130.707031 310.355469 130.550781 C 306.992188 140.023438 298.578125 147.199219 288.148438 148.8125 C 280.070312 150.0625 272.003906 147.207031 267.183594 139.289062 C 263.882812 133.859375 263.191406 127.226562 264.902344 121.105469 " fill-opacity="1" fill-rule="nonzero"/><path fill="#2c4da1" d="M 297.402344 107.160156 C 297.402344 108.824219 296.054688 110.171875 294.390625 110.171875 C 292.730469 110.171875 291.378906 108.824219 291.378906 107.160156 C 291.378906 105.496094 292.730469 104.148438 294.390625 104.148438 C 296.054688 104.148438 297.402344 105.496094 297.402344 107.160156 " fill-opacity="1" fill-rule="nonzero"/><path fill="#2c4da1" d="M 275.710938 107.160156 C 275.710938 108.824219 274.363281 110.171875 272.699219 110.171875 C 271.035156 110.171875 269.6875 108.824219 269.6875 107.160156 C 269.6875 105.496094 271.035156 104.148438 272.699219 104.148438 C 274.363281 104.148438 275.710938 105.496094 275.710938 107.160156 " fill-opacity="1" fill-rule="nonzero"/><path fill="#ffffff" d="M 273.589844 129.480469 C 272.222656 129.488281 271.496094 131.078125 272.363281 132.132812 C 274.726562 135.011719 278.335938 136.800781 282.347656 136.652344 C 286.035156 136.515625 289.269531 134.828125 291.5 132.242188 C 292.457031 131.132812 291.625 129.402344 290.15625 129.40625 L 273.589844 129.480469 " fill-opacity="1" fill-rule="nonzero"/><g clip-path="url(#4b205e8f32)"><path fill="#f04162" d="M 340.476562 116.914062 L 315.253906 89.917969 L 328.832031 73.617188 L 352.042969 91.324219 C 365.234375 101.386719 372.515625 117.464844 371.140625 134.003906 C 357.527344 133.957031 346.777344 129.140625 340.476562 116.914062 " fill-opacity="1" fill-rule="nonzero"/></g><path fill="#f78e75" d="M 226.566406 167.699219 C 229.609375 162.976562 226.765625 156.644531 221.285156 155.394531 L 188.414062 147.90625 C 184.238281 146.953125 180.539062 151.027344 182.074219 155.027344 C 183.808594 159.539062 186.835938 163.113281 190.78125 165.652344 C 195.753906 168.859375 201.480469 170.710938 207.390625 171.03125 L 219.035156 171.65625 C 221.894531 171.8125 224.660156 170.496094 226.28125 168.132812 C 226.375 167.988281 226.472656 167.84375 226.566406 167.699219 " fill-opacity="1" fill-rule="nonzero"/><path fill="#f78e75" d="M 232.519531 179.957031 L 227.164062 160.035156 L 211.921875 161.339844 L 213.917969 184.742188 L 232.519531 179.957031 " fill-opacity="1" fill-rule="nonzero"/><path fill="#f78e75" d="M 282.25 54.199219 C 286.101562 56.144531 288.683594 58.46875 293.289062 59.953125 L 290.625 50.5625 C 289.988281 48.21875 288.761719 46.078125 287.070312 44.335938 L 283.070312 40.230469 C 280.40625 37.496094 281.328125 32.890625 284.863281 31.460938 C 288.609375 29.945312 292.710938 29.292969 296.789062 29.585938 C 304.160156 30.113281 310.050781 35.226562 310.980469 41.90625 L 312.746094 53.355469 C 313.644531 59.167969 316.753906 64.40625 321.429688 67.972656 L 328.832031 73.617188 L 315.253906 89.917969 L 304.457031 78.359375 C 301.976562 75.707031 298.789062 73.914062 295.390625 72.644531 C 294.609375 72.347656 293.867188 71.929688 293.199219 71.378906 L 280.679688 61.046875 C 279.546875 60.109375 278.738281 58.898438 278.292969 57.546875 C 277.558594 55.328125 280.148438 53.132812 282.25 54.199219 " fill-opacity="1" fill-rule="nonzero"/><path fill="#d7f2f9" d="M 324.910156 161.683594 C 317.066406 174.34375 301.964844 186.390625 288.84375 186.464844 C 272.78125 186.550781 270.730469 173.746094 275.171875 161.226562 L 324.910156 161.683594 " fill-opacity="1" fill-rule="nonzero"/><path fill="#f04162" d="M 141.976562 36.691406 L 145.0625 33.601562 C 153.816406 24.84375 168.003906 24.84375 176.753906 33.601562 C 185.503906 42.355469 185.503906 56.554688 176.753906 65.308594 L 145.507812 96.566406 C 140.125 101.953125 131.394531 101.953125 126.007812 96.566406 L 94.761719 65.308594 C 86.011719 56.550781 86.011719 42.355469 94.761719 33.601562 C 103.515625 24.84375 117.703125 24.84375 126.453125 33.601562 L 129.539062 36.691406 C 132.972656 40.125 138.542969 40.125 141.976562 36.691406 " fill-opacity="1" fill-rule="nonzero"/><path fill="#f78e75" d="M 50.535156 154.207031 L 82.621094 152.050781 L 95.074219 88.636719 C 95.03125 86.875 94.808594 85.042969 94.3125 83.71875 C 92.632812 79.234375 90.566406 73.632812 90.566406 73.632812 C 88.167969 67.027344 91.097656 59.441406 97.632812 55.355469 C 101.246094 53.097656 105.339844 51.695312 109.527344 51.265625 C 113.484375 50.859375 116.578125 54.648438 115.457031 58.46875 L 113.777344 64.199219 C 113.066406 66.632812 112.980469 69.203125 113.535156 71.671875 L 117.027344 87.300781 C 117.945312 91.398438 116.984375 96.128906 114.097656 99.257812 L 112.339844 173.761719 C 105.273438 181.492188 80.648438 186.214844 59.109375 188.867188 L 50.535156 154.207031 " fill-opacity="1" fill-rule="nonzero"/><path fill="#fabb29" d="M 326.707031 38.390625 L 324.042969 43.792969 C 323.789062 44.300781 323.304688 44.652344 322.746094 44.734375 L 316.789062 45.601562 C 315.375 45.804688 314.8125 47.539062 315.835938 48.535156 L 320.144531 52.742188 C 320.550781 53.136719 320.734375 53.707031 320.640625 54.265625 L 319.621094 60.203125 C 319.382812 61.609375 320.855469 62.679688 322.117188 62.015625 L 327.449219 59.214844 C 327.949219 58.953125 328.546875 58.953125 329.050781 59.214844 L 334.378906 62.015625 C 335.640625 62.679688 337.117188 61.609375 336.875 60.203125 L 335.855469 54.265625 C 335.761719 53.707031 335.945312 53.136719 336.351562 52.742188 L 340.664062 48.535156 C 341.6875 47.539062 341.121094 45.804688 339.710938 45.601562 L 333.75 44.734375 C 333.191406 44.652344 332.707031 44.300781 332.457031 43.792969 L 329.792969 38.390625 C 329.160156 37.109375 327.335938 37.109375 326.707031 38.390625 " fill-opacity="1" fill-rule="nonzero"/><path fill="#fabb29" d="M 284.796875 38.390625 L 282.132812 43.792969 C 281.882812 44.300781 281.398438 44.652344 280.835938 44.734375 L 274.878906 45.601562 C 273.46875 45.804688 272.90625 47.539062 273.925781 48.535156 L 278.238281 52.742188 C 278.644531 53.136719 278.828125 53.707031 278.730469 54.265625 L 277.714844 60.203125 C 277.472656 61.609375 278.949219 62.679688 280.210938 62.015625 L 285.539062 59.214844 C 286.039062 58.953125 286.640625 58.953125 287.140625 59.214844 L 292.472656 62.015625 C 293.734375 62.679688 295.207031 61.609375 294.96875 60.203125 L 293.949219 54.265625 C 293.851562 53.707031 294.039062 53.136719 294.445312 52.742188 L 298.757812 48.535156 C 299.777344 47.539062 299.214844 45.804688 297.800781 45.601562 L 291.84375 44.734375 C 291.285156 44.652344 290.800781 44.300781 290.546875 43.792969 L 287.882812 38.390625 C 287.253906 37.109375 285.429688 37.109375 284.796875 38.390625 " fill-opacity="1" fill-rule="nonzero"/><path fill="#fabb29" d="M 242.890625 38.390625 L 240.226562 43.792969 C 239.972656 44.300781 239.488281 44.652344 238.929688 44.734375 L 232.96875 45.601562 C 231.558594 45.804688 230.996094 47.539062 232.015625 48.535156 L 236.328125 52.742188 C 236.734375 53.136719 236.917969 53.707031 236.824219 54.265625 L 235.804688 60.203125 C 235.5625 61.609375 237.039062 62.679688 238.300781 62.015625 L 243.632812 59.214844 C 244.132812 58.953125 244.730469 58.953125 245.230469 59.214844 L 250.5625 62.015625 C 251.824219 62.679688 253.300781 61.609375 253.058594 60.203125 L 252.039062 54.265625 C 251.945312 53.707031 252.128906 53.136719 252.535156 52.742188 L 256.847656 48.535156 C 257.867188 47.539062 257.304688 45.804688 255.894531 45.601562 L 249.933594 44.734375 C 249.375 44.652344 248.890625 44.300781 248.640625 43.792969 L 245.972656 38.390625 C 245.34375 37.109375 243.519531 37.109375 242.890625 38.390625 " fill-opacity="1" fill-rule="nonzero"/><path fill="#fabb29" d="M 200.980469 38.390625 L 198.316406 43.792969 C 198.066406 44.300781 197.582031 44.652344 197.019531 44.734375 L 191.0625 45.601562 C 189.648438 45.804688 189.085938 47.539062 190.109375 48.535156 L 194.421875 52.742188 C 194.824219 53.136719 195.007812 53.707031 194.914062 54.265625 L 193.898438 60.203125 C 193.65625 61.609375 195.132812 62.679688 196.394531 62.015625 L 201.722656 59.214844 C 202.226562 58.953125 202.824219 58.953125 203.324219 59.214844 L 208.652344 62.015625 C 209.914062 62.679688 211.390625 61.609375 211.148438 60.203125 L 210.132812 54.265625 C 210.035156 53.707031 210.222656 53.136719 210.628906 52.742188 L 214.9375 48.535156 C 215.960938 47.539062 215.394531 45.804688 213.984375 45.601562 L 208.027344 44.734375 C 207.464844 44.652344 206.980469 44.300781 206.730469 43.792969 L 204.066406 38.390625 C 203.433594 37.109375 201.613281 37.109375 200.980469 38.390625 " fill-opacity="1" fill-rule="nonzero"/><path fill="#fabb29" d="M 159.074219 38.390625 L 156.40625 43.792969 C 156.15625 44.300781 155.671875 44.652344 155.109375 44.734375 L 149.152344 45.601562 C 147.742188 45.804688 147.179688 47.539062 148.199219 48.535156 L 152.511719 52.742188 C 152.917969 53.136719 153.101562 53.707031 153.007812 54.265625 L 151.988281 60.203125 C 151.746094 61.609375 153.222656 62.679688 154.484375 62.015625 L 159.8125 59.214844 C 160.316406 58.953125 160.914062 58.953125 161.414062 59.214844 L 166.742188 62.015625 C 168.007812 62.679688 169.484375 61.609375 169.242188 60.203125 L 168.222656 54.265625 C 168.128906 53.707031 168.3125 53.136719 168.71875 52.742188 L 173.03125 48.535156 C 174.050781 47.539062 173.488281 45.804688 172.078125 45.601562 L 166.117188 44.734375 C 165.558594 44.652344 165.070312 44.300781 164.820312 43.792969 L 162.15625 38.390625 C 161.527344 37.109375 159.703125 37.109375 159.074219 38.390625 " fill-opacity="1" fill-rule="nonzero"/><path fill="#b2e2f8" d="M 235.324219 142.949219 L 157.808594 142.949219 C 155.167969 142.949219 153.03125 140.8125 153.03125 138.171875 L 153.03125 114.660156 C 153.03125 112.023438 155.167969 109.878906 157.808594 109.878906 L 224.542969 109.878906 C 227.183594 109.878906 229.320312 112.023438 229.320312 114.660156 L 229.320312 129.414062 C 229.320312 131.273438 230.066406 133.058594 231.390625 134.367188 L 236.695312 139.609375 C 237.9375 140.835938 237.066406 142.949219 235.324219 142.949219 " fill-opacity="1" fill-rule="nonzero"/><path fill="#ffffff" d="M 189.699219 129.4375 L 170.5625 129.4375 C 168.53125 129.4375 166.890625 127.792969 166.890625 125.765625 C 166.890625 123.734375 168.53125 122.089844 170.5625 122.089844 L 189.699219 122.089844 C 191.726562 122.089844 193.371094 123.734375 193.371094 125.765625 C 193.371094 127.792969 191.726562 129.4375 189.699219 129.4375 " fill-opacity="1" fill-rule="nonzero"/><path fill="#ffffff" d="M 211.429688 129.4375 L 207.273438 129.4375 C 205.246094 129.4375 203.601562 127.792969 203.601562 125.765625 C 203.601562 123.734375 205.246094 122.089844 207.273438 122.089844 L 211.429688 122.089844 C 213.460938 122.089844 215.101562 123.734375 215.101562 125.765625 C 215.101562 127.792969 213.460938 129.4375 211.429688 129.4375 " fill-opacity="1" fill-rule="nonzero"/><path fill="#d7f2f9" d="M 178.125 181.027344 C 175.734375 181.027344 173.789062 182.972656 173.789062 185.363281 L 173.789062 212.757812 C 173.789062 215.148438 175.734375 217.097656 178.125 217.097656 C 179.367188 217.097656 180.378906 218.105469 180.378906 219.351562 L 180.378906 226.097656 L 188.8125 217.746094 C 189.230469 217.332031 189.800781 217.097656 190.394531 217.097656 L 215.765625 217.097656 C 218.15625 217.097656 220.101562 215.148438 220.101562 212.757812 L 220.101562 185.363281 C 220.101562 182.972656 218.15625 181.027344 215.765625 181.027344 Z M 180 231.140625 C 179.464844 231.140625 178.921875 231.035156 178.40625 230.820312 C 176.867188 230.175781 175.871094 228.683594 175.871094 227.011719 L 175.871094 221.3125 C 172.082031 220.3125 169.28125 216.859375 169.28125 212.757812 L 169.28125 185.363281 C 169.28125 180.484375 173.25 176.515625 178.125 176.515625 L 215.765625 176.515625 C 220.640625 176.515625 224.609375 180.484375 224.609375 185.363281 L 224.609375 212.757812 C 224.609375 217.636719 220.640625 221.605469 215.765625 221.605469 L 191.320312 221.605469 L 182.894531 229.945312 C 182.105469 230.726562 181.0625 231.140625 180 231.140625 " fill-opacity="1" fill-rule="nonzero"/><path fill="#d7f2f9" d="M 160.105469 245.453125 C 159.859375 243.667969 160.472656 241.898438 161.675781 240.5625 C 164.886719 236.992188 166.757812 232.722656 166.757812 228.132812 C 166.757812 215.621094 152.878906 205.480469 135.757812 205.480469 C 118.636719 205.480469 104.757812 215.621094 104.757812 228.132812 C 104.757812 240.640625 118.636719 250.785156 135.757812 250.785156 C 139.160156 250.785156 142.429688 250.378906 145.488281 249.636719 C 147.160156 249.234375 148.921875 249.597656 150.308594 250.613281 L 158.265625 256.417969 C 159.667969 257.441406 161.613281 256.273438 161.375 254.554688 L 160.105469 245.453125 " fill-opacity="1" fill-rule="nonzero"/></svg>