<svg xmlns="http://www.w3.org/2000/svg" xmlns:xlink="http://www.w3.org/1999/xlink" width="500" zoomAndPan="magnify" viewBox="0 0 375 299.999988" height="400" preserveAspectRatio="xMidYMid meet" version="1.0"><defs><clipPath id="b09e4edc02"><path d="M 71.398438 85 L 131 85 L 131 130 L 71.398438 130 Z M 71.398438 85 " clip-rule="nonzero"/></clipPath><clipPath id="6693654bce"><path d="M 93 150 L 289 150 L 289 292.542969 L 93 292.542969 Z M 93 150 " clip-rule="nonzero"/></clipPath><clipPath id="035c685abd"><path d="M 221 7.542969 L 251 7.542969 L 251 71 L 221 71 Z M 221 7.542969 " clip-rule="nonzero"/></clipPath><clipPath id="17e7b7415b"><path d="M 203 7.542969 L 241 7.542969 L 241 87 L 203 87 Z M 203 7.542969 " clip-rule="nonzero"/></clipPath></defs><path fill="#f47024" d="M 89.410156 140.859375 L 112.980469 140.859375 L 112.980469 150.179688 L 89.410156 150.179688 Z M 89.410156 140.859375 " fill-opacity="1" fill-rule="nonzero"/><path fill="#f68e55" d="M 90.375 59.652344 L 90.375 85.269531 L 80.195312 85.269531 L 80.195312 59.652344 C 80.195312 57.011719 82.332031 54.902344 84.953125 54.902344 L 85.617188 54.902344 C 88.238281 54.902344 90.375 57.011719 90.375 59.652344 Z M 90.375 59.652344 " fill-opacity="1" fill-rule="nonzero"/><path fill="#f68e55" d="M 122.191406 59.652344 L 122.191406 85.269531 L 112.015625 85.269531 L 112.015625 59.652344 C 112.015625 57.011719 114.152344 54.902344 116.769531 54.902344 L 117.414062 54.902344 C 120.054688 54.902344 122.191406 57.011719 122.191406 59.652344 Z M 122.191406 59.652344 " fill-opacity="1" fill-rule="nonzero"/><path fill="#f68e55" d="M 83.457031 129.957031 L 118.929688 129.957031 L 118.929688 140.859375 L 83.457031 140.859375 Z M 83.457031 129.957031 " fill-opacity="1" fill-rule="nonzero"/><g clip-path="url(#b09e4edc02)"><path fill="#fbc88e" d="M 130.96875 85.269531 L 130.96875 118.6875 C 130.96875 124.929688 125.914062 129.957031 119.6875 129.957031 L 82.675781 129.957031 C 76.449219 129.957031 71.398438 124.929688 71.398438 118.6875 L 71.398438 85.269531 Z M 130.96875 85.269531 " fill-opacity="1" fill-rule="nonzero"/></g><g clip-path="url(#6693654bce)"><path fill="#fcbd72" d="M 283.105469 167.394531 C 303.78125 216.125 268.515625 292.074219 195.964844 292.074219 C 136.484375 292.074219 93.496094 221.125 93.496094 150.179688 L 108.570312 150.179688 C 108.570312 206.046875 143.972656 276.742188 198.078125 276.742188 C 247.839844 276.742188 265.277344 240.15625 277.476562 204.117188 C 277.476562 204.117188 283.542969 186.351562 283.105469 167.394531 Z M 283.105469 167.394531 " fill-opacity="1" fill-rule="nonzero"/></g><g clip-path="url(#035c685abd)"><path fill="#8bcb8f" d="M 250.457031 37.410156 C 241.5 42.414062 234.191406 56.140625 234.582031 70.898438 C 225.921875 44.871094 221.832031 7.964844 221.832031 7.964844 C 228.839844 20.609375 239.40625 29.425781 250.457031 37.410156 Z M 250.457031 37.410156 " fill-opacity="1" fill-rule="nonzero"/></g><path fill="#a7d276" d="M 275.570312 138.792969 C 269.664062 127.570312 261.554688 117.585938 253.8125 106.777344 C 254.042969 86.921875 263.851562 72.390625 283.265625 63.1875 C 291.214844 71.773438 296.980469 82.238281 298.429688 96.769531 C 303.09375 143.730469 283.632812 166.707031 283.105469 167.324219 C 282.921875 160.210938 281.839844 152.910156 279.128906 146.347656 C 278.074219 143.753906 276.878906 141.25 275.570312 138.792969 Z M 275.570312 138.792969 " fill-opacity="1" fill-rule="nonzero"/><path fill="#8bcb8f" d="M 253.8125 106.777344 C 261.554688 117.585938 269.664062 127.570312 275.570312 138.792969 C 262.40625 124.105469 237.433594 124.519531 210.183594 127.847656 C 206.96875 122.566406 204.140625 116.507812 201.9375 109.4375 C 195.480469 88.871094 198.007812 72.644531 203.132812 58.183594 C 218.15625 63.578125 230.746094 72.875 240.878906 86.09375 C 244.691406 93.578125 249.171875 100.324219 253.8125 106.777344 Z M 253.8125 106.777344 " fill-opacity="1" fill-rule="nonzero"/><path fill="#349370" d="M 283.105469 167.394531 C 283.542969 186.351562 277.476562 204.117188 277.476562 204.117188 C 266.265625 164.273438 230.171875 160.691406 210.183594 127.847656 C 237.433594 124.519531 262.40625 124.105469 275.570312 138.792969 C 276.878906 141.25 278.074219 143.753906 279.128906 146.347656 C 281.839844 152.910156 282.921875 160.210938 283.105469 167.324219 C 283.082031 167.347656 283.082031 167.347656 283.082031 167.347656 C 283.082031 167.371094 283.105469 167.371094 283.105469 167.394531 Z M 283.105469 167.394531 " fill-opacity="1" fill-rule="nonzero"/><path fill="#3fa07f" d="M 250.457031 37.410156 C 261.992188 45.765625 274.097656 53.203125 283.265625 63.1875 C 263.851562 72.390625 254.042969 86.921875 253.8125 106.777344 C 249.171875 100.324219 244.691406 93.578125 240.878906 86.09375 C 239.84375 84.097656 238.878906 82.03125 237.960938 79.898438 C 236.765625 77.144531 235.640625 74.136719 234.582031 70.945312 C 234.582031 70.921875 234.582031 70.921875 234.582031 70.898438 C 234.191406 56.140625 241.5 42.414062 250.457031 37.410156 Z M 250.457031 37.410156 " fill-opacity="1" fill-rule="nonzero"/><g clip-path="url(#17e7b7415b)"><path fill="#349370" d="M 237.960938 79.898438 C 238.878906 82.03125 239.84375 84.097656 240.878906 86.09375 C 230.746094 72.875 218.15625 63.578125 203.132812 58.183594 C 209.425781 40.351562 219.671875 25.222656 221.832031 7.964844 C 221.832031 7.964844 225.921875 44.871094 234.582031 70.898438 C 234.582031 70.921875 234.582031 70.921875 234.582031 70.945312 C 235.640625 74.136719 236.765625 77.144531 237.960938 79.898438 Z M 237.960938 79.898438 " fill-opacity="1" fill-rule="nonzero"/></g></svg>