<?xml version="1.0" encoding="utf-8"?>
<!-- Generator: Adobe Illustrator 25.0.0, SVG Export Plug-In . SVG Version: 6.00 Build 0)  -->
<svg version="1.1" id="Layer_1" xmlns="http://www.w3.org/2000/svg" xmlns:xlink="http://www.w3.org/1999/xlink" x="0px" y="0px"
	 viewBox="0 0 2000 2000" style="enable-background:new 0 0 2000 2000;" xml:space="preserve">
<style type="text/css">
	.st0{fill:#F8BB59;}
	.st1{fill:#FFFFFF;}
</style>
<g>
	<g>
		<path class="st0" d="M661.51,1286.14v323.52c0,16.21-13.11,29.33-29.33,29.33H486.96c-16.21,0-29.33-13.12-29.33-29.33v-323.52
			c0-16.19,13.12-29.33,29.33-29.33h145.22C648.4,1256.81,661.51,1269.95,661.51,1286.14z"/>
		<rect x="525" y="1331.53" class="st1" width="136.53" height="3.44"/>
		<circle class="st1" cx="593.27" cy="1333.25" r="6.16"/>
		<rect x="457.59" y="1331.53" class="st1" width="67.41" height="3.44"/>
		<circle class="st1" cx="525.01" cy="1333.25" r="6.16"/>
		<g>
			<rect x="591.54" y="1256.82" class="st1" width="3.44" height="382.18"/>
		</g>
		<g>
			<rect x="525" y="1407.97" class="st1" width="136.53" height="3.44"/>
		</g>
		<g>
			<rect x="525" y="1484.42" class="st1" width="136.53" height="3.44"/>
		</g>
		<g>
			<rect x="525" y="1560.84" class="st1" width="136.53" height="3.44"/>
		</g>
		<g>
			<circle class="st1" cx="593.27" cy="1409.69" r="6.16"/>
		</g>
		<g>
			<circle class="st1" cx="593.27" cy="1486.12" r="6.16"/>
		</g>
		<g>
			<circle class="st1" cx="593.27" cy="1562.56" r="6.16"/>
		</g>
		<rect x="457.59" y="1407.97" class="st1" width="67.41" height="3.44"/>
		<rect x="457.59" y="1484.42" class="st1" width="67.41" height="3.44"/>
		<rect x="457.59" y="1560.84" class="st1" width="67.41" height="3.44"/>
		<rect x="523.28" y="1256.82" class="st1" width="3.44" height="382.18"/>
		<g>
			<circle class="st1" cx="525.01" cy="1409.69" r="6.16"/>
		</g>
		<g>
			<circle class="st1" cx="525.01" cy="1486.12" r="6.16"/>
		</g>
		<g>
			<circle class="st1" cx="525.01" cy="1562.56" r="6.16"/>
		</g>
	</g>
	<g>
		<path class="st1" d="M687.08,858.97v335.86h-51.1V858.97h-48.98v-46.32h149.05v46.32H687.08z"/>
		<path class="st1" d="M824.4,1194.83c-41.17,0-61.74-21.64-61.74-64.93V878.12c0-43.64,20.39-65.47,61.2-65.47h48.98
			c40.79,0,61.2,21.82,61.2,65.47v251.78c0,43.29-20.57,64.93-61.74,64.93H824.4z M836.65,1148.53h26.08
			c13.48,0,20.22-7.45,20.22-22.36V881.33c0-14.91-7.63-22.36-22.89-22.36h-23.94c-14.91,0-22.36,7.45-22.36,22.36v244.84
			C813.75,1141.08,821.38,1148.53,836.65,1148.53z"/>
		<path class="st1" d="M979.29,1194.83V812.65h88.87c47.91,0,71.87,24.5,71.87,73.45v253.36c0,36.91-20.42,55.36-61.2,55.36H979.29z
			 M1030.39,1148.53h38.31c13.5,0,20.24-5.69,20.24-17.05V886.64c0-18.45-7.63-27.67-22.89-27.67h-35.66V1148.53z"/>
		<path class="st1" d="M1244.35,1194.83c-41.17,0-61.74-21.64-61.74-64.93V878.12c0-43.64,20.39-65.47,61.2-65.47h48.98
			c40.79,0,61.2,21.82,61.2,65.47v251.78c0,43.29-20.57,64.93-61.74,64.93H1244.35z M1256.6,1148.53h26.08
			c13.48,0,20.22-7.45,20.22-22.36V881.33c0-14.91-7.63-22.36-22.89-22.36h-23.94c-14.91,0-22.36,7.45-22.36,22.36v244.84
			C1233.71,1141.08,1241.34,1148.53,1256.6,1148.53z"/>
	</g>
	<g>
		<path class="st1" d="M807.62,1359.28v-33.54c0-15.24-7.43-22.87-22.34-22.87h-7.99c-14.57,0-21.82,7.63-21.82,22.87v63.35
			c0,7.1,1.41,11.89,4.26,14.37c2.83,2.5,7.45,5.69,13.83,9.59l48.44,26.06c10.64,6.05,18.16,10.75,22.6,14.12
			c4.44,3.37,7.9,7.45,10.4,12.23c2.48,4.8,3.73,13.95,3.73,27.42v81.44c0,42.93-20.59,64.4-61.76,64.4h-31.39
			c-40.81,0-61.2-23.43-61.2-70.26v-19.17h51.1v20.77c0,14.91,7.63,22.36,22.87,22.36h9.06c13.48,0,20.22-7.45,20.22-22.36v-64.95
			c0-7.07-1.41-11.87-4.24-14.37c-2.86-2.48-7.45-5.67-13.86-9.57l-48.42-27.15c-10.64-5.67-18.36-10.44-23.16-14.37
			c-4.8-3.88-8.26-8.95-10.38-15.17c-2.14-6.2-3.19-14.28-3.19-24.21v-78.25c0-43.64,20.39-65.47,61.2-65.47h31.93
			c40.81,0,61.23,21.82,61.23,65.47v37.26H807.62z"/>
		<path class="st1" d="M960.39,1638.73c-41.17,0-61.76-21.64-61.76-64.93v-251.78c0-43.64,20.42-65.47,61.23-65.47h48.95
			c40.81,0,61.23,21.82,61.23,65.47v251.78c0,43.29-20.59,64.93-61.74,64.93H960.39z M972.62,1592.43h26.08
			c13.48,0,20.24-7.45,20.24-22.36v-244.84c0-14.91-7.65-22.36-22.89-22.36h-23.96c-14.91,0-22.36,7.45-22.36,22.36v244.84
			C949.73,1584.98,957.36,1592.43,972.62,1592.43z"/>
		<path class="st1" d="M1236.63,1638.73h-121.36v-382.18h51.1v335.88h70.26V1638.73z"/>
	</g>
	<g>
		<polygon class="st0" points="975.56,486.94 1001.65,486.94 949,567.1 967.26,505.43 937.85,505.43 972.72,435.71 1005.68,435.71 
					"/>
		<polygon class="st0" points="975.56,486.94 1001.65,486.94 949,567.1 967.26,505.43 937.85,505.43 972.72,435.71 1005.68,435.71 
					"/>
	</g>
	<g>
		<path class="st1" d="M1011.61,361h-79.69c-35.34,0-64.03,28.7-64.03,64.04v325.63h38.18v-97.95h131.39v97.95h38.18V425.04
			C1075.65,389.7,1046.95,361,1011.61,361z M1037.46,590.82H906.07V411.99h131.39V590.82z"/>
		<path class="st1" d="M855.1,563.6L855.1,563.6c-10.14,0-18.35-8.22-18.35-18.35V443.99c0-10.14,8.22-18.35,18.35-18.35l0,0V563.6z
			"/>
	</g>
	<g>
		<g>
			<path class="st0" d="M1379.96,1546.75c-54.65,0-99.11-44.46-99.11-99.11s44.46-99.11,99.11-99.11s99.11,44.46,99.11,99.11
				S1434.61,1546.75,1379.96,1546.75z M1379.96,1363.3c-46.51,0-84.35,37.84-84.35,84.35c0,46.51,37.84,84.35,84.35,84.35
				c46.51,0,84.35-37.84,84.35-84.35C1464.31,1401.13,1426.47,1363.3,1379.96,1363.3z"/>
		</g>
		<g>
			<path class="st0" d="M1379.96,1332.6c-1.53,0-2.77-1.24-2.77-2.77v-41.88c0-1.53,1.24-2.77,2.77-2.77c1.53,0,2.77,1.24,2.77,2.77
				v41.88C1382.73,1331.36,1381.49,1332.6,1379.96,1332.6z"/>
		</g>
		<g>
			<path class="st0" d="M1334.87,1341.56c-1.08,0-2.12-0.64-2.56-1.71l-16.03-38.69c-0.58-1.41,0.09-3.03,1.5-3.62
				c1.41-0.57,3.03,0.09,3.62,1.5l16.03,38.69c0.58,1.41-0.09,3.03-1.5,3.62C1335.59,1341.49,1335.23,1341.56,1334.87,1341.56z"/>
		</g>
		<g>
			<path class="st0" d="M1296.65,1367.1c-0.71,0-1.42-0.27-1.96-0.81l-29.61-29.61c-1.08-1.08-1.08-2.83,0-3.91
				c1.08-1.08,2.83-1.08,3.91,0l29.61,29.61c1.08,1.08,1.08,2.83,0,3.91C1298.07,1366.83,1297.36,1367.1,1296.65,1367.1z"/>
		</g>
		<g>
			<path class="st0" d="M1271.12,1405.32c-0.35,0-0.71-0.07-1.06-0.21l-38.69-16.02c-1.41-0.59-2.08-2.21-1.5-3.62
				c0.59-1.41,2.21-2.07,3.62-1.5l38.69,16.02c1.41,0.59,2.08,2.21,1.5,3.62C1273.23,1404.68,1272.2,1405.32,1271.12,1405.32z"/>
		</g>
		<g>
			<path class="st0" d="M1262.15,1450.41h-41.87c-1.53,0-2.77-1.24-2.77-2.77s1.24-2.77,2.77-2.77h41.87c1.53,0,2.77,1.24,2.77,2.77
				S1263.67,1450.41,1262.15,1450.41z"/>
		</g>
		<g>
			<path class="st0" d="M1232.43,1511.52c-1.08,0-2.12-0.64-2.56-1.71c-0.58-1.41,0.09-3.03,1.5-3.62l38.69-16.02
				c1.42-0.57,3.03,0.09,3.62,1.5c0.58,1.41-0.09,3.03-1.5,3.62l-38.69,16.02C1233.14,1511.45,1232.78,1511.52,1232.43,1511.52z"/>
		</g>
		<g>
			<path class="st0" d="M1267.04,1563.33c-0.71,0-1.42-0.27-1.96-0.81c-1.08-1.08-1.08-2.83,0-3.91l29.61-29.61
				c1.08-1.08,2.83-1.08,3.91,0c1.08,1.08,1.08,2.83,0,3.91l-29.61,29.61C1268.46,1563.05,1267.75,1563.33,1267.04,1563.33z"/>
		</g>
		<g>
			<path class="st0" d="M1318.85,1597.94c-0.35,0-0.71-0.07-1.06-0.21c-1.41-0.59-2.08-2.21-1.5-3.62l16.03-38.68
				c0.59-1.41,2.22-2.06,3.62-1.5c1.41,0.59,2.08,2.21,1.5,3.62l-16.03,38.68C1320.96,1597.3,1319.93,1597.94,1318.85,1597.94z"/>
		</g>
		<g>
			<path class="st0" d="M1379.96,1610.1c-1.53,0-2.77-1.24-2.77-2.77v-41.88c0-1.53,1.24-2.77,2.77-2.77c1.53,0,2.77,1.24,2.77,2.77
				v41.88C1382.73,1608.86,1381.49,1610.1,1379.96,1610.1z"/>
		</g>
		<g>
			<path class="st0" d="M1441.07,1597.94c-1.08,0-2.12-0.64-2.56-1.71l-16.03-38.68c-0.58-1.41,0.09-3.03,1.5-3.62
				c1.41-0.56,3.03,0.09,3.62,1.5l16.03,38.68c0.58,1.41-0.09,3.03-1.5,3.62C1441.78,1597.87,1441.42,1597.94,1441.07,1597.94z"/>
		</g>
		<g>
			<path class="st0" d="M1492.87,1563.33c-0.71,0-1.42-0.27-1.96-0.81l-29.61-29.61c-1.08-1.08-1.08-2.83,0-3.91
				c1.08-1.08,2.83-1.08,3.91,0l29.61,29.61c1.08,1.08,1.08,2.83,0,3.91C1494.29,1563.05,1493.58,1563.33,1492.87,1563.33z"/>
		</g>
		<g>
			<path class="st0" d="M1527.49,1511.52c-0.35,0-0.71-0.07-1.06-0.21l-38.68-16.02c-1.41-0.59-2.08-2.21-1.5-3.62
				c0.59-1.41,2.21-2.07,3.62-1.5l38.68,16.02c1.41,0.59,2.08,2.21,1.5,3.62C1529.61,1510.87,1528.58,1511.52,1527.49,1511.52z"/>
		</g>
		<g>
			<path class="st0" d="M1539.65,1450.41h-41.87c-1.53,0-2.77-1.24-2.77-2.77s1.24-2.77,2.77-2.77h41.87c1.53,0,2.77,1.24,2.77,2.77
				S1541.17,1450.41,1539.65,1450.41z"/>
		</g>
		<g>
			<path class="st0" d="M1488.81,1405.32c-1.08,0-2.12-0.64-2.56-1.71c-0.58-1.41,0.09-3.03,1.5-3.62l38.68-16.02
				c1.42-0.57,3.03,0.09,3.62,1.5c0.58,1.41-0.09,3.03-1.5,3.62l-38.68,16.02C1489.52,1405.25,1489.16,1405.32,1488.81,1405.32z"/>
		</g>
		<g>
			<path class="st0" d="M1463.27,1367.1c-0.71,0-1.42-0.27-1.96-0.81c-1.08-1.08-1.08-2.83,0-3.91l29.61-29.61
				c1.08-1.08,2.83-1.08,3.91,0c1.08,1.08,1.08,2.83,0,3.91l-29.61,29.61C1464.68,1366.83,1463.98,1367.1,1463.27,1367.1z"/>
		</g>
		<g>
			<path class="st0" d="M1425.04,1341.56c-0.35,0-0.71-0.07-1.06-0.21c-1.41-0.59-2.08-2.21-1.5-3.62l16.03-38.69
				c0.59-1.41,2.22-2.07,3.62-1.5c1.41,0.59,2.08,2.21,1.5,3.62l-16.03,38.69C1427.16,1340.92,1426.13,1341.56,1425.04,1341.56z"/>
		</g>
		<g>
			<path class="st0" d="M1356.97,1334.86c-1.29,0-2.45-0.91-2.71-2.23l-4.61-23.2c-0.3-1.5,0.67-2.96,2.17-3.25
				c1.5-0.3,2.95,0.67,3.25,2.17l4.61,23.2c0.3,1.5-0.67,2.96-2.17,3.25C1357.33,1334.84,1357.15,1334.86,1356.97,1334.86z"/>
		</g>
		<g>
			<path class="st0" d="M1314.51,1352.45c-0.89,0-1.77-0.43-2.31-1.23l-13.14-19.67c-0.85-1.27-0.5-2.99,0.76-3.84
				c1.28-0.84,2.99-0.5,3.84,0.76l13.14,19.67c0.85,1.27,0.5,2.99-0.76,3.84C1315.57,1352.3,1315.04,1352.45,1314.51,1352.45z"/>
		</g>
		<g>
			<path class="st0" d="M1282,1384.95c-0.53,0-1.06-0.15-1.54-0.46l-19.67-13.14c-1.27-0.85-1.61-2.57-0.76-3.84
				c0.85-1.26,2.57-1.61,3.84-0.76l19.67,13.14c1.27,0.85,1.61,2.57,0.76,3.84C1283.77,1384.52,1282.89,1384.95,1282,1384.95z"/>
		</g>
		<g>
			<path class="st0" d="M1264.42,1427.42c-0.18,0-0.36-0.02-0.54-0.05l-23.2-4.61c-1.5-0.3-2.47-1.75-2.17-3.25
				c0.3-1.5,1.77-2.47,3.25-2.17l23.2,4.61c1.5,0.3,2.47,1.75,2.17,3.25C1266.87,1426.51,1265.71,1427.42,1264.42,1427.42z"/>
		</g>
		<g>
			<path class="st0" d="M1241.21,1478.01c-1.29,0-2.45-0.91-2.71-2.23c-0.3-1.5,0.67-2.96,2.17-3.25l23.2-4.61
				c1.48-0.29,2.96,0.67,3.25,2.17c0.3,1.5-0.67,2.96-2.17,3.25l-23.2,4.61C1241.57,1477.99,1241.39,1478.01,1241.21,1478.01z"/>
		</g>
		<g>
			<path class="st0" d="M1262.34,1529c-0.89,0-1.77-0.43-2.31-1.23c-0.85-1.27-0.5-2.99,0.76-3.84l19.67-13.14
				c1.28-0.85,2.99-0.5,3.84,0.76c0.85,1.27,0.5,2.99-0.76,3.84l-19.67,13.14C1263.4,1528.85,1262.86,1529,1262.34,1529z"/>
		</g>
		<g>
			<path class="st0" d="M1301.36,1568.04c-0.53,0-1.06-0.15-1.54-0.46c-1.27-0.85-1.61-2.57-0.76-3.84l13.14-19.67
				c0.85-1.26,2.57-1.61,3.84-0.76c1.27,0.85,1.61,2.57,0.76,3.84l-13.14,19.67C1303.13,1567.6,1302.25,1568.04,1301.36,1568.04z"/>
		</g>
		<g>
			<path class="st0" d="M1352.37,1589.16c-0.18,0-0.36-0.02-0.54-0.05c-1.5-0.3-2.47-1.76-2.17-3.25l4.61-23.2
				c0.3-1.5,1.77-2.44,3.25-2.17c1.5,0.3,2.47,1.76,2.17,3.25l-4.61,23.2C1354.82,1588.24,1353.66,1589.16,1352.37,1589.16z"/>
		</g>
		<g>
			<path class="st0" d="M1407.56,1589.16c-1.29,0-2.45-0.91-2.71-2.23l-4.62-23.2c-0.3-1.5,0.67-2.95,2.17-3.25
				c1.5-0.3,2.95,0.67,3.25,2.17l4.62,23.2c0.3,1.5-0.67,2.95-2.17,3.25C1407.92,1589.14,1407.74,1589.16,1407.56,1589.16z"/>
		</g>
		<g>
			<path class="st0" d="M1458.56,1568.04c-0.89,0-1.77-0.43-2.31-1.23l-13.14-19.67c-0.85-1.27-0.5-2.99,0.76-3.84
				c1.27-0.85,2.98-0.5,3.84,0.76l13.14,19.67c0.85,1.27,0.5,2.99-0.76,3.84C1459.62,1567.88,1459.09,1568.04,1458.56,1568.04z"/>
		</g>
		<g>
			<path class="st0" d="M1497.58,1529c-0.53,0-1.06-0.15-1.54-0.46l-19.67-13.14c-1.27-0.85-1.61-2.57-0.76-3.84
				c0.84-1.27,2.57-1.61,3.84-0.76l19.67,13.14c1.27,0.85,1.61,2.57,0.76,3.84C1499.36,1528.57,1498.48,1529,1497.58,1529z"/>
		</g>
		<g>
			<path class="st0" d="M1518.71,1478.01c-0.18,0-0.36-0.02-0.54-0.05l-23.2-4.61c-1.5-0.3-2.47-1.76-2.17-3.25
				c0.3-1.5,1.78-2.47,3.25-2.17l23.2,4.61c1.5,0.3,2.47,1.76,2.17,3.25C1521.16,1477.09,1520.01,1478.01,1518.71,1478.01z"/>
		</g>
		<g>
			<path class="st0" d="M1495.5,1427.42c-1.29,0-2.45-0.91-2.71-2.23c-0.3-1.5,0.67-2.96,2.17-3.25l23.2-4.61
				c1.49-0.29,2.95,0.67,3.25,2.17c0.3,1.5-0.67,2.96-2.17,3.25l-23.2,4.61C1495.87,1427.4,1495.69,1427.42,1495.5,1427.42z"/>
		</g>
		<g>
			<path class="st0" d="M1477.92,1384.95c-0.89,0-1.77-0.43-2.31-1.23c-0.85-1.27-0.5-2.99,0.76-3.84l19.67-13.14
				c1.27-0.85,2.99-0.5,3.84,0.76c0.85,1.27,0.5,2.99-0.76,3.84l-19.67,13.14C1478.99,1384.8,1478.45,1384.95,1477.92,1384.95z"/>
		</g>
		<g>
			<path class="st0" d="M1445.41,1352.45c-0.53,0-1.06-0.15-1.54-0.46c-1.27-0.85-1.61-2.57-0.76-3.84l13.14-19.67
				c0.84-1.26,2.57-1.61,3.84-0.76c1.27,0.85,1.61,2.57,0.76,3.84l-13.14,19.67C1447.18,1352.02,1446.3,1352.45,1445.41,1352.45z"/>
		</g>
		<g>
			<path class="st0" d="M1402.95,1334.86c-0.18,0-0.36-0.02-0.54-0.05c-1.5-0.3-2.47-1.75-2.17-3.25l4.62-23.2
				c0.3-1.5,1.77-2.44,3.25-2.17c1.5,0.3,2.47,1.75,2.17,3.25l-4.62,23.2C1405.4,1333.95,1404.24,1334.86,1402.95,1334.86z"/>
		</g>
		<circle class="st0" cx="1379.96" cy="1447.64" r="72.02"/>
	</g>
</g>
</svg>
