<svg version="1.2" xmlns="http://www.w3.org/2000/svg" viewBox="0 0 800 800" width="1000" height="1000">
	<title>shutterstock_424437109-ai-svg</title>
	<style>
		.s0 { fill: #f1efef } 
		.s1 { fill: #c5c5c5 } 
		.s2 { fill: #e2e2e2 } 
		.s3 { fill: #5a5550 } 
		.s4 { fill: #b0b0b0 } 
		.s5 { fill: #75cff1 } 
	</style>
	<g id="_Artboards_">
	</g>
	<g id="321353356351 1">
		<g id="&lt;Group&gt;">
			<g id="&lt;Group&gt;">
				<path id="&lt;Path&gt;" class="s0" d="m698 255.3v118c0 5.4-0.4 11.6-1.2 18-1.4 11.8-3.9 24.1-6.8 32-4.4 12.1-20.6 22-36 22h-508c-15.4 0-31.6-9.9-36-22-2.9-7.9-5.4-20.2-6.8-32-0.8-6.4-1.2-12.6-1.2-18v-118c0-15.4 12.6-28 28-28h540c15.4 0 28 12.6 28 28z"/>
				<path id="&lt;Path&gt;" class="s1" d="m696.8 391.3c-1.4 11.8-3.9 24.1-6.8 32-4.4 12.1-20.6 22-36 22h-508c-15.4 0-31.6-9.9-36-22-2.9-7.9-5.4-20.2-6.8-32z"/>
				<path id="&lt;Path&gt;" class="s2" d="m653.7 368.6v22.7h-507.4v-22.7c0-6.6 5.4-12 12-12h483.4c6.6 0 12 5.4 12 12z"/>
				<path id="&lt;Path&gt;" class="s3" d="m653.6 391.3l-1.8 8.8-1.5 7.7-1.7 8.3-0.9 4.8c-0.2 1-0.5 2-1 2.9-2.3 5.1-7.6 8.8-13 8.8h-467.4c-5.4 0-10.7-3.7-13-8.8-0.5-0.9-0.8-1.9-1-2.9l-0.9-4.8-1.7-8.3-1.5-7.7-1.8-8.8z"/>
				<path id="&lt;Path&gt;" class="s4" d="m651.8 400.1l-1.5 7.7h-500.6l-1.5-7.7z"/>
				<path id="&lt;Path&gt;" class="s4" d="m648.6 416.1l-0.9 4.8c-0.2 1-0.5 2-1 2.9h-493.4c-0.5-0.9-0.8-1.9-1-2.9l-0.9-4.8z"/>
				<path id="&lt;Path&gt;" class="s2" d="m441.9 338.2c0 1.5-1 2.8-2.3 2.8h-79.2c-1.3 0-2.3-1.3-2.3-2.8v-3.8c0-1.5 1-2.7 2.3-2.7h79.2c1.3 0 2.3 1.2 2.3 2.7z"/>
				<g id="&lt;Group&gt;">
					<g id="&lt;Group&gt;">
						<path id="&lt;Path&gt;" class="s5" d="m184 572.7c-4.4 0-8-3-8-6.8 0-15.5 10.3-23.5 18.6-30 7.5-5.9 13.4-10.5 13.4-20 0-9.6-5.9-14.2-13.4-20.1-8.3-6.5-18.6-14.6-18.6-30 0-15.5 10.3-23.6 18.6-30.1 7.5-5.8 13.4-10.5 13.4-20 0-3.8 3.6-6.8 8-6.8 4.4 0 8 3 8 6.8 0 15.5-10.3 23.5-18.6 30-7.5 5.9-13.4 10.5-13.4 20.1 0 9.5 5.9 14.1 13.4 20 8.3 6.5 18.6 14.6 18.6 30.1 0 15.4-10.3 23.5-18.6 30-7.5 5.9-13.4 10.5-13.4 20 0 3.8-3.6 6.8-8 6.8z"/>
					</g>
					<g id="&lt;Group&gt;">
						<path id="&lt;Path&gt;" class="s5" d="m284 572.7c-4.4 0-8-3-8-6.8 0-15.5 10.3-23.5 18.6-30 7.5-5.9 13.4-10.5 13.4-20 0-9.6-5.9-14.2-13.4-20.1-8.3-6.5-18.6-14.6-18.6-30 0-15.5 10.3-23.6 18.6-30.1 7.5-5.8 13.4-10.5 13.4-20 0-3.8 3.6-6.8 8-6.8 4.4 0 8 3 8 6.8 0 15.5-10.3 23.5-18.6 30-7.5 5.9-13.4 10.5-13.4 20.1 0 9.5 5.9 14.1 13.4 20 8.3 6.5 18.6 14.6 18.6 30.1 0 15.4-10.3 23.5-18.6 30-7.5 5.9-13.4 10.5-13.4 20 0 3.8-3.6 6.8-8 6.8z"/>
					</g>
					<g id="&lt;Group&gt;">
						<path id="&lt;Path&gt;" class="s5" d="m384 572.7c-4.4 0-8-3-8-6.8 0-15.5 10.3-23.5 18.6-30 7.5-5.9 13.4-10.5 13.4-20 0-9.6-5.9-14.2-13.4-20.1-8.3-6.5-18.6-14.6-18.6-30 0-15.5 10.3-23.6 18.6-30.1 7.5-5.8 13.4-10.5 13.4-20 0-3.8 3.6-6.8 8-6.8 4.4 0 8 3 8 6.8 0 15.5-10.3 23.5-18.6 30-7.5 5.9-13.4 10.5-13.4 20.1 0 9.5 5.9 14.1 13.4 20 8.3 6.5 18.6 14.6 18.6 30.1 0 15.4-10.3 23.5-18.6 30-7.5 5.9-13.4 10.5-13.4 20 0 3.8-3.6 6.8-8 6.8z"/>
					</g>
					<g id="&lt;Group&gt;">
						<path id="&lt;Path&gt;" class="s5" d="m484 572.7c-4.4 0-8-3-8-6.8 0-15.5 10.3-23.5 18.6-30 7.5-5.9 13.4-10.5 13.4-20 0-9.6-5.9-14.2-13.4-20.1-8.3-6.5-18.6-14.6-18.6-30 0-15.5 10.3-23.6 18.6-30.1 7.5-5.8 13.4-10.5 13.4-20 0-3.8 3.6-6.8 8-6.8 4.4 0 8 3 8 6.8 0 15.5-10.3 23.5-18.6 30-7.5 5.9-13.4 10.5-13.4 20.1 0 9.5 5.9 14.1 13.4 20 8.3 6.5 18.6 14.6 18.6 30.1 0 15.4-10.3 23.5-18.6 30-7.5 5.9-13.4 10.5-13.4 20 0 3.8-3.6 6.8-8 6.8z"/>
					</g>
					<g id="&lt;Group&gt;">
						<path id="&lt;Path&gt;" class="s5" d="m584 572.7c-4.4 0-8-3-8-6.8 0-15.5 10.3-23.5 18.6-30 7.5-5.9 13.4-10.5 13.4-20 0-9.6-5.9-14.2-13.4-20.1-8.3-6.5-18.6-14.6-18.6-30 0-15.5 10.3-23.6 18.6-30.1 7.5-5.8 13.4-10.5 13.4-20 0-3.8 3.6-6.8 8-6.8 4.4 0 8 3 8 6.8 0 15.5-10.3 23.5-18.6 30-7.5 5.9-13.4 10.5-13.4 20.1 0 9.5 5.9 14.1 13.4 20 8.3 6.5 18.6 14.6 18.6 30.1 0 15.4-10.3 23.5-18.6 30-7.5 5.9-13.4 10.5-13.4 20 0 3.8-3.6 6.8-8 6.8z"/>
					</g>
				</g>
			</g>
			<path id="&lt;Path&gt;" class="s5" d="m664.2 286.3c0-0.7-0.6-1.3-1.3-1.3h-4.2l4.4-2.5c0.3-0.2 0.5-0.4 0.6-0.8 0.1-0.3 0.1-0.7-0.1-1-0.4-0.6-1.2-0.8-1.8-0.4l-8.3 4.7h-14.4l10.2-10.2 9.2-2.5q0.5-0.2 0.8-0.6 0.3-0.5 0.1-1c-0.2-0.7-0.9-1.1-1.6-0.9l-4.8 1.3 2.9-2.9c0.5-0.5 0.5-1.3 0-1.8-0.5-0.5-1.3-0.5-1.8 0l-3 2.9 1.4-4.9c0.2-0.6-0.2-1.4-0.9-1.5-0.7-0.2-1.4 0.2-1.6 0.9l-2.5 9.2-10.2 10.2v-14.4l4.7-8.4c0.2-0.3 0.2-0.6 0.1-0.9q-0.1-0.5-0.6-0.8c-0.6-0.4-1.4-0.1-1.7 0.5l-2.5 4.4v-4.2c0-0.7-0.6-1.3-1.3-1.3-0.7 0-1.3 0.6-1.3 1.3v4.2l-2.5-4.4c-0.3-0.6-1.2-0.9-1.8-0.5q-0.4 0.3-0.6 0.8c0 0.3 0 0.6 0.2 0.9l4.7 8.4v14.4l-10.2-10.2-2.5-9.2c-0.2-0.7-1-1.1-1.6-0.9-0.7 0.1-1.1 0.9-0.9 1.5l1.3 4.9-2.9-2.9c-0.5-0.5-1.3-0.5-1.8 0-0.5 0.5-0.5 1.3 0 1.8l2.9 2.9-4.9-1.3c-0.6-0.2-1.4 0.2-1.5 0.9-0.2 0.7 0.2 1.4 0.9 1.6l9.2 2.5 10.2 10.2h-14.4l-8.4-4.7c-0.6-0.4-1.4-0.2-1.7 0.4-0.4 0.7-0.1 1.4 0.5 1.8l4.4 2.5h-4.2c-0.7 0-1.3 0.6-1.3 1.3 0 0.7 0.6 1.3 1.3 1.3h4.2l-4.4 2.5c-0.3 0.1-0.5 0.4-0.6 0.7-0.1 0.4-0.1 0.7 0.1 1 0.2 0.4 0.7 0.7 1.1 0.7 0.2 0 0.5-0.1 0.6-0.2l8.4-4.7h14.4l-10.2 10.2-9.2 2.5c-0.7 0.2-1.1 0.9-0.9 1.6 0.1 0.5 0.6 0.9 1.2 0.9q0.2 0 0.3 0l4.9-1.4-2.9 3c-0.5 0.5-0.5 1.3 0 1.8 0.2 0.2 0.5 0.4 0.9 0.4 0.3 0 0.6-0.1 0.9-0.4l2.9-2.9-1.3 4.8c-0.1 0.4-0.1 0.7 0.1 1 0.2 0.3 0.5 0.5 0.8 0.6q0.1 0.1 0.3 0.1c0.6 0 1.1-0.4 1.3-1l2.5-9.2 10.2-10.2v14.4l-4.7 8.3c-0.2 0.3-0.2 0.7-0.2 1q0.2 0.5 0.6 0.8 0.3 0.1 0.7 0.1c0.4 0 0.9-0.2 1.1-0.6l2.5-4.4v4.2c0 0.7 0.6 1.3 1.3 1.3 0.7 0 1.3-0.6 1.3-1.3v-4.2l2.5 4.4c0.2 0.4 0.6 0.6 1.1 0.6q0.3 0 0.6-0.1 0.5-0.3 0.6-0.8c0.1-0.3 0.1-0.7-0.1-1l-4.7-8.3v-14.4l10.2 10.2 2.5 9.2c0.1 0.6 0.7 1 1.2 1q0.2 0 0.4-0.1c0.7-0.2 1.1-0.9 0.9-1.6l-1.4-4.9 3 3q0.4 0.4 0.9 0.4 0.5 0 0.9-0.4c0.5-0.5 0.5-1.3 0-1.8l-2.9-3 4.8 1.4q0.2 0 0.4 0c0.6 0 1.1-0.4 1.2-0.9q0.2-0.5-0.1-1-0.3-0.5-0.8-0.6l-9.2-2.5-10.2-10.2h14.4l8.3 4.7q0.3 0.2 0.7 0.2c0.4 0 0.9-0.3 1.1-0.7 0.2-0.3 0.2-0.6 0.1-1-0.1-0.3-0.3-0.6-0.6-0.7l-4.4-2.5h4.2c0.7 0 1.3-0.6 1.3-1.3z"/>
		</g>
	</g>
</svg>