<svg version="1.2" xmlns="http://www.w3.org/2000/svg" viewBox="0 0 2000 2000" width="1000" height="1000">
	<title>shutterstock_1771610759-ai</title>
	<style>
		.s0 { fill: #dbe6ff } 
		.s1 { fill: #c2c2c2 } 
		.s2 { fill: #ededed } 
		.s3 { fill: #545454 } 
		.s4 { fill: #212121 } 
		.s5 { fill: #343434 } 
		.s6 { fill: #dddddd } 
		.s7 { fill: #afafaf } 
		.s8 { fill: #999999 } 
		.s9 { fill: #3ff256 } 
		.s10 { fill: #3ae64f } 
		.s11 { fill: #7dff8e } 
		.s12 { fill: #cecece } 
		.s13 { fill: #3e3e3e } 
		.s14 { fill: #f4f4f4 } 
		.s15 { fill: #ffff00 } 
		.s16 { fill: #ffffff } 
		.s17 { fill: #48ff60 } 
		.s18 { fill: #484c68 } 
		.s19 { fill: #ff1d25 } 
		.s20 { fill: #545a7a } 
		.s21 { fill: #25293d } 
		.s22 { fill: #262a40 } 
		.s23 { fill: #40476a } 
		.s24 { fill: #2f344e } 
		.s25 { fill: #383f5e } 
		.s26 { fill: #2f3245 } 
		.s27 { fill: #5f658a } 
		.s28 { fill: #5a6496 } 
		.s29 { fill: #4b537d } 
		.s30 { fill: #222538 } 
		.s31 { fill: #c7c7c7 } 
		.s32 { fill: #f23f3f } 
		.s33 { fill: #5b6aa1 } 
		.s34 { fill: #424c73 } 
		.s35 { mix-blend-mode: multiply;fill: #e2e2e2 } 
	</style>
	<g id="_Artboards_">
	</g>
	<g id="Layer 3">
		<g id="&lt;Group&gt;">
			<g id="&lt;Group&gt;">
				<g id="&lt;Group&gt;">
					<path id="&lt;Path&gt;" class="s0" d="m784.1 1504.3l634.3-366.2c45.5-26.3 45.2-75.3 0-101.2l-391.6-226.2c-38.5-22.3-98.8-22.3-137.3 0l-634.5 366.3c-300 182.6 234.4 477.5 529.1 327.3z"/>
				</g>
				<g id="&lt;Group&gt;">
					<g id="&lt;Group&gt;">
						<g id="&lt;Group&gt;">
							<path id="&lt;Path&gt;" class="s1" d="m422.3 765.4c-15.5 20.2-27.6 69.2-20.9 89.4 6.8 20.2 9.6 52.9 40.2 13 30.5-40 21.9-65.1 15.1-85.3-6.7-20.2-19-37.4-34.4-17.1z"/>
							<path id="&lt;Path&gt;" class="s2" d="m441.6 867.8c-6.4 8.3-11.5 13.4-15.8 16.2-5.1-5.8-8.7-17.2-12.9-26-11-23.4 0.7-94.8 20.7-101.4 10.1-2.4 18.1 10.9 23.1 25.9 6.8 20.2 15.4 45.3-15.1 85.3z"/>
						</g>
						<g id="&lt;Group&gt;">
							<path id="&lt;Path&gt;" class="s3" d="m1432 1009.1l-128.7-74.3 41.1-53.8 98.2 68z"/>
						</g>
						<g id="&lt;Group&gt;">
							<g id="&lt;Group&gt;">
								<g id="&lt;Group&gt;">
									<path id="&lt;Path&gt;" class="s4" d="m1398.6 957c-18.4-10.6-40.7-4.8-59.1 5.9-63.6 36.6-104.8 140.4-72.8 186.4 3.8 5.4 8.3 9.7 13.6 12.7l-50.1-28.9c-15.2-8.7-24.6-27.5-24.6-54.2 0-53.3 37.6-118.3 83.8-145 23-13.3 44-14.5 59.1-5.8z"/>
								</g>
								<g id="&lt;Group&gt;">
									<path id="&lt;Path&gt;" class="s5" d="m1423.2 1011.2c0 53.3-37.6 118.4-83.7 145-46.3 26.7-83.8 4.9-83.8-48.3 0-53.3 37.6-118.4 83.8-145 18.4-10.7 40.7-16.5 59.1-5.9 15.2 8.8 24.6 27.5 24.6 54.2z"/>
								</g>
								<g id="&lt;Group&gt;">
									<path id="&lt;Path&gt;" class="s6" d="m1339.5 1124c-30.8 17.8-55.8 3.3-55.8-32.2 0-35.6 25-78.9 55.8-96.7 30.7-17.8 55.8-3.3 55.8 32.2 0 35.6-25.1 78.9-55.8 96.7z"/>
								</g>
							</g>
							<g id="&lt;Group&gt;">
								<g id="&lt;Group&gt;">
									<path id="&lt;Path&gt;" class="s7" d="m1345.8 1028.4c-4.7 1.1-9.2 4-12.7 7.3-5.5-20.5-13.2-21.5 6.3-32.8 19.8-11.4 12-0.6 6.4 25.5z"/>
									<path id="&lt;Path&gt;" class="s7" d="m1363.2 1038.4c-0.8-3.8-2.8-7.3-6.3-9 15-26.1 15.3-36.7 25-22.8 9.9 14.1 1.3 14.4-18.7 31.8z"/>
									<path id="&lt;Path&gt;" class="s7" d="m1356.9 1069.5c3-5 5.4-10.7 6.3-16.3 20.6-5.6 28.6-15.1 18.8 10-9.9 25.5-10.7 15.1-25.1 6.3z"/>
									<path id="&lt;Path&gt;" class="s7" d="m1333.2 1090.6c4.6-1 9.1-4 12.6-7.2 5.6 20.5 13.3 21.5-6.2 32.8-19.8 11.4-12 0.6-6.4-25.6z"/>
									<path id="&lt;Path&gt;" class="s7" d="m1315.7 1080.7c0.9 3.8 2.8 7.3 6.3 9-15 26.1-15.2 36.7-25 22.8-9.9-14.1-1.3-14.4 18.7-31.8z"/>
									<path id="&lt;Path&gt;" class="s7" d="m1322 1049.6c-3 5-5.3 10.6-6.3 16.2-20.6 5.7-28.5 15.2-18.8-9.9 9.9-25.5 10.7-15.1 25.1-6.3z"/>
									<path id="&lt;Path&gt;" class="s7" d="m1346.2 1055.6c0 4.4-3 9.6-6.7 11.7-3.8 2.2-6.8 0.4-6.8-3.9 0-4.3 3-9.5 6.8-11.7 3.7-2.1 6.7-0.4 6.7 3.9z"/>
								</g>
								<g id="&lt;Group&gt;">
									<path id="&lt;Path&gt;" class="s5" d="m1322 1049.6c-3 4.9-5.3 10.6-6.3 16.2-8.9 2.5-15.5 5.6-19.2 6.4 2-10.8 6.4-21.9 12.4-32 3 1.3 6.7 5.5 13.1 9.4z"/>
									<path id="&lt;Path&gt;" class="s5" d="m1351.9 1003.3c-0.7 5-3.7 13.5-6.1 25.1-4.7 1.1-9.2 4-12.6 7.3-2.5-8.9-5.3-14.1-6.1-18.1 6.9-6.3 15.6-12.1 24.8-14.3z"/>
									<path id="&lt;Path&gt;" class="s5" d="m1382.5 1022.6c-3.8 3.7-10.4 8.1-19.3 15.8-0.8-3.8-2.8-7.3-6.3-9 6.5-11.3 10.2-19.7 13.2-24.4 6 3.1 10.3 9.2 12.4 17.6z"/>
									<path id="&lt;Path&gt;" class="s5" d="m1382.5 1046.9c-2.1 10.8-6.5 21.9-12.5 31.9-3-1.2-6.7-5.4-13.1-9.3 3-4.9 5.4-10.6 6.3-16.3 8.9-2.4 15.5-5.6 19.3-6.3z"/>
									<path id="&lt;Path&gt;" class="s5" d="m1351.9 1101.5c-7 6.3-15.7 12.1-24.9 14.3 0.8-5 3.7-13.6 6.2-25.1 4.7-1.1 9.1-4 12.6-7.3 2.4 8.8 5.2 14.1 6.1 18.1z"/>
									<path id="&lt;Path&gt;" class="s5" d="m1322 1089.7c-6.5 11.3-10.2 19.7-13.1 24.4-6-3.1-10.4-9.2-12.4-17.6 3.7-3.7 10.3-8.1 19.2-15.8 0.8 3.8 2.8 7.3 6.3 9z"/>
								</g>
								<g id="&lt;Group&gt;">
									<path id="&lt;Path&gt;" class="s8" d="m1345.8 1028.4c-4.7 1-9.2 4.1-12.6 7.3q-0.8-2.6-1.5-4.8c3.1-2.6 6.9-4.8 10.8-5.7 2.8-12.9 6.1-22.1 6.4-26.7 6.9-1.4 1.2 9.6-3.1 29.9z"/>
									<path id="&lt;Path&gt;" class="s8" d="m1363.2 1038.4c-0.3-1.7-0.9-3.2-1.7-4.6 18.9-16 28.1-17 15.5-32.6 1.4 0.9 3 2.7 4.9 5.4 9.9 14.1 1.3 14.4-18.7 31.8z"/>
									<path id="&lt;Path&gt;" class="s8" d="m1382 1063.2c-9.9 25.5-10.7 15.1-25.1 6.3q0.3-0.4 0.5-0.8c10.9 8 12.4 14.4 21.4-8.7 2.5-6.5 3.9-10.7 4.1-13.2 4.5-0.7 4.5 2.6-0.9 16.4z"/>
									<path id="&lt;Path&gt;" class="s8" d="m1339.6 1116.2c-10 5.7-13 5.8-12.7 1.2 2-0.5 5-1.9 9.4-4.5 17.9-10.3 13-12 7.7-28q0.9-0.7 1.8-1.5c5.6 20.5 13.3 21.5-6.2 32.8z"/>
									<path id="&lt;Path&gt;" class="s8" d="m1322 1089.7c-14.1 24.5-15.1 35.3-23.3 25 5.5 3.6 8-7.2 19.9-27.8q1.5 1.8 3.4 2.8z"/>
									<path id="&lt;Path&gt;" class="s8" d="m1322 1049.6c-2.9 4.9-5.3 10.6-6.3 16.3-15.3 4.1-23.6 10.4-22.9 3.2 3.7-0.6 10.4-3.9 19.7-6.5 0.9-5.3 3.1-10.8 5.8-15.5q1.7 1.3 3.7 2.5z"/>
									<path id="&lt;Path&gt;" class="s8" d="m1339.5 1067.3c-3.3 1.9-6 0.8-6.6-2.3 5 0.5 11.2-8.2 10-14.2 6 0.6 3.3 12.6-3.4 16.5z"/>
								</g>
							</g>
						</g>
						<g id="&lt;Group&gt;">
							<path id="&lt;Path&gt;" class="s3" d="m880.1 1328.6l-128.8-74.4 41.2-53.8 103.6 72.1z"/>
						</g>
						<g id="&lt;Group&gt;">
							<g id="&lt;Group&gt;">
								<g id="&lt;Group&gt;">
									<path id="&lt;Path&gt;" class="s4" d="m847.2 1272.9c-19.3-11.1-42.8-5-62.2 6.1-66.5 38.4-109.9 147.1-76.4 195.8 3.9 5.7 8.7 10.1 14.3 13.3l-51.7-29.8c-15.9-9.2-25.7-28.8-25.7-56.9 0-55.9 39.4-124.2 87.9-152.2 24.2-14 46.2-15.3 62.1-6.1z"/>
								</g>
								<g id="&lt;Group&gt;">
									<path id="&lt;Path&gt;" class="s5" d="m872.9 1329.8c0 56-39.4 124.3-87.9 152.2-48.4 28-87.9 5.3-87.9-50.7 0-77 72.5-168.7 131.2-164.1 7 0.5 13.3 2.5 18.9 5.7 15.9 9.3 25.7 28.9 25.7 56.9z"/>
								</g>
								<g id="&lt;Group&gt;">
									<path id="&lt;Path&gt;" class="s6" d="m785.1 1448.2c-32.4 18.7-58.7 3.5-58.7-33.8 0-37.3 26.3-82.9 58.7-101.5 32.3-18.7 58.6-3.5 58.6 33.8 0 37.3-26.3 82.9-58.6 101.5z"/>
								</g>
							</g>
							<g id="&lt;Group&gt;">
								<g id="&lt;Group&gt;">
									<path id="&lt;Path&gt;" class="s7" d="m791.7 1347.9c-4.9 1.1-9.6 4.2-13.3 7.6-5.9-21.5-13.9-22.6 6.6-34.4 20.7-12 12.6-0.7 6.7 26.8z"/>
									<path id="&lt;Path&gt;" class="s7" d="m810 1358.3c-0.9-4-3-7.6-6.6-9.4 15.7-27.4 16-38.5 26.2-23.9 10.4 14.7 1.4 15-19.6 33.3z"/>
									<path id="&lt;Path&gt;" class="s7" d="m803.4 1391c3.2-5.2 5.6-11.2 6.6-17.1 21.6-5.9 30-15.9 19.7 10.5-10.4 26.8-11.2 15.8-26.3 6.6z"/>
									<path id="&lt;Path&gt;" class="s7" d="m778.5 1413.2c4.8-1.1 9.5-4.2 13.2-7.7 5.9 21.6 13.9 22.7-6.6 34.5-20.7 12-12.5 0.7-6.6-26.8z"/>
									<path id="&lt;Path&gt;" class="s7" d="m760.1 1402.8c0.9 4 3 7.6 6.6 9.4-15.7 27.4-16 38.5-26.2 23.9-10.4-14.7-1.4-15.1 19.6-33.3z"/>
									<path id="&lt;Path&gt;" class="s7" d="m766.7 1370.1c-3.2 5.2-5.6 11.2-6.6 17.1-21.6 5.9-30 15.9-19.7-10.5 10.4-26.8 11.2-15.8 26.3-6.6z"/>
									<path id="&lt;Path&gt;" class="s7" d="m792.1 1376.5c0 4.5-3.1 10-7 12.2-4 2.3-7.1 0.5-7.1-4.1 0-4.5 3.1-10 7.1-12.2 3.9-2.3 7-0.5 7 4.1z"/>
								</g>
								<g id="&lt;Group&gt;">
									<path id="&lt;Path&gt;" class="s5" d="m766.7 1370.1c-3.1 5.2-5.6 11.2-6.6 17.1-9.4 2.5-16.2 5.8-20.2 6.7 2.1-11.4 6.8-23 13.1-33.6 3.1 1.3 7 5.7 13.7 9.8z"/>
									<path id="&lt;Path&gt;" class="s5" d="m798.1 1321.5c-0.8 5.2-3.8 14.2-6.4 26.4-4.9 1.1-9.6 4.2-13.3 7.6-2.5-9.3-5.5-14.8-6.4-19 7.3-6.6 16.5-12.7 26.1-15z"/>
									<path id="&lt;Path&gt;" class="s5" d="m830.2 1341.8c-3.9 3.9-10.9 8.4-20.2 16.5-0.9-4-3-7.6-6.6-9.4 6.8-11.8 10.7-20.7 13.8-25.6 6.3 3.3 10.9 9.6 13 18.5z"/>
									<path id="&lt;Path&gt;" class="s5" d="m830.2 1367.2c-2.1 11.4-6.8 23-13.1 33.6-3.1-1.3-7-5.7-13.7-9.8 3.1-5.2 5.6-11.1 6.6-17.1 9.4-2.5 16.2-5.8 20.2-6.7z"/>
									<path id="&lt;Path&gt;" class="s5" d="m798.1 1424.6c-7.3 6.6-16.5 12.7-26.1 15 0.8-5.2 3.8-14.2 6.4-26.4 5-1.1 9.6-4.2 13.3-7.7 2.5 9.4 5.5 14.9 6.4 19.1z"/>
									<path id="&lt;Path&gt;" class="s5" d="m766.7 1412.2c-6.8 11.8-10.7 20.7-13.8 25.6-6.3-3.3-10.9-9.6-13-18.5 3.9-3.8 10.9-8.4 20.2-16.5 0.9 4 3 7.6 6.6 9.4z"/>
								</g>
								<g id="&lt;Group&gt;">
									<path id="&lt;Path&gt;" class="s8" d="m791.7 1347.9c-4.9 1-9.6 4.2-13.3 7.7q-0.7-2.8-1.5-5.1c3.3-2.7 7.3-5.1 11.4-6 2.9-13.6 6.4-23.2 6.6-28 7.3-1.5 1.3 10-3.2 31.4z"/>
									<path id="&lt;Path&gt;" class="s8" d="m810 1358.3c-0.4-1.7-1-3.3-1.8-4.7 19.8-16.9 29.5-17.9 16.3-34.4 1.5 1 3.1 2.9 5.1 5.8 10.4 14.7 1.4 15-19.6 33.3z"/>
									<path id="&lt;Path&gt;" class="s8" d="m829.7 1384.4c-10.3 26.8-11.2 15.8-26.3 6.6q0.2-0.4 0.5-0.8c11.5 8.3 13 15.1 22.4-9.2 2.7-6.8 4.1-11.2 4.4-13.8 4.7-0.8 4.7 2.7-1 17.2z"/>
									<path id="&lt;Path&gt;" class="s8" d="m785.1 1440c-10.5 6.1-13.5 6.2-13.3 1.2 2.1-0.4 5.3-1.9 10-4.6 18.7-10.8 13.5-12.6 8-29.4q1-0.8 1.9-1.7c5.9 21.6 13.9 22.7-6.6 34.5z"/>
									<path id="&lt;Path&gt;" class="s8" d="m766.8 1412.2c-14.9 25.8-16 37.1-24.6 26.3 5.8 3.7 8.5-7.6 20.9-29.2q1.6 1.9 3.7 2.9z"/>
									<path id="&lt;Path&gt;" class="s8" d="m766.7 1370.1c-3.1 5.1-5.6 11.2-6.6 17.1-16 4.3-24.8 11-24 3.4 3.8-0.7 10.9-4.2 20.6-6.8 1-5.6 3.3-11.3 6.2-16.3q1.7 1.3 3.8 2.6z"/>
									<path id="&lt;Path&gt;" class="s8" d="m785.1 1388.7c-3.4 2-6.3 0.9-7-2.4 5.3 0.5 11.8-8.6 10.5-14.9 6.4 0.6 3.5 13.2-3.5 17.3z"/>
								</g>
							</g>
						</g>
						<path id="&lt;Path&gt;" class="s9" d="m1443.2 900.9v-95.1c0-27.4-8.9-54.9-27.4-78.4 13.1 21.6 13.8 40.2-5.5 53.8l-611.8 353.2-122.6 78.6-13.1 115.6 13.1 99.3c0-65.1 45.7-144.3 102.1-176.9 56.4-32.5 102.1-6.1 102.1 59 0 0 347.8-200.8 347.8-200.8-0.5-64.7 45.1-144.7 102.1-177.6 56.3-32.6 102-6.2 102 58.9 19.5-17 11.2-49.1 11.2-89.6z"/>
						<g id="&lt;Group&gt;">
							<path id="&lt;Path&gt;" class="s10" d="m1136.2 955.5l-36.8 203.6-8.9 8.3 37.3-207z"/>
						</g>
						<g id="&lt;Group&gt;">
							<path id="&lt;Path&gt;" class="s10" d="m899.4 1273.2l-9 13.4-7.9-181.8 8.4-4.9z"/>
						</g>
						<g id="&lt;Group&gt;">
							<path id="&lt;Path&gt;" class="s10" d="m1097.5 1170.8l-207.1 115.9 6.8-14.6 202.2-113z"/>
						</g>
						<g id="&lt;Group&gt;">
							<g id="&lt;Group&gt;">
								<path id="&lt;Path&gt;" class="s10" d="m1094.1 1020.7v7.4c0 3.1-1.7 6-4.4 7.6l-42.8 24.7c-2.4 1.3-5.3-0.4-5.3-3.1v-7.3c0-3.2 1.7-6.1 4.4-7.6l42.8-24.8c2.4-1.3 5.3 0.4 5.3 3.1z"/>
							</g>
						</g>
						<path id="&lt;Path&gt;" class="s11" d="m798.5 1134.4l-122.6 78.6-414.3-231.6 124.4-85.2z"/>
						<path id="&lt;Path&gt;" class="s11" d="m675.9 1213c0 0-53.2 48-165.2 28.1-113.3-20.1-233.2-74.8-268.1-144.3-36-71.7 19-115.4 19-115.4z"/>
						<path id="&lt;Path&gt;" class="s11" d="m852.4 1052.9l-66.5 74.2 32.2 8.2 99.8-64.4z"/>
						<g id="&lt;Group&gt;">
							<path id="&lt;Path&gt;" class="s12" d="m675.9 1213v214.9c-20.4 11.2-35.9 10.3-80.7 13.5-135.4 9.7-385.3-46.4-380.9-246.4 1.2-54.2-10.1-127.7 25.3-186.5-17.2 26.5-12.7 59.6 3 88.4 37.3 68.1 154.8 124.1 268.1 144.2 112 19.9 165.2-28.1 165.2-28.1z"/>
						</g>
						<g id="&lt;Group&gt;">
							<path id="&lt;Path&gt;" class="s12" d="m239.6 1008.5q-2.1 3.5-4 7 1.8-3.6 4-7z"/>
							<path id="&lt;Path&gt;" class="s9" d="m675.9 1213v214.9c-20.4 11.2-35.9 10.3-80.7 13.5-144.9 10.4-385.2-51.6-380.9-246.4 1.1-52-9.2-121.9 21.3-179.4-12.3 25.1-7.4 55 7 81.3 37.3 68.1 154.8 124.1 268.1 144.2 112 19.9 165.2-28.1 165.2-28.1z"/>
						</g>
						<path id="&lt;Path&gt;" class="s13" d="m553.3 1245.2v47.5c-121.3 6.2-299.3-83.6-331.9-158.3l10.8-80.4c-0.1 14.4 3.4 28.9 10.7 42.2 37.3 68.2 155.9 125.1 269.2 145.2 14.2 2.6 28 3.7 41.2 3.8z"/>
						<path id="&lt;Path&gt;" class="s14" d="m239.6 1008.5c-8.3 13.6-9.2 35.9-10.2 46.1 0.6 29.5-0.3 62.5-8 79.8-6.5-14.9-8.9-38.6-5.7-54.3 3.7-24 6.5-48.2 23.9-71.6z"/>
						<path id="&lt;Path&gt;" class="s15" d="m672.1 1218.5c-0.1 0.1 4.5 43-35.1 58.8v-43.4c13.5-4.5 25.1-10.5 35.1-15.4z"/>
						<g id="&lt;Group&gt;">
							<path id="&lt;Path&gt;" class="s11" d="m666.4 1206.7l710.6-418.7 10.9 18.5-650.5 383.2c-36.4 20.4-82.9 38.4-100.4 41.8z"/>
						</g>
						<g id="&lt;Group&gt;">
							<path id="&lt;Path&gt;" class="s14" d="m637 1233.9c6.2 11.6 6.3 26.3 0 43.4-27.9 11-55.9 14.1-83.7 15.4-10.2-15.5-9.7-31.3 0-47.5 31.8 0.2 60.2-3.4 83.7-11.3z"/>
							<path id="&lt;Path&gt;" class="s6" d="m589.2 1274.2c0 6-4.8 8.8-10.8 6.3-5.9-2.5-10.8-9.3-10.8-15.3 0-6 4.9-8.8 10.8-6.3 6 2.5 10.8 9.4 10.8 15.3z"/>
							<path id="&lt;Path&gt;" class="s6" d="m616.7 1268.8c0 7.1-5.7 10.4-12.8 7.5-7.1-3-12.9-11.2-12.9-18.3 0-7 5.8-10.4 12.9-7.4 7.1 3 12.8 11.1 12.8 18.2z"/>
						</g>
						<path id="&lt;Path&gt;" class="s16" d="m261.6 981.4c-9 7.9-17.1 19.3-22.1 30.1-10.8 23.4-10 47.8 0.2 71.6 18.5 43.6 65.9 76.4 107.9 98.1 49 25.4 104.3 43.2 159.4 54.1 60.8 11.9 109 7.1 165.2-15.2-42.3 23.1-86.4 32-128.9 29.6-88.4-4.7-271.4-64-309.5-164.2-9.5-25.1-9.6-51.3 3.3-75.2 6.8-12.5 16.5-23.1 24.5-28.9z"/>
						<g id="&lt;Group&gt;">
							<path id="&lt;Path&gt;" class="s5" d="m880.1 1328.6v-18.6l347.8-200.8v18.6z"/>
						</g>
						<path id="&lt;Path&gt;" class="s5" d="m1432 1009.1v-18.6c6.2-5.1 13-15.3 13-37.6 0 0 25.8 33.8-13 56.2z"/>
						<g id="&lt;Group&gt;">
							<path id="&lt;Path&gt;" class="s17" d="m1136.2 955.5l-8.4 4.9-12.4-18.8 7.9-4.6z"/>
						</g>
						<g id="&lt;Group&gt;">
							<path id="&lt;Path&gt;" class="s17" d="m890.9 1099.9l-8.4 4.9 5.7-28.9 8.5-5z"/>
						</g>
						<path id="&lt;Path&gt;" class="s18" d="m850.3 1098.5c-8.8 5.2-18.5-5.2-12.8-13.6 36.3-53.1 70.9-119.6 131-189.4 26.7-31 286-171.5 350.4-206.9 0.1 0 18.4-42.8 18.4-42.8 50.6 29.2 78.8 82.2 78.9 82.2l-39.2 60c0 0-378.7 223.8-526.7 310.5z"/>
						<path id="&lt;Path&gt;" class="s2" d="m880.1 1310c-3.4-17.1-9.1-36.6-21.7-48.8-6-5.9-9.7-7.7-15.7-10.3-3.3-1.3-9.2-2.5-13.4-2.6-7.1 0.1-5.5 0.1-10.5 0.6-49.1 8.9-91.8 62.1-116.1 105.9-2.6 4.7-6.8 13.1-11.9 24.7-6.6 16.3-11.2 29.6-14.9 48.4-10.1-51.3 18.1-129 73.6-173.4 5.8-4.5 3.5-2.8 9.8-7.3 31.9-22 74.7-32.1 102.7-5.8 18.2 17.4 22.8 44.2 18.1 68.6z"/>
						<path id="&lt;Path&gt;" class="s2" d="m1227.9 1108.4c-15.2-77.7 54.4-192.2 135.9-201.7 50-5.1 77.6 36.1 68.2 83.8-2.8-14.4-6.8-28.8-15.2-41-45.2-67-165.4 40.4-188.9 158.9z"/>
						<path id="&lt;Path&gt;" class="s19" d="m1443.2 851.3c-8.6 5-13.7 1.3-13.7-5.3v-31c0-7.3 5.9-16.6 13.2-20.8 0.7 7.8 0.5 8.2 0.5 57.1z"/>
						<path id="&lt;Path&gt;" class="s14" d="m968.5 895.5c-80.8 93.7-103 165.2-170 233.4-61.9 51.7-430.7-179.2-412.5-232.7 55-57.6 100.5-138.6 181.3-232.3 0 0 401.2 231.6 401.2 231.6z"/>
						<path id="&lt;Path&gt;" class="s5" d="m927.3 909.5c-46.2 57.2-71.4 107.8-117.9 172.9-15.2 21.2-41.1 31.6-65.3 22.2-123-47.6-227.3-110.1-306.9-178.6-14.9-12.9-16.1-32.9-4.4-48.7 39.2-52.5 91.5-124.5 140.1-183.5z"/>
						<path id="&lt;Path&gt;" class="s18" d="m927.3 909.5c-41.1 54.1-79.1 117.6-109.1 160.5-13.2 18.7-42.6 26.8-63.9 18.5-122.3-47.4-227-108.3-306.3-176.5-14.2-12.2-16.4-33.2-5.1-48.2 33.9-45 77.9-110.7 126.2-167.5 7.5-8.9 20.4-11.1 30.6-5.3l321 185.4c11.7 6.8 14.8 22.3 6.6 33.1z"/>
						<path id="&lt;Path&gt;" class="s20" d="m686.6 741.2l-201.5 116.4c-7 4.1-14.8-3.6-11-10.7 40.1-74.7 63-105.1 97.1-144.7 2.9-3.3 7.9-8.2 14.7-14.4 4.7-0.3 9.5 0.8 13.8 3.2z"/>
						<g id="&lt;Clip Group&gt;">
							<path id="&lt;Path&gt;" fill-rule="evenodd" class="s21" d="m1377 788c29.2-45-22.2-109.1-102.7-75.2 0 0-279.1 151.7-305.8 182.7-60.1 69.8-94.7 136.3-131 189.4-5.7 8.4 4.3 19.3 12.8 13.6zm-456.4 88.4l-321-185.3c-10.1-5.9-23-3.7-30.6 5.2-48.2 56.9-92.2 122.6-126.1 167.5-11.3 15-9.2 36 5 48.2 79.3 68.2 184.1 129.1 306.4 176.5 21.3 8.3 50.7 0.2 63.8-18.5 30.1-42.9 68.1-106.4 109.2-160.5 8.2-10.8 5.1-26.3-6.7-33.1z"/>
							<g id="&lt;Group&gt;">
								<path id="&lt;Path&gt;" class="s22" d="m754.3 1109.5l-175.3-101.7 288.3-166.5 175.3 101.8z"/>
							</g>
							<g id="&lt;Group&gt;">
								<g id="&lt;Group&gt;">
									<g id="&lt;Group&gt;">
										<path id="&lt;Path&gt;" class="s23" d="m1242 994.8l-398.4-230.6 24-118.2 398.4 230.6z"/>
									</g>
									<g id="&lt;Group&gt;">
										<path id="&lt;Path&gt;" class="s24" d="m1113.3 1129.5l-398.4-230.6c-2-1.1-3.2-3.6-3.3-7.1l398.4 230.6c0 3.5 1.3 5.9 3.3 7.1z"/>
									</g>
									<g id="&lt;Group&gt;">
										<path id="&lt;Path&gt;" class="s24" d="m906.8 530.4l398.4 230.5c-2-1.2-4.8-1-7.9 0.8l-398.3-230.6c3-1.8 5.8-1.9 7.8-0.7z"/>
									</g>
									<g id="&lt;Group&gt;">
										<path id="&lt;Path&gt;" class="s25" d="m1110 1122.4l-398.4-230.6-0.1-38.6 398.4 230.6z"/>
									</g>
									<g id="&lt;Group&gt;">
										<path id="&lt;Path&gt;" class="s25" d="m1121 1064.6l-398.4-230.5 121-69.9 398.4 230.6z"/>
									</g>
									<g id="&lt;Group&gt;">
										<path id="&lt;Path&gt;" class="s23" d="m1109.9 1083.8l-398.4-230.6c0-7 5-15.6 11.1-19.1l398.4 230.5c-6.1 3.5-11.1 12.2-11.1 19.2z"/>
									</g>
									<g id="&lt;Group&gt;">
										<path id="&lt;Path&gt;" class="s25" d="m1266 876.6l-398.4-230.6-0.3-83.9 398.4 230.6z"/>
									</g>
									<g id="&lt;Group&gt;">
										<path id="&lt;Path&gt;" class="s25" d="m1276.8 773.5l-398.4-230.5 20.6-11.9 398.3 230.6z"/>
									</g>
									<g id="&lt;Group&gt;">
										<path id="&lt;Path&gt;" class="s24" d="m1297.3 761.7c6.1-3.6 11.1-0.7 11.2 6.3l0.2 90.4-37.3 183.6c-17 9.8-132.9 76.7-150.3 86.7-6.1 3.5-11.1 0.7-11.1-6.3l-0.1-38.6c0-7 5-15.7 11.1-19.2l121-69.8 24-118.2-0.3-83.9c0-7 5-15.7 11.1-19.2z"/>
									</g>
									<g id="&lt;Group&gt;">
										<path id="&lt;Path&gt;" class="s23" d="m1265.7 792.7l-398.4-230.6c0-7 5-15.6 11.1-19.1l398.4 230.5c-6.1 3.5-11.1 12.2-11.1 19.2z"/>
									</g>
								</g>
							</g>
							<g id="&lt;Group&gt;">
								<g id="&lt;Group&gt;">
									<g id="&lt;Group&gt;">
										<path id="&lt;Path&gt;" class="s23" d="m837.1 970.9l-156.7-91 24-118.2 156.7 91z"/>
									</g>
									<g id="&lt;Group&gt;">
										<path id="&lt;Path&gt;" class="s24" d="m708.4 1105.7l-156.7-91.1c-2-1.1-3.2-3.6-3.2-7.1l156.7 91.1c0 3.4 1.2 5.9 3.2 7.1z"/>
									</g>
									<g id="&lt;Group&gt;">
										<path id="&lt;Path&gt;" class="s24" d="m743.6 646l156.8 91.1c-2-1.2-4.8-1.1-7.9 0.7l-156.7-91c3-1.8 5.8-1.9 7.8-0.8z"/>
									</g>
									<g id="&lt;Group&gt;">
										<path id="&lt;Path&gt;" class="s25" d="m705.2 1098.6l-156.7-91.1-0.2-38.6 156.8 91z"/>
									</g>
									<g id="&lt;Group&gt;">
										<path id="&lt;Path&gt;" class="s25" d="m716.1 1040.8l-156.7-91 121-69.9 156.7 91z"/>
									</g>
									<g id="&lt;Group&gt;">
										<path id="&lt;Path&gt;" class="s23" d="m705.1 1059.9l-156.8-91c0-7 5-15.6 11.1-19.1l156.7 91c-6.1 3.5-11 12.1-11 19.1z"/>
									</g>
									<g id="&lt;Group&gt;">
										<path id="&lt;Path&gt;" class="s25" d="m861.1 852.7l-156.7-91-0.2-83.9 156.7 91z"/>
									</g>
									<g id="&lt;Group&gt;">
										<path id="&lt;Path&gt;" class="s25" d="m871.9 749.7l-156.7-91 20.6-11.9 156.7 91z"/>
									</g>
									<g id="&lt;Group&gt;">
										<path id="&lt;Path&gt;" class="s24" d="m892.5 737.8c6.1-3.5 11.1-0.6 11.1 6.4l0.3 90.3-37.3 183.6c-17.1 9.9-132.9 76.8-150.3 86.8-6.1 3.5-11.1 0.7-11.1-6.3l-0.1-38.7c0-7 4.9-15.6 11-19.1l121-69.9 24-118.2-0.2-83.9c0-7 4.9-15.6 11-19.1z"/>
									</g>
									<g id="&lt;Group&gt;">
										<path id="&lt;Path&gt;" class="s23" d="m860.9 768.8l-156.7-91c-0.1-7 4.9-15.6 11-19.1l156.7 91c-6.1 3.5-11 12.1-11 19.1z"/>
									</g>
								</g>
							</g>
							<g id="&lt;Group&gt;">
								<g id="&lt;Group&gt;">
									<g id="&lt;Group&gt;">
										<path id="&lt;Path&gt;" class="s23" d="m1060.2 1099.7l-175.3-101.7 24-118.2 175.3 101.7z"/>
									</g>
									<g id="&lt;Group&gt;">
										<path id="&lt;Path&gt;" class="s24" d="m931.5 1234.4l-175.3-101.7c-2-1.2-3.3-3.6-3.3-7.1l175.3 101.7c0 3.5 1.3 6 3.3 7.1z"/>
									</g>
									<g id="&lt;Group&gt;">
										<path id="&lt;Path&gt;" class="s24" d="m948.1 764.1l175.3 101.7c-2-1.1-4.8-1-7.9 0.8l-175.3-101.8c3.1-1.7 5.9-1.9 7.9-0.7z"/>
									</g>
									<g id="&lt;Group&gt;">
										<path id="&lt;Path&gt;" class="s25" d="m928.2 1227.3l-175.3-101.7-0.1-38.6 175.3 101.7z"/>
									</g>
									<g id="&lt;Group&gt;">
										<path id="&lt;Path&gt;" class="s25" d="m939.2 1169.6l-175.3-101.8 121-69.8 175.3 101.7z"/>
									</g>
									<g id="&lt;Group&gt;">
										<path id="&lt;Path&gt;" class="s23" d="m928.1 1188.7l-175.3-101.7c0-7 5-15.7 11.1-19.2l175.3 101.8c-6.1 3.5-11.1 12.1-11.1 19.1z"/>
									</g>
									<g id="&lt;Group&gt;">
										<path id="&lt;Path&gt;" class="s25" d="m1084.2 981.5l-175.3-101.7-0.3-83.9 175.3 101.7z"/>
									</g>
									<g id="&lt;Group&gt;">
										<path id="&lt;Path&gt;" class="s25" d="m1095 878.5l-175.3-101.8 20.5-11.9 175.3 101.8z"/>
									</g>
									<g id="&lt;Group&gt;">
										<path id="&lt;Path&gt;" class="s24" d="m1115.5 866.6c6.1-3.5 11.2-0.7 11.2 6.3l0.2 90.4-37.2 183.6c-17.1 9.9-133 76.7-150.3 86.8-6.1 3.5-11.1 0.6-11.2-6.4l-0.1-38.6c0-7 5-15.6 11.1-19.1l121-69.9 24-118.2-0.3-83.9c0-7 5-15.6 11.1-19.1z"/>
									</g>
									<g id="&lt;Group&gt;">
										<path id="&lt;Path&gt;" class="s23" d="m1083.9 897.6l-175.3-101.7c0-7.1 5-15.7 11.1-19.2l175.3 101.8c-6.1 3.5-11.1 12.1-11.1 19.1z"/>
									</g>
								</g>
							</g>
						</g>
						<path id="&lt;Path&gt;" class="s5" d="m1126.6 792.7v142.4l-17 9.8v-141.8c8.5-5.3 8.2-5.2 17-10.4z"/>
						<path id="&lt;Path&gt;" class="s5" d="m1282.8 701.3v142.4l-17 9.8v-141.8c8.5-5.3 8.1-5.3 17-10.4z"/>
						<path id="&lt;Path&gt;" class="s26" d="m818.2 1070c-13.2 18.7-42.6 26.8-63.9 18.5-122.3-47.4-227-108.3-306.3-176.5-9.5-8.1-13.6-20.1-12-31.7 0 0 42.9-22.4 227.6 121.6 69-12.3 119.2 3.9 154.6 68.1z"/>
						<g id="&lt;Group&gt;" style="opacity: .3">
							<path id="&lt;Path&gt;" class="s27" d="m705.8 1068.6c-48.1-20.9-93.1-43.9-134.4-68.6l-100.6-174.2c16.3-22.6 34.1-47.5 53-72.6z"/>
							<path id="&lt;Path&gt;" class="s27" d="m811.1 1077.8c-10.4 9.1-25.3 14.2-39.4 13.9l-217.8-377.1q7.5-9.3 15.2-18.3c4.3-5.2 10.5-8.1 16.8-8.5z"/>
						</g>
						<path id="&lt;Path&gt;" class="s6" d="m1267.6 716.4c58.8-32 139.9 19.3 109.4 71.6 41-13.5 53.5-42.8 38.8-60.6-7.8 15.2-86.5-44.6-86.5-44.6-17.7 7.5-39.2 19.9-61.7 33.6z"/>
						<g id="&lt;Group&gt;">
							<path id="&lt;Path&gt;" class="s14" d="m1329.3 682.8c0 0-331.4 178.6-360.8 212.7l-401.2-231.6c29.5-34.1 316-188 316-188 169-95 526.1 153.5 446 206.9z"/>
						</g>
						<path id="&lt;Path&gt;" class="s5" d="m488.6 1436.8c-102.8-15-216.9-61.1-258.2-156.2 0-21.7 6-40 17.9-51.3 43.7 50 130.6 94.4 214.3 112.8 18.9 32.8 27.6 67 26 94.7z"/>
						<path id="&lt;Path&gt;" class="s13" d="m488.7 1426.1c-99.5-16.8-206.3-62.9-246.1-154.3 0.1-15 3-28.5 8.8-39.1 44.6 48.6 129.4 91.5 211.2 109.4 16.6 28.7 25.3 58.5 26.1 84z"/>
						<g id="&lt;Group&gt;">
							<g id="&lt;Group&gt;">
								<path id="&lt;Path&gt;" class="s16" d="m269.8 1277.4v-52.4l143.7 83.1v52.4z"/>
							</g>
							<g id="&lt;Group&gt;">
								<path id="&lt;Compound Path&gt;" fill-rule="evenodd" class="s5" d="m269.8 1225v0.1q-0.1-0.1 0-0.1zm0 0.1c0.3 0.2 7.7 4.4 143.7 83v52.4l-143.7-83.1zm2.1 51.2l139.5 80.5v-47.4l-139.5-80.6c-0.1 0 0-1.3 0 47.5z"/>
							</g>
						</g>
						<path id="&lt;Path&gt;" class="s5" d="m898.2 990v80l-11.5 6.7v-68.8q5.6-8.8 11.5-17.9z"/>
						<g id="&lt;Group&gt;">
							<path id="&lt;Path&gt;" class="s5" d="m675.9 1427.9c-18.3 11.9-35.8 12.9-71.9 16.8-21.7 2.4-42 4.3-74.6 2.8-87.8-3.9-186.3-31.3-251.9-91.5-18.4-17.3-30-32.5-41.1-52.1-18-32.2-25.8-70.9-22.1-108.9 2.5 50.8 18.7 94.5 53.1 132 69.9 75.6 198.2 107.2 299.4 110.2 18.4 0.5 65.4-0.9 73.6-1.3 16.3-0.9 25.7-3.6 35.5-8z"/>
						</g>
						<g id="&lt;Group&gt;">
							<path id="&lt;Path&gt;" class="s11" d="m1377 788c22.8-14.9 52.5-28.1 38.8-60.6 20.9 24.3 22.5 43.7 0.2 61.8-6.4 4.3-18.2 12.2-28.2 17.4z"/>
						</g>
						<path id="&lt;Path&gt;" class="s5" d="m1267.6 716.4c37.9-22.6 91-9.6 112.1 23.1 14.6 22.9 7.9 47.5-11.5 59.1-160.8 97.9-369.4 220-517.9 299.9 147.1-94.7 355.5-217.9 513.2-307.9 10.2-5.6 16-16.2 16.1-26.2 0-39.6-62.1-72.6-112-48z"/>
						<g id="&lt;Group&gt;">
							<path id="&lt;Path&gt;" class="s1" d="m940.4 1093.9c0 17.2-29.9 39.2-56 39.2-26.2 0-59 6.2-59-27.7 0-33.9 32.8-33.7 59-33.7 26.1 0 56 5.1 56 22.2z"/>
							<path id="&lt;Path&gt;" class="s2" d="m938.9 1087.8c-3.6 16.5-31.2 35.6-55.6 35.6-23.4 0-52 5-57.9-18.1 0.1-33.8 32.9-33.6 59-33.6 22.7 0 48.2 3.8 54.5 16.1z"/>
						</g>
						<path id="&lt;Path&gt;" class="s24" d="m1266.8 936.4l-20.1 11.7c-2.8 1.6-5-0.1-5-3.8v-21.5c0-3.7 2.2-8 5-9.6l20.1-11.6c2.8-1.6 5.1 0.1 5.1 3.8v21.5c0 3.6-2.3 7.9-5.1 9.5z"/>
						<g id="&lt;Group&gt;">
							<g id="&lt;Group&gt;">
								<path id="&lt;Path&gt;" class="s28" d="m1269.5 947.9c0 0-19.4-11.2-19.4-11.2-1.9-1.1-3.1-3.5-3.1-7 0-10.9 11.5-23.3 18.3-19.4l19.4 11.2c1.9 1.1 3.1 3.6 3.1 7 0 10.9-11.5 23.3-18.3 19.4z"/>
							</g>
							<path id="&lt;Path&gt;" class="s29" d="m1279.4 924.6c4.9-2.7 8.2-0.7 8.2 4.8 0 6.2-4.5 14-9.9 17.1-4.8 2.7-8.1 0.8-8.1-4.7 0-6.3 4.4-14 9.8-17.2z"/>
						</g>
						<g id="&lt;Group&gt;">
							<path id="&lt;Path&gt;" class="s30" d="m1246.9 949.9l19.3 11.1c2.6 1.6 4.8 0 4.8-3.6v-20.5c0-3.5-2.2-7.6-4.8-9.1l-19.3-11.1c-2.6-1.5-4.7 0.1-4.7 3.6v20.5c0 3.5 2.1 7.6 4.7 9.1z"/>
							<path id="&lt;Path&gt;" class="s11" d="m1245.3 950.9l19.2 11.1c2.7 1.5 4.8-0.1 4.8-3.6v-20.5c0-3.5-2.1-7.6-4.8-9.2l-19.2-11.1c-2.6-1.5-4.8 0.1-4.8 3.7v20.4c0 3.6 2.2 7.7 4.8 9.2z"/>
						</g>
					</g>
					<path id="&lt;Compound Path&gt;" fill-rule="evenodd" class="s16" d="m1228 940.2c0 3.1 0 13.6 0 16.7 0 6.4-3.9 14-9.2 18.1v9.1l-4 2.3v-9.2c-5.2 2-9.2-1-9.2-7.4v-16.7l2.6-1.5v-17l4-2.3v17l9.3-5.3v-17l3.9-2.3v17zm-4.9 15.6l-5.9 3.2 4.6-12.4-11.2 19.9 5.3-3.1-4.7 11.7z"/>
				</g>
			</g>
			<g id="&lt;Group&gt;">
				<path id="&lt;Path&gt;" class="s0" d="m1723.8 1428.7l-148.1-85.6c-29.6-17-29.5-49.1 0-66.2 24.6-14.2 62.9-14.2 87.6 0l148.2 85.6c29.5 17 29.5 49.1 0 66.2-24.6 14.1-62.9 14.3-87.7 0z"/>
				<g id="&lt;Group&gt;">
					<path id="&lt;Path&gt;" class="s16" d="m1582.9 671.2l148.1 85.6c20.5 11.8 53.7 11.8 74.2 0 20.4-11.9 20.4-31 0-42.8l-148.2-85.6c-20.5-11.8-53.7-11.8-74.1 0-20.5 11.8-20.5 31 0 42.8z"/>
					<path id="&lt;Path&gt;" class="s14" d="m1733.3 747.5l-148.2-85.6c-17.4-10-17.5-24.9 0-35 19.1-11 50.6-11 69.7 0l148.1 85.6c17.5 10 17.5 24.9 0 35-19 10.9-50.4 11.1-69.6 0z"/>
					<path id="&lt;Path&gt;" class="s6" d="m1820.5 735.4v655.2c0 26.9-56.6 40.4-89.5 21.4l-148.1-85.5c-10.3-5.9-15.4-13.7-15.4-21.4v-655.3c0 7.8 5.1 15.5 15.4 21.4l148.1 85.6c33.1 19.1 89.5 5.3 89.5-21.4z"/>
					<path id="&lt;Path&gt;" class="s31" d="m1820.5 735.4v655.2c0 13.5-14.5 22.6-27.5 26.7v-655.3c12.9-4 27.5-13.1 27.5-26.6z"/>
					<path id="&lt;Path&gt;" class="s32" d="m1715.4 1278.2l-116.9-67.5v-483.1l116.9 67.6z"/>
					<path id="&lt;Path&gt;" class="s14" d="m1671.9 925.7l-19-11-14.8 31.5 16.1 9.3-14.3 18.6 35.9-16.2-17.8-11.2z"/>
					<g id="&lt;Group&gt;">
						<g id="&lt;Group&gt;">
							<path id="&lt;Path&gt;" class="s5" d="m1610.3 759.3v97.1l93.2 53.8v-97.1z"/>
							<path id="&lt;Path&gt;" class="s33" d="m1700.2 815l-86.5-49.9v89.4l86.5 49.9z"/>
						</g>
						<g id="&lt;Group&gt;">
							<path id="&lt;Path&gt;" class="s34" d="m1698.7 901.8v-85.9l-83.5-48.3v86z"/>
							<g id="&lt;Group&gt;">
								<path id="&lt;Path&gt;" class="s9" d="m1644.2 836.8l-11.6-6.7v-15l11.6 6.7z"/>
								<path id="&lt;Path&gt;" class="s9" d="m1659.5 845.6l-11.6-6.7v-15l11.6 6.7z"/>
								<path id="&lt;Path&gt;" class="s9" d="m1674.8 854.4l-11.6-6.7v-15l11.6 6.7z"/>
								<path id="&lt;Path&gt;" class="s16" d="m1687.8 861.9l-6.5-3.7v-15l6.5 3.7z"/>
								<path id="&lt;Compound Path&gt;" fill-rule="evenodd" class="s16" d="m1681.3 865.7l-55.2-31.9v-30l55.2 31.9zm-52-56.3v22.5l48.8 28.2v-22.5c-30.2-17.5-18.6-10.8-48.8-28.2z"/>
							</g>
						</g>
						<path id="&lt;Path&gt;" class="s35" d="m1615.2 853.6l83.5-37.7v85.9z"/>
					</g>
					<path id="&lt;Path&gt;" class="s24" d="m1667.1 1062.2l-24-13.9c-2.5-1.4-4.5-4.9-4.5-7.8v-27.7c0-5.2 3.7-7.3 8.2-4.7l24 13.8c2.5 1.5 4.5 5 4.5 7.8v27.8c0 5.2-3.7 7.3-8.2 4.7z"/>
					<path id="&lt;Path&gt;" class="s30" d="m1675.3 1029.7c0 29.5 0 28 0 28.2-0.3-0.1 1.4 0.8-24.4-14.1-2.5-1.4-4.5-4.9-4.5-7.8 0-29.4 0-27.9 0-28.1 0.3 0.1-1.4-0.9 24.4 14 2.5 1.5 4.5 5 4.5 7.8z"/>
					<path id="&lt;Path&gt;" class="s31" d="m1786.8 763.6v655.3q-3.3 0.7-6.7 1.2v-655.3q3.4-0.4 6.7-1.2z"/>
				</g>
			</g>
			<g id="&lt;Group&gt;">
				<g id="&lt;Group&gt;">
					<g id="&lt;Group&gt;">
						<path id="&lt;Path&gt;" class="s28" d="m1650.2 1060.4c0 0 19.3-11.1 19.3-11.1 2-1.2 3.2-3.6 3.2-7 0-10.9-11.6-23.3-18.4-19.4l-19.4 11.2c-1.9 1.1-3.1 3.5-3.1 7 0 10.9 11.6 23.3 18.4 19.3z"/>
					</g>
					<path id="&lt;Path&gt;" class="s29" d="m1640.2 1037.2c-4.9-2.8-8.2-0.7-8.2 4.7 0 6.3 4.5 14 9.9 17.1 4.8 2.8 8.2 0.8 8.2-4.7 0-6.2-4.5-14-9.9-17.1z"/>
				</g>
				<g id="&lt;Group&gt;">
					<path id="&lt;Path&gt;" class="s24" d="m1277.9 943c20.9 12.6 43 27.3 54 49.9 6.7 13.6 6.2 26.9 4.5 42.1-7.7 68.8-50.6 178 26.3 206.4 23 8.4 50.7 0.7 65.5 14.5 11.4 10.8 11.4 25.5 11.5 40.9 0.2 33-2.8 74.7 57.2 88.2 35.1 7.8 75.8 7.7 102.5-20 44-45.6 35.7-140 13.5-199.7-5.1-13.7-12.7-24.8-14.3-48.5-1.8-26.9 5.9-38.7 28.3-53.4 4.5-3 9.2-5.8 14-8.2 7.8-3.9 1-15.5-6.8-11.7-14.7 7.3-29.7 17.6-39.4 31-13.1 18.1-11.3 43.8-6.2 64.3 3.4 13.5 8.9 20.3 16.4 45 14 45.6 20.2 108.6-1 151.3-15.9 31.9-41.3 42.5-75.3 40.5-31-1.8-63.8-8.4-72.3-38.1-8.8-30.6 7.4-72.1-22.4-94.2-20.4-15-47.3-6.5-69.5-15.7-29.6-12.2-34.5-44.8-33.1-73.4 2.4-52.5 24-112.1 18.8-148.3-5-33.7-36.3-57-65.4-74.5-7.5-4.5-14.3 7.2-6.8 11.6z"/>
				</g>
			</g>
		</g>
	</g>
</svg>