<svg version="1.2" xmlns="http://www.w3.org/2000/svg" viewBox="431.2 155.6 1887.63 1713.88">
	<title>shutterstock_1622919802 (1)-ai</title>
	<defs>
		<linearGradient id="g1" x1="431.2" y1="1276.2" x2="2318.8" y2="1276.2" gradientUnits="userSpaceOnUse">
			<stop offset="0" stop-color="#d7d6d2"/>
			<stop offset="1" stop-color="#cac4bb"/>
		</linearGradient>
		<linearGradient id="g2" x1="431.2" y1="712.2" x2="2318.8" y2="712.2" gradientUnits="userSpaceOnUse">
			<stop offset="0" stop-color="#fff9f2"/>
			<stop offset="1" stop-color="#dfdad4"/>
		</linearGradient>
		<linearGradient id="g3" x1="1238" y1="637.3" x2="1273.5" y2="637.3" gradientUnits="userSpaceOnUse">
			<stop offset="0" stop-color="#a09d9a"/>
			<stop offset="1" stop-color="#cac4bb"/>
		</linearGradient>
		<linearGradient id="g4" x1="1273.5" y1="637.3" x2="1309" y2="637.3" gradientUnits="userSpaceOnUse">
			<stop offset="0" stop-color="#a09d9a"/>
			<stop offset="1" stop-color="#595958"/>
		</linearGradient>
		<linearGradient id="g5" x1="1479" y1="776.5" x2="1514.5" y2="776.5" gradientUnits="userSpaceOnUse">
			<stop offset="0" stop-color="#a09d9a"/>
			<stop offset="1" stop-color="#cac4bb"/>
		</linearGradient>
		<linearGradient id="g6" x1="1514.5" y1="776.5" x2="1550.1" y2="776.5" gradientUnits="userSpaceOnUse">
			<stop offset="0" stop-color="#a09d9a"/>
			<stop offset="1" stop-color="#595958"/>
		</linearGradient>
		<linearGradient id="g7" x1="1720.1" y1="915.6" x2="1755.6" y2="915.6" gradientUnits="userSpaceOnUse">
			<stop offset="0" stop-color="#a09d9a"/>
			<stop offset="1" stop-color="#cac4bb"/>
		</linearGradient>
		<linearGradient id="g8" x1="1755.6" y1="915.6" x2="1791.1" y2="915.6" gradientUnits="userSpaceOnUse">
			<stop offset="0" stop-color="#a09d9a"/>
			<stop offset="1" stop-color="#595958"/>
		</linearGradient>
		<linearGradient id="g9" x1="2141.2" y1="880.6" x2="2176.8" y2="880.6" gradientUnits="userSpaceOnUse">
			<stop offset="0" stop-color="#a09d9a"/>
			<stop offset="1" stop-color="#cac4bb"/>
		</linearGradient>
		<linearGradient id="g10" x1="2176.7" y1="880.6" x2="2212.3" y2="880.6" gradientUnits="userSpaceOnUse">
			<stop offset="0" stop-color="#a09d9a"/>
			<stop offset="1" stop-color="#595958"/>
		</linearGradient>
		<linearGradient id="g11" x1="550.1" y1="1097.8" x2="589.6" y2="1097.8" gradientUnits="userSpaceOnUse">
			<stop offset="0" stop-color="#79512e"/>
			<stop offset="1" stop-color="#3f2306"/>
		</linearGradient>
		<linearGradient id="g12" x1="651.7" y1="1055.7" x2="691.2" y2="1055.7" gradientUnits="userSpaceOnUse">
			<stop offset="0" stop-color="#79512e"/>
			<stop offset="1" stop-color="#3f2306"/>
		</linearGradient>
		<linearGradient id="g13" x1="595.3" y1="601.6" x2="747.5" y2="601.6" gradientUnits="userSpaceOnUse">
			<stop offset="0" stop-color="#4fb88c"/>
			<stop offset="1" stop-color="#005e33"/>
		</linearGradient>
		<radialGradient id="g14" cx="492.5" cy="962.8" r="198.8" gradientUnits="userSpaceOnUse">
			<stop offset="0" stop-color="#c0d64a"/>
			<stop offset="1" stop-color="#5c883c"/>
		</radialGradient>
		<linearGradient id="g15" x1="677.3" y1="155.6" x2="1692.1" y2="155.6" gradientUnits="userSpaceOnUse">
			<stop offset="0" stop-color="#fff9f2"/>
			<stop offset="1" stop-color="#dfdad4"/>
		</linearGradient>
		<linearGradient id="g16" x1="1260.8" y1="492.5" x2="1692.1" y2="492.5" gradientUnits="userSpaceOnUse">
			<stop offset="0" stop-color="#cac4bb"/>
			<stop offset="1" stop-color="#a09d9a"/>
		</linearGradient>
		<linearGradient id="g17" x1="677.3" y1="521.8" x2="1260.8" y2="521.8" gradientUnits="userSpaceOnUse">
			<stop offset="0" stop-color="#cac4bb"/>
			<stop offset="1" stop-color="#a09d9a"/>
		</linearGradient>
		<linearGradient id="g18" x1="718.4" y1="184.9" x2="1646.2" y2="184.9" gradientUnits="userSpaceOnUse">
			<stop offset="0" stop-color="#6ce0ff"/>
			<stop offset="1" stop-color="#14b7f0"/>
		</linearGradient>
		<linearGradient id="g19" x1="736.7" y1="200.5" x2="1627.9" y2="200.5" gradientUnits="userSpaceOnUse">
			<stop offset="0" stop-color="#fff9f2"/>
			<stop offset="1" stop-color="#dfdad4"/>
		</linearGradient>
		<linearGradient id="g20" x1="972.1" y1="331.4" x2="1387.7" y2="331.4" gradientUnits="userSpaceOnUse">
			<stop offset="0" stop-color="#fff9f2"/>
			<stop offset="1" stop-color="#dfdad4"/>
		</linearGradient>
		<linearGradient id="g21" x1="903.2" y1="341.8" x2="1461.4" y2="341.8" gradientUnits="userSpaceOnUse">
			<stop offset="0" stop-color="#fff9f2"/>
			<stop offset="1" stop-color="#dfdad4"/>
		</linearGradient>
		<linearGradient id="g22" x1="1260.8" y1="492.5" x2="2275.7" y2="492.5" gradientUnits="userSpaceOnUse">
			<stop offset="0" stop-color="#fff9f2"/>
			<stop offset="1" stop-color="#dfdad4"/>
		</linearGradient>
		<linearGradient id="g23" x1="1844.4" y1="829.4" x2="2275.7" y2="829.4" gradientUnits="userSpaceOnUse">
			<stop offset="0" stop-color="#cac4bb"/>
			<stop offset="1" stop-color="#a09d9a"/>
		</linearGradient>
		<linearGradient id="g24" x1="1260.8" y1="858.7" x2="1844.4" y2="858.7" gradientUnits="userSpaceOnUse">
			<stop offset="0" stop-color="#cac4bb"/>
			<stop offset="1" stop-color="#a09d9a"/>
		</linearGradient>
		<linearGradient id="g25" x1="1301.9" y1="521.8" x2="2229.8" y2="521.8" gradientUnits="userSpaceOnUse">
			<stop offset="0" stop-color="#6ce0ff"/>
			<stop offset="1" stop-color="#14b7f0"/>
		</linearGradient>
		<linearGradient id="g26" x1="1320.3" y1="537.4" x2="2211.4" y2="537.4" gradientUnits="userSpaceOnUse">
			<stop offset="0" stop-color="#fff9f2"/>
			<stop offset="1" stop-color="#dfdad4"/>
		</linearGradient>
		<linearGradient id="g27" x1="1555.6" y1="668.3" x2="1971.2" y2="668.3" gradientUnits="userSpaceOnUse">
			<stop offset="0" stop-color="#fff9f2"/>
			<stop offset="1" stop-color="#dfdad4"/>
		</linearGradient>
		<linearGradient id="g28" x1="1486.8" y1="678.7" x2="2044.9" y2="678.7" gradientUnits="userSpaceOnUse">
			<stop offset="0" stop-color="#fff9f2"/>
			<stop offset="1" stop-color="#dfdad4"/>
		</linearGradient>
	</defs>
	<style>
		.s0 { fill: url(#g1) } 
		.s1 { fill: url(#g2) } 
		.s2 { opacity: .1;fill: #000000 } 
		.s3 { fill: #434447 } 
		.s4 { fill: #2b2b2b } 
		.s5 { fill: #ffffff;stroke: #ff0000;stroke-width: .4 } 
		.s6 { fill: #f05929 } 
		.s7 { fill: #f2794d } 
		.s8 { fill: #f8b195 } 
		.s9 { fill: #f5885e } 
		.s10 { fill: #7e8483 } 
		.s11 { fill: #ff5745 } 
		.s12 { fill: #d9dddd } 
		.s13 { fill: #1f1f1f } 
		.s14 { fill: #5c6362 } 
		.s15 { fill: #274e7c } 
		.s16 { fill: #ffffff } 
		.s17 { fill: #959598 } 
		.s18 { fill: url(#g3) } 
		.s19 { fill: url(#g4) } 
		.s20 { fill: #4cadfc } 
		.s21 { fill: #68b2fc } 
		.s22 { fill: #525354 } 
		.s23 { fill: #36373b } 
		.s24 { fill: #626263 } 
		.s25 { fill: #b6d0fc } 
		.s26 { fill: #1d94ff } 
		.s27 { fill: #80b7f9 } 
		.s28 { fill: #9fc5fc } 
		.s29 { fill: #587483 } 
		.s30 { fill: #2c3f4a } 
		.s31 { fill: #cdd1dd } 
		.s32 { fill: #0c0c0d } 
		.s33 { fill: #252629 } 
		.s34 { fill: #ffe661 } 
		.s35 { fill: #f6c840 } 
		.s36 { fill: #e5b833 } 
		.s37 { fill: #486170 } 
		.s38 { fill: #e6e8ef } 
		.s39 { fill: #b6b6b7 } 
		.s40 { fill: #1c1d1f } 
		.s41 { fill: #121314 } 
		.s42 { fill: url(#g5) } 
		.s43 { fill: url(#g6) } 
		.s44 { fill: #2dcef9 } 
		.s45 { fill: #63dffc } 
		.s46 { fill: #a1eefd } 
		.s47 { fill: #bbf4fc } 
		.s48 { fill: url(#g7) } 
		.s49 { fill: url(#g8) } 
		.s50 { fill: url(#g9) } 
		.s51 { fill: url(#g10) } 
		.s52 { fill: #dae36b } 
		.s53 { fill: url(#g11) } 
		.s54 { fill: url(#g12) } 
		.s55 { fill: url(#g13) } 
		.s56 { fill: url(#g14) } 
		.s57 { fill: #beb9b1 } 
		.s58 { fill: url(#g15) } 
		.s59 { fill: url(#g16) } 
		.s60 { fill: url(#g17) } 
		.s61 { fill: url(#g18) } 
		.s62 { fill: url(#g19) } 
		.s63 { fill: url(#g20) } 
		.s64 { fill: url(#g21) } 
		.s65 { fill: url(#g22) } 
		.s66 { fill: url(#g23) } 
		.s67 { fill: url(#g24) } 
		.s68 { fill: url(#g25) } 
		.s69 { fill: url(#g26) } 
		.s70 { fill: url(#g27) } 
		.s71 { fill: url(#g28) } 
	</style>
	<g id="Layer 1">
		<g id="&lt;Group&gt;">
			<path id="&lt;Path&gt;" class="s0" d="m2318.8 1276.2v29.3c0 23.9-11.8 47.8-35.5 61.5l-837.3 483.4c-43.9 25.4-98.1 25.4-142 0l-837.3-483.4c-23.7-13.7-35.5-37.6-35.5-61.5v-29.3c0 23.9 11.8 47.8 35.5 61.5l837.3 483.4c43.9 25.4 98.1 25.4 142 0l837.3-483.4c23.7-13.7 35.5-37.6 35.5-61.5z"/>
			<path id="&lt;Path&gt;" class="s1" d="m431.2 1276.2c0-24 11.8-47.9 35.5-61.6l837.3-483.3c43.9-25.4 98.1-25.4 142 0l837.3 483.3c23.7 13.7 35.5 37.6 35.5 61.6 0 23.9-11.8 47.8-35.5 61.5l-837.3 483.4c-43.9 25.4-98.1 25.4-142 0l-837.3-483.4c-23.7-13.7-35.5-37.6-35.5-61.5z"/>
			<path id="&lt;Path&gt;" class="s2" d="m1780.9 1598.4l-964.1-556.6 431.3-249 964.2 556.6z"/>
			<g id="&lt;Group&gt;">
				<path id="&lt;Path&gt;" class="s3" d="m1006.6 926.7l-4.4-5c-1.3-1.5-2.1-3.5-2.1-5.5v-4.7c0-2.3 1.9-4.2 4.2-4.2h4.7c2.7 0 4.6 2.4 4.2 5l-2.6 13.3q0 0.1 0 0.2c-0.5 1.8-2.8 2.3-4 0.9z"/>
				<g id="&lt;Group&gt;">
					<path id="&lt;Path&gt;" class="s4" d="m1007.8 929.1c-0.5-0.9 0-2.1 0.9-2.5l0.6-0.3c0.9-0.4 2.1 0 2.5 1 0.5 0.9 0.1 2.1-0.9 2.5l-0.5 0.3c-1 0.4-2.2 0-2.6-1z"/>
				</g>
				<path id="&lt;Path&gt;" class="s4" d="m1100.9 1109l-20.6-11.9q-0.4-0.3-0.8-0.5l-0.4-0.2h0.1c-3.4-2.4-5.5-6.8-5.5-13.1 0-13.3 9.4-29.6 21-36.3 6.8-3.9 12.9-3.6 16.7-0.1h0.1l18.9 10.7c-3.8-2.1-9-1.7-14.7 1.6-11.6 6.7-21 22.9-21 36.3 0.1 6.6 2.4 11.3 6.2 13.5z"/>
				<path id="&lt;Path&gt;" class="s4" d="m1279.7 1005.8l-20.6-12q-0.4-0.2-0.8-0.4l-0.4-0.2c-3.3-2.4-5.4-6.9-5.4-13.1-0.1-13.3 9.3-29.6 20.9-36.3 6.9-3.9 12.9-3.6 16.8-0.1l18.9 10.6v0.1c-3.8-2.1-8.9-1.7-14.6 1.6-11.7 6.7-21 22.9-21 36.3 0 6.6 2.4 11.3 6.2 13.5z"/>
				<path id="&lt;Path&gt;" class="s5" d="m1303.3 962.9l-201.5 116.4z"/>
				<path id="&lt;Path&gt;" class="s6" d="m1328.2 943.7v12.3q0 0.1 0 0.2-0.1 1.5-0.7 3 0 0 0 0.1-0.2 0.4-0.5 0.8 0 0.1-0.1 0.2-0.2 0.3-0.4 0.6-0.2 0.2-0.3 0.4-0.2 0.2-0.4 0.5-0.3 0.2-0.5 0.4-0.2 0.1-0.4 0.3-0.4 0.3-0.9 0.6l-8.4 4.9c-0.1-4.4-1.1-8-2.9-10.5l11.3-6.5q0.9-0.5 1.6-1.2c1.7-1.6 2.6-3.8 2.6-6.1z"/>
				<path id="&lt;Path&gt;" class="s6" d="m1136.8 1071.2q0 0 0 0v-12.1l139.5-80.6c-1.8 4.6-2.8 9.4-2.8 13.8l-136.7 78.9z"/>
				<path id="&lt;Path&gt;" class="s6" d="m1133.9 1060.7l2.9-1.6v12.1c0-4.4-1.1-7.9-2.9-10.5z"/>
				<path id="&lt;Path&gt;" class="s5" d="m963.6 1053.2q0.1 0.1 0.2 0.2-0.1-0.1-0.2-0.2z"/>
				<path id="&lt;Path&gt;" class="s6" d="m1097.7 1081.5c-1.8 4.5-2.9 9.1-2.9 13.5q-1.8 0.8-3.7 1.5 0 0 0 0-5.2 2-10.6 3.2-0.5 0.1-0.9 0.2-1.3 0.3-2.6 0.5-1 0.2-2 0.3-1.1 0.2-2.2 0.3-1.3 0.2-2.7 0.3-0.8 0.1-1.7 0.1-2.2 0.2-4.5 0.2h-22.5c-6.9 0-13.7-1-20.3-2.8v-12.2c6.6 1.9 13.4 2.8 20.3 2.8h22.5c11.8 0 23.3-2.7 33.8-7.9z"/>
				<path id="&lt;Path&gt;" class="s5" d="m963.8 1053.4q0.8 1.2 1.8 2.2-1-1-1.8-2.2z"/>
				<path id="&lt;Path&gt;" class="s7" d="m1021.1 1086.6v12.2q-4.4-1.2-8.6-3-4.6-1.9-8.9-4.4l-30.8-17.8c-9.1-5.2-14.8-14.9-14.8-25.5v-2.4q0 0 0-0.1c0.1-1.1 0.3-2.2 0.8-3.3q0.6 3 1.8 5.7 0.1 0.1 0.1 0.2 1.2 2.6 2.9 5 0.1 0.1 0.2 0.2 0.8 1.2 1.8 2.2 0.1 0.1 0.2 0.3 0.8 0.9 1.8 1.8 0.1 0.1 0.3 0.2 1 0.9 2.1 1.7 0.2 0.2 0.4 0.4 1.2 0.8 2.4 1.5l30.8 17.8q2.1 1.2 4.2 2.3 2 0.9 3.9 1.7 0.2 0.1 0.5 0.2 4.4 1.9 8.9 3.1z"/>
				<path id="&lt;Path&gt;" class="s8" d="m1136.8 1002.8c0 0-21.2 23.4-36.7 47.2-8.7 13.4-15.6 27-15.9 36.6-6.5 1.8-13.4 2.8-20.3 2.8h-22.5c-6.9 0-13.7-0.9-20.3-2.8v-4.8c0-3-0.7-5.9-2.2-8.4l-6-10.4c-1.5-2.6-3.6-4.7-6.2-6.2l-33.9-19.6c-2.6-1.5-5.8-1.5-8.4 0l-2.2 1.2c-1.5 0.9-2.7 2.3-3.4 3.9q-0.7-3.1-0.8-6.3c0-4.7 0-11.6 0-21.6q0-1.2 0.2-2.4c3.1-4.8 8.5-13.2 14.6-23.4 9.8-16.3 19.8-37.1 19.8-37.1h-0.1c9.9-12.5 18.1-21.5 18.1-21.5l59.3 34.2z"/>
				<path id="&lt;Path&gt;" class="s9" d="m1063.2 846.6l126.2 72.8c-10.5 6.1-52.6 83.4-52.6 83.4l-66.9-38.6-59.3-34.2c0 0 42.1-77.3 52.6-83.4z"/>
				<path id="&lt;Path&gt;" class="s10" d="m1015.5 932.7c17.8-32.4 40.4-71.1 48.3-79.7 36 25.3 75 47.9 117.1 67.6-12.9 15.5-38 60.8-48.4 79.7-54-15.8-94.5-37.7-117-67.6z"/>
				<g id="&lt;Group&gt;">
					<path id="&lt;Path&gt;" class="s11" d="m1050.7 1030.5q0-0.8 0.1-1.5c3.7-1.5 7.8-2.9 12.4-4q5.3-1.3 9.8-2.3c1.7 2.1 2.7 4.8 2.7 7.8 0 6.9-5.6 12.4-12.5 12.4-6.9 0-12.5-5.5-12.5-12.4z"/>
				</g>
				<path id="&lt;Path&gt;" class="s12" d="m1105.3 1016.6c0 0-8.6 18.3-32.5 28.1-23.8 9.8-51.7 8.3-51.7 8.3 0 0 7.7-14.9 29.7-24q-0.1 0.7-0.1 1.5c0 6.9 5.6 12.4 12.5 12.4 6.9 0 12.5-5.5 12.5-12.4 0-3-1-5.7-2.7-7.8 4.1-0.9 7.7-1.7 10.9-2.4-0.5 1-0.8 2-0.8 3.2 0 3.8 3.1 7 6.9 7 3.9 0 7-3.2 7-7 0-2.1-1-4-2.5-5.3 7.7-1.4 10.8-1.6 10.8-1.6z"/>
				<g id="&lt;Group&gt;">
					<path id="&lt;Path&gt;" class="s11" d="m1083.1 1023.5c0-1.2 0.3-2.2 0.8-3.2 4.2-0.9 7.7-1.6 10.6-2.1 1.5 1.3 2.5 3.2 2.5 5.3 0 3.8-3.1 7-7 7-3.8 0-6.9-3.2-6.9-7z"/>
				</g>
				<path id="&lt;Path&gt;" class="s8" d="m1301.2 858.8c-2.2-1.2-4.4-1.4-6.7-0.1-17.9 10.4-55.8 32.3-69.7 40.3-18.4 10.6-31.7 18.3-35.4 20.4l-126.2-72.8c3.7-2.2 17-9.8 35.4-20.5 13.9-8 51.8-29.9 69.7-40.2 2.4-1.4 4.7-1.2 6.9 0.1z"/>
				<path id="&lt;Path&gt;" class="s9" d="m1325.6 949.8q-0.2 0.2-0.4 0.4c-1.7-4.6-4.5-7.9-8.1-9.9-5.9-3.1-13.9-2.6-22.7 2.5-14.2 8.2-26.3 25.8-30.6 42.9l-34.6 20v-109.3q1.1-0.6 2.2-1.3c17-9.7 47.6-27.4 63.1-36.4 2.3-1.3 4.5-1.1 6.7 0.1q0.1 0 0.2 0.1 1.4 0.9 2.9 2.1c-0.1 0-5.1 5.1-1 14.9 3.4 8.2 11.6 20.6 22.5 26.5 1.5 5 2.4 8.7 2.4 9.7v31.6c0 2.3-0.9 4.5-2.6 6.1z"/>
				<path id="&lt;Path&gt;" class="s7" d="m1229.2 1005.7l-82.7 47.8c-1.7-4.6-4.6-8-8.2-10q-0.7-0.4-1.5-0.7v16.3-56.3c0 0 42.1-77.3 52.6-83.4 3.7-2.1 17-9.8 35.4-20.4 1.3-0.7 2.8-1.6 4.4-2.6z"/>
				<path id="&lt;Path&gt;" class="s13" d="m1294.5 865.4c0 0 7 20.2 0 38.3-7 18-21 23.8-21 23.8l-126.2 72.8 42.1-73.6z"/>
				<path id="&lt;Path&gt;" class="s14" d="m1290.6 902.1c-6.2 16.1-18.2 21.3-18.7 21.5l-0.3 0.1-37.9 21.9v-39.9l58.2-33.9c1.4 6.8 3.1 19.1-1.3 30.3z"/>
				<path id="&lt;Path&gt;" class="s14" d="m1229.2 908.3v39.9l-70.5 40.7 33.8-59.2z"/>
				<path id="&lt;Path&gt;" class="s13" d="m1233.7 905.7v39.9l-4.5 2.6v-39.9z"/>
				<g id="&lt;Group&gt;">
					<path id="&lt;Path&gt;" class="s15" d="m1003.6 1074.4c5.5 3.2 11.4 5.7 17.5 7.4v4.8c-6.1-1.7-12-4.1-17.5-7.3l-30.8-17.8c-7.3-4.2-12.3-11.2-14-19.2q0.3-0.8 0.9-1.5c2.3 6.6 6.8 12.3 13.1 15.8z"/>
				</g>
				<path id="&lt;Path&gt;" class="s4" d="m1018.9 1073.4c1.5 2.5 2.2 5.4 2.2 8.4-6.1-1.7-12-4.2-17.5-7.4l-30.8-17.8c-6.3-3.5-10.8-9.2-13.1-15.8 0.7-1 1.5-1.8 2.5-2.4l2.2-1.2c2.6-1.5 5.8-1.5 8.4 0l33.9 19.6c2.6 1.5 4.7 3.6 6.2 6.2z"/>
				<path id="&lt;Path&gt;" class="s16" d="m968.6 1059.1l42 24.2v12.2l-42-24.3z"/>
				<g id="&lt;Group&gt;">
					<path id="&lt;Path&gt;" class="s11" d="m1325.8 902.4c-10.9-5.9-19.1-18.3-22.5-26.5-4.1-9.8 0.9-14.9 1-14.9 9.6 8.5 17.6 29 21.5 41.4z"/>
				</g>
				<path id="&lt;Path&gt;" class="s6" d="m1325.2 950.2q-0.6 0.4-1.2 0.8l-11.3 6.5q-1.5-2-3.6-3.1c-3.8-2.1-8.9-1.7-14.6 1.6-7.8 4.5-14.6 13.2-18.2 22.5l-12.5 7.2c4.3-17.1 16.4-34.7 30.6-42.9 8.8-5.1 16.8-5.6 22.7-2.5 3.6 2 6.4 5.3 8.1 9.9z"/>
				<path id="&lt;Path&gt;" class="s9" d="m1085.8 1086.1q-0.8 0.3-1.6 0.5c0.9-26.7 52.6-83.8 52.6-83.8v40c-5.7-2.3-13.1-1.4-21.1 3.2-13.5 7.8-25 23.9-29.9 40.1z"/>
				<path id="&lt;Path&gt;" class="s6" d="m1097.7 1081.5c-3.8 1.9-7.8 3.4-11.9 4.6 4.9-16.2 16.4-32.3 29.9-40.1 8-4.6 15.4-5.5 21.1-3.2v16.3l-2.9 1.6q-1.5-2-3.5-3.1c-3.8-2.1-9-1.7-14.7 1.6-7.7 4.4-14.4 13.1-18 22.3z"/>
				<path id="&lt;Path&gt;" class="s6" d="m1146.5 1053.5l-9.7 5.6v-16.3q0.8 0.3 1.5 0.7c3.6 2 6.5 5.4 8.2 10z"/>
				<path id="&lt;Path&gt;" class="s12" d="m972.8 988.6c-6.1 10.2-11.5 18.6-14.6 23.4 1.7-16.3 19.9-42.1 34.3-60.5h0.1c0 0-10 20.8-19.8 37.1z"/>
				<path id="&lt;Path&gt;" class="s13" d="m1136.8 1071.2c0 13.4-9.3 29.6-21 36.3-5.7 3.3-10.9 3.7-14.7 1.6q0 0-0.1-0.1 0 0-0.1 0c-3.8-2.2-6.1-6.9-6.2-13.5q0.1-0.3 0.1-0.5c0.2-13.3 9.4-29.2 20.9-35.8 5.7-3.3 10.9-3.7 14.7-1.6 3.9 2.1 6.4 6.8 6.4 13.6q0 0 0 0z"/>
				<g id="&lt;Group&gt;">
					<path id="&lt;Path&gt;" class="s17" d="m1115.7 1068c7.4-4.3 13.4-0.9 13.4 7.6 0.1 8.5-5.9 18.8-13.3 23.1-7.4 4.3-13.4 0.9-13.4-7.6 0-8.5 5.9-18.9 13.3-23.1z"/>
				</g>
				<path id="&lt;Path&gt;" class="s13" d="m1315.6 968c0 13.3-9.4 29.6-21 36.3-5.7 3.3-10.9 3.7-14.7 1.6q-0.1 0-0.1-0.1-0.1 0-0.1 0c-3.8-2.2-6.2-6.9-6.2-13.5 0-13.4 9.3-29.6 21-36.3 5.7-3.3 10.8-3.7 14.6-1.6 4 2.1 6.4 6.8 6.5 13.6z"/>
				<g id="&lt;Group&gt;">
					<path id="&lt;Path&gt;" class="s17" d="m1294.5 964.8c7.4-4.3 13.4-0.9 13.4 7.6 0 8.5-5.9 18.8-13.3 23.1-7.4 4.3-13.4 0.8-13.4-7.6-0.1-8.5 5.9-18.9 13.3-23.1z"/>
				</g>
				<g id="&lt;Group&gt;">
					<path id="&lt;Path&gt;" class="s4" d="m1136.8 1003.1v-0.6c-0.2-1 0.6-2 1.6-2.1l2.5-0.4c1.1-0.1 2 0.6 2.2 1.7l0.1 0.6c0.1 1-0.7 2-1.7 2.2l-2.5 0.3c-1.1 0.1-2-0.6-2.2-1.7z"/>
				</g>
				<path id="&lt;Path&gt;" class="s3" d="m1141.2 1001.8v-0.1q0-0.8 0.4-1.5l5.9-11.5c2-3.7 6.4-5.4 10.3-4l11 3.9c2.1 0.7 3.2 2.9 2.6 5.1l-1.4 4.8c-1 3.5-4.1 6-7.8 6.1l-17.5 0.6c-1.9 0-3.5-1.5-3.5-3.4z"/>
				<path id="&lt;Path&gt;" class="s4" d="m995.8 1038.4l-13.1-7.6c-2-1.1-2.7-3.7-1.5-5.7l8.4-14.6 31.5 18.2-16.9 9.7c-2.6 1.5-5.8 1.5-8.4 0z"/>
			</g>
			<g id="&lt;Group&gt;">
				<path id="&lt;Path&gt;" class="s18" d="m1238 637.3l35.5 20.5v419.2l-35.5-20.6z"/>
				<path id="&lt;Path&gt;" class="s19" d="m1309 1056.4l-35.5 20.6v-419.2l35.5-20.5z"/>
			</g>
			<g id="&lt;Group&gt;">
				<path id="&lt;Path&gt;" class="s4" d="m1314.7 1190.3c6.2-3.7 11.9-3.8 16-1l16.9 9.7c-4.1-2.4-9.5-2.1-15.4 1.4-12.9 7.6-23.3 27.7-23.3 44.9 0 9.1 2.9 15.5 7.5 18.5l-17-9.8c-4.9-2.8-8-9.4-8-18.8 0-17.2 10.5-37.3 23.3-44.9z"/>
				<path id="&lt;Path&gt;" class="s4" d="m1524.6 1069.1c6.2-3.6 11.8-3.7 16-0.9l16.8 9.6v0.1c-4.1-2.4-9.5-2.1-15.3 1.3-12.9 7.7-23.4 27.8-23.4 45 0 9 2.9 15.4 7.5 18.4l-17-9.8c-4.9-2.8-7.9-9.3-7.9-18.7 0-17.2 10.4-37.3 23.3-45z"/>
				<path id="&lt;Path&gt;" class="s20" d="m1577 982.5v87.5c0 20.2 0 20.2-17.5 30.3l-180.6 104.3v-125.8q0.6-0.8 1.2-1.3c3.5-3.5 15.1-10.2 16.2-10.8l177.8-102.7c2.9 4.9 2.9 17.8 2.9 18.5z"/>
				<path id="&lt;Path&gt;" class="s20" d="m1332.2 1164.2l35-67.3 2.9-5c0 0 5-8.7 8.8-13.1v125.8l-46.7 26.9z"/>
				<path id="&lt;Path&gt;" class="s21" d="m1489.6 1026.3l75.8-43.8v114.4l-75.8 43.8z"/>
				<path id="&lt;Path&gt;" class="s22" d="m1139.9 1208l58.3 33.6v20.2l-58.3-33.6z"/>
				<path id="&lt;Path&gt;" class="s3" d="m1256.5 1261.8h-58.3v-20.2h58.3z"/>
				<path id="&lt;Path&gt;" class="s23" d="m1256.5 1241.6l46.6-13.4v20.2l-46.6 13.4z"/>
				<path id="&lt;Path&gt;" class="s16" d="m1139.9 1208v-33.7 20.2 33.7z"/>
				<path id="&lt;Path&gt;" class="s24" d="m1151.5 1201.3l58.3 33.6-11.6 6.7-58.3-33.6z"/>
				<path id="&lt;Path&gt;" class="s24" d="m1256.5 1241.6h-58.3l11.6-6.7h46.6z"/>
				<path id="&lt;Path&gt;" class="s24" d="m1256.4 1234.9l46.7-6.7-46.6 13.4z"/>
				<path id="&lt;Path&gt;" class="s24" d="m1139.9 1208v-33.7h6.5l5.1 27z"/>
				<path id="&lt;Path&gt;" class="s24" d="m1146.4 1174.3h-6.5l23.3-26.9z"/>
				<path id="&lt;Path&gt;" class="s3" d="m1157.4 1177.7l58.2 33.6-5.8 23.6-58.3-33.6z"/>
				<path id="&lt;Path&gt;" class="s3" d="m1256.4 1234.9h-46.6l5.8-23.6h40.8z"/>
				<path id="&lt;Path&gt;" class="s23" d="m1211.5 1228.2l4.1-16.9h40.8v16.9z"/>
				<path id="&lt;Path&gt;" class="s23" d="m1256.4 1211.3l46.7-6.7v23.6l-46.7 6.7z"/>
				<path id="&lt;Path&gt;" class="s25" d="m1218.6 1112.1l67 38.7-70 60.5-58.2-33.6z"/>
				<path id="&lt;Path&gt;" class="s21" d="m1303.1 1204.6l29.1-40.4v36.2c-12.8 7.6-23.2 27.5-23.3 44.6l-5.8 3.4z"/>
				<path id="&lt;Path&gt;" class="s20" d="m1315.6 1187.3l8.3-11.5 8.3-4.8v6.7z"/>
				<path id="&lt;Path&gt;" class="s26" d="m1303.1 1239.6c1.9-16.9 11.8-36.2 26-44.5q1.5-0.9 3.1-1.6v6.9c-12.8 7.6-23.2 27.5-23.3 44.6l-5.8 3.4z"/>
				<path id="&lt;Path&gt;" class="s22" d="m1204 1086.9c0 0-8 1.7-11.3-0.3-3.3-2-9.1-8.7-9.1-11.8 0-3.1-1-6.3 2.4-7.4 3.4-1.2 12.5-0.8 15.1 3.8 2.5 4.5 2.9 8.9 2.9 8.9z"/>
				<path id="&lt;Path&gt;" class="s23" d="m1205.5 1086c0 0-0.6 0.1-1.5 0.2v-6.1c0 0-0.4-4.4-2.9-8.9-2.6-4.6-11.7-5-15.1-3.8h-0.1q0.6-0.6 1.6-0.9c3.4-1.2 12.5-0.8 15.1 3.8 2.5 4.5 2.9 8.9 2.9 8.9z"/>
				<path id="&lt;Path&gt;" class="s16" d="m1204 1079.6c0.7-0.5 1.4-0.5 1.9-0.2l2.8 1.6c-0.5-0.2-1.1-0.1-1.8 0.3-1.6 0.9-2.9 3.4-2.9 5.6 0 1.1 0.4 2 1 2.3l-2.8-1.6q-0.1-0.1-0.2-0.1c-0.6-0.4-0.9-1.2-0.9-2.3 0-2.2 1.3-4.7 2.9-5.6z"/>
				<path id="&lt;Path&gt;" class="s23" d="m1332.2 1164.2l-26.2-5-20.4-8.4-58.3-33.7-26.2-15.1-8.8-9.2 40.8-73.3 134.1 77.4z"/>
				<path id="&lt;Path&gt;" class="s3" d="m1151.5 1201.3l-5.1-27 5.8-23.5 5.2 26.9z"/>
				<path id="&lt;Path&gt;" class="s27" d="m1256.4 1211.3l49.6-52.1 26.2 5-29.1 40.4z"/>
				<path id="&lt;Path&gt;" class="s28" d="m1215.6 1211.3l70-60.5 20.4 8.4-49.6 52.1z"/>
				<path id="&lt;Path&gt;" class="s28" d="m1157.4 1177.7l-5.2-26.9 48.9-48.8 17.5 10.1z"/>
				<path id="&lt;Path&gt;" class="s27" d="m1192.3 1092.8l8.8 9.2-48.9 48.8 11-17.6z"/>
				<path id="&lt;Path&gt;" class="s27" d="m1378.9 1078.8c-3.8 4.4-8.8 13.1-8.8 13.1l-2.9 5-134.1-77.4 2.9-5h0.1v-0.1c0.5-0.9 6.4-10.9 9.9-14.3l134.1 77.4q-0.6 0.5-1.2 1.3z"/>
				<path id="&lt;Path&gt;" class="s28" d="m1574.1 964l-177.8 102.6v0.1c-1.1 0.6-12.7 7.3-16.2 10.8l-1.2-0.8-132.9-76.6c3.5-3.4 14.7-10 16.1-10.8h0.1l0.1-0.1 163.2-94.2c0 0 11.6-6.7 17.5-6.7 5.7 0 17.1 6.5 17.5 6.7l99 57.2c0 0 11.7 6.8 14.6 11.8z"/>
				<path id="&lt;Path&gt;" class="s26" d="m1512.6 1124.2c0-18 10.5-40.9 26.3-50.3 6.1-3.6 13.3-5.2 20-2.2 8.3 3.7 11.7 12.6 12.5 21.1-2.5 2-6 4.1-11 7l-0.9 0.5-46.8 27q-0.1-1.5-0.1-3.1z"/>
				<path id="&lt;Path&gt;" class="s20" d="m1483.8 1090.2v-6.7l93.2-53.9v6.8z"/>
				<path id="&lt;Path&gt;" class="s16" d="m1332.2 1177.7v-6.7l46.7-27v6.8z"/>
				<path id="&lt;Path&gt;" class="s29" d="m1329.1 1155.7l-19.4-3.7-20.4-8.4-58.2-33.7-26.3-15.1-6.3-6.7 26.3-46.5c8.6-15.2 8.6-15.2 25.8-5.2l87.5 50.4c20.6 11.9 20.6 11.9 12.5 27.5z"/>
				<path id="&lt;Path&gt;" class="s16" d="m1408 1073.4l75.8-43.8v114.4l-75.8 43.8z"/>
				<path id="&lt;Path&gt;" class="s30" d="m1408 1073.4l69.9-40.4 5.9 3.4v107.6l-75.8 43.8z"/>
				<path id="&lt;Path&gt;" class="s31" d="m1477.9 1033l5.9-3.4v114.4l-5.9-3.3z"/>
				<path id="&lt;Path&gt;" class="s21" d="m1367.2 1096.9l40.8-23.5v114.4l-52.5 30.3q0-0.2 0-0.4c0-17.2-10.4-24.9-23.3-17.3v-36.2z"/>
				<path id="&lt;Path&gt;" class="s20" d="m1408 1127.2v6.7l-75.8 43.8v-6.7z"/>
				<path id="&lt;Path&gt;" class="s26" d="m1361.6 1214.6l-6.1 3.5q0-0.2 0-0.4c0-17.2-10.4-24.9-23.3-17.3v-6.9c5.4-2.4 11.3-3.1 16.9-0.6 8.5 3.8 11.9 12.9 12.5 21.7z"/>
				<path id="&lt;Path&gt;" class="s26" d="m1565.4 1076.6v20.3l-52.7 30.4q-0.1-1.5-0.1-3.1c0-18 10.5-40.9 26.3-50.3 6.1-3.6 13.3-5.2 20-2.2 2.6 1.2 4.8 2.9 6.5 4.9z"/>
				<path id="&lt;Path&gt;" class="s16" d="m1355.1 1137.1l14.6-28.2c5-9.6 5-9.6 15-15.3l5.8-3.4c11.7-6.7 11.7-6.7 11.7 6.7v6.8c0 13.4 0 13.4-11.7 20.2l-29.1 16.8c-11.7 6.7-11.5 6.4-6.3-3.6z"/>
				<path id="&lt;Path&gt;" class="s23" d="m1402.2 1127.2q-5.9 3.4-11.7 6.7c0-3.3 0-3.3 2.9-5q2.9-1.7 5.9-3.4c2.9-1.6 2.9-1.6 2.9 1.7z"/>
				<path id="&lt;Path&gt;" class="s26" d="m1519.2 1130.3l-164.3 94.9q0.6-3.6 0.6-7.1l163.2-94.2q0 0.1 0 0.3 0 3.3 0.5 6.1z"/>
				<path id="&lt;Path&gt;" class="s26" d="m1519.2 1130.3l-5.6 3.2c-0.5-2-0.8-4.1-0.9-6.2l6-3.4q0 0.1 0 0.3 0 3.3 0.5 6.1z"/>
				<path id="&lt;Path&gt;" class="s26" d="m1361.6 1221.3l-6.7 3.9q0.6-3.6 0.6-7.1l6.1-3.5q0.1 1.6 0.1 3.1 0 1.8-0.1 3.6z"/>
				<path id="&lt;Path&gt;" class="s13" d="m1332.2 1200.4c12.9-7.6 23.3 0.1 23.3 17.3 0 17.2-10.4 37.4-23.3 45-12.9 7.6-23.3-0.2-23.3-17.4 0-17.2 10.4-37.3 23.3-44.9z"/>
				<path id="&lt;Path&gt;" class="s17" d="m1332.2 1208.2c9.7-5.7 17.5 0.1 17.5 13 0 12.9-7.8 28-17.5 33.7-9.6 5.7-17.5-0.1-17.5-13 0-12.9 7.9-28 17.5-33.7z"/>
				<path id="&lt;Path&gt;" class="s13" d="m1332.2 1222.7c3.7-2.2 6.7 0 6.7 4.9 0 4.9-3 10.7-6.7 12.8-3.6 2.2-6.6 0-6.6-4.9 0-4.9 3-10.7 6.6-12.8z"/>
				<path id="&lt;Compound Path&gt;" class="s13" d="m1319.8 1232.8c1.8-1.1 3.3 0 3.3 2.5 0 2.4-1.5 5.3-3.3 6.4-1.9 1.1-3.4 0-3.4-2.5 0-2.4 1.5-5.3 3.4-6.4zm4.3-14.1c1.9-1.1 3.4 0 3.4 2.5 0 2.5-1.5 5.4-3.4 6.5-1.8 1.1-3.3-0.1-3.3-2.5 0-2.5 1.5-5.4 3.3-6.5zm7.6-8.3c1.9-1.1 3.4 0 3.4 2.5 0 2.4-1.5 5.3-3.4 6.4-1.8 1.1-3.3 0-3.3-2.5 0-2.4 1.5-5.3 3.3-6.4zm10.5 0.2c1.8-1.1 3.3 0 3.3 2.5 0 2.4-1.5 5.3-3.3 6.4-1.9 1.1-3.4 0-3.4-2.5 0-2.4 1.5-5.3 3.4-6.4zm2.6 10.8c1.9-1.1 3.4 0 3.4 2.5 0 2.5-1.5 5.4-3.4 6.5-1.8 1.1-3.3-0.1-3.3-2.5 0-2.5 1.5-5.4 3.3-6.5zm-9.4 20.2c1.9-1.1 3.4 0.1 3.4 2.5 0 2.5-1.5 5.4-3.4 6.5-1.8 1.1-3.3 0-3.3-2.5 0-2.5 1.5-5.4 3.3-6.5zm6.5-9.2c1.9-1.1 3.4 0 3.4 2.4 0 2.5-1.5 5.4-3.4 6.5-1.8 1.1-3.3 0-3.3-2.5 0-2.5 1.5-5.4 3.3-6.4zm-16.9 12.9c1.9-1.1 3.4 0 3.4 2.5 0 2.4-1.5 5.3-3.4 6.4-1.8 1.1-3.3 0-3.3-2.5 0-2.5 1.5-5.3 3.3-6.4z"/>
				<path id="&lt;Path&gt;" class="s13" d="m1542.1 1079.2c12.8-7.6 23.3 0.2 23.3 17.4 0 17.2-10.5 37.3-23.3 44.9-12.9 7.7-23.4-0.1-23.4-17.3 0-17.2 10.5-37.3 23.4-45z"/>
				<path id="&lt;Path&gt;" class="s17" d="m1542.1 1087c9.6-5.7 17.4 0.1 17.4 13 0 12.9-7.8 28-17.4 33.8-9.7 5.7-17.5-0.2-17.5-13.1 0-12.9 7.8-28 17.5-33.7z"/>
				<path id="&lt;Path&gt;" class="s13" d="m1542.1 1101.5c3.6-2.2 6.6 0.1 6.6 5 0 4.9-3 10.6-6.6 12.8-3.7 2.1-6.7-0.1-6.7-5 0-4.9 3-10.6 6.7-12.8z"/>
				<path id="&lt;Compound Path&gt;" class="s13" d="m1529.6 1111.6c1.9-1.1 3.4 0 3.4 2.5 0 2.5-1.5 5.4-3.4 6.5-1.8 1.1-3.3-0.1-3.3-2.5 0-2.5 1.5-5.4 3.3-6.5zm4.4-14c1.8-1.1 3.3 0 3.3 2.5 0 2.4-1.5 5.3-3.3 6.4-1.9 1.1-3.4 0-3.4-2.5 0-2.4 1.5-5.3 3.4-6.4zm7.6-8.4c1.8-1.1 3.3 0 3.3 2.5 0 2.5-1.5 5.4-3.3 6.5-1.9 1.1-3.4 0-3.4-2.5 0-2.5 1.5-5.4 3.4-6.5zm10.4 0.2c1.9-1.1 3.4 0 3.4 2.5 0 2.5-1.5 5.4-3.4 6.5-1.8 1.1-3.3-0.1-3.3-2.5 0-2.5 1.5-5.4 3.3-6.5zm2.7 10.9c1.8-1.1 3.3 0 3.3 2.5 0 2.4-1.5 5.3-3.3 6.4-1.9 1.1-3.4 0-3.4-2.5 0-2.5 1.5-5.3 3.4-6.4zm-9.4 20.2c1.8-1.1 3.3 0 3.3 2.5 0 2.5-1.5 5.3-3.3 6.4-1.9 1.1-3.4 0-3.4-2.5 0-2.4 1.5-5.3 3.4-6.4zm6.4-9.3c1.9-1.1 3.4 0 3.4 2.5 0 2.5-1.5 5.4-3.4 6.5-1.8 1-3.3-0.1-3.3-2.5 0-2.5 1.5-5.4 3.3-6.5zm-16.8 12.9c1.8-1.1 3.3 0 3.3 2.5 0 2.5-1.5 5.4-3.3 6.5-1.9 1.1-3.4-0.1-3.4-2.5 0-2.5 1.5-5.4 3.4-6.5z"/>
				<path id="&lt;Path&gt;" class="s24" d="m1198.2 1234.9l11.6 6.7-11.6 6.8-11.7-6.8z"/>
				<path id="&lt;Path&gt;" class="s24" d="m1139.9 1201.3l11.6 6.7-11.6 6.7-11.7-6.7z"/>
				<path id="&lt;Path&gt;" class="s32" d="m1140.6 1174.2l2.8-11.3c2.3-8.8 2.3-8.8 2.3 1.3v23.6 1.4c-0.9 0.5-1.7 1.7-2.9 3.7v-0.1-18.9-1.9l-0.6 2.3c0 0.3-0.4 0.5-0.8 0.5-0.5 0-0.9-0.2-0.9-0.5q0-0.1 0.1-0.1z"/>
				<path id="&lt;Path&gt;" class="s3" d="m1198.2 1248.4v13.4l-5.9-3.3-5.8-16.9z"/>
				<path id="&lt;Path&gt;" class="s23" d="m1209.8 1241.6l-5.8 20.2h-5.8v-13.4z"/>
				<path id="&lt;Path&gt;" class="s23" d="m1145.7 1211.4v20.1l-5.8-16.8z"/>
				<path id="&lt;Path&gt;" class="s3" d="m1139.9 1214.7l5.8 16.8-5.8-3.3-11.7-20.2z"/>
				<path id="&lt;Path&gt;" class="s33" d="m1291.4 1223.1l-35 5.1v-16.9l35-5z"/>
				<path id="&lt;Path&gt;" class="s34" d="m1215.2 1219.8c1.7-6.9 1.7-6.9 12.1-6.9q14.6 0 29.1 0v13.7h-29.1c-13.8 0-13.8 0-12.1-6.8z"/>
				<path id="&lt;Path&gt;" class="s35" d="m1252.1 1224c-3.5 0-6.3-2.8-6.3-6.4 0-1.8 0.8-3.5 2.1-4.7h8.5v0.1 9.3c-1.1 1.1-2.6 1.7-4.3 1.7z"/>
				<path id="&lt;Path&gt;" class="s35" d="m1282.3 1222.9q-12.9 1.9-25.9 3.7v-13.7l25.5-3.7c8-1.1 8-1.1 8 5.7 0 6.9 0 6.9-7.6 8z"/>
				<path id="&lt;Path&gt;" class="s36" d="m1258.5 1217.6c0 1.9-0.8 3.6-2.1 4.7v-9.3c1.3 1.1 2.1 2.8 2.1 4.6z"/>
				<path id="&lt;Path&gt;" class="s23" d="m1153 1195.4l-5.2-27 4.4-17.6 5.2 26.9z"/>
				<path id="&lt;Path&gt;" class="s35" d="m1148.7 1164.9l2.6-10.6q1.7 9.1 3.5 18.2c1 5.2 1 5.2-0.3 10.4-1.3 5.3-1.3 5.3-2.7-2z"/>
				<path id="&lt;Path&gt;" class="s36" d="m1149 1163.8l2.3-9.5 1.9 9.8q-0.8 0.2-1.7 0.2-1.3 0-2.5-0.5z"/>
				<path id="&lt;Path&gt;" class="s37" d="m1346.3 1145.5l18.9-36.3c5.7-11.1 5.7-11.1 16.6-17.3q5.8-3.4 11.6-6.7c11.7-6.8 11.7-6.8 11.7 3.3q0 8.4 0 16.8c0 13.5 0 13.5-11.7 20.2q-20.4 11.8-40.8 23.6c-11.6 6.7-11.6 6.7-6.3-3.6z"/>
				<path id="&lt;Path&gt;" class="s22" d="m1338.1 1157c0.7-0.5 1.4-0.5 1.9-0.2l2.8 1.6c-0.5-0.2-1.2-0.1-1.8 0.3-1.6 0.9-2.9 3.4-2.9 5.6 0 1.1 0.3 2 0.9 2.3l-2.8-1.6q-0.1-0.1-0.2-0.1c-0.5-0.4-0.9-1.2-0.9-2.3 0-2.2 1.3-4.7 3-5.6z"/>
				<path id="&lt;Path&gt;" class="s23" d="m1341 1158.7c1.6-1 2.9 0 2.9 2.1 0 2.2-1.3 4.7-2.9 5.6-1.6 1-2.9 0-2.9-2.1 0-2.2 1.3-4.7 2.9-5.6z"/>
				<path id="&lt;Path&gt;" class="s22" d="m1343.9 1154.1c2.1-3.5 5.8-3.3 11.6-3.3 5.9 0 11.7 2.3 11.7 6.7 0 4.4 0 1.7 0 4.2 0 2.5-8 7.2-15.3 7.2-7.3 0-10.9-3-10.9-3v-6.7c0-0.1 0.8-1.5 2.9-5.1z"/>
				<path id="&lt;Path&gt;" class="s23" d="m1367.2 1161.7c0-2.5 0 0.2 0-4.2 0-4.4-5.8-6.7-11.7-6.7-3.7 0-6.5-0.1-8.6 0.8 2.2-1.8 5.5-1.7 10.2-1.7 5.8 0 11.7 2.3 11.7 6.7 0 4.4 0 1.7 0 4.2 0 1.2-2 2.9-4.7 4.4 1.9-1.2 3.1-2.5 3.1-3.5z"/>
				<path id="&lt;Path&gt;" class="s22" d="m1209.8 1208l5.8 3.3-5.8 23.6-5.8-3.4z"/>
				<path id="&lt;Path&gt;" class="s22" d="m1157.4 1177.7l5.8 3.4-5.8 23.5-5.9-3.3z"/>
				<path id="&lt;Path&gt;" class="s33" d="m1163.2 1201.3c-4.4-2.6-4.4-2.6-3.7-5.5l46.7 26.9c-0.8 3-0.8 3-8-1.3q-17.5-10.1-35-20.1z"/>
				<path id="&lt;Path&gt;" class="s33" d="m1164.6 1195.4c-4.3-2.6-4.3-2.6-3.6-5.5l46.6 26.9c-0.7 3-0.7 3-8-1.2q-17.5-10.1-35-20.2z"/>
				<path id="&lt;Path&gt;" class="s33" d="m1166.1 1189.5c-4.4-2.5-4.4-2.5-3.6-5.5l46.6 26.9c-0.7 3-0.7 3-8-1.2q-17.5-10.1-35-20.2z"/>
				<path id="&lt;Path&gt;" class="s38" d="m1189.2 1207.4c0 3.7-2.3 5.4-5.1 3.7-2.7-1.6-5-6-5-9.7 0-3.7 2.3-5.4 5-3.7 2.8 1.6 5.1 6 5.1 9.7z"/>
				<path id="&lt;Path&gt;" class="s39" d="m1384.7 1076.7l116.6-67.3v3.4l-116.6 67.3z"/>
				<path id="&lt;Path&gt;" class="s40" d="m1251.2 1239.5l3.6-14.7h-56.6c-0.1-3.6-0.3-5.4-1.2-6.7h1.2 16 36.4c11.7 0 11.7 0 8.8 11.8l-2.5 10c0 1-1.3 1.7-2.9 1.7-1.7 0-3-0.7-3-1.7q0-0.2 0.2-0.4z"/>
				<path id="&lt;Path&gt;" class="s41" d="m1192.3 1241.6v-20.3l-43.6-25.2-7.2 12.4c-0.4 0.9-1.9 1.6-3.6 1.6-2 0-3.7-0.9-3.7-2.1q0-0.4 0.3-0.8l6.8-11.8c4.4-7.6 4.4-7.6 10.2-4.2l40.8 23.5c5.9 3.4 5.9 3.4 5.9 13.5v13.4c0 1-1.3 1.7-3 1.7-1.6 0-2.9-0.7-2.9-1.7z"/>
				<path id="&lt;Path&gt;" class="s21" d="m1408 1073.4l75.8-43.8v114.4l-75.8 43.8z"/>
				<path id="&lt;Path&gt;" class="s20" d="m1483.8 1083.5v6.7l-75.8 43.7v-6.7z"/>
				<path id="&lt;Path&gt;" class="s23" d="m1425.5 1113.8q-5.8 3.3-11.7 6.7c0-3.4 0-3.4 2.9-5.1q3-1.6 5.9-3.3c2.9-1.7 2.9-1.7 2.9 1.7z"/>
			</g>
			<g id="&lt;Group&gt;">
				<path id="&lt;Path&gt;" class="s42" d="m1479 776.5l35.5 20.5v419.1l-35.5-20.5z"/>
				<path id="&lt;Path&gt;" class="s43" d="m1550.1 1195.6l-35.6 20.5v-419.1l35.6-20.5z"/>
			</g>
			<g id="&lt;Group&gt;">
				<path id="&lt;Path&gt;" class="s3" d="m1491.5 1206.3l-4.4-5c-1.3-1.6-2.1-3.5-2.1-5.6v-4.7c0-2.3 1.9-4.2 4.3-4.2h4.7c2.6 0 4.6 2.4 4.1 5l-2.5 13.4q-0.1 0-0.1 0.1c-0.4 1.8-2.7 2.4-4 1z"/>
				<g id="&lt;Group&gt;">
					<path id="&lt;Path&gt;" class="s4" d="m1492.7 1208.7c-0.4-1 0-2.2 1-2.6l0.5-0.3c1-0.4 2.1 0 2.6 1 0.4 1 0 2.1-1 2.6l-0.5 0.2c-1 0.4-2.1 0-2.6-0.9z"/>
				</g>
				<path id="&lt;Path&gt;" class="s4" d="m1585.8 1388.5l-20.6-11.9q-0.4-0.2-0.8-0.5l-0.3-0.2c-3.4-2.4-5.4-6.8-5.5-13 0-13.4 9.4-29.6 21-36.3 6.8-4 12.9-3.7 16.7-0.1l0.1-0.1 18.9 10.7c-3.8-2-9-1.7-14.7 1.6-11.6 6.7-21 23-20.9 36.3 0 6.7 2.3 11.3 6.1 13.5z"/>
				<path id="&lt;Path&gt;" class="s4" d="m1764.6 1285.3l-20.6-11.9q-0.4-0.2-0.8-0.5l-0.4-0.2c-3.3-2.4-5.4-6.8-5.4-13 0-13.4 9.3-29.6 21-36.3 6.8-4 12.8-3.7 16.7-0.1v-0.1l19 10.7h-0.1c-3.8-2.1-8.9-1.7-14.6 1.6-11.6 6.7-21 23-21 36.3 0 6.7 2.4 11.3 6.2 13.5z"/>
				<path id="&lt;Path&gt;" class="s5" d="m1788.2 1242.5l-201.5 116.3z"/>
				<path id="&lt;Path&gt;" class="s44" d="m1813.1 1223.3v12.2q0 0.1 0 0.2-0.1 1.6-0.7 3 0 0 0 0.1-0.2 0.4-0.4 0.8-0.1 0.1-0.2 0.2-0.2 0.4-0.4 0.7-0.1 0.1-0.3 0.3-0.2 0.2-0.4 0.5-0.2 0.2-0.5 0.4-0.2 0.2-0.3 0.3-0.5 0.4-1 0.7l-8.4 4.8c0-4.4-1.1-7.9-2.9-10.4l11.3-6.6q0.9-0.5 1.6-1.2c1.7-1.6 2.6-3.8 2.6-6z"/>
				<path id="&lt;Path&gt;" class="s44" d="m1621.7 1350.7q0 0 0 0v-12.1l139.5-80.6c-1.7 4.6-2.8 9.4-2.8 13.8l-136.7 78.9z"/>
				<path id="&lt;Path&gt;" class="s44" d="m1618.8 1340.3l2.9-1.7v12.1c0-4.4-1.1-7.9-2.9-10.4z"/>
				<path id="&lt;Path&gt;" class="s5" d="m1454.9 1339.2q0.2 0.1 0.5 0.3-0.3-0.2-0.5-0.3z"/>
				<path id="&lt;Path&gt;" class="s5" d="m1450.5 1335.1q0.1 0.2 0.2 0.3-0.1-0.1-0.2-0.3z"/>
				<path id="&lt;Path&gt;" class="s5" d="m1448.5 1332.7q0.1 0.1 0.2 0.3-0.1-0.2-0.2-0.3z"/>
				<path id="&lt;Path&gt;" class="s44" d="m1582.6 1361c-1.8 4.5-2.8 9.1-2.9 13.5q-1.8 0.8-3.7 1.5 0 0 0 0-5.2 2-10.6 3.2-0.4 0.1-0.9 0.2-1.3 0.3-2.5 0.5-1.1 0.2-2.1 0.3-1.1 0.2-2.1 0.3-1.4 0.2-2.8 0.3-0.8 0.1-1.6 0.1-2.3 0.2-4.5 0.2h-22.6c-6.8 0-13.7-1-20.2-2.8v-12.1c6.5 1.8 13.4 2.7 20.2 2.7h22.6c11.7 0 23.2-2.7 33.7-7.9z"/>
				<path id="&lt;Path&gt;" class="s5" d="m1452.8 1337.4q-0.1-0.1-0.3-0.2 0.2 0.1 0.3 0.2z"/>
				<path id="&lt;Path&gt;" class="s5" d="m1448.7 1333q0.8 1.1 1.8 2.1-1-1-1.8-2.1z"/>
				<path id="&lt;Path&gt;" class="s5" d="m1452.5 1337.2q-0.9-0.9-1.8-1.8 0.9 0.9 1.8 1.8z"/>
				<path id="&lt;Path&gt;" class="s5" d="m1455.4 1339.5q1.1 0.8 2.3 1.5-1.2-0.7-2.3-1.5z"/>
				<path id="&lt;Path&gt;" class="s5" d="m1452.8 1337.4q1 0.9 2.1 1.8-1.1-0.9-2.1-1.8z"/>
				<path id="&lt;Path&gt;" class="s45" d="m1506.1 1366.2v12.1q-4.5-1.2-8.7-3-4.6-1.9-8.9-4.4l-30.8-17.7c-9.1-5.3-14.7-15-14.7-25.5v-2.5q0 0 0 0c0-1.2 0.2-2.3 0.7-3.3q0.6 2.9 1.9 5.7 0 0 0 0.1 1.2 2.7 2.9 5 0.1 0.1 0.2 0.3 0.8 1.1 1.8 2.1 0.1 0.2 0.2 0.3 0.9 0.9 1.8 1.8 0.2 0.1 0.3 0.2 1 0.9 2.1 1.8 0.2 0.1 0.5 0.3 1.1 0.8 2.3 1.5l30.8 17.8q2.1 1.2 4.3 2.3 1.9 0.9 3.9 1.7 0.2 0.1 0.4 0.2 4.4 1.9 9 3.2z"/>
				<g id="&lt;Group&gt;">
					<path id="&lt;Path&gt;" class="s46" d="m1621.7 1282.3c0 0-21.2 23.4-36.6 47.3-8.7 13.4-15.6 26.9-15.9 36.5-6.6 1.9-13.4 2.8-20.3 2.8h-22.6c-6.8 0-13.7-0.9-20.2-2.7v-4.9c0-2.9-0.8-5.8-2.3-8.4l-6-10.4c-1.5-2.6-3.6-4.7-6.2-6.2l-33.9-19.6c-2.6-1.5-5.8-1.5-8.4 0l-2.1 1.2c-1.6 1-2.8 2.3-3.5 4q-0.7-3.1-0.7-6.4c0-4.7 0-11.6 0-21.6q0-1.1 0.1-2.4c3.2-4.8 8.5-13.2 14.6-23.3 9.8-16.4 19.8-37.1 19.8-37.1 9.9-12.6 18-21.6 18-21.6l59.3 34.2z"/>
				</g>
				<g id="&lt;Group&gt;">
					<path id="&lt;Path&gt;" class="s47" d="m1548.1 1126.1l126.2 72.9c-10.5 6-52.6 83.3-52.6 83.3l-66.9-38.6-59.3-34.2c0 0 42.1-77.3 52.6-83.4z"/>
				</g>
				<path id="&lt;Path&gt;" class="s10" d="m1500.4 1212.3c17.8-32.5 40.4-71.1 48.3-79.8 36 25.3 75 47.9 117.1 67.6-12.9 15.5-37.9 60.8-48.3 79.8-54.1-15.9-94.6-37.8-117.1-67.6z"/>
				<g id="&lt;Group&gt;">
					<path id="&lt;Path&gt;" class="s11" d="m1535.6 1310q0-0.7 0.1-1.4c3.7-1.6 7.9-3 12.4-4.1q5.3-1.2 9.8-2.3c1.7 2.2 2.7 4.8 2.7 7.8 0 6.9-5.6 12.5-12.5 12.5-6.9 0-12.5-5.6-12.5-12.5z"/>
				</g>
				<path id="&lt;Path&gt;" class="s10" d="m1590.2 1296.1c0 0-8.6 18.4-32.4 28.1-23.9 9.8-51.7 8.3-51.7 8.3 0 0 7.7-14.9 29.6-23.9q-0.1 0.7-0.1 1.4c0 6.9 5.6 12.5 12.5 12.5 6.9 0 12.5-5.6 12.5-12.5 0-3-1-5.6-2.7-7.8q6.1-1.4 10.9-2.4c-0.5 1-0.8 2.1-0.8 3.2 0 3.9 3.1 7 7 7 3.8 0 6.9-3.1 6.9-7 0-2.1-1-4-2.5-5.3 7.7-1.4 10.8-1.6 10.8-1.6z"/>
				<g id="&lt;Group&gt;">
					<path id="&lt;Path&gt;" class="s11" d="m1568 1303c0-1.1 0.3-2.2 0.8-3.2 4.3-0.9 7.7-1.5 10.6-2.1 1.5 1.3 2.5 3.2 2.5 5.3 0 3.9-3.1 7-6.9 7-3.9 0-7-3.1-7-7z"/>
				</g>
				<g id="&lt;Group&gt;">
					<path id="&lt;Path&gt;" class="s46" d="m1786.1 1138.3c-2.1-1.2-4.4-1.4-6.6-0.1-18 10.4-55.9 32.3-69.8 40.3-18.4 10.6-31.6 18.3-35.4 20.5l-126.2-72.9c3.8-2.2 17-9.8 35.4-20.4 13.9-8.1 51.8-30 69.8-40.3 2.3-1.3 4.6-1.2 6.8 0.1z"/>
				</g>
				<path id="&lt;Path&gt;" class="s45" d="m1810.5 1229.3q-0.2 0.2-0.4 0.4c-1.7-4.6-4.5-7.9-8.1-9.9-5.9-3.1-13.9-2.5-22.7 2.5-14.2 8.3-26.2 25.8-30.6 43l-34.6 19.9v-109.2q1.1-0.7 2.3-1.3c16.9-9.8 47.5-27.5 63.1-36.5 2.2-1.3 4.5-1.1 6.6 0.1q0.1 0.1 0.2 0.1 1.5 0.9 2.9 2.1c0 0.1-5 5.1-1 15 3.4 8.1 11.6 20.6 22.5 26.4 1.5 5 2.4 8.8 2.4 9.8v31.6c0 2.2-0.9 4.4-2.6 6z"/>
				<path id="&lt;Path&gt;" class="s45" d="m1714.1 1285.2l-82.7 47.8c-1.7-4.6-4.5-8-8.2-9.9q-0.7-0.4-1.5-0.7v16.2-56.3c0 0 42.1-77.3 52.6-83.3 3.8-2.2 17-9.9 35.4-20.5 1.3-0.7 2.8-1.6 4.4-2.5z"/>
				<path id="&lt;Path&gt;" class="s13" d="m1779.5 1144.9c0 0 7 20.2 0 38.3-7 18-21.1 23.8-21.1 23.8l-126.2 72.9 42.1-73.7z"/>
				<path id="&lt;Path&gt;" class="s14" d="m1775.5 1181.7c-6.2 16-18.2 21.2-18.7 21.4l-0.2 0.1-38 22v-39.9l58.2-33.9c1.5 6.7 3.1 19.1-1.3 30.3z"/>
				<path id="&lt;Path&gt;" class="s14" d="m1714.1 1187.9v39.8l-70.5 40.7 33.8-59.1z"/>
				<path id="&lt;Path&gt;" class="s13" d="m1718.6 1185.3v39.9l-4.5 2.5v-39.8z"/>
				<g id="&lt;Group&gt;">
					<path id="&lt;Path&gt;" class="s15" d="m1488.5 1354c5.5 3.2 11.4 5.6 17.6 7.3v4.9c-6.2-1.7-12.1-4.2-17.6-7.4l-30.8-17.8c-7.2-4.2-12.3-11.2-14-19.1q0.4-0.9 0.9-1.6c2.3 6.6 6.9 12.3 13.1 15.9z"/>
				</g>
				<path id="&lt;Path&gt;" class="s4" d="m1503.8 1352.9c1.5 2.6 2.3 5.5 2.3 8.4-6.2-1.7-12.1-4.1-17.6-7.3l-30.8-17.8c-6.2-3.6-10.8-9.3-13.1-15.9 0.7-0.9 1.5-1.8 2.6-2.4l2.1-1.2c2.6-1.5 5.8-1.5 8.4 0l33.9 19.6c2.6 1.5 4.7 3.6 6.2 6.2z"/>
				<path id="&lt;Path&gt;" class="s16" d="m1453.5 1338.6l42 24.3v12.1l-42-24.3z"/>
				<g id="&lt;Group&gt;">
					<path id="&lt;Path&gt;" class="s11" d="m1810.7 1181.9c-10.9-5.8-19.1-18.3-22.5-26.4-4-9.9 1-14.9 1-15 9.6 8.5 17.6 29 21.5 41.4z"/>
				</g>
				<path id="&lt;Path&gt;" class="s44" d="m1810.1 1229.7q-0.6 0.4-1.2 0.8l-11.3 6.6q-1.5-2.1-3.6-3.2c-3.8-2.1-8.9-1.7-14.6 1.6-7.8 4.5-14.5 13.2-18.2 22.5l-12.5 7.3c4.4-17.2 16.4-34.7 30.6-43 8.8-5 16.8-5.6 22.7-2.5 3.6 2 6.4 5.3 8.1 9.9z"/>
				<path id="&lt;Path&gt;" class="s45" d="m1570.8 1365.7q-0.8 0.2-1.6 0.4c0.8-26.7 52.5-83.8 52.5-83.8v40.1c-5.7-2.4-13-1.5-21.1 3.1-13.5 7.8-25 23.9-29.8 40.2z"/>
				<path id="&lt;Path&gt;" class="s44" d="m1582.6 1361c-3.8 1.9-7.8 3.4-11.8 4.7 4.8-16.3 16.3-32.4 29.8-40.2 8.1-4.6 15.4-5.5 21.1-3.1v16.2l-2.9 1.7q-1.4-2.1-3.5-3.2c-3.8-2-9-1.7-14.7 1.6-7.7 4.5-14.4 13.1-18 22.3z"/>
				<path id="&lt;Path&gt;" class="s44" d="m1631.4 1333l-9.7 5.6v-16.2q0.8 0.3 1.5 0.7c3.7 1.9 6.5 5.3 8.2 9.9z"/>
				<path id="&lt;Path&gt;" class="s10" d="m1457.7 1268.2c-6.1 10.1-11.4 18.5-14.6 23.3 1.7-16.3 19.9-42.1 34.4-60.4 0 0-10 20.7-19.8 37.1z"/>
				<path id="&lt;Path&gt;" class="s13" d="m1621.7 1350.7c0.1 13.4-9.3 29.6-20.9 36.3-5.8 3.3-11 3.7-14.8 1.6q0 0-0.1 0 0-0.1-0.1-0.1c-3.8-2.2-6.1-6.8-6.1-13.5q0-0.3 0-0.5c0.2-13.3 9.5-29.2 20.9-35.8 5.7-3.3 10.9-3.6 14.7-1.6 3.9 2.1 6.4 6.8 6.4 13.6q0 0 0 0z"/>
				<g id="&lt;Group&gt;">
					<path id="&lt;Path&gt;" class="s17" d="m1600.7 1347.5c7.3-4.3 13.3-0.8 13.4 7.7 0 8.4-6 18.8-13.4 23-7.3 4.3-13.3 0.9-13.4-7.6 0-8.5 6-18.8 13.4-23.1z"/>
				</g>
				<path id="&lt;Path&gt;" class="s13" d="m1800.5 1247.5c0 13.4-9.4 29.6-21 36.3-5.7 3.3-10.9 3.7-14.7 1.6q-0.1 0-0.1 0-0.1-0.1-0.1-0.1c-3.8-2.2-6.2-6.8-6.2-13.5 0-13.3 9.4-29.6 21-36.3 5.7-3.3 10.8-3.7 14.6-1.6 4 2.1 6.5 6.8 6.5 13.6z"/>
				<g id="&lt;Group&gt;">
					<path id="&lt;Path&gt;" class="s17" d="m1779.4 1244.3c7.4-4.3 13.4-0.8 13.4 7.6 0.1 8.5-5.9 18.9-13.3 23.1-7.4 4.3-13.4 0.9-13.4-7.6 0-8.5 5.9-18.8 13.3-23.1z"/>
				</g>
				<g id="&lt;Group&gt;">
					<path id="&lt;Path&gt;" class="s4" d="m1621.8 1282.6l-0.1-0.6c-0.1-1 0.6-2 1.7-2.1l2.4-0.3c1.1-0.2 2.1 0.6 2.2 1.6l0.1 0.6c0.1 1.1-0.6 2-1.7 2.2l-2.5 0.3c-1 0.1-2-0.6-2.1-1.7z"/>
				</g>
				<path id="&lt;Path&gt;" class="s3" d="m1626.1 1281.3v-0.1q0-0.8 0.4-1.5l6-11.5c1.9-3.7 6.3-5.4 10.2-4l11 3.9c2.1 0.7 3.2 3 2.6 5.1l-1.3 4.8c-1 3.6-4.2 6-7.9 6.1l-17.5 0.6c-1.9 0-3.5-1.5-3.5-3.4z"/>
				<path id="&lt;Path&gt;" class="s4" d="m1480.8 1317.9l-13.2-7.6c-2-1.1-2.7-3.7-1.5-5.7l8.4-14.6 31.6 18.2-16.9 9.7c-2.6 1.5-5.8 1.5-8.4 0z"/>
			</g>
			<path id="&lt;Path&gt;" class="s48" d="m1720.1 915.6l35.5 20.6v419.1l-35.5-20.5z"/>
			<path id="&lt;Path&gt;" class="s49" d="m1791.1 1334.8l-35.5 20.5v-419.1l35.5-20.6z"/>
			<g id="&lt;Group&gt;">
				<path id="&lt;Path&gt;" class="s3" d="m1735.6 1346.2l-4.4-5c-1.4-1.5-2.1-3.5-2.1-5.5v-4.7c0-2.3 1.9-4.2 4.2-4.2h4.7c2.6 0 4.6 2.4 4.1 5l-2.5 13.3q0 0.1 0 0.2c-0.5 1.8-2.8 2.3-4 0.9z"/>
				<g id="&lt;Group&gt;">
					<path id="&lt;Path&gt;" class="s4" d="m1736.8 1348.6c-0.5-0.9-0.1-2.1 0.9-2.5l0.5-0.3c1-0.4 2.2 0 2.6 1 0.5 0.9 0 2.1-0.9 2.5l-0.6 0.3c-0.9 0.4-2.1 0-2.5-1z"/>
				</g>
				<path id="&lt;Path&gt;" class="s4" d="m1829.9 1528.5l-20.6-12q-0.4-0.2-0.8-0.4l-0.4-0.2v-0.1c-3.3-2.3-5.4-6.8-5.4-13 0-13.3 9.3-29.6 21-36.3 6.8-3.9 12.8-3.6 16.7-0.1l19 10.6-0.1 0.1c-3.8-2.1-8.9-1.7-14.6 1.6-11.6 6.7-21 22.9-21 36.3 0 6.6 2.4 11.3 6.2 13.5z"/>
				<path id="&lt;Path&gt;" class="s4" d="m2008.6 1425.3l-20.6-12q-0.4-0.2-0.7-0.4l-0.4-0.2v-0.1c-3.4-2.3-5.4-6.8-5.4-13-0.1-13.3 9.3-29.6 20.9-36.3 6.8-3.9 12.9-3.7 16.8-0.1l18.9 10.6v0.1c-3.8-2.1-9-1.7-14.7 1.6-11.6 6.7-21 22.9-20.9 36.3 0 6.6 2.4 11.3 6.1 13.5z"/>
				<path id="&lt;Path&gt;" class="s5" d="m2032.3 1382.4l-201.5 116.4z"/>
				<path id="&lt;Path&gt;" class="s26" d="m2057.2 1363.2v12.3q-0.1 0.1-0.1 0.2 0 1.5-0.6 3 0 0-0.1 0-0.1 0.5-0.4 0.9 0 0.1-0.1 0.2-0.2 0.3-0.4 0.6-0.2 0.2-0.3 0.4-0.2 0.2-0.4 0.5-0.3 0.2-0.5 0.4-0.2 0.1-0.4 0.3-0.4 0.3-0.9 0.6l-8.5 4.9c0-4.4-1-8-2.9-10.5l11.4-6.5q0.9-0.5 1.6-1.2c1.7-1.6 2.5-3.9 2.6-6.1z"/>
				<path id="&lt;Path&gt;" class="s26" d="m1865.8 1490.7q0 0 0 0v-12.1l139.5-80.6c-1.8 4.6-2.8 9.4-2.8 13.8l-136.7 78.9z"/>
				<path id="&lt;Path&gt;" class="s26" d="m1862.9 1480.2l2.9-1.6v12.1c0-4.4-1.1-8-2.9-10.5z"/>
				<path id="&lt;Path&gt;" class="s5" d="m1698.9 1479.1q0.3 0.2 0.5 0.4-0.2-0.2-0.5-0.4z"/>
				<path id="&lt;Path&gt;" class="s5" d="m1694.5 1475.1q0.1 0.1 0.3 0.2-0.2-0.1-0.3-0.2z"/>
				<path id="&lt;Path&gt;" class="s5" d="m1692.6 1472.7q0.1 0.1 0.2 0.2-0.1-0.1-0.2-0.2z"/>
				<path id="&lt;Path&gt;" class="s26" d="m1826.7 1501c-1.8 4.5-2.9 9.1-3 13.5q-1.8 0.8-3.6 1.5 0 0-0.1 0-5.1 2-10.5 3.2-0.5 0.1-1 0.2-1.2 0.3-2.5 0.5-1 0.2-2.1 0.3-1 0.2-2.1 0.3-1.3 0.2-2.7 0.3-0.8 0-1.7 0.1-2.2 0.1-4.5 0.2h-22.5c-6.9 0-13.7-1-20.3-2.8v-12.2c6.6 1.9 13.4 2.8 20.3 2.8h22.5c11.8 0 23.3-2.7 33.8-7.9z"/>
				<path id="&lt;Path&gt;" class="s5" d="m1696.8 1477.4q-0.1-0.1-0.2-0.2 0.1 0.1 0.2 0.2z"/>
				<path id="&lt;Path&gt;" class="s5" d="m1692.8 1472.9q0.8 1.2 1.7 2.2-0.9-1-1.7-2.2z"/>
				<path id="&lt;Path&gt;" class="s5" d="m1696.6 1477.2q-1-0.9-1.8-1.9 0.8 1 1.8 1.9z"/>
				<path id="&lt;Path&gt;" class="s5" d="m1699.4 1479.5q1.1 0.8 2.3 1.5-1.2-0.7-2.3-1.5z"/>
				<path id="&lt;Path&gt;" class="s5" d="m1696.8 1477.4q1 0.9 2.1 1.7-1.1-0.8-2.1-1.7z"/>
				<path id="&lt;Path&gt;" class="s20" d="m1750.1 1506.1v12.2q-4.4-1.3-8.6-3-4.6-1.9-8.9-4.4l-30.9-17.8c-9.1-5.2-14.7-15-14.7-25.5v-2.4q0 0 0-0.1c0-1.1 0.3-2.2 0.7-3.3q0.7 3 1.9 5.7 0.1 0.1 0.1 0.2 1.2 2.6 2.9 5 0.1 0.1 0.2 0.2 0.8 1.2 1.7 2.2 0.1 0.1 0.3 0.2 0.8 1 1.8 1.9 0.1 0.1 0.2 0.2 1 0.9 2.1 1.7 0.3 0.2 0.5 0.4 1.1 0.8 2.3 1.5l30.9 17.8q2 1.2 4.2 2.2 1.9 1 3.9 1.8 0.2 0.1 0.4 0.2 4.4 1.9 9 3.1z"/>
				<path id="&lt;Path&gt;" class="s28" d="m1865.8 1422.3c0 0-21.2 23.4-36.7 47.2-8.7 13.4-15.6 27-15.9 36.6-6.6 1.8-13.4 2.8-20.3 2.8h-22.5c-6.9 0-13.7-0.9-20.3-2.8v-4.8c0-3-0.8-5.9-2.2-8.4l-6-10.4c-1.5-2.6-3.6-4.7-6.2-6.2l-34-19.6c-2.6-1.5-5.8-1.5-8.4 0l-2.1 1.2c-1.6 0.9-2.8 2.3-3.5 3.9q-0.7-3.1-0.7-6.3c0-4.7 0-11.6 0-21.6q0-1.2 0.2-2.4c3.1-4.9 8.4-13.2 14.5-23.4 9.9-16.3 19.9-37.1 19.9-37.1h-0.1c9.9-12.5 18.1-21.6 18.1-21.6l59.2 34.2z"/>
				<path id="&lt;Path&gt;" class="s27" d="m1792.2 1266.1l126.2 72.8c-10.6 6.1-52.6 83.4-52.6 83.4l-67-38.7-59.2-34.2c0 0 42.1-77.3 52.6-83.3z"/>
				<path id="&lt;Path&gt;" class="s10" d="m1744.4 1352.2c17.9-32.4 40.5-71.1 48.4-79.7 36 25.3 75 47.9 117 67.6-12.9 15.5-37.9 60.8-48.3 79.7-54-15.8-94.6-37.7-117.1-67.6z"/>
				<g id="&lt;Group&gt;">
					<path id="&lt;Path&gt;" class="s11" d="m1779.7 1449.9q0-0.7 0.1-1.4c3.7-1.5 7.8-2.9 12.4-4q5.3-1.3 9.8-2.3c1.7 2.1 2.7 4.8 2.7 7.7 0 6.9-5.6 12.5-12.5 12.5-6.9 0-12.5-5.6-12.5-12.5z"/>
				</g>
				<path id="&lt;Path&gt;" class="s10" d="m1834.2 1436.1c0 0-8.5 18.3-32.4 28.1-23.9 9.8-51.7 8.3-51.7 8.3 0 0 7.7-14.9 29.7-24q-0.1 0.7-0.1 1.4c0 6.9 5.6 12.5 12.5 12.5 6.9 0 12.5-5.6 12.5-12.5 0-2.9-1-5.6-2.7-7.7 4.1-0.9 7.7-1.7 10.9-2.4-0.5 1-0.8 2-0.8 3.2 0 3.8 3.1 6.9 6.9 6.9 3.9 0 7-3.1 7-6.9 0-2.1-1-4-2.5-5.3 7.7-1.4 10.7-1.6 10.7-1.6z"/>
				<g id="&lt;Group&gt;">
					<path id="&lt;Path&gt;" class="s11" d="m1812.1 1443c0-1.2 0.3-2.2 0.8-3.2 4.2-0.9 7.7-1.6 10.6-2.1 1.5 1.3 2.5 3.2 2.5 5.3 0 3.8-3.1 6.9-7 6.9-3.8 0-6.9-3.1-6.9-6.9z"/>
				</g>
				<path id="&lt;Path&gt;" class="s28" d="m2030.2 1278.3c-2.2-1.2-4.4-1.4-6.7-0.1-17.9 10.4-55.8 32.2-69.7 40.3-18.4 10.6-31.7 18.3-35.4 20.4l-126.2-72.8c3.7-2.2 17-9.8 35.4-20.5 13.9-8 51.8-29.9 69.7-40.2 2.4-1.4 4.6-1.2 6.9 0.1z"/>
				<path id="&lt;Path&gt;" class="s21" d="m2054.6 1369.3q-0.2 0.2-0.5 0.3c-1.7-4.5-4.5-7.9-8.1-9.8-5.8-3.1-13.8-2.6-22.6 2.5-14.2 8.2-26.3 25.7-30.6 42.9l-34.6 20v-109.3q1.1-0.6 2.2-1.3c16.9-9.7 47.5-27.4 63.1-36.4 2.3-1.3 4.5-1.1 6.7 0.1q0.1 0 0.1 0.1 1.5 0.8 2.9 2.1c0 0-5 5.1-0.9 14.9 3.4 8.2 11.6 20.6 22.4 26.5 1.6 5 2.5 8.7 2.5 9.7v31.6c-0.1 2.2-0.9 4.5-2.6 6.1z"/>
				<path id="&lt;Path&gt;" class="s20" d="m1958.2 1425.2l-82.8 47.8c-1.7-4.6-4.5-8-8.1-10q-0.7-0.4-1.5-0.7v16.3-56.3c0 0 42-77.3 52.6-83.4 3.7-2.1 17-9.8 35.4-20.4 1.2-0.8 2.7-1.6 4.4-2.6z"/>
				<path id="&lt;Path&gt;" class="s13" d="m2023.5 1284.9c0 0 7 20.2 0 38.3-7 18-21 23.8-21 23.8l-126.2 72.8 42.1-73.6z"/>
				<path id="&lt;Path&gt;" class="s14" d="m2019.6 1321.6c-6.2 16-18.2 21.3-18.7 21.5l-0.3 0.1-38 21.9v-39.9l58.3-33.9c1.4 6.7 3 19.1-1.3 30.3z"/>
				<path id="&lt;Path&gt;" class="s14" d="m1958.2 1327.8v39.9l-70.5 40.7 33.8-59.2z"/>
				<path id="&lt;Path&gt;" class="s13" d="m1962.6 1325.2v39.9l-4.4 2.6v-39.9z"/>
				<g id="&lt;Group&gt;">
					<path id="&lt;Path&gt;" class="s15" d="m1732.6 1493.9c5.5 3.2 11.4 5.7 17.5 7.4v4.8c-6.1-1.7-12-4.1-17.5-7.3l-30.9-17.8c-7.2-4.2-12.2-11.2-14-19.2q0.4-0.8 1-1.5c2.2 6.6 6.8 12.2 13 15.8z"/>
				</g>
				<path id="&lt;Path&gt;" class="s4" d="m1747.9 1492.9c1.4 2.5 2.2 5.4 2.2 8.4-6.1-1.7-12-4.2-17.5-7.4l-30.9-17.8c-6.2-3.6-10.8-9.2-13-15.8 0.6-1 1.5-1.8 2.5-2.4l2.1-1.2c2.6-1.5 5.8-1.5 8.4 0l34 19.6c2.6 1.5 4.7 3.6 6.2 6.2z"/>
				<path id="&lt;Path&gt;" class="s16" d="m1697.5 1478.6l42.1 24.2v12.2l-42.1-24.3z"/>
				<g id="&lt;Group&gt;">
					<path id="&lt;Path&gt;" class="s11" d="m2054.7 1321.9c-10.8-5.9-19-18.3-22.4-26.5-4.1-9.8 0.9-14.9 0.9-14.9 9.7 8.5 17.7 29 21.5 41.4z"/>
				</g>
				<path id="&lt;Path&gt;" class="s26" d="m2054.1 1369.6q-0.5 0.5-1.1 0.9l-11.4 6.5q-1.4-2-3.5-3.1c-3.8-2.1-9-1.7-14.7 1.6-7.7 4.5-14.5 13.2-18.1 22.5l-12.5 7.2c4.3-17.2 16.4-34.7 30.6-42.9 8.8-5.1 16.8-5.6 22.6-2.5 3.6 1.9 6.4 5.3 8.1 9.8z"/>
				<path id="&lt;Path&gt;" class="s21" d="m1814.8 1505.6q-0.8 0.3-1.6 0.5c0.9-26.7 52.6-83.8 52.6-83.8v40c-5.7-2.3-13.1-1.4-21.2 3.2-13.4 7.8-24.9 23.9-29.8 40.1z"/>
				<path id="&lt;Path&gt;" class="s26" d="m1826.7 1501c-3.9 1.9-7.8 3.4-11.9 4.6 4.9-16.2 16.4-32.3 29.8-40.1 8.1-4.6 15.5-5.5 21.2-3.2v16.3l-2.9 1.6q-1.5-2-3.6-3.1c-3.8-2.1-8.9-1.7-14.6 1.6-7.7 4.4-14.4 13.1-18 22.3z"/>
				<path id="&lt;Path&gt;" class="s26" d="m1875.4 1473l-9.6 5.6v-16.3q0.8 0.3 1.5 0.7c3.6 2 6.4 5.4 8.1 10z"/>
				<path id="&lt;Path&gt;" class="s10" d="m1701.7 1408.1c-6.1 10.2-11.4 18.5-14.5 23.4 1.7-16.3 19.8-42.1 34.3-60.5h0.1c0 0-10 20.8-19.9 37.1z"/>
				<path id="&lt;Path&gt;" class="s13" d="m1865.8 1490.7c0 13.3-9.4 29.6-21 36.3-5.7 3.3-10.9 3.7-14.7 1.6q-0.1 0-0.1-0.1-0.1 0-0.1 0c-3.8-2.2-6.2-6.9-6.2-13.5q0-0.3 0-0.5c0.3-13.3 9.5-29.2 21-35.8 5.7-3.3 10.8-3.7 14.6-1.6 4 2.1 6.5 6.8 6.5 13.6q0 0 0 0z"/>
				<g id="&lt;Group&gt;">
					<path id="&lt;Path&gt;" class="s17" d="m1844.7 1487.5c7.4-4.3 13.4-0.9 13.4 7.6 0.1 8.5-5.9 18.8-13.3 23.1-7.4 4.3-13.4 0.8-13.4-7.6 0-8.5 5.9-18.9 13.3-23.1z"/>
				</g>
				<path id="&lt;Path&gt;" class="s13" d="m2044.5 1387.5c0.1 13.3-9.3 29.6-20.9 36.3-5.8 3.3-11 3.7-14.8 1.6q0 0-0.1-0.1 0 0-0.1 0c-3.7-2.2-6.1-6.9-6.1-13.5-0.1-13.4 9.3-29.6 20.9-36.3 5.7-3.3 10.9-3.7 14.7-1.6 4 2.1 6.4 6.8 6.4 13.6z"/>
				<g id="&lt;Group&gt;">
					<path id="&lt;Path&gt;" class="s17" d="m2023.5 1384.3c7.4-4.3 13.4-0.9 13.4 7.6 0 8.5-6 18.8-13.3 23.1-7.4 4.3-13.4 0.8-13.5-7.6 0-8.5 6-18.9 13.4-23.1z"/>
				</g>
				<g id="&lt;Group&gt;">
					<path id="&lt;Path&gt;" class="s4" d="m1865.8 1422.6v-0.6c-0.2-1.1 0.6-2 1.6-2.2l2.5-0.3c1.1-0.1 2 0.6 2.2 1.7v0.6c0.2 1-0.6 2-1.6 2.1l-2.5 0.4c-1.1 0.1-2-0.7-2.2-1.7z"/>
				</g>
				<path id="&lt;Path&gt;" class="s3" d="m1870.2 1421.3v-0.1q0-0.8 0.4-1.5l5.9-11.5c2-3.7 6.3-5.4 10.3-4l11 3.9c2.1 0.7 3.2 2.9 2.6 5.1l-1.4 4.8c-1 3.5-4.2 6-7.8 6.1l-17.5 0.6c-1.9 0-3.5-1.5-3.5-3.4z"/>
				<path id="&lt;Path&gt;" class="s4" d="m1724.8 1457.9l-13.1-7.6c-2-1.2-2.7-3.7-1.5-5.7l8.4-14.6 31.5 18.2-16.9 9.7c-2.6 1.5-5.8 1.5-8.4 0z"/>
			</g>
			<path id="&lt;Path&gt;" class="s50" d="m2141.2 880.6l35.6 20.6-0.1 468.7-35.5-20.5z"/>
			<path id="&lt;Path&gt;" class="s51" d="m2212.3 1349.4l-35.6 20.5 0.1-468.7 35.5-20.6z"/>
			<path id="&lt;Path&gt;" class="s6" d="m2151.4 1384.6v-175.8l25.4-14.7v175.8z"/>
			<path id="&lt;Path&gt;" class="s7" d="m2100.7 1150.2l76.1 43.9-25.4 14.7-76.1-44z"/>
			<path id="&lt;Path&gt;" class="s9" d="m2151.4 1384.6l-76.1-44v-175.8l76.1 44z"/>
			<g id="&lt;Group&gt;">
				<path id="&lt;Compound Path&gt;" fill-rule="evenodd" class="s8" d="m2081.8 1336.8v-160.6l63 36.4v160.6zm7.2-148.2v144.1l48.7 28.1-0.1-144.1z"/>
			</g>
			<g id="&lt;Group&gt;">
				<path id="&lt;Path&gt;" class="s8" d="m2173.6 1225.3l-19 10.9v-5.1l19-11z"/>
				<path id="&lt;Path&gt;" class="s8" d="m2154.6 1225.9v-5.2l19-10.9v5.1z"/>
				<path id="&lt;Path&gt;" class="s8" d="m2173.6 1240.8v5.2l-19 10.9v-5.1z"/>
				<path id="&lt;Path&gt;" class="s8" d="m2173.6 1235.6l-19 11v-5.2l19-11z"/>
			</g>
			<g id="&lt;Group&gt;">
				<path id="&lt;Path&gt;" class="s52" d="m715.3 1276.2c0 40.4-56.8 73.2-126.8 73.2-70.1 0-126.9-32.8-126.9-73.2 0-40.5 56.8-73.3 126.9-73.3 70 0 126.8 32.8 126.8 73.3z"/>
				<path id="&lt;Path&gt;" class="s53" d="m589.6 1302.9c0 6.3-8.9 11.4-19.8 11.4-10.9 0-19.7-5.1-19.7-11.4v-205c0 6.2 8.8 11.3 19.7 11.3 10.9 0 19.8-5.1 19.8-11.4v205.1q0 0 0 0z"/>
				<path id="&lt;Path&gt;" class="s54" d="m691.2 1260.8c0 6.3-8.9 11.4-19.8 11.4-10.9 0-19.7-5.1-19.7-11.4v-205.1c0 6.3 8.8 11.4 19.7 11.4 10.9 0 19.8-5.1 19.8-11.4v205.1q0 0 0 0z"/>
				<path id="&lt;Path&gt;" class="s55" d="m747.5 1055.7c0 24.3-34 44-76.1 44-42 0-76.1-19.7-76.1-44 0-2.8 0.5-5.5 1.4-8.2l74.7-445.9 74.8 445.9c0.8 2.7 1.3 5.4 1.3 8.2z"/>
				<path id="&lt;Path&gt;" class="s56" d="m569.8 935.5c65.4 0 118.4 53 118.4 118.4 0 65.3-53 118.3-118.4 118.3-65.3 0-118.3-53-118.3-118.3 0-65.4 53-118.4 118.3-118.4z"/>
			</g>
			<g id="&lt;Group&gt;">
				<g id="&lt;Group&gt;">
					<g id="&lt;Group&gt;">
						<path id="&lt;Path&gt;" class="s57" d="m1255.5 920.4l-558.2-322.3v-34.2c0-2.8 2.3-5.1 5.1-5.1h0.5c2.8 0 5.1 2.3 5.1 5.1v28l547.5 316.1v-29.6c0-2.8 2.2-5.1 5-5.1h0.6c2.8 0 5.1 2.3 5.1 5.1v27.3l395.2-335.6v-28.6c0-2.8 2.3-5.1 5.1-5.1h0.6c2.8 0 5 2.3 5 5.1v33.6l-405.9 344.7-4.8 4z"/>
					</g>
					<path id="&lt;Path&gt;" class="s58" d="m1260.8 858.7l-583.5-336.9 431.3-366.2 583.5 336.9z"/>
					<path id="&lt;Path&gt;" class="s59" d="m1692.1 492.5v29.3l-431.3 366.2v-29.3z"/>
					<path id="&lt;Path&gt;" class="s60" d="m1260.8 858.7v29.3l-583.5-336.9v-29.3z"/>
					<g id="&lt;Group&gt;">
						<path id="&lt;Path&gt;" class="s61" d="m1108.6 184.9l537.6 310.4-390.2 331.3-537.6-310.4z"/>
					</g>
					<path id="&lt;Compound Path&gt;" fill-rule="evenodd" class="s62" d="m1584.4 515.1l22.9 13.2-4.3 3.7-22.9-13.2-16.2 13.7 22.9 13.2-4.4 3.7-22.9-13.2-16.1 13.8 22.9 13.2-4.4 3.7-22.9-13.2-16.2 13.7 22.9 13.2-4.3 3.7-22.9-13.2-16.2 13.7 22.9 13.3-4.4 3.7-22.9-13.3-16.2 13.8 22.9 13.2-4.3 3.7-22.9-13.2-16.2 13.7 22.9 13.2-4.4 3.7-22.9-13.2-57.2 48.6 22.9 13.3-4.4 3.6-22.9-13.2-16.2 13.8 22.9 13.2-4.3 3.7-22.9-13.2-16.2 13.7 22.9 13.2-4.3 3.7-22.9-13.2-16.2 13.7 22.9 13.3-4.4 3.7-22.9-13.3-16.2 13.8 22.9 13.2-4.3 3.7-22.9-13.2-16.2 13.7 22.9 13.2-4.4 3.7-22.9-13.2-16.2 13.8 22.9 13.2-4.3 3.7-22.9-13.2-16.2 13.7 22.9 13.2-4.3 3.7-22.9-13.2-18.4 15.6-4.9-2.9 18.3-15.6-20.4-11.8-18.4 15.6-4.9-2.8 18.4-15.6-20.5-11.8-18.3 15.6-5-2.9 18.4-15.6-20.5-11.8-18.3 15.6-5-2.8 18.4-15.6-20.4-11.8-18.4 15.6-4.9-2.9 18.3-15.5-20.4-11.8-18.4 15.5-4.9-2.8 18.4-15.6-20.5-11.8-18.3 15.6-5-2.9 18.4-15.5-20.4-11.8-18.4 15.6-4.9-2.9 18.3-15.6-20.4-11.8-18.4 15.6-4.9-2.9 18.3-15.5-71.1-41.1-18.4 15.6-4.9-2.9 18.3-15.6-20.4-11.8-18.4 15.6-4.9-2.8 18.4-15.6-20.5-11.8-18.3 15.6-5-2.9 18.4-15.6-20.4-11.8-18.4 15.6-4.9-2.8 18.3-15.6-20.4-11.8-18.4 15.6-4.9-2.9 18.3-15.6-20.4-11.8-18.4 15.6-4.9-2.8 18.4-15.6-20.5-11.8-18.3 15.6-5-2.9 18.4-15.6-20.4-11.8-18.4 15.6-4.9-2.8 18.3-15.6-20.4-11.8-18.4 15.6-4.9-2.9 18.4-15.6-27.8-16 4.4-3.7 27.7 16 16.2-13.7-27.7-16 4.3-3.7 27.7 16 16.2-13.8-27.7-16 4.3-3.7 27.8 16.1 16.2-13.8-27.8-16 4.4-3.7 27.7 16 16.2-13.7-27.7-16 4.3-3.7 27.8 16 16.1-13.8-27.7-16 4.4-3.7 27.7 16 16.2-13.7-27.7-16 4.3-3.7 27.7 16 16.2-13.7-27.7-16.1 4.3-3.6 27.8 16 57.2-48.7-27.7-16 4.4-3.7 27.7 16 16.2-13.7-27.7-16 4.3-3.7 27.7 16 16.2-13.7-27.7-16.1 4.3-3.6 27.8 16 16.2-13.8-27.8-16 4.4-3.7 27.7 16 16.2-13.7-27.7-16 4.3-3.7 27.7 16 16.2-13.8-27.7-16 4.4-3.7 27.7 16.1 16.2-13.8-27.8-16 4.4-3.7 27.7 16 16.2-13.7-27.7-16 4.3-3.7 27.8 16 18.3-15.6 5 2.8-18.4 15.6 20.4 11.8 18.4-15.6 4.9 2.9-18.3 15.6 20.4 11.8 18.4-15.6 4.9 2.8-18.4 15.6 20.5 11.8 18.3-15.6 5 2.9-18.4 15.6 20.5 11.8 18.3-15.6 5 2.8-18.4 15.6 20.4 11.8 18.4-15.6 4.9 2.9-18.3 15.6 20.4 11.8 18.4-15.6 4.9 2.8-18.4 15.6 20.5 11.8 18.3-15.6 5 2.9-18.4 15.6 20.4 11.8 18.4-15.6 4.9 2.8-18.3 15.6 71.2 41.1 18.3-15.6 5 2.9-18.4 15.6 20.4 11.8 18.4-15.6 4.9 2.8-18.3 15.6 20.4 11.8 18.4-15.6 4.9 2.9-18.4 15.6 20.5 11.8 18.3-15.6 5 2.8-18.4 15.6 20.4 11.8 18.4-15.6 5 2.9-18.4 15.6 20.4 11.8 18.4-15.6 4.9 2.8-18.3 15.6 20.4 11.8 18.4-15.6 4.9 2.9-18.4 15.6 20.5 11.7 18.3-15.5 5 2.8-18.4 15.6 20.4 11.8 18.4-15.6 4.9 2.9-18.3 15.5 22.9 13.3-4.4 3.7-22.9-13.3zm-34.5-43l20.4 11.8-16.2 13.7-20.4-11.8zm-372.1-9.7l71.1 41.1-57.2 48.6-71.2-41.1zm-62.2 45.8l-20.5-11.8 57.3-48.6 20.4 11.7zm138.4-1.8l20.4 11.8-57.3 48.6-20.4-11.8zm4.4-3.6l16.1-13.8 20.5 11.8-16.2 13.8zm-4.9-2.9l-71.2-41.1 16.2-13.7 71.1 41.1zm-76.1-44l-20.4-11.8 16.2-13.7 20.4 11.8zm-25.4-14.7l-20.4-11.8 16.2-13.7 20.4 11.8zm-4.3 3.7l-57.3 48.6-20.4-11.8 57.3-48.6zm-61.7 52.3l-16.1 13.7-20.5-11.8 16.2-13.7zm5 2.8l20.4 11.8-16.2 13.8-20.4-11.8zm25.3 14.6l71.2 41.1-16.2 13.8-71.2-41.1zm76.2 43.9l20.4 11.8-16.2 13.8-20.4-11.8zm25.3 14.6l20.5 11.8-16.2 13.8-20.4-11.8zm4.3-3.7l57.3-48.7 20.4 11.8-57.3 48.7zm61.6-52.3l16.2-13.8 20.5 11.8-16.2 13.7zm20.5-17.4l16.2-13.7 20.4 11.8-16.2 13.7zm-4.9-2.8l-20.4-11.8 16.2-13.8 20.4 11.8zm-25.4-14.6l-71.2-41.1 16.2-13.8 71.2 41.1zm-76.1-43.9l-20.4-11.8 16.2-13.8 20.4 11.8zm-25.4-14.6l-20.4-11.8 16.2-13.8 20.4 11.8zm-25.4-14.6l-20.4-11.8 16.2-13.8 20.4 11.8zm-4.3 3.7l-16.2 13.8-20.4-11.8 16.2-13.8zm-20.6 17.5l-57.3 48.6-20.4-11.8 57.3-48.6zm-61.6 52.3l-16.2 13.7-20.5-11.8 16.2-13.7zm-20.5 17.4l-16.2 13.8-20.4-11.8 16.2-13.8zm4.9 2.9l20.4 11.8-16.2 13.7-20.4-11.8zm25.4 14.7l20.4 11.8-16.2 13.7-20.4-11.8zm25.4 14.7l71.1 41-16.2 13.8-71.1-41.1zm76.1 43.9l20.4 11.8-16.2 13.8-20.4-11.8zm25.4 14.6l20.4 11.8-16.2 13.8-20.4-11.8zm25.3 14.6l20.5 11.8-16.2 13.8-20.5-11.8zm4.4-3.7l16.2-13.8 20.4 11.8-16.2 13.8zm20.6-17.4l57.2-48.7 20.5 11.8-57.3 48.7zm61.6-52.4l16.2-13.7 20.5 11.8-16.2 13.7zm20.5-17.4l16.2-13.7 20.4 11.8-16.2 13.7zm20.6-17.4l16.2-13.8 20.4 11.8-16.2 13.8zm-4.9-2.9l-20.5-11.8 16.2-13.7 20.5 11.8zm-25.4-14.7l-20.4-11.8 16.1-13.7 20.5 11.8zm-25.4-14.7l-71.2-41.1 16.2-13.7 71.2 41.1zm-76.1-44l-20.5-11.8 16.2-13.7 20.5 11.8zm-25.4-14.7l-20.4-11.8 16.2-13.7 20.4 11.8zm-25.4-14.7l-20.4-11.8 16.2-13.7 20.4 11.8zm-25.4-14.7l-20.4-11.7 16.2-13.8 20.4 11.8zm-4.3 3.7l-16.2 13.7-20.4-11.8 16.1-13.7zm-20.5 17.4l-16.2 13.8-20.4-11.8 16.2-13.8zm-20.6 17.5l-57.2 48.6-20.5-11.8 57.3-48.6zm-61.6 52.3l-16.2 13.7-20.4-11.8 16.2-13.7zm-20.6 17.4l-16.2 13.8-20.4-11.8 16.2-13.8zm-20.6 17.5l-16.2 13.7-20.4-11.8 16.2-13.7zm4.9 2.8l20.5 11.8-16.2 13.8-20.4-11.8zm25.3 14.6l20.5 11.8-16.2 13.8-20.5-11.8zm25.4 14.6l20.4 11.8-16.2 13.8-20.4-11.8zm25.4 14.6l71.2 41.1-16.2 13.8-71.2-41.1zm76.1 43.9l20.4 11.8-16.1 13.8-20.5-11.8zm25.4 14.6l20.4 11.8-16.2 13.8-20.4-11.8zm25.4 14.6l20.4 11.8-16.2 13.7-20.4-11.8zm25.3 14.7l20.5 11.8-16.2 13.7-20.4-11.8zm4.3-3.6l16.2-13.8 20.4 11.8-16.2 13.8zm20.6-17.5l16.2-13.7 20.4 11.8-16.2 13.7zm20.5-17.4l57.3-48.6 20.4 11.7-57.2 48.7zm61.6-52.3l16.2-13.8 20.4 11.8-16.2 13.8zm20.6-17.5l16.2-13.7 20.4 11.8-16.2 13.7zm20.5-17.4l16.2-13.8 20.5 11.8-16.2 13.8zm20.5-17.5l16.2-13.7 20.4 11.8-16.2 13.7zm-4.9-2.8l-20.4-11.8 16.2-13.8 20.4 11.8zm-25.4-14.6l-20.4-11.8 16.2-13.8 20.4 11.8zm-25.3-14.6l-20.5-11.8 16.2-13.8 20.4 11.8zm-25.3-14.6l-71.2-41.1 16.2-13.8 71.2 41.1zm-76.2-43.9l-20.4-11.8 16.2-13.8 20.4 11.8zm-25.3-14.6l-20.5-11.8 16.2-13.8 20.5 11.8zm-25.4-14.6l-20.4-11.8 16.2-13.8 20.4 11.8zm-25.4-14.6l-20.4-11.8 16.2-13.8 20.4 11.8zm-25.4-14.6l-20.4-11.8 16.2-13.7 20.4 11.7zm-4.3 3.7l-16.2 13.8-20.4-11.8 16.2-13.8zm-20.6 17.5l-16.2 13.7-20.4-11.8 16.2-13.7zm-20.6 17.4l-16.1 13.8-20.5-11.8 16.2-13.8zm-20.5 17.5l-57.3 48.6-20.4-11.8 57.2-48.6zm-61.6 52.3l-16.2 13.7-20.4-11.8 16.2-13.7zm-20.5 17.4l-16.2 13.8-20.5-11.8 16.2-13.8zm-20.5 17.5l-16.2 13.7-20.4-11.8 16.1-13.7zm-20.5 17.4l-16.2 13.8-20.4-11.8 16.2-13.8zm4.9 2.9l20.4 11.8-16.1 13.7-20.5-11.8zm25.4 14.7l20.4 11.8-16.2 13.7-20.4-11.8zm25.4 14.7l20.4 11.7-16.2 13.8-20.4-11.8zm25.3 14.6l20.5 11.8-16.2 13.8-20.5-11.8zm25.4 14.6l71.2 41.1-16.2 13.8-71.2-41.1zm76.1 43.9l20.5 11.8-16.2 13.8-20.4-11.8zm25.3 14.6l20.5 11.8-16.2 13.8-20.5-11.8zm25.4 14.6l20.4 11.8-16.2 13.8-20.4-11.8zm25.4 14.6l20.4 11.8-16.2 13.8-20.4-11.8zm25.4 14.6l20.4 11.8-16.2 13.8-20.4-11.8zm4.3-3.7l16.2-13.8 20.4 11.8-16.2 13.8zm20.6-17.5l16.2-13.7 20.4 11.8-16.2 13.7zm20.6-17.4l16.2-13.7 20.4 11.8-16.2 13.7zm20.5-17.4l57.3-48.7 20.4 11.8-57.2 48.7zm61.6-52.3l16.2-13.8 20.4 11.8-16.2 13.7zm20.6-17.4l16.1-13.7 20.5 11.8-16.2 13.7zm20.5-17.4l16.2-13.8 20.4 11.8-16.1 13.8zm20.5-17.5l16.2-13.7 20.4 11.8-16.2 13.7zm20.6-17.4l16.2-13.8 20.4 11.8-16.2 13.8zm-4.9-2.9l-20.5-11.8 16.2-13.7 20.5 11.8zm-25.4-14.7l-20.5-11.8 16.2-13.7 20.5 11.8zm-25.4-14.7l-20.4-11.8 16.2-13.7 20.4 11.8zm-25.4-14.7l-20.4-11.8 16.2-13.7 20.4 11.8zm-25.4-14.7l-71.1-41 16.2-13.8 71.1 41.1zm-76.1-43.9l-20.4-11.8 16.2-13.8 20.4 11.8zm-25.4-14.6l-20.4-11.8 16.2-13.8 20.4 11.8zm-25.3-14.6l-20.5-11.8 16.2-13.8 20.4 11.8zm-25.3-14.6l-20.5-11.8 16.2-13.8 20.5 11.8zm-25.4-14.6l-20.4-11.8 16.1-13.8 20.5 11.8zm-25.4-14.6l-20.4-11.8 16.2-13.8 20.4 11.8zm-4.3 3.7l-16.2 13.8-20.5-11.8 16.2-13.8zm-20.5 17.5l-16.2 13.7-20.4-11.8 16.1-13.7zm-20.5 17.4l-16.2 13.8-20.4-11.8 16.2-13.8zm-20.6 17.4l-16.2 13.8-20.4-11.8 16.2-13.8zm-20.5 17.5l-57.3 48.6-20.5-11.8 57.3-48.6zm-61.6 52.3l-16.2 13.7-20.4-11.7 16.2-13.8zm-20.6 17.4l-16.2 13.8-20.4-11.8 16.2-13.8zm-20.5 17.5l-16.2 13.7-20.5-11.8 16.2-13.7zm-20.5 17.4l-16.2 13.8-20.5-11.8 16.2-13.8zm-20.5 17.5l-16.2 13.7-20.4-11.8 16.2-13.7zm4.9 2.8l20.4 11.8-16.2 13.8-20.4-11.8zm25.4 14.6l20.4 11.8-16.2 13.8-20.4-11.8zm25.4 14.6l20.4 11.8-16.2 13.7-20.4-11.8zm25.3 14.7l20.5 11.8-16.2 13.7-20.4-11.8zm25.3 14.7l20.5 11.8-16.2 13.7-20.5-11.8zm25.4 14.7l71.2 41.1-16.2 13.7-71.2-41.1zm76.1 44l20.5 11.8-16.2 13.7-20.5-11.8zm25.4 14.7l20.4 11.8-16.1 13.7-20.5-11.8zm25.4 14.7l20.4 11.8-16.2 13.7-20.4-11.8zm25.4 14.7l20.4 11.8-16.2 13.7-20.4-11.8zm25.4 14.7l20.4 11.8-16.2 13.7-20.4-11.8zm25.3 14.7l20.5 11.8-16.2 13.7-20.4-11.8zm4.3-3.7l16.2-13.7 20.4 11.8-16.2 13.7zm20.6-17.4l16.2-13.8 20.4 11.8-16.2 13.8zm20.5-17.5l16.2-13.7 20.5 11.8-16.2 13.7zm20.5-17.4l16.2-13.8 20.4 11.8-16.1 13.8zm20.5-17.5l57.3-48.6 20.4 11.8-57.3 48.6zm61.6-52.3l16.2-13.7 20.5 11.8-16.2 13.7zm20.5-17.4l16.2-13.8 20.4 11.8-16.1 13.8zm20.5-17.5l16.2-13.7 20.4 11.8-16.2 13.7zm20.6-17.4l16.2-13.7 20.4 11.8-16.2 13.7zm20.5-17.4l16.2-13.8 20.5 11.8-16.2 13.8zm20.5-17.5l16.2-13.7 20.4 11.8-16.2 13.7zm-4.9-2.8l-20.4-11.8 16.2-13.8 20.4 11.8zm-25.4-14.6l-20.4-11.8 16.2-13.8 20.4 11.8zm-25.4-14.6l-20.4-11.8 16.2-13.8 20.4 11.8zm-25.3-14.6l-20.5-11.8 16.2-13.8 20.5 11.8zm-25.4-14.6l-20.5-11.8 16.2-13.8 20.5 11.8zm-25.4-14.6l-71.2-41.1 16.2-13.8 71.2 41.1zm-76.1-43.9l-20.5-11.8 16.2-13.7 20.5 11.8zm-25.4-14.7l-20.4-11.8 16.2-13.7 20.4 11.8zm-25.4-14.7l-20.4-11.8 16.2-13.7 20.4 11.8zm-25.4-14.7l-20.4-11.8 16.2-13.7 20.4 11.8zm-25.3-14.7l-20.5-11.8 16.2-13.7 20.5 11.8zm-25.4-14.7l-20.5-11.8 16.2-13.7 20.5 11.8zm-25.4-14.7l-20.4-11.8 16.2-13.7 20.4 11.8zm-4.4 3.7l-16.1 13.7-20.5-11.8 16.2-13.7zm-20.5 17.4l-16.2 13.8-20.5-11.8 16.2-13.8zm-20.5 17.5l-16.2 13.7-20.4-11.8 16.2-13.7zm-20.6 17.4l-16.2 13.7-20.4-11.8 16.2-13.7zm-20.5 17.4l-16.2 13.8-20.5-11.8 16.2-13.8zm-20.5 17.5l-57.3 48.6-20.4-11.8 57.3-48.6zm-61.7 52.3l-16.1 13.7-20.5-11.8 16.2-13.7zm-20.5 17.4l-16.2 13.8-20.5-11.8 16.2-13.8zm-20.5 17.5l-16.2 13.7-20.4-11.8 16.2-13.7zm-20.6 17.4l-16.2 13.8-20.4-11.8 16.2-13.8zm-20.5 17.5l-16.2 13.7-20.5-11.8 16.2-13.7zm-20.5 17.4l-16.2 13.8-20.4-11.8 16.2-13.8zm4.9 2.9l20.4 11.8-16.2 13.7-20.4-11.8zm25.4 14.7l20.4 11.8-16.2 13.7-20.4-11.8zm25.4 14.7l20.4 11.8-16.2 13.7-20.4-11.8zm25.3 14.6l20.5 11.8-16.2 13.8-20.5-11.8zm25.4 14.6l20.4 11.8-16.1 13.8-20.5-11.8zm25.4 14.6l20.4 11.8-16.2 13.8-20.4-11.8zm25.4 14.6l71.1 41.1-16.1 13.8-71.2-41.1zm76.1 43.9l20.4 11.8-16.2 13.8-20.4-11.8zm25.4 14.6l20.4 11.8-16.2 13.8-20.4-11.8zm25.4 14.6l20.4 11.8-16.2 13.8-20.4-11.8zm25.3 14.6l20.5 11.8-16.2 13.8-20.5-11.8zm25.4 14.6l20.4 11.8-16.1 13.8-20.5-11.8zm25.4 14.6l20.4 11.8-16.2 13.8-20.4-11.8zm25.4 14.6l20.4 11.8-16.2 13.8-20.4-11.8zm4.3-3.7l16.2-13.8 20.4 11.8-16.1 13.8zm20.5-17.5l16.2-13.7 20.4 11.8-16.2 13.7zm20.6-17.4l16.2-13.8 20.4 11.8-16.2 13.8zm20.5-17.5l16.2-13.7 20.5 11.8-16.2 13.7zm20.5-17.4l16.2-13.7 20.4 11.7-16.2 13.8zm20.6-17.4l57.2-48.7 20.5 11.8-57.3 48.7zm61.6-52.4l16.2-13.7 20.4 11.8-16.1 13.7zm20.5-17.4l16.2-13.8 20.4 11.8-16.2 13.8zm20.6-17.4l16.2-13.8 20.4 11.8-16.2 13.7zm20.5-17.4l16.2-13.7 20.5 11.8-16.2 13.7zm20.5-17.4l16.2-13.8 20.4 11.8-16.2 13.8zm20.6-17.5l16.2-13.7 20.4 11.8-16.2 13.7zm11.4-45.8l20.4 11.8-16.2 13.7-20.4-11.8zm-25.4-14.6l20.4 11.8-16.2 13.7-20.4-11.8zm-25.4-14.6l20.5 11.8-16.2 13.7-20.5-11.8zm-25.3-14.6l20.4 11.8-16.2 13.7-20.4-11.8zm-25.4-14.6l20.4 11.8-16.2 13.7-20.4-11.8zm-25.4-14.6l20.5 11.8-16.2 13.7-20.5-11.8zm-76.1-43.9l71.2 41.1-16.2 13.7-71.2-41.1zm-25.3-14.6l20.4 11.8-16.2 13.7-20.4-11.8zm-25.4-14.6l20.4 11.8-16.2 13.7-20.4-11.8zm-25.4-14.6l20.5 11.8-16.2 13.7-20.5-11.8zm-25.3-14.6l20.4 11.8-16.2 13.7-20.4-11.8zm-25.4-14.6l20.4 11.8-16.2 13.7-20.4-11.8zm-25.4-14.6l20.5 11.8-16.2 13.7-20.5-11.8zm-25.3-14.6l20.4 11.8-16.2 13.7-20.4-11.8zm-25.4-14.6l20.4 11.8-16.1 13.7-20.5-11.8zm-20.5 17.5l20.4 11.8-16.2 13.7-20.4-11.8zm-20.6 17.5l20.5 11.8-16.2 13.7-20.4-11.8zm-20.6 17.5l20.5 11.8-16.2 13.7-20.5-11.8zm-20.5 17.4l20.4 11.8-16.2 13.8-20.4-11.8zm-20.5 17.4l20.4 11.8-16.2 13.8-20.4-11.8zm-20.6 17.4l20.5 11.8-16.2 13.8-20.5-11.8zm-20.5 17.4l20.4 11.8-57.2 48.6-20.5-11.8zm-61.6 52.3l20.4 11.8-16.2 13.8-20.4-11.8zm-20.5 17.4l20.4 11.8-16.2 13.8-20.4-11.8zm-20.6 17.4l20.5 11.8-16.2 13.8-20.5-11.8zm-20.5 17.4l20.4 11.8-16.1 13.7-20.5-11.8zm-20.5 17.5l20.4 11.8-16.2 13.7-20.4-11.8zm-20.6 17.5l20.5 11.8-16.2 13.7-20.4-11.8zm-16.3 43l-20.5-11.8 16.2-13.7 20.5 11.8zm25.3 14.6l-20.4-11.8 16.2-13.7 20.4 11.8zm25.4 14.6l-20.4-11.8 16.1-13.7 20.5 11.8zm25.4 14.6l-20.5-11.8 16.2-13.7 20.4 11.8zm25.4 14.6l-20.4-11.8 16.2-13.7 20.4 11.8zm25.4 14.6l-20.5-11.8 16.2-13.7 20.5 11.8zm25.3 14.6l-20.4-11.8 16.2-13.7 20.4 11.8zm25.4 14.6l-20.4-11.8 16.2-13.7 20.4 11.8zm76.1 43.9l-71.2-41.1 16.2-13.7 71.2 41.1zm25.4 14.6l-20.5-11.8 16.2-13.7 20.5 11.8zm25.3 14.6l-20.4-11.8 16.2-13.7 20.4 11.8zm25.4 14.6l-20.4-11.8 16.2-13.7 20.4 11.8zm25.4 14.6l-20.5-11.8 16.2-13.7 20.5 11.8zm25.3 14.6l-20.4-11.8 16.2-13.7 20.4 11.8zm25.4 14.6l-20.4-11.8 16.1-13.7 20.5 11.8zm25.3 14.6l-20.4-11.8 16.2-13.7 20.4 11.8zm25.4 14.6l-20.4-11.8 16.2-13.7 20.4 11.8zm20.5-17.5l-20.4-11.8 16.2-13.7 20.4 11.8zm20.6-17.4l-20.5-11.8 16.2-13.8 20.5 11.8zm20.5-17.4l-20.4-11.8 16.2-13.8 20.4 11.8zm20.5-17.4l-20.4-11.8 16.2-13.8 20.4 11.8zm20.6-17.4l-20.5-11.8 16.2-13.8 20.5 11.8zm20.5-17.4l-20.4-11.8 16.2-13.7 20.4 11.8zm20.5-17.5l-20.4-11.8 57.3-48.6 20.4 11.8zm61.6-52.3l-20.4-11.8 16.2-13.8 20.4 11.8zm20.5-17.4l-20.4-11.8 16.2-13.8 20.4 11.8zm20.6-17.4l-20.5-11.8 16.2-13.7 20.5 11.8zm20.5-17.5l-20.4-11.8 16.2-13.7 20.4 11.8zm20.5-17.5l-20.4-11.8 16.2-13.7 20.4 11.8zm20.6-17.5l-20.5-11.7 16.2-13.8 20.5 11.8zm20.5-17.4l-20.4-11.8 16.2-13.8 20.4 11.8z"/>
					<g id="&lt;Group&gt;">
						<path id="&lt;Path&gt;" class="s63" d="m997.4 677.3l-25.3-14.6 390.2-331.3 25.4 14.6z"/>
					</g>
					<path id="&lt;Path&gt;" class="s64" d="m923.7 341.8l537.7 310.4-20.6 17.5-537.6-310.4z"/>
				</g>
				<g id="&lt;Group&gt;">
					<g id="&lt;Group&gt;">
						<path id="&lt;Path&gt;" class="s57" d="m1839 1257.3l-558.2-322.3v-34.2c0-2.8 2.3-5 5.1-5h0.6c2.8 0 5.1 2.2 5.1 5v28l547.4 316.1v-29.6c0-2.8 2.3-5.1 5.1-5.1h0.6c2.8 0 5.1 2.3 5.1 5.1v27.3l395.2-335.5v-28.7c0-2.8 2.2-5.1 5-5.1h0.6c2.8 0 5.1 2.3 5.1 5.1v33.6l-405.9 344.7-4.8 4z"/>
					</g>
					<path id="&lt;Path&gt;" class="s65" d="m1844.4 1195.6l-583.6-336.9 431.3-366.2 583.6 336.9z"/>
					<path id="&lt;Path&gt;" class="s66" d="m2275.7 829.4v29.3l-431.3 366.2v-29.3z"/>
					<path id="&lt;Path&gt;" class="s67" d="m1844.4 1195.6v29.3l-583.6-336.9v-29.3z"/>
					<g id="&lt;Group&gt;">
						<path id="&lt;Path&gt;" class="s68" d="m1692.1 521.8l537.7 310.4-390.3 331.3-537.6-310.4z"/>
					</g>
					<path id="&lt;Compound Path&gt;" fill-rule="evenodd" class="s69" d="m2168 852l22.9 13.2-4.4 3.7-22.9-13.2-16.2 13.7 22.9 13.3-4.3 3.7-22.9-13.3-16.2 13.8 22.9 13.2-4.3 3.7-22.9-13.2-16.2 13.7 22.9 13.2-4.4 3.7-22.9-13.2-16.2 13.8 22.9 13.2-4.3 3.7-22.9-13.3-16.2 13.8 22.9 13.2-4.4 3.7-22.9-13.2-16.2 13.7 22.9 13.3-4.3 3.6-22.9-13.2-57.3 48.6 22.9 13.3-4.3 3.7-22.9-13.3-16.2 13.8 22.9 13.2-4.4 3.7-22.9-13.2-16.1 13.7 22.9 13.2-4.4 3.7-22.9-13.2-16.2 13.8 22.9 13.2-4.3 3.7-22.9-13.2-16.2 13.7 22.9 13.2-4.4 3.7-22.9-13.2-16.2 13.7 22.9 13.3-4.3 3.7-22.9-13.3-16.2 13.8 22.9 13.2-4.3 3.7-23-13.2-16.1 13.7 22.9 13.2-4.4 3.7-22.9-13.2-18.4 15.6-4.9-2.8 18.4-15.6-20.5-11.8-18.3 15.6-5-2.9 18.4-15.6-20.4-11.8-18.4 15.6-4.9-2.8 18.3-15.6-20.4-11.8-18.4 15.6-4.9-2.9 18.4-15.6-20.5-11.8-18.3 15.6-5-2.8 18.4-15.6-20.4-11.8-18.4 15.6-5-2.9 18.4-15.6-20.4-11.8-18.4 15.6-4.9-2.8 18.3-15.6-20.4-11.8-18.4 15.6-4.9-2.9 18.4-15.6-20.5-11.8-18.3 15.6-5-2.8 18.4-15.6-71.2-41.1-18.3 15.6-5-2.9 18.4-15.6-20.5-11.8-18.3 15.6-5-2.8 18.4-15.6-20.4-11.8-18.4 15.6-4.9-2.9 18.3-15.6-20.4-11.8-18.4 15.6-4.9-2.8 18.4-15.6-20.5-11.8-18.3 15.6-5-2.9 18.4-15.6-20.4-11.8-18.4 15.6-4.9-2.8 18.3-15.6-20.4-11.8-18.4 15.6-4.9-2.9 18.4-15.6-20.5-11.8-18.3 15.6-5-2.8 18.4-15.6-20.5-11.8-18.3 15.6-5-2.9 18.4-15.6-27.7-16 4.3-3.7 27.8 16 16.1-13.7-27.7-16 4.4-3.7 27.7 16 16.2-13.7-27.7-16.1 4.3-3.6 27.7 16 16.2-13.8-27.7-16 4.3-3.7 27.8 16 16.2-13.7-27.8-16 4.4-3.7 27.7 16 16.2-13.8-27.7-16 4.3-3.7 27.7 16.1 16.2-13.8-27.7-16 4.4-3.7 27.7 16 16.2-13.7-27.8-16 4.4-3.7 27.7 16 57.3-48.6-27.7-16.1 4.3-3.7 27.7 16.1 16.2-13.8-27.7-16 4.3-3.7 27.8 16 16.2-13.7-27.8-16 4.4-3.7 27.7 16 16.2-13.8-27.7-16 4.3-3.7 27.8 16 16.2-13.7-27.8-16 4.4-3.7 27.7 16 16.2-13.7-27.7-16.1 4.3-3.6 27.7 16 16.2-13.8-27.7-16 4.3-3.7 27.8 16 16.2-13.7-27.8-16 4.4-3.7 27.7 16 18.4-15.6 4.9 2.9-18.3 15.5 20.4 11.8 18.4-15.6 4.9 2.9-18.4 15.6 20.5 11.8 18.3-15.6 5 2.8-18.4 15.6 20.4 11.8 18.4-15.6 4.9 2.9-18.3 15.6 20.4 11.8 18.4-15.6 4.9 2.8-18.4 15.6 20.5 11.8 18.3-15.6 5 2.9-18.4 15.6 20.5 11.8 18.3-15.6 5 2.8-18.4 15.6 20.4 11.8 18.4-15.6 4.9 2.9-18.3 15.6 20.4 11.8 18.4-15.6 4.9 2.8-18.4 15.6 71.2 41.1 18.4-15.6 4.9 2.9-18.4 15.6 20.5 11.8 18.4-15.6 4.9 2.8-18.4 15.6 20.5 11.8 18.3-15.6 5 2.9-18.4 15.6 20.4 11.8 18.4-15.6 4.9 2.8-18.3 15.6 20.4 11.8 18.4-15.6 4.9 2.9-18.4 15.6 20.5 11.8 18.3-15.6 5 2.8-18.4 15.6 20.4 11.8 18.4-15.6 4.9 2.9-18.3 15.6 20.4 11.8 18.4-15.6 4.9 2.8-18.3 15.6 20.4 11.8 18.3-15.6 5 2.9-18.4 15.6 22.9 13.2-4.3 3.7-22.9-13.2zm-34.6-43.1l20.5 11.8-16.2 13.8-20.5-11.8zm-372.1-9.8l71.2 41.1-57.3 48.6-71.2-41.1zm-62.2 45.8l-20.4-11.8 57.3-48.6 20.4 11.8zm138.3-1.9l20.5 11.8-57.3 48.7-20.4-11.8zm4.3-3.7l16.2-13.8 20.4 11.8-16.2 13.8zm-4.9-2.9l-71.2-41.1 16.2-13.7 71.2 41.1zm-76.1-44l-20.5-11.8 16.2-13.7 20.5 11.8zm-25.4-14.7l-20.4-11.8 16.2-13.7 20.4 11.8zm-4.4 3.7l-57.2 48.6-20.5-11.8 57.3-48.6zm-61.6 52.3l-16.2 13.7-20.4-11.8 16.2-13.7zm4.9 2.8l20.4 11.8-16.2 13.8-20.4-11.8zm25.4 14.6l71.2 41.1-16.2 13.8-71.2-41.1zm76.1 43.9l20.4 11.8-16.1 13.8-20.5-11.8zm25.4 14.6l20.4 11.8-16.2 13.8-20.4-11.8zm4.3-3.7l57.3-48.6 20.4 11.8-57.2 48.6zm61.6-52.3l16.2-13.8 20.4 11.8-16.2 13.8zm20.6-17.5l16.2-13.7 20.4 11.8-16.2 13.7zm-4.9-2.8l-20.5-11.8 16.2-13.8 20.4 11.8zm-25.3-14.6l-71.2-41.1 16.2-13.8 71.2 41.1zm-76.2-43.9l-20.4-11.8 16.2-13.8 20.4 11.8zm-25.3-14.6l-20.5-11.8 16.2-13.8 20.5 11.8zm-25.4-14.6l-20.4-11.8 16.1-13.8 20.5 11.8zm-4.4 3.7l-16.2 13.8-20.4-11.8 16.2-13.8zm-20.5 17.5l-57.3 48.6-20.4-11.8 57.2-48.6zm-61.6 52.3l-16.2 13.7-20.4-11.8 16.2-13.7zm-20.6 17.4l-16.2 13.8-20.4-11.8 16.2-13.8zm4.9 2.9l20.5 11.8-16.2 13.7-20.4-11.8zm25.3 14.7l20.5 11.8-16.2 13.7-20.5-11.8zm25.4 14.7l71.2 41.1-16.2 13.7-71.2-41.1zm76.1 44l20.5 11.8-16.2 13.7-20.5-11.8zm25.4 14.7l20.4 11.8-16.2 13.7-20.4-11.8zm25.4 14.7l20.4 11.8-16.2 13.7-20.4-11.8zm4.3-3.7l16.2-13.7 20.5 11.8-16.2 13.7zm20.5-17.4l57.3-48.7 20.4 11.8-57.2 48.7zm61.6-52.3l16.2-13.8 20.4 11.8-16.2 13.8zm20.5-17.5l16.2-13.7 20.5 11.8-16.2 13.7zm20.5-17.4l16.2-13.8 20.5 11.8-16.2 13.8zm-5-2.9l-20.4-11.8 16.2-13.7 20.4 11.8zm-25.4-14.7l-20.4-11.8 16.2-13.7 20.4 11.8zm-25.3-14.7l-71.2-41.1 16.2-13.7 71.2 41.1zm-76.2-44l-20.4-11.8 16.2-13.7 20.4 11.8zm-25.3-14.7l-20.5-11.7 16.2-13.8 20.4 11.8zm-25.3-14.6l-20.5-11.8 16.2-13.8 20.5 11.8zm-25.4-14.6l-20.4-11.8 16.1-13.8 20.5 11.8zm-4.4 3.7l-16.2 13.8-20.4-11.8 16.2-13.8zm-20.5 17.4l-16.2 13.8-20.5-11.8 16.2-13.7zm-20.5 17.4l-57.3 48.6-20.4-11.8 57.3-48.6zm-61.7 52.3l-16.2 13.8-20.4-11.8 16.2-13.8zm-20.5 17.4l-16.2 13.8-20.5-11.8 16.2-13.7zm-20.5 17.4l-16.2 13.7-20.4-11.8 16.2-13.7zm4.9 2.8l20.4 11.8-16.2 13.8-20.4-11.8zm25.4 14.6l20.4 11.8-16.2 13.8-20.4-11.8zm25.4 14.6l20.4 11.8-16.2 13.8-20.4-11.8zm25.3 14.6l71.2 41.1-16.2 13.8-71.2-41.1zm76.2 43.9l20.4 11.8-16.2 13.8-20.4-11.8zm25.3 14.6l20.5 11.8-16.2 13.8-20.5-11.8zm25.4 14.6l20.5 11.8-16.2 13.8-20.5-11.8zm25.4 14.6l20.4 11.8-16.2 13.8-20.4-11.8zm4.4-3.7l16.1-13.8 20.5 11.8-16.2 13.8zm20.5-17.5l16.2-13.7 20.5 11.8-16.2 13.7zm20.5-17.4l57.3-48.6 20.4 11.8-57.3 48.6zm61.6-52.3l16.2-13.8 20.5 11.8-16.2 13.8zm20.5-17.5l16.2-13.7 20.4 11.8-16.1 13.7zm20.5-17.4l16.2-13.8 20.4 11.8-16.2 13.8zm20.6-17.5l16.2-13.7 20.4 11.8-16.2 13.7zm-4.9-2.8l-20.5-11.8 16.2-13.8 20.5 11.8zm-25.4-14.6l-20.4-11.8 16.1-13.8 20.5 11.8zm-25.4-14.6l-20.4-11.8 16.2-13.8 20.4 11.8zm-25.4-14.6l-71.2-41.1 16.2-13.7 71.2 41zm-76.1-43.9l-20.4-11.8 16.2-13.7 20.4 11.8zm-25.4-14.7l-20.4-11.8 16.2-13.7 20.4 11.8zm-25.4-14.7l-20.4-11.8 16.2-13.7 20.4 11.8zm-25.3-14.7l-20.5-11.8 16.2-13.7 20.5 11.8zm-25.4-14.7l-20.4-11.8 16.2-13.7 20.4 11.8zm-4.4 3.7l-16.1 13.7-20.5-11.8 16.2-13.7zm-20.5 17.4l-16.2 13.7-20.5-11.8 16.2-13.7zm-20.5 17.4l-16.2 13.8-20.4-11.8 16.2-13.8zm-20.6 17.5l-57.2 48.6-20.5-11.8 57.3-48.6zm-61.6 52.3l-16.2 13.7-20.4-11.8 16.1-13.7zm-20.5 17.4l-16.2 13.8-20.4-11.8 16.2-13.8zm-20.6 17.5l-16.2 13.7-20.4-11.8 16.2-13.7zm-20.5 17.4l-16.2 13.8-20.5-11.8 16.2-13.8zm5 2.9l20.4 11.8-16.2 13.7-20.4-11.8zm25.3 14.7l20.5 11.8-16.2 13.7-20.5-11.8zm25.4 14.7l20.5 11.8-16.2 13.7-20.5-11.8zm25.4 14.7l20.4 11.8-16.2 13.7-20.4-11.8zm25.4 14.7l71.2 41.1-16.2 13.7-71.2-41.1zm76.1 44l20.4 11.8-16.2 13.7-20.4-11.8zm25.4 14.7l20.4 11.7-16.2 13.8-20.4-11.8zm25.4 14.6l20.4 11.8-16.2 13.8-20.4-11.8zm25.3 14.6l20.5 11.8-16.2 13.8-20.5-11.8zm25.4 14.6l20.4 11.8-16.1 13.8-20.5-11.8zm4.4-3.7l16.2-13.7 20.4 11.8-16.2 13.7zm20.5-17.4l16.2-13.8 20.5 11.8-16.2 13.8zm20.5-17.5l16.2-13.7 20.4 11.8-16.2 13.7zm20.6-17.4l57.3-48.6 20.4 11.8-57.3 48.6zm61.6-52.3l16.2-13.8 20.5 11.8-16.2 13.8zm20.5-17.5l16.2-13.7 20.4 11.8-16.2 13.7zm20.6-17.4l16.2-13.8 20.4 11.8-16.2 13.8zm20.5-17.5l16.2-13.7 20.5 11.8-16.2 13.7zm20.5-17.4l16.2-13.8 20.4 11.8-16.1 13.8zm-5-2.9l-20.4-11.8 16.2-13.7 20.4 11.8zm-25.4-14.7l-20.4-11.8 16.2-13.7 20.4 11.8zm-25.3-14.7l-20.5-11.7 16.2-13.8 20.4 11.8zm-25.3-14.6l-20.5-11.8 16.2-13.8 20.5 11.8zm-25.4-14.6l-71.2-41.1 16.2-13.8 71.2 41.1zm-76.1-43.9l-20.5-11.8 16.2-13.8 20.5 11.8zm-25.4-14.6l-20.4-11.8 16.1-13.8 20.5 11.8zm-25.4-14.6l-20.4-11.8 16.2-13.8 20.4 11.8zm-25.4-14.6l-20.4-11.8 16.2-13.8 20.4 11.8zm-25.4-14.6l-20.4-11.8 16.2-13.8 20.4 11.8zm-25.3-14.6l-20.5-11.8 16.2-13.8 20.5 11.8zm-4.4 3.7l-16.2 13.8-20.4-11.8 16.2-13.8zm-20.6 17.5l-16.2 13.7-20.4-11.8 16.2-13.7zm-20.5 17.4l-16.2 13.8-20.5-11.8 16.2-13.8zm-20.5 17.5l-16.2 13.7-20.4-11.8 16.1-13.7zm-20.5 17.4l-57.3 48.6-20.4-11.8 57.3-48.6zm-61.6 52.3l-16.2 13.8-20.5-11.8 16.2-13.8zm-20.5 17.5l-16.2 13.7-20.4-11.8 16.1-13.7zm-20.5 17.4l-16.2 13.7-20.4-11.8 16.2-13.7zm-20.6 17.4l-16.2 13.8-20.4-11.8 16.2-13.8zm-20.5 17.5l-16.2 13.7-20.5-11.8 16.2-13.7zm5 2.8l20.4 11.8-16.2 13.8-20.4-11.8zm25.3 14.6l20.5 11.8-16.2 13.8-20.5-11.8zm25.4 14.6l20.5 11.8-16.2 13.8-20.5-11.8zm25.4 14.6l20.4 11.8-16.2 13.8-20.4-11.8zm25.4 14.6l20.4 11.8-16.2 13.7-20.4-11.7zm25.4 14.6l71.1 41.1-16.2 13.7-71.1-41.1zm76.1 44l20.4 11.8-16.2 13.7-20.4-11.8zm25.4 14.7l20.4 11.8-16.2 13.7-20.4-11.8zm25.3 14.7l20.5 11.8-16.2 13.7-20.4-11.8zm25.3 14.7l20.5 11.8-16.2 13.7-20.5-11.8zm25.4 14.7l20.4 11.8-16.1 13.7-20.5-11.8zm25.4 14.7l20.4 11.8-16.2 13.7-20.4-11.8zm4.4-3.7l16.1-13.7 20.5 11.8-16.2 13.7zm20.5-17.4l16.2-13.8 20.5 11.8-16.2 13.8zm20.5-17.5l16.2-13.7 20.4 11.8-16.2 13.7zm20.6-17.4l16.2-13.7 20.4 11.8-16.2 13.7zm20.5-17.4l57.3-48.7 20.4 11.8-57.2 48.7zm61.6-52.4l16.2-13.7 20.4 11.8-16.2 13.7zm20.6-17.4l16.2-13.7 20.4 11.8-16.2 13.7zm20.5-17.4l16.2-13.8 20.5 11.8-16.2 13.8zm20.5-17.5l16.2-13.7 20.4 11.8-16.1 13.7zm20.5-17.4l16.2-13.8 20.4 11.8-16.2 13.8zm20.6-17.5l16.2-13.7 20.4 11.8-16.2 13.7zm-4.9-2.8l-20.5-11.8 16.2-13.8 20.4 11.8zm-25.3-14.6l-20.5-11.8 16.2-13.8 20.5 11.8zm-25.4-14.6l-20.4-11.8 16.2-13.8 20.4 11.8zm-25.4-14.6l-20.4-11.8 16.2-13.7 20.4 11.7zm-25.4-14.6l-20.4-11.8 16.2-13.7 20.4 11.8zm-25.3-14.7l-71.2-41.1 16.2-13.7 71.1 41.1zm-76.1-44l-20.4-11.8 16.2-13.7 20.4 11.8zm-25.4-14.7l-20.4-11.8 16.2-13.7 20.4 11.8zm-25.3-14.7l-20.5-11.8 16.2-13.7 20.5 11.8zm-25.4-14.7l-20.4-11.8 16.1-13.7 20.5 11.8zm-25.4-14.7l-20.4-11.8 16.2-13.7 20.4 11.8zm-25.4-14.7l-20.4-11.8 16.2-13.7 20.4 11.8zm-25.4-14.7l-20.4-11.8 16.2-13.7 20.4 11.8zm-4.3 3.7l-16.2 13.7-20.4-11.8 16.2-13.7zm-20.6 17.4l-16.2 13.8-20.4-11.8 16.2-13.8zm-20.5 17.5l-16.2 13.7-20.5-11.8 16.2-13.7zm-20.5 17.4l-16.2 13.8-20.4-11.8 16.2-13.8zm-20.6 17.4l-16.2 13.8-20.4-11.8 16.2-13.7zm-20.6 17.4l-57.2 48.6-20.5-11.8 57.3-48.6zm-61.6 52.3l-16.2 13.8-20.4-11.8 16.2-13.8zm-20.6 17.5l-16.2 13.7-20.4-11.8 16.2-13.7zm-20.5 17.4l-16.2 13.7-20.5-11.8 16.2-13.7zm-20.5 17.4l-16.2 13.8-20.4-11.8 16.2-13.8zm-20.6 17.5l-16.2 13.7-20.4-11.8 16.2-13.7zm-20.6 17.4l-16.2 13.8-20.4-11.8 16.2-13.8zm4.9 2.9l20.5 11.8-16.2 13.7-20.4-11.8zm25.3 14.7l20.5 11.8-16.2 13.7-20.5-11.8zm25.4 14.7l20.4 11.8-16.2 13.7-20.4-11.8zm25.4 14.7l20.4 11.8-16.2 13.7-20.4-11.8zm25.4 14.7l20.4 11.8-16.2 13.7-20.4-11.8zm25.3 14.7l20.5 11.8-16.2 13.7-20.4-11.8zm25.3 14.6l71.2 41.1-16.2 13.8-71.2-41.1zm76.1 43.9l20.5 11.8-16.2 13.8-20.4-11.8zm25.3 14.6l20.5 11.8-16.2 13.8-20.5-11.8zm25.4 14.6l20.4 11.8-16.1 13.8-20.5-11.8zm25.4 14.6l20.4 11.8-16.2 13.8-20.4-11.8zm25.4 14.6l20.4 11.8-16.2 13.8-20.4-11.8zm25.3 14.6l20.5 11.8-16.2 13.8-20.4-11.8zm25.3 14.6l20.5 11.8-16.2 13.8-20.5-11.8zm4.4-3.7l16.2-13.8 20.4 11.8-16.2 13.8zm20.5-17.5l16.2-13.7 20.5 11.8-16.2 13.7zm20.5-17.4l16.2-13.8 20.4 11.8-16.1 13.8zm20.5-17.4l16.2-13.8 20.4 11.8-16.2 13.8zm20.6-17.5l16.2-13.7 20.4 11.8-16.2 13.7zm20.5-17.4l57.3-48.7 20.4 11.8-57.2 48.7zm61.6-52.3l16.2-13.8 20.4 11.8-16.2 13.7zm20.5-17.4l16.2-13.7 20.5 11.8-16.2 13.7zm20.5-17.4l16.2-13.8 20.4 11.8-16.1 13.8zm20.5-17.5l16.2-13.7 20.4 11.8-16.2 13.7zm20.6-17.4l16.2-13.8 20.4 11.8-16.2 13.8zm20.5-17.5l16.2-13.7 20.5 11.8-16.2 13.7zm11.3-45.8l20.5 11.8-16.2 13.7-20.5-11.8zm-25.3-14.6l20.4 11.8-16.2 13.7-20.4-11.7zm-25.4-14.7l20.4 11.8-16.2 13.7-20.4-11.7zm-25.4-14.7l20.5 11.8-16.2 13.7-20.5-11.7zm-25.3-14.7l20.4 11.8-16.2 13.7-20.4-11.7zm-25.4-14.7l20.4 11.8-16.2 13.8-20.4-11.8zm-76.1-44l71.2 41.1-16.2 13.8-71.2-41.1zm-25.4-14.7l20.4 11.8-16.1 13.8-20.5-11.8zm-25.3-14.7l20.4 11.8-16.2 13.8-20.4-11.8zm-25.4-14.7l20.4 11.8-16.2 13.8-20.4-11.8zm-25.4-14.7l20.5 11.8-16.2 13.8-20.5-11.8zm-25.3-14.7l20.4 11.8-16.2 13.8-20.4-11.8zm-25.4-14.7l20.4 11.8-16.2 13.8-20.4-11.8zm-25.4-14.7l20.5 11.8-16.2 13.8-20.5-11.8zm-25.3-14.7l20.4 11.8-16.2 13.8-20.4-11.8zm-20.6 17.4l20.5 11.8-16.2 13.7-20.5-11.8zm-20.5 17.5l20.4 11.8-16.2 13.7-20.4-11.8zm-20.5 17.5l20.4 11.8-16.2 13.7-20.4-11.8zm-20.6 17.5l20.5 11.8-16.2 13.7-20.5-11.8zm-20.5 17.4l20.4 11.8-16.2 13.8-20.4-11.8zm-20.5 17.4l20.4 11.8-16.2 13.8-20.4-11.8zm-20.6 17.4l20.5 11.8-57.3 48.6-20.4-11.8zm-61.6 52.4l20.4 11.8-16.2 13.7-20.4-11.8zm-20.6 17.4l20.5 11.8-16.2 13.8-20.5-11.8zm-20.5 17.4l20.4 11.8-16.2 13.8-20.4-11.8zm-20.5 17.4l20.4 11.8-16.2 13.8-20.4-11.8zm-20.6 17.4l20.5 11.8-16.2 13.7-20.5-11.8zm-20.5 17.5l20.4 11.8-16.2 13.7-20.4-11.8zm-16.3 43l-20.4-11.8 16.2-13.7 20.4 11.8zm25.4 14.6l-20.5-11.8 16.2-13.7 20.5 11.8zm25.3 14.6l-20.4-11.8 16.2-13.7 20.4 11.8zm25.4 14.6l-20.4-11.8 16.2-13.7 20.4 11.8zm25.4 14.6l-20.5-11.8 16.2-13.7 20.5 11.8zm25.3 14.6l-20.4-11.8 16.2-13.7 20.4 11.8zm25.4 14.6l-20.4-11.8 16.2-13.7 20.4 11.8zm25.4 14.6l-20.5-11.8 16.2-13.7 20.4 11.8zm76.2 43.9l-71.2-41.1 16.2-13.7 71.2 41.1zm25.3 14.6l-20.4-11.8 16.2-13.7 20.4 11.8zm25.4 14.6l-20.4-11.8 16.2-13.7 20.4 11.8zm25.4 14.6l-20.5-11.8 16.2-13.7 20.4 11.8zm25.4 14.6l-20.4-11.8 16.2-13.7 20.4 11.8zm25.4 14.6l-20.5-11.8 16.2-13.7 20.5 11.8zm25.3 14.6l-20.4-11.8 16.2-13.7 20.4 11.8zm25.4 14.6l-20.4-11.8 16.2-13.7 20.4 11.8zm25.4 14.6l-20.5-11.8 16.2-13.7 20.5 11.8zm20.5-17.4l-20.4-11.8 16.2-13.8 20.4 11.8zm20.5-17.4l-20.4-11.8 16.2-13.8 20.4 11.8zm20.6-17.4l-20.5-11.8 16.2-13.8 20.4 11.8zm20.6-17.4l-20.4-11.8 16.1-13.8 20.5 11.8zm20.5-17.4l-20.4-11.8 16.2-13.7 20.4 11.8zm20.5-17.5l-20.4-11.8 16.2-13.7 20.4 11.8zm20.6-17.5l-20.5-11.8 57.3-48.6 20.4 11.8zm61.7-52.3l-20.5-11.8 16.2-13.8 20.5 11.8zm20.5-17.4l-20.4-11.8 16.2-13.7 20.4 11.8zm20.5-17.5l-20.4-11.8 16.2-13.7 20.4 11.8zm20.6-17.5l-20.5-11.8 16.2-13.7 20.5 11.8zm20.5-17.5l-20.4-11.8 16.2-13.7 20.4 11.8zm20.5-17.4l-20.4-11.8 16.2-13.8 20.4 11.8zm20.6-17.4l-20.5-11.8 16.2-13.8 20.4 11.8z"/>
					<g id="&lt;Group&gt;">
						<path id="&lt;Path&gt;" class="s70" d="m1581 1014.3l-25.4-14.7 390.3-331.3 25.3 14.6z"/>
					</g>
					<path id="&lt;Path&gt;" class="s71" d="m1507.3 678.7l537.6 310.4-20.5 17.5-537.6-310.4z"/>
				</g>
			</g>
		</g>
	</g>
</svg>