<svg xmlns="http://www.w3.org/2000/svg" xmlns:xlink="http://www.w3.org/1999/xlink" width="1000" zoomAndPan="magnify" viewBox="0 0 750 749.999995" height="1000" preserveAspectRatio="xMidYMid meet" version="1.0"><path fill="#f8bb59" d="M 636.640625 197.117188 C 636.640625 198.316406 636.613281 199.515625 636.554688 200.714844 C 636.496094 201.910156 636.40625 203.105469 636.289062 204.296875 C 636.171875 205.492188 636.023438 206.679688 635.847656 207.867188 C 635.671875 209.054688 635.46875 210.234375 635.234375 211.410156 C 635 212.585938 634.738281 213.753906 634.445312 214.917969 C 634.15625 216.082031 633.835938 217.234375 633.488281 218.382812 C 633.140625 219.53125 632.765625 220.667969 632.359375 221.796875 C 631.957031 222.925781 631.523438 224.042969 631.066406 225.152344 C 630.605469 226.257812 630.121094 227.355469 629.609375 228.4375 C 629.097656 229.523438 628.558594 230.59375 627.992188 231.648438 C 627.425781 232.707031 626.835938 233.75 626.21875 234.777344 C 625.605469 235.808594 624.960938 236.820312 624.296875 237.816406 C 623.628906 238.8125 622.941406 239.792969 622.226562 240.757812 C 621.511719 241.71875 620.773438 242.664062 620.015625 243.589844 C 619.253906 244.515625 618.472656 245.425781 617.664062 246.3125 C 616.859375 247.203125 616.035156 248.070312 615.1875 248.917969 C 614.339844 249.765625 613.46875 250.589844 612.582031 251.394531 C 611.695312 252.203125 610.785156 252.984375 609.859375 253.746094 C 608.933594 254.503906 607.988281 255.242188 607.023438 255.957031 C 606.0625 256.671875 605.082031 257.359375 604.085938 258.027344 C 603.089844 258.691406 602.078125 259.335938 601.046875 259.949219 C 600.019531 260.566406 598.976562 261.15625 597.917969 261.722656 C 596.863281 262.289062 595.792969 262.828125 594.707031 263.339844 C 593.625 263.851562 592.527344 264.335938 591.421875 264.796875 C 590.3125 265.253906 589.195312 265.6875 588.066406 266.089844 C 586.9375 266.496094 585.800781 266.871094 584.652344 267.21875 C 583.503906 267.566406 582.351562 267.886719 581.1875 268.175781 C 580.023438 268.46875 578.855469 268.730469 577.679688 268.964844 C 576.503906 269.199219 575.324219 269.402344 574.136719 269.578125 C 572.949219 269.753906 571.761719 269.902344 570.566406 270.019531 C 569.375 270.136719 568.179688 270.226562 566.984375 270.285156 C 565.785156 270.34375 564.585938 270.371094 563.386719 270.371094 C 562.1875 270.371094 560.992188 270.34375 559.792969 270.285156 C 558.597656 270.226562 557.402344 270.136719 556.207031 270.019531 C 555.015625 269.902344 553.824219 269.753906 552.640625 269.578125 C 551.453125 269.402344 550.273438 269.199219 549.097656 268.964844 C 547.921875 268.730469 546.75 268.46875 545.589844 268.175781 C 544.425781 267.886719 543.269531 267.566406 542.125 267.21875 C 540.976562 266.871094 539.839844 266.496094 538.710938 266.089844 C 537.582031 265.6875 536.460938 265.253906 535.355469 264.796875 C 534.246094 264.335938 533.152344 263.851562 532.066406 263.339844 C 530.984375 262.828125 529.914062 262.289062 528.855469 261.722656 C 527.800781 261.15625 526.757812 260.566406 525.726562 259.949219 C 524.699219 259.335938 523.6875 258.691406 522.691406 258.027344 C 521.695312 257.359375 520.714844 256.671875 519.75 255.957031 C 518.789062 255.242188 517.84375 254.503906 516.917969 253.746094 C 515.988281 252.984375 515.082031 252.203125 514.195312 251.394531 C 513.304688 250.589844 512.4375 249.765625 511.589844 248.917969 C 510.742188 248.070312 509.914062 247.203125 509.109375 246.3125 C 508.304688 245.425781 507.523438 244.515625 506.761719 243.589844 C 506 242.664062 505.265625 241.71875 504.550781 240.757812 C 503.835938 239.792969 503.144531 238.8125 502.480469 237.816406 C 501.8125 236.820312 501.171875 235.808594 500.554688 234.777344 C 499.941406 233.75 499.347656 232.707031 498.785156 231.648438 C 498.21875 230.59375 497.679688 229.523438 497.167969 228.4375 C 496.65625 227.355469 496.167969 226.257812 495.710938 225.152344 C 495.25 224.042969 494.820312 222.925781 494.417969 221.796875 C 494.011719 220.667969 493.636719 219.53125 493.289062 218.382812 C 492.941406 217.234375 492.621094 216.082031 492.328125 214.917969 C 492.039062 213.753906 491.777344 212.585938 491.542969 211.410156 C 491.308594 210.234375 491.101562 209.054688 490.925781 207.867188 C 490.75 206.679688 490.605469 205.492188 490.488281 204.296875 C 490.371094 203.105469 490.28125 201.910156 490.222656 200.714844 C 490.164062 199.515625 490.132812 198.316406 490.132812 197.117188 C 490.132812 195.917969 490.164062 194.722656 490.222656 193.523438 C 490.28125 192.328125 490.371094 191.132812 490.488281 189.9375 C 490.605469 188.746094 490.75 187.554688 490.925781 186.371094 C 491.101562 185.183594 491.308594 184.003906 491.542969 182.828125 C 491.777344 181.652344 492.039062 180.480469 492.328125 179.320312 C 492.621094 178.15625 492.941406 177 493.289062 175.855469 C 493.636719 174.707031 494.011719 173.570312 494.417969 172.441406 C 494.820312 171.3125 495.25 170.191406 495.710938 169.085938 C 496.167969 167.976562 496.65625 166.882812 497.167969 165.796875 C 497.679688 164.714844 498.21875 163.644531 498.785156 162.585938 C 499.347656 161.53125 499.941406 160.488281 500.554688 159.457031 C 501.171875 158.429688 501.8125 157.417969 502.480469 156.421875 C 503.144531 155.425781 503.835938 154.445312 504.550781 153.480469 C 505.265625 152.519531 506 151.574219 506.761719 150.648438 C 507.523438 149.71875 508.304688 148.8125 509.109375 147.925781 C 509.914062 147.035156 510.742188 146.167969 511.589844 145.320312 C 512.4375 144.472656 513.304688 143.644531 514.195312 142.839844 C 515.082031 142.035156 515.988281 141.253906 516.917969 140.492188 C 517.84375 139.730469 518.789062 138.996094 519.75 138.28125 C 520.714844 137.566406 521.695312 136.875 522.691406 136.210938 C 523.6875 135.542969 524.699219 134.902344 525.726562 134.285156 C 526.757812 133.671875 527.800781 133.078125 528.855469 132.515625 C 529.914062 131.949219 530.984375 131.410156 532.066406 130.898438 C 533.152344 130.386719 534.246094 129.898438 535.355469 129.441406 C 536.460938 128.980469 537.582031 128.550781 538.710938 128.148438 C 539.839844 127.742188 540.976562 127.367188 542.125 127.019531 C 543.269531 126.671875 544.425781 126.351562 545.589844 126.058594 C 546.75 125.769531 547.921875 125.507812 549.097656 125.273438 C 550.273438 125.039062 551.453125 124.832031 552.640625 124.65625 C 553.824219 124.480469 555.015625 124.335938 556.207031 124.21875 C 557.402344 124.101562 558.597656 124.011719 559.792969 123.953125 C 560.992188 123.894531 562.1875 123.863281 563.386719 123.863281 C 564.585938 123.863281 565.785156 123.894531 566.984375 123.953125 C 568.179688 124.011719 569.375 124.101562 570.566406 124.21875 C 571.761719 124.335938 572.949219 124.480469 574.136719 124.65625 C 575.324219 124.832031 576.503906 125.039062 577.679688 125.273438 C 578.855469 125.507812 580.023438 125.769531 581.1875 126.058594 C 582.351562 126.351562 583.503906 126.671875 584.652344 127.019531 C 585.800781 127.367188 586.9375 127.742188 588.066406 128.148438 C 589.195312 128.550781 590.3125 128.980469 591.421875 129.441406 C 592.527344 129.898438 593.625 130.386719 594.707031 130.898438 C 595.792969 131.410156 596.863281 131.949219 597.917969 132.515625 C 598.976562 133.078125 600.019531 133.671875 601.046875 134.285156 C 602.078125 134.902344 603.089844 135.542969 604.085938 136.210938 C 605.082031 136.875 606.0625 137.566406 607.023438 138.28125 C 607.988281 138.996094 608.933594 139.730469 609.859375 140.492188 C 610.785156 141.253906 611.695312 142.035156 612.582031 142.839844 C 613.46875 143.644531 614.339844 144.472656 615.1875 145.320312 C 616.035156 146.167969 616.859375 147.035156 617.664062 147.925781 C 618.472656 148.8125 619.253906 149.71875 620.015625 150.648438 C 620.773438 151.574219 621.511719 152.519531 622.226562 153.480469 C 622.941406 154.445312 623.628906 155.425781 624.296875 156.421875 C 624.960938 157.417969 625.605469 158.429688 626.21875 159.457031 C 626.835938 160.488281 627.425781 161.53125 627.992188 162.585938 C 628.558594 163.644531 629.097656 164.714844 629.609375 165.796875 C 630.121094 166.882812 630.605469 167.976562 631.066406 169.085938 C 631.523438 170.191406 631.957031 171.3125 632.359375 172.441406 C 632.765625 173.570312 633.140625 174.707031 633.488281 175.855469 C 633.835938 177 634.15625 178.15625 634.445312 179.320312 C 634.738281 180.480469 635 181.652344 635.234375 182.828125 C 635.46875 184.003906 635.671875 185.183594 635.847656 186.371094 C 636.023438 187.554688 636.171875 188.746094 636.289062 189.9375 C 636.40625 191.132812 636.496094 192.328125 636.554688 193.523438 C 636.613281 194.722656 636.640625 195.917969 636.640625 197.117188 Z M 636.640625 197.117188 " fill-opacity="1" fill-rule="nonzero"/><path fill="#eaeae8" d="M 113.398438 469.203125 L 448.273438 469.203125 L 448.273438 678.5 L 113.398438 678.5 Z M 113.398438 469.203125 " fill-opacity="1" fill-rule="nonzero"/><path fill="#dbdbdb" d="M 542.457031 343.625 L 448.273438 469.203125 L 448.273438 678.5 L 636.640625 678.5 L 636.640625 469.203125 Z M 542.457031 343.625 " fill-opacity="1" fill-rule="nonzero"/><path fill="#4298d1" d="M 500.597656 531.992188 L 584.316406 531.992188 L 584.316406 636.640625 L 500.597656 636.640625 Z M 500.597656 531.992188 " fill-opacity="1" fill-rule="nonzero"/><path fill="#48a4e1" d="M 500.597656 542.457031 L 573.851562 542.457031 L 573.851562 636.640625 L 500.597656 636.640625 Z M 500.597656 542.457031 " fill-opacity="1" fill-rule="nonzero"/><path fill="#8dc5bc" d="M 312.230469 531.992188 L 385.484375 531.992188 L 385.484375 615.710938 L 312.230469 615.710938 Z M 312.230469 531.992188 " fill-opacity="1" fill-rule="nonzero"/><path fill="#8dc5bc" d="M 176.1875 531.992188 L 249.441406 531.992188 L 249.441406 615.710938 L 176.1875 615.710938 Z M 176.1875 531.992188 " fill-opacity="1" fill-rule="nonzero"/><path fill="#4298d1" d="M 176.1875 573.851562 L 249.441406 573.851562 L 249.441406 615.710938 L 176.1875 615.710938 Z M 176.1875 573.851562 " fill-opacity="1" fill-rule="nonzero"/><path fill="#48a4e1" d="M 176.1875 573.851562 L 238.976562 573.851562 L 238.976562 605.246094 L 176.1875 605.246094 Z M 176.1875 573.851562 " fill-opacity="1" fill-rule="nonzero"/><path fill="#4298d1" d="M 312.230469 573.851562 L 385.484375 573.851562 L 385.484375 615.710938 L 312.230469 615.710938 Z M 312.230469 573.851562 " fill-opacity="1" fill-rule="nonzero"/><path fill="#cbcbcb" d="M 490.132812 636.640625 L 594.78125 636.640625 L 594.78125 678.5 L 490.132812 678.5 Z M 490.132812 636.640625 " fill-opacity="1" fill-rule="nonzero"/><path fill="#c3c3c3" d="M 490.132812 657.570312 L 594.78125 657.570312 L 594.78125 678.5 L 490.132812 678.5 Z M 490.132812 657.570312 " fill-opacity="1" fill-rule="nonzero"/><path fill="#83bd93" d="M 61.074219 668.035156 L 688.964844 668.035156 L 688.964844 688.964844 L 61.074219 688.964844 Z M 61.074219 668.035156 " fill-opacity="1" fill-rule="nonzero"/><path fill="#69b9e7" d="M 448.273438 469.203125 L 113.398438 469.203125 L 207.582031 343.625 L 542.457031 343.625 Z M 448.273438 469.203125 " fill-opacity="1" fill-rule="nonzero"/><path fill="#4298d1" d="M 113.398438 469.203125 L 448.273438 469.203125 L 542.457031 343.625 L 207.582031 343.625 Z M 181.421875 395.949219 L 238.976562 395.949219 L 223.28125 416.878906 L 165.722656 416.878906 Z M 191.886719 458.738281 L 134.328125 458.738281 L 150.027344 437.808594 L 207.582031 437.808594 Z M 275.605469 458.738281 L 218.046875 458.738281 L 233.746094 437.808594 L 291.300781 437.808594 Z M 249.441406 416.878906 L 265.140625 395.949219 L 322.695312 395.949219 L 307 416.878906 Z M 359.324219 458.738281 L 301.765625 458.738281 L 317.464844 437.808594 L 375.019531 437.808594 Z M 333.160156 416.878906 L 348.859375 395.949219 L 406.414062 395.949219 L 390.71875 416.878906 Z M 443.042969 458.738281 L 385.484375 458.738281 L 401.183594 437.808594 L 458.738281 437.808594 Z M 474.4375 416.878906 L 416.878906 416.878906 L 432.578125 395.949219 L 490.132812 395.949219 Z M 463.972656 354.089844 L 521.527344 354.089844 L 505.832031 375.019531 L 448.273438 375.019531 Z M 380.253906 354.089844 L 437.808594 354.089844 L 422.113281 375.019531 L 364.554688 375.019531 Z M 296.535156 354.089844 L 354.089844 354.089844 L 338.394531 375.019531 L 280.835938 375.019531 Z M 270.371094 354.089844 L 254.675781 375.019531 L 197.117188 375.019531 L 212.816406 354.089844 Z M 270.371094 354.089844 " fill-opacity="1" fill-rule="nonzero"/><path fill="#ec9e15" d="M 579.636719 193.542969 L 556.5 181.972656 C 555.960938 181.703125 555.472656 181.367188 555.027344 180.964844 C 554.585938 180.558594 554.207031 180.101562 553.890625 179.589844 C 553.574219 179.078125 553.332031 178.535156 553.167969 177.957031 C 553.003906 177.378906 552.921875 176.789062 552.921875 176.1875 C 552.921875 175.589844 553.003906 175 553.167969 174.421875 C 553.332031 173.84375 553.574219 173.300781 553.890625 172.789062 C 554.207031 172.277344 554.585938 171.820312 555.027344 171.414062 C 555.472656 171.007812 555.960938 170.671875 556.5 170.40625 C 557.570312 169.871094 558.6875 169.46875 559.851562 169.199219 C 561.015625 168.925781 562.191406 168.789062 563.386719 168.789062 C 564.582031 168.789062 565.761719 168.925781 566.925781 169.199219 C 568.089844 169.46875 569.207031 169.871094 570.277344 170.40625 L 579.636719 175.085938 C 580.253906 175.390625 580.890625 175.636719 581.554688 175.816406 C 582.214844 176 582.890625 176.113281 583.574219 176.160156 C 584.261719 176.210938 584.945312 176.191406 585.625 176.105469 C 586.308594 176.019531 586.972656 175.867188 587.625 175.648438 C 588.277344 175.433594 588.902344 175.152344 589.496094 174.8125 C 590.09375 174.472656 590.652344 174.078125 591.171875 173.628906 C 591.691406 173.175781 592.160156 172.679688 592.582031 172.136719 C 593.003906 171.59375 593.367188 171.015625 593.675781 170.402344 C 593.980469 169.789062 594.226562 169.148438 594.40625 168.488281 C 594.589844 167.824219 594.703125 167.148438 594.753906 166.464844 C 594.800781 165.78125 594.78125 165.097656 594.695312 164.414062 C 594.609375 163.734375 594.460938 163.066406 594.242188 162.414062 C 594.027344 161.761719 593.746094 161.136719 593.40625 160.542969 C 593.066406 159.945312 592.671875 159.386719 592.222656 158.867188 C 591.773438 158.347656 591.277344 157.878906 590.734375 157.457031 C 590.191406 157.035156 589.613281 156.671875 589 156.363281 L 579.636719 151.683594 C 577.769531 150.820312 575.839844 150.125 573.851562 149.597656 L 573.851562 134.328125 L 552.921875 134.328125 L 552.921875 149.597656 C 550.933594 150.125 549.007812 150.820312 547.140625 151.683594 C 546.007812 152.25 544.917969 152.890625 543.875 153.609375 C 542.832031 154.324219 541.84375 155.109375 540.910156 155.964844 C 539.972656 156.816406 539.101562 157.730469 538.296875 158.707031 C 537.488281 159.683594 536.75 160.707031 536.085938 161.785156 C 535.417969 162.863281 534.832031 163.980469 534.320312 165.136719 C 533.808594 166.296875 533.382812 167.484375 533.035156 168.703125 C 532.691406 169.917969 532.429688 171.15625 532.253906 172.410156 C 532.082031 173.664062 531.992188 174.921875 531.992188 176.1875 C 531.992188 177.453125 532.082031 178.714844 532.253906 179.96875 C 532.429688 181.222656 532.691406 182.457031 533.035156 183.675781 C 533.382812 184.894531 533.808594 186.082031 534.320312 187.242188 C 534.832031 188.398438 535.417969 189.515625 536.085938 190.59375 C 536.75 191.671875 537.488281 192.695312 538.296875 193.671875 C 539.101562 194.644531 539.972656 195.558594 540.910156 196.414062 C 541.84375 197.269531 542.832031 198.054688 543.875 198.769531 C 544.917969 199.488281 546.007812 200.128906 547.140625 200.695312 L 570.277344 212.265625 C 570.8125 212.53125 571.304688 212.867188 571.746094 213.273438 C 572.191406 213.679688 572.570312 214.136719 572.886719 214.648438 C 573.203125 215.160156 573.441406 215.703125 573.605469 216.28125 C 573.769531 216.859375 573.851562 217.449219 573.851562 218.046875 C 573.851562 218.648438 573.769531 219.238281 573.605469 219.816406 C 573.441406 220.394531 573.203125 220.9375 572.886719 221.449219 C 572.570312 221.960938 572.191406 222.417969 571.746094 222.824219 C 571.304688 223.226562 570.8125 223.5625 570.277344 223.832031 C 569.207031 224.363281 568.089844 224.765625 566.925781 225.039062 C 565.761719 225.3125 564.582031 225.449219 563.386719 225.449219 C 562.191406 225.449219 561.015625 225.3125 559.851562 225.039062 C 558.6875 224.765625 557.570312 224.363281 556.5 223.832031 L 547.140625 219.152344 C 546.523438 218.847656 545.886719 218.601562 545.222656 218.421875 C 544.5625 218.242188 543.886719 218.125 543.203125 218.078125 C 542.515625 218.03125 541.832031 218.050781 541.152344 218.136719 C 540.472656 218.222656 539.804688 218.375 539.152344 218.589844 C 538.503906 218.808594 537.878906 219.085938 537.28125 219.429688 C 536.683594 219.769531 536.128906 220.164062 535.609375 220.613281 C 535.089844 221.0625 534.621094 221.558594 534.199219 222.101562 C 533.777344 222.644531 533.414062 223.222656 533.105469 223.835938 C 532.800781 224.453125 532.554688 225.089844 532.375 225.753906 C 532.191406 226.414062 532.078125 227.089844 532.027344 227.773438 C 531.980469 228.457031 532 229.140625 532.085938 229.824219 C 532.167969 230.503906 532.320312 231.171875 532.539062 231.824219 C 532.753906 232.472656 533.03125 233.097656 533.371094 233.695312 C 533.710938 234.292969 534.105469 234.851562 534.554688 235.367188 C 535.007812 235.886719 535.5 236.359375 536.042969 236.78125 C 536.585938 237.203125 537.164062 237.566406 537.777344 237.875 L 547.140625 242.554688 C 549.007812 243.417969 550.933594 244.109375 552.921875 244.636719 L 552.921875 259.90625 L 573.851562 259.90625 L 573.851562 244.636719 C 575.839844 244.109375 577.769531 243.417969 579.636719 242.554688 C 580.769531 241.988281 581.859375 241.347656 582.902344 240.628906 C 583.945312 239.914062 584.933594 239.128906 585.867188 238.273438 C 586.800781 237.417969 587.671875 236.503906 588.480469 235.53125 C 589.289062 234.554688 590.027344 233.53125 590.691406 232.453125 C 591.355469 231.375 591.945312 230.257812 592.457031 229.101562 C 592.964844 227.941406 593.394531 226.753906 593.742188 225.535156 C 594.085938 224.316406 594.347656 223.082031 594.519531 221.828125 C 594.695312 220.574219 594.785156 219.3125 594.785156 218.046875 C 594.785156 216.78125 594.695312 215.523438 594.519531 214.269531 C 594.347656 213.015625 594.085938 211.777344 593.742188 210.5625 C 593.394531 209.34375 592.964844 208.15625 592.457031 206.996094 C 591.945312 205.839844 591.355469 204.722656 590.691406 203.644531 C 590.027344 202.566406 589.289062 201.542969 588.480469 200.566406 C 587.671875 199.589844 586.800781 198.675781 585.867188 197.824219 C 584.933594 196.96875 583.945312 196.183594 582.902344 195.46875 C 581.859375 194.75 580.769531 194.109375 579.636719 193.542969 Z M 579.636719 193.542969 " fill-opacity="1" fill-rule="nonzero"/><path fill="#f8bb59" d="M 301.765625 197.117188 C 301.765625 198.316406 301.738281 199.515625 301.679688 200.714844 C 301.621094 201.910156 301.53125 203.105469 301.414062 204.296875 C 301.296875 205.492188 301.148438 206.679688 300.972656 207.867188 C 300.796875 209.054688 300.59375 210.234375 300.359375 211.410156 C 300.125 212.585938 299.863281 213.753906 299.570312 214.917969 C 299.28125 216.082031 298.960938 217.234375 298.613281 218.382812 C 298.265625 219.53125 297.890625 220.667969 297.484375 221.796875 C 297.082031 222.925781 296.648438 224.042969 296.191406 225.152344 C 295.730469 226.257812 295.246094 227.355469 294.734375 228.4375 C 294.222656 229.523438 293.683594 230.59375 293.117188 231.648438 C 292.550781 232.707031 291.960938 233.75 291.34375 234.777344 C 290.730469 235.808594 290.085938 236.820312 289.421875 237.816406 C 288.753906 238.8125 288.066406 239.792969 287.351562 240.757812 C 286.636719 241.71875 285.898438 242.664062 285.140625 243.589844 C 284.378906 244.515625 283.597656 245.425781 282.789062 246.3125 C 281.984375 247.203125 281.160156 248.070312 280.3125 248.917969 C 279.464844 249.765625 278.597656 250.589844 277.707031 251.394531 C 276.820312 252.203125 275.910156 252.984375 274.984375 253.746094 C 274.058594 254.503906 273.113281 255.242188 272.152344 255.957031 C 271.1875 256.671875 270.207031 257.359375 269.210938 258.027344 C 268.214844 258.691406 267.203125 259.335938 266.171875 259.949219 C 265.144531 260.566406 264.101562 261.15625 263.042969 261.722656 C 261.988281 262.289062 260.917969 262.828125 259.832031 263.339844 C 258.75 263.851562 257.652344 264.335938 256.546875 264.796875 C 255.4375 265.253906 254.320312 265.6875 253.191406 266.089844 C 252.0625 266.496094 250.925781 266.871094 249.777344 267.21875 C 248.628906 267.566406 247.476562 267.886719 246.3125 268.175781 C 245.148438 268.46875 243.980469 268.730469 242.804688 268.964844 C 241.628906 269.199219 240.449219 269.402344 239.261719 269.578125 C 238.074219 269.753906 236.886719 269.902344 235.691406 270.019531 C 234.5 270.136719 233.304688 270.226562 232.109375 270.285156 C 230.910156 270.34375 229.710938 270.371094 228.511719 270.371094 C 227.3125 270.371094 226.117188 270.34375 224.917969 270.285156 C 223.722656 270.226562 222.527344 270.136719 221.332031 270.019531 C 220.140625 269.902344 218.949219 269.753906 217.765625 269.578125 C 216.578125 269.402344 215.398438 269.199219 214.222656 268.964844 C 213.046875 268.730469 211.875 268.46875 210.714844 268.175781 C 209.550781 267.886719 208.394531 267.566406 207.25 267.21875 C 206.101562 266.871094 204.964844 266.496094 203.835938 266.089844 C 202.707031 265.6875 201.585938 265.253906 200.480469 264.796875 C 199.371094 264.335938 198.277344 263.851562 197.191406 263.339844 C 196.109375 262.828125 195.039062 262.289062 193.980469 261.722656 C 192.925781 261.15625 191.882812 260.566406 190.851562 259.949219 C 189.824219 259.335938 188.8125 258.691406 187.816406 258.027344 C 186.820312 257.359375 185.839844 256.671875 184.875 255.957031 C 183.914062 255.242188 182.96875 254.503906 182.042969 253.746094 C 181.113281 252.984375 180.207031 252.203125 179.320312 251.394531 C 178.429688 250.589844 177.5625 249.765625 176.714844 248.917969 C 175.867188 248.070312 175.039062 247.203125 174.234375 246.3125 C 173.429688 245.425781 172.648438 244.515625 171.886719 243.589844 C 171.125 242.664062 170.390625 241.71875 169.675781 240.757812 C 168.960938 239.792969 168.269531 238.8125 167.605469 237.816406 C 166.9375 236.820312 166.296875 235.808594 165.679688 234.777344 C 165.066406 233.75 164.472656 232.707031 163.910156 231.648438 C 163.34375 230.59375 162.804688 229.523438 162.292969 228.4375 C 161.78125 227.355469 161.292969 226.257812 160.835938 225.152344 C 160.375 224.042969 159.945312 222.925781 159.542969 221.796875 C 159.136719 220.667969 158.761719 219.53125 158.414062 218.382812 C 158.066406 217.234375 157.746094 216.082031 157.453125 214.917969 C 157.164062 213.753906 156.902344 212.585938 156.667969 211.410156 C 156.433594 210.234375 156.226562 209.054688 156.050781 207.867188 C 155.875 206.679688 155.730469 205.492188 155.613281 204.296875 C 155.496094 203.105469 155.40625 201.910156 155.347656 200.714844 C 155.289062 199.515625 155.257812 198.316406 155.257812 197.117188 C 155.257812 195.917969 155.289062 194.722656 155.347656 193.523438 C 155.40625 192.328125 155.496094 191.132812 155.613281 189.9375 C 155.730469 188.746094 155.875 187.554688 156.050781 186.371094 C 156.226562 185.183594 156.433594 184.003906 156.667969 182.828125 C 156.902344 181.652344 157.164062 180.480469 157.453125 179.320312 C 157.746094 178.15625 158.066406 177 158.414062 175.855469 C 158.761719 174.707031 159.136719 173.570312 159.542969 172.441406 C 159.945312 171.3125 160.375 170.191406 160.835938 169.085938 C 161.292969 167.976562 161.78125 166.882812 162.292969 165.796875 C 162.804688 164.714844 163.34375 163.644531 163.910156 162.585938 C 164.472656 161.53125 165.066406 160.488281 165.679688 159.457031 C 166.296875 158.429688 166.9375 157.417969 167.605469 156.421875 C 168.269531 155.425781 168.960938 154.445312 169.675781 153.480469 C 170.390625 152.519531 171.125 151.574219 171.886719 150.648438 C 172.648438 149.71875 173.429688 148.8125 174.234375 147.925781 C 175.039062 147.035156 175.867188 146.167969 176.714844 145.320312 C 177.5625 144.472656 178.429688 143.644531 179.320312 142.839844 C 180.207031 142.035156 181.113281 141.253906 182.042969 140.492188 C 182.96875 139.730469 183.914062 138.996094 184.875 138.28125 C 185.839844 137.566406 186.820312 136.875 187.816406 136.210938 C 188.8125 135.542969 189.824219 134.902344 190.851562 134.285156 C 191.882812 133.671875 192.925781 133.078125 193.980469 132.515625 C 195.039062 131.949219 196.109375 131.410156 197.191406 130.898438 C 198.277344 130.386719 199.371094 129.898438 200.480469 129.441406 C 201.585938 128.980469 202.707031 128.550781 203.835938 128.148438 C 204.964844 127.742188 206.101562 127.367188 207.25 127.019531 C 208.394531 126.671875 209.550781 126.351562 210.714844 126.058594 C 211.875 125.769531 213.046875 125.507812 214.222656 125.273438 C 215.398438 125.039062 216.578125 124.832031 217.765625 124.65625 C 218.949219 124.480469 220.140625 124.335938 221.332031 124.21875 C 222.527344 124.101562 223.722656 124.011719 224.917969 123.953125 C 226.117188 123.894531 227.3125 123.863281 228.511719 123.863281 C 229.710938 123.863281 230.910156 123.894531 232.109375 123.953125 C 233.304688 124.011719 234.5 124.101562 235.691406 124.21875 C 236.886719 124.335938 238.074219 124.480469 239.261719 124.65625 C 240.449219 124.832031 241.628906 125.039062 242.804688 125.273438 C 243.980469 125.507812 245.148438 125.769531 246.3125 126.058594 C 247.476562 126.351562 248.628906 126.671875 249.777344 127.019531 C 250.925781 127.367188 252.0625 127.742188 253.191406 128.148438 C 254.320312 128.550781 255.4375 128.980469 256.546875 129.441406 C 257.652344 129.898438 258.75 130.386719 259.832031 130.898438 C 260.917969 131.410156 261.988281 131.949219 263.042969 132.515625 C 264.101562 133.078125 265.144531 133.671875 266.171875 134.285156 C 267.203125 134.902344 268.214844 135.542969 269.210938 136.210938 C 270.207031 136.875 271.1875 137.566406 272.152344 138.28125 C 273.113281 138.996094 274.058594 139.730469 274.984375 140.492188 C 275.910156 141.253906 276.820312 142.035156 277.707031 142.839844 C 278.597656 143.644531 279.464844 144.472656 280.3125 145.320312 C 281.160156 146.167969 281.984375 147.035156 282.789062 147.925781 C 283.597656 148.8125 284.378906 149.71875 285.140625 150.648438 C 285.898438 151.574219 286.636719 152.519531 287.351562 153.480469 C 288.066406 154.445312 288.753906 155.425781 289.421875 156.421875 C 290.085938 157.417969 290.730469 158.429688 291.34375 159.457031 C 291.960938 160.488281 292.550781 161.53125 293.117188 162.585938 C 293.683594 163.644531 294.222656 164.714844 294.734375 165.796875 C 295.246094 166.882812 295.730469 167.976562 296.191406 169.085938 C 296.648438 170.191406 297.082031 171.3125 297.484375 172.441406 C 297.890625 173.570312 298.265625 174.707031 298.613281 175.855469 C 298.960938 177 299.28125 178.15625 299.570312 179.320312 C 299.863281 180.480469 300.125 181.652344 300.359375 182.828125 C 300.59375 184.003906 300.796875 185.183594 300.972656 186.371094 C 301.148438 187.554688 301.296875 188.746094 301.414062 189.9375 C 301.53125 191.132812 301.621094 192.328125 301.679688 193.523438 C 301.738281 194.722656 301.765625 195.917969 301.765625 197.117188 Z M 301.765625 197.117188 " fill-opacity="1" fill-rule="nonzero"/><path fill="#ec9e15" d="M 469.203125 259.90625 L 427.34375 259.90625 L 427.34375 280.835938 L 443.941406 280.835938 L 395.949219 328.828125 L 246.375 179.253906 L 231.578125 194.050781 L 388.550781 351.023438 C 389.039062 351.511719 389.566406 351.945312 390.136719 352.324219 C 390.707031 352.707031 391.3125 353.03125 391.945312 353.292969 C 392.582031 353.554688 393.234375 353.753906 393.910156 353.886719 C 394.582031 354.023438 395.261719 354.089844 395.949219 354.089844 C 396.636719 354.089844 397.316406 354.023438 397.992188 353.886719 C 398.664062 353.753906 399.320312 353.554688 399.953125 353.292969 C 400.589844 353.03125 401.191406 352.707031 401.761719 352.324219 C 402.335938 351.945312 402.863281 351.511719 403.347656 351.023438 L 458.738281 295.632812 L 458.738281 312.230469 L 479.667969 312.230469 L 479.667969 270.371094 C 479.667969 269.683594 479.601562 269.003906 479.46875 268.332031 C 479.335938 267.65625 479.136719 267.003906 478.871094 266.367188 C 478.609375 265.734375 478.289062 265.128906 477.90625 264.558594 C 477.523438 263.988281 477.089844 263.457031 476.605469 262.972656 C 476.117188 262.488281 475.589844 262.054688 475.019531 261.671875 C 474.445312 261.289062 473.84375 260.96875 473.210938 260.703125 C 472.574219 260.441406 471.921875 260.242188 471.246094 260.109375 C 470.570312 259.976562 469.890625 259.90625 469.203125 259.90625 Z M 469.203125 259.90625 " fill-opacity="1" fill-rule="nonzero"/><path fill="#ebebeb" d="M 213.964844 239.632812 C 212.972656 237.269531 211.8125 234.992188 210.484375 232.800781 C 209.160156 230.609375 207.679688 228.527344 206.046875 226.550781 C 204.414062 224.578125 202.644531 222.734375 200.742188 221.019531 C 198.835938 219.304688 196.820312 217.738281 194.683594 216.320312 C 192.550781 214.902344 190.324219 213.644531 188.007812 212.554688 C 185.6875 211.464844 183.304688 210.546875 180.851562 209.808594 C 178.398438 209.066406 175.902344 208.507812 173.371094 208.136719 C 170.835938 207.761719 168.285156 207.574219 165.722656 207.574219 C 163.160156 207.574219 160.613281 207.761719 158.078125 208.136719 C 155.542969 208.507812 153.050781 209.066406 150.597656 209.808594 C 148.144531 210.546875 145.761719 211.464844 143.441406 212.554688 C 141.125 213.644531 138.898438 214.902344 136.761719 216.320312 C 134.628906 217.738281 132.609375 219.304688 130.707031 221.019531 C 128.804688 222.734375 127.035156 224.578125 125.402344 226.550781 C 123.769531 228.527344 122.289062 230.609375 120.960938 232.800781 C 119.636719 234.992188 118.476562 237.269531 117.484375 239.632812 C 116.542969 239.828125 115.613281 240.066406 114.691406 240.347656 C 113.773438 240.625 112.867188 240.949219 111.980469 241.3125 C 111.089844 241.675781 110.21875 242.078125 109.367188 242.523438 C 108.511719 242.96875 107.683594 243.449219 106.875 243.96875 C 106.066406 244.488281 105.28125 245.046875 104.523438 245.636719 C 103.769531 246.230469 103.039062 246.855469 102.339844 247.511719 C 101.640625 248.171875 100.972656 248.863281 100.335938 249.582031 C 99.699219 250.300781 99.097656 251.050781 98.527344 251.828125 C 97.960938 252.601562 97.429688 253.402344 96.933594 254.226562 C 96.441406 255.050781 95.984375 255.894531 95.566406 256.761719 C 95.152344 257.628906 94.773438 258.511719 94.4375 259.414062 C 94.105469 260.3125 93.808594 261.226562 93.558594 262.15625 C 93.308594 263.082031 93.097656 264.019531 92.933594 264.96875 C 92.765625 265.914062 92.644531 266.867188 92.566406 267.824219 C 92.488281 268.78125 92.457031 269.742188 92.464844 270.703125 C 92.476562 271.664062 92.53125 272.625 92.628906 273.578125 C 92.726562 274.535156 92.867188 275.484375 93.054688 276.429688 C 93.238281 277.371094 93.46875 278.304688 93.738281 279.226562 C 94.011719 280.148438 94.324219 281.058594 94.675781 281.949219 C 95.03125 282.84375 95.425781 283.71875 95.859375 284.578125 C 96.296875 285.433594 96.769531 286.269531 97.28125 287.082031 C 97.792969 287.898438 98.339844 288.6875 98.925781 289.449219 C 99.507812 290.210938 100.125 290.949219 100.777344 291.652344 C 101.429688 292.359375 102.113281 293.035156 102.824219 293.679688 C 103.539062 294.324219 104.28125 294.933594 105.050781 295.511719 C 105.820312 296.085938 106.613281 296.625 107.433594 297.128906 C 108.253906 297.632812 109.09375 298.09375 109.957031 298.519531 C 110.816406 298.945312 111.699219 299.332031 112.59375 299.675781 C 113.492188 300.023438 114.402344 300.324219 115.328125 300.585938 C 116.253906 300.847656 117.1875 301.066406 118.132812 301.242188 C 119.078125 301.414062 120.03125 301.546875 120.988281 301.636719 C 121.945312 301.722656 122.902344 301.765625 123.863281 301.765625 L 207.582031 301.765625 C 208.542969 301.765625 209.503906 301.722656 210.460938 301.636719 C 211.417969 301.546875 212.371094 301.414062 213.316406 301.242188 C 214.261719 301.066406 215.195312 300.847656 216.121094 300.585938 C 217.046875 300.324219 217.957031 300.023438 218.855469 299.675781 C 219.75 299.332031 220.628906 298.945312 221.492188 298.519531 C 222.355469 298.09375 223.195312 297.632812 224.015625 297.128906 C 224.832031 296.625 225.628906 296.085938 226.398438 295.511719 C 227.167969 294.933594 227.910156 294.324219 228.621094 293.679688 C 229.335938 293.035156 230.019531 292.359375 230.671875 291.652344 C 231.320312 290.949219 231.941406 290.210938 232.523438 289.449219 C 233.109375 288.6875 233.65625 287.898438 234.167969 287.082031 C 234.679688 286.269531 235.152344 285.433594 235.585938 284.578125 C 236.023438 283.71875 236.417969 282.84375 236.769531 281.949219 C 237.125 281.058594 237.4375 280.148438 237.710938 279.226562 C 237.980469 278.304688 238.207031 277.371094 238.394531 276.429688 C 238.578125 275.484375 238.722656 274.535156 238.820312 273.578125 C 238.917969 272.625 238.972656 271.664062 238.980469 270.703125 C 238.992188 269.742188 238.957031 268.78125 238.878906 267.824219 C 238.800781 266.867188 238.679688 265.914062 238.515625 264.96875 C 238.351562 264.019531 238.140625 263.082031 237.890625 262.15625 C 237.636719 261.226562 237.34375 260.3125 237.007812 259.414062 C 236.671875 258.511719 236.296875 257.628906 235.878906 256.761719 C 235.464844 255.894531 235.007812 255.050781 234.515625 254.226562 C 234.019531 253.402344 233.488281 252.601562 232.921875 251.828125 C 232.351562 251.050781 231.75 250.300781 231.113281 249.582031 C 230.476562 248.863281 229.808594 248.171875 229.109375 247.511719 C 228.410156 246.855469 227.679688 246.230469 226.921875 245.636719 C 226.164062 245.046875 225.382812 244.488281 224.574219 243.96875 C 223.765625 243.449219 222.933594 242.96875 222.082031 242.523438 C 221.230469 242.078125 220.359375 241.675781 219.46875 241.3125 C 218.578125 240.949219 217.675781 240.625 216.753906 240.347656 C 215.835938 240.066406 214.90625 239.828125 213.964844 239.632812 Z M 213.964844 239.632812 " fill-opacity="1" fill-rule="nonzero"/><path fill="#fdb62f" d="M 163.953125 76.988281 L 183.109375 68.539062 L 195.777344 97.261719 L 176.621094 105.710938 Z M 163.953125 76.988281 " fill-opacity="1" fill-rule="nonzero"/><path fill="#fdb62f" d="M 92.113281 193.046875 L 94.351562 172.238281 L 125.574219 175.597656 L 123.335938 196.402344 Z M 92.113281 193.046875 " fill-opacity="1" fill-rule="nonzero"/><path fill="#fdb62f" d="M 331.5 218.847656 L 333.738281 198.042969 L 364.960938 201.398438 L 362.722656 222.207031 Z M 331.5 218.847656 " fill-opacity="1" fill-rule="nonzero"/><path fill="#fdb62f" d="M 281.671875 106.363281 L 300.164062 80.996094 L 317.074219 93.320312 L 298.582031 118.6875 Z M 281.671875 106.363281 " fill-opacity="1" fill-rule="nonzero"/><path fill="#48a4e1" d="M 312.230469 573.851562 L 375.019531 573.851562 L 375.019531 605.246094 L 312.230469 605.246094 Z M 312.230469 573.851562 " fill-opacity="1" fill-rule="nonzero"/><path fill="#cbcbcb" d="M 113.398438 469.203125 L 448.273438 469.203125 L 448.273438 479.667969 L 113.398438 479.667969 Z M 113.398438 469.203125 " fill-opacity="1" fill-rule="nonzero"/><path fill="#7eb0a8" d="M 176.1875 531.992188 L 249.441406 531.992188 L 249.441406 542.457031 L 176.1875 542.457031 Z M 176.1875 531.992188 " fill-opacity="1" fill-rule="nonzero"/><path fill="#7eb0a8" d="M 312.230469 531.992188 L 385.484375 531.992188 L 385.484375 542.457031 L 312.230469 542.457031 Z M 312.230469 531.992188 " fill-opacity="1" fill-rule="nonzero"/></svg>