<svg version="1.2" xmlns="http://www.w3.org/2000/svg" viewBox="0 0 900 900" width="1000" height="1000">
	<title>shutterstock_1043228269-ai</title>
	<defs>
		<linearGradient id="g1" x1="421.6" y1="280.4" x2="399.3" y2="386.2" gradientUnits="userSpaceOnUse">
			<stop offset="0" stop-color="#4e94cb"/>
			<stop offset="1" stop-color="#14588d"/>
		</linearGradient>
		<linearGradient id="g2" x1="365.3" y1="357.6" x2="343.1" y2="463.4" gradientUnits="userSpaceOnUse">
			<stop offset="0" stop-color="#4e94cb"/>
			<stop offset="1" stop-color="#14588d"/>
		</linearGradient>
		<linearGradient id="g3" x1="531.2" y1="343.9" x2="509" y2="449.7" gradientUnits="userSpaceOnUse">
			<stop offset="0" stop-color="#4e94cb"/>
			<stop offset="1" stop-color="#14588d"/>
		</linearGradient>
		<linearGradient id="g4" x1="475" y1="421.1" x2="452.7" y2="526.9" gradientUnits="userSpaceOnUse">
			<stop offset="0" stop-color="#4e94cb"/>
			<stop offset="1" stop-color="#14588d"/>
		</linearGradient>
		<linearGradient id="g5" x1="727.4" y1="471.5" x2="741.1" y2="471.5" gradientUnits="userSpaceOnUse">
			<stop offset="0" stop-color="#603913"/>
			<stop offset="1" stop-color="#c49a6c"/>
		</linearGradient>
		<linearGradient id="g6" x1="772.2" y1="353.8" x2="830.2" y2="454.3" gradientUnits="userSpaceOnUse">
			<stop offset="0" stop-color="#354a18"/>
			<stop offset="1" stop-color="#7bad37"/>
		</linearGradient>
		<linearGradient id="g7" x1="778.7" y1="501.2" x2="792.4" y2="501.2" gradientUnits="userSpaceOnUse">
			<stop offset="0" stop-color="#603913"/>
			<stop offset="1" stop-color="#c49a6c"/>
		</linearGradient>
		<linearGradient id="g8" x1="823.6" y1="383.5" x2="881.6" y2="484" gradientUnits="userSpaceOnUse">
			<stop offset="0" stop-color="#354a18"/>
			<stop offset="1" stop-color="#7bad37"/>
		</linearGradient>
		<linearGradient id="g9" x1="415.9" y1="670.2" x2="429.6" y2="670.2" gradientUnits="userSpaceOnUse">
			<stop offset="0" stop-color="#603913"/>
			<stop offset="1" stop-color="#c49a6c"/>
		</linearGradient>
		<linearGradient id="g10" x1="460.8" y1="552.5" x2="518.8" y2="653" gradientUnits="userSpaceOnUse">
			<stop offset="0" stop-color="#354a18"/>
			<stop offset="1" stop-color="#7bad37"/>
		</linearGradient>
		<linearGradient id="g11" x1="141.8" y1="511.6" x2="155.5" y2="511.6" gradientUnits="userSpaceOnUse">
			<stop offset="0" stop-color="#603913"/>
			<stop offset="1" stop-color="#c49a6c"/>
		</linearGradient>
		<linearGradient id="g12" x1="186.6" y1="393.9" x2="244.6" y2="494.4" gradientUnits="userSpaceOnUse">
			<stop offset="0" stop-color="#354a18"/>
			<stop offset="1" stop-color="#7bad37"/>
		</linearGradient>
		<linearGradient id="g13" x1="199.8" y1="545.1" x2="213.5" y2="545.1" gradientUnits="userSpaceOnUse">
			<stop offset="0" stop-color="#603913"/>
			<stop offset="1" stop-color="#c49a6c"/>
		</linearGradient>
		<linearGradient id="g14" x1="244.6" y1="427.4" x2="302.6" y2="527.9" gradientUnits="userSpaceOnUse">
			<stop offset="0" stop-color="#354a18"/>
			<stop offset="1" stop-color="#7bad37"/>
		</linearGradient>
	</defs>
	<style>
		.s0 { fill: #8dc63f } 
		.s1 { fill: #6a952f } 
		.s2 { fill: #7bad37 } 
		.s3 { fill: #d8d8d8 } 
		.s4 { fill: #f1f2f2 } 
		.s5 { fill: #60d4ff } 
		.s6 { fill: #00aeef } 
		.s7 { fill: #a7a9ac } 
		.s8 { fill: #929497 } 
		.s9 { fill: #7d7f81 } 
		.s10 { fill: url(#g1) } 
		.s11 { fill: #ffffff } 
		.s12 { fill: #d1d3d4 } 
		.s13 { fill: url(#g2) } 
		.s14 { fill: url(#g3) } 
		.s15 { fill: url(#g4) } 
		.s16 { fill: #916712 } 
		.s17 { fill: #ae7b16 } 
		.s18 { fill: #74520e } 
		.s19 { fill: url(#g5) } 
		.s20 { fill: url(#g6) } 
		.s21 { fill: url(#g7) } 
		.s22 { fill: url(#g8) } 
		.s23 { fill: url(#g9) } 
		.s24 { fill: url(#g10) } 
		.s25 { fill: url(#g11) } 
		.s26 { fill: url(#g12) } 
		.s27 { fill: url(#g13) } 
		.s28 { fill: url(#g14) } 
	</style>
	<g id="_Artboards_">
	</g>
	<g id="Layer 1">
		<g id="&lt;Group&gt;">
			<path id="&lt;Path&gt;" class="s0" d="m450 320.1l389.2 224.6-389.1 224.8-389.4-224.8z"/>
			<path id="&lt;Path&gt;" class="s1" d="m839.2 544.7v23.6l-389.3 224.7 0.2-23.5z"/>
			<path id="&lt;Path&gt;" class="s2" d="m60.7 568.2v-23.5l389.4 224.8-0.2 23.5z"/>
		</g>
		<g id="&lt;Group&gt;">
			<path id="&lt;Path&gt;" class="s3" d="m654.9 556.4l-184.4 106.7v-156.5l83.6-128.4 100.8 21.7z"/>
			<path id="&lt;Path&gt;" class="s4" d="m224.8 521.1l245.7 142v-156.5l-245.8-141.9z"/>
		</g>
		<g id="&lt;Group&gt;">
			<path id="&lt;Path&gt;" class="s5" d="m265.4 455.3v65.8l40.9 23.2v-65.1z"/>
			<path id="&lt;Path&gt;" class="s6" d="m306.3 479.2l-40.9-23.9v65.8z"/>
		</g>
		<g id="&lt;Group&gt;">
			<path id="&lt;Path&gt;" class="s5" d="m359 509.3v65.8l41 23.2v-65.1z"/>
			<path id="&lt;Path&gt;" class="s6" d="m400 533.2l-41-23.9v65.8z"/>
		</g>
		<g id="&lt;Group&gt;">
			<g id="&lt;Group&gt;">
				<path id="&lt;Path&gt;" class="s7" d="m572.9 390.8l-122.9 165.6-266.3-153.7 122.9-165.6z"/>
				<path id="&lt;Path&gt;" class="s8" d="m306.6 237.1l266.3 153.7 122.9 23.7-266.3-153.7z"/>
			</g>
			<path id="&lt;Path&gt;" class="s9" d="m695.8 414.5l-7.5 15-109.8-21.1-121 163-7.5-15 122.9-165.6z"/>
			<path id="&lt;Path&gt;" class="s8" d="m183.7 402.7l7.5 15 266.3 153.7-7.5-15z"/>
		</g>
		<g id="&lt;Group&gt;">
			<g id="&lt;Group&gt;">
				<path id="&lt;Path&gt;" class="s10" d="m422.4 314.9l-94.2-54.4-47.5 64 94 54.2z"/>
				<path id="&lt;Compound Path&gt;" fill-rule="evenodd" class="s11" d="m422.4 314.9l-47.7 63.8-94-54.2 47.5-64zm-34.6-14.8l-7.8 10.5c-1 1.3-0.6 3.1 0.8 3.9l10 5.8c1.2 0.7 2.7 0.4 3.5-0.7l7.8-10.5c1-1.3 0.6-3.1-0.8-3.9l-10-5.8c-1.2-0.7-2.7-0.4-3.5 0.7zm-28.2 2.8l-10-5.8c-1.2-0.6-2.7-0.3-3.5 0.8l-7.8 10.5c-1 1.3-0.6 3.1 0.8 3.9l10 5.8c1.2 0.7 2.7 0.4 3.5-0.7l7.8-10.5c1-1.3 0.6-3.2-0.8-4zm-6.1 14.2c-1 1.3-0.6 3.2 0.8 4l10 5.8c1.2 0.6 2.7 0.3 3.5-0.8l7.8-10.5c1-1.3 0.6-3.1-0.8-3.9l-10-5.8c-1.2-0.7-2.7-0.4-3.5 0.7zm-9.1-23l-10-5.8c-1.2-0.7-2.7-0.3-3.5 0.8l-7.8 10.5c-1 1.3-0.6 3.1 0.8 3.9l10 5.8c1.2 0.7 2.7 0.4 3.5-0.7l7.8-10.6c1-1.2 0.6-3.1-0.8-3.9zm-24.9 10.3l-7.8 10.5c-0.9 1.3-0.5 3.1 0.9 3.9l10 5.8c1.2 0.7 2.7 0.4 3.5-0.7l7.8-10.5c0.9-1.3 0.6-3.2-0.8-4l-10.1-5.8c-1.1-0.6-2.6-0.3-3.5 0.8zm8.3 23.2l10 5.8c1.2 0.7 2.7 0.4 3.5-0.7l7.8-10.5c0.9-1.3 0.6-3.2-0.8-4l-10-5.8c-1.2-0.6-2.7-0.3-3.6 0.8l-7.8 10.5c-0.9 1.3-0.5 3.1 0.9 3.9zm15.1 8.8l10.1 5.8c1.1 0.6 2.7 0.3 3.5-0.8l7.8-10.5c0.9-1.3 0.5-3.1-0.9-3.9l-10-5.8c-1.1-0.7-2.7-0.4-3.5 0.7l-7.8 10.5c-0.9 1.3-0.5 3.2 0.8 4zm15.2 8.7l10.1 5.8c1.1 0.7 2.6 0.4 3.5-0.7l7.8-10.5c0.9-1.3 0.5-3.1-0.9-3.9l-10-5.8c-1.2-0.7-2.7-0.4-3.5 0.7l-7.8 10.5c-0.9 1.3-0.6 3.1 0.8 3.9zm24.9-10.2l7.8-10.5c1-1.3 0.6-3.1-0.8-4l-10-5.7c-1.2-0.7-2.7-0.4-3.5 0.7l-7.8 10.5c-1 1.3-0.6 3.1 0.8 3.9l10 5.8c1.2 0.7 2.7 0.4 3.5-0.7zm-10.4-43.6l-7.8 10.5c-1 1.3-0.6 3.2 0.8 4l10 5.8c1.2 0.6 2.7 0.3 3.5-0.8l7.8-10.5c1-1.3 0.6-3.1-0.8-3.9l-10-5.8c-1.2-0.7-2.7-0.4-3.5 0.7zm-15.2-8.7l-7.8 10.5c-1 1.3-0.6 3.1 0.8 3.9l10 5.8c1.2 0.7 2.7 0.4 3.5-0.7l7.8-10.6c1-1.2 0.6-3.1-0.8-3.9l-10-5.8c-1.2-0.7-2.7-0.3-3.5 0.8zm-15.2-8.8l-7.8 10.5c-1 1.3-0.6 3.1 0.8 3.9l10 5.8c1.2 0.7 2.7 0.4 3.5-0.7l7.8-10.6c1-1.2 0.6-3.1-0.8-3.9l-10-5.8c-1.2-0.7-2.7-0.3-3.5 0.8zm-22.2 5.6l10 5.8c1.2 0.7 2.7 0.4 3.5-0.7l7.8-10.5c1-1.3 0.6-3.2-0.8-4l-10-5.7c-1.2-0.7-2.7-0.4-3.5 0.7l-7.8 10.5c-1 1.3-0.6 3.1 0.8 3.9zm-11.3 15.3l10 5.8c1.2 0.7 2.7 0.4 3.5-0.7l7.8-10.5c1-1.3 0.6-3.1-0.8-4l-10-5.7c-1.2-0.7-2.7-0.4-3.5 0.7l-7.8 10.5c-1 1.3-0.6 3.1 0.8 3.9zm-11.3 15.3l10 5.8c1.2 0.7 2.7 0.4 3.5-0.7l7.8-10.5c0.9-1.3 0.6-3.1-0.8-3.9l-10.1-5.8c-1.1-0.7-2.6-0.4-3.5 0.7l-7.8 10.5c-0.9 1.3-0.5 3.1 0.9 3.9zm2.2 20.4l7.8-10.5c0.9-1.3 0.5-3.1-0.8-3.9l-10.1-5.8c-1.1-0.7-2.7-0.4-3.5 0.7l-7.8 10.5c-0.9 1.3-0.5 3.1 0.9 3.9l10 5.8c1.1 0.7 2.7 0.4 3.5-0.7zm15.2 8.8l7.8-10.5c0.9-1.3 0.5-3.2-0.8-4l-10.1-5.8c-1.1-0.6-2.7-0.3-3.5 0.8l-7.8 10.5c-0.9 1.3-0.5 3.1 0.8 3.9l10.1 5.8c1.1 0.7 2.7 0.4 3.5-0.7zm15.2 8.8l7.8-10.5c0.9-1.3 0.6-3.2-0.8-4l-10.1-5.8c-1.1-0.6-2.6-0.3-3.5 0.8l-7.8 10.5c-0.9 1.3-0.5 3.1 0.9 3.9l10 5.8c1.2 0.7 2.7 0.4 3.5-0.7zm15.2 8.7l7.8-10.5c0.9-1.3 0.5-3.1-0.9-3.9l-10-5.8c-1.2-0.7-2.7-0.4-3.5 0.7l-7.8 10.5c-0.9 1.3-0.6 3.2 0.8 4l10.1 5.8c1.1 0.6 2.6 0.3 3.5-0.8zm15.2 8.8l7.8-10.5c0.9-1.3 0.5-3.1-0.9-3.9l-10-5.8c-1.2-0.7-2.7-0.4-3.5 0.7l-7.8 10.5c-0.9 1.3-0.6 3.1 0.8 3.9l10 5.8c1.2 0.7 2.7 0.4 3.6-0.7zm22.1-5.6l-10-5.8c-1.1-0.7-2.7-0.4-3.5 0.7l-7.8 10.5c-0.9 1.3-0.5 3.1 0.8 3.9l10.1 5.8c1.1 0.7 2.6 0.4 3.5-0.7l7.8-10.5c0.9-1.3 0.5-3.1-0.9-3.9zm11.4-15.3l-10.1-5.8c-1.1-0.7-2.7-0.4-3.5 0.7l-7.8 10.5c-0.9 1.3-0.5 3.1 0.9 3.9l10 5.8c1.1 0.7 2.7 0.4 3.5-0.7l7.8-10.5c0.9-1.3 0.5-3.1-0.8-3.9zm11.3-15.3l-10-5.8c-1.2-0.7-2.7-0.4-3.5 0.7l-7.8 10.5c-1 1.3-0.6 3.1 0.8 3.9l10 5.8c1.2 0.7 2.7 0.4 3.5-0.7l7.8-10.5c1-1.3 0.6-3.1-0.8-3.9zm12.1-11.4c1-1.3 0.6-3.1-0.8-3.9l-10-5.8c-1.2-0.7-2.7-0.4-3.5 0.7l-7.8 10.5c-1 1.3-0.6 3.1 0.8 3.9l10 5.8c1.2 0.7 2.7 0.4 3.5-0.7z"/>
				<path id="&lt;Path&gt;" class="s12" d="m422.4 314.9l2.7 4.6-47.8 63.8-2.6-4.6z"/>
				<path id="&lt;Path&gt;" class="s4" d="m280.7 324.5l2.6 4.6 94 54.2-2.6-4.6z"/>
			</g>
			<g id="&lt;Group&gt;">
				<path id="&lt;Path&gt;" class="s13" d="m366.2 392.1l-94.3-54.4-47.5 64 94 54.2z"/>
				<path id="&lt;Compound Path&gt;" fill-rule="evenodd" class="s11" d="m366.2 392.1l-47.8 63.8-94-54.2 47.5-64zm-34.6-14.8l-7.8 10.5c-1 1.3-0.6 3.1 0.8 4l10 5.7c1.2 0.7 2.7 0.4 3.5-0.7l7.8-10.5c1-1.3 0.6-3.1-0.8-3.9l-10-5.8c-1.2-0.7-2.7-0.4-3.5 0.7zm-28.2 2.8l-10-5.8c-1.2-0.6-2.7-0.3-3.5 0.8l-7.8 10.5c-0.9 1.3-0.6 3.1 0.8 3.9l10 5.8c1.2 0.7 2.7 0.4 3.6-0.7l7.8-10.5c0.9-1.3 0.5-3.2-0.9-4zm-6.1 14.3c-1 1.2-0.6 3.1 0.8 3.9l10 5.8c1.2 0.7 2.7 0.3 3.5-0.8l7.8-10.5c1-1.3 0.6-3.1-0.8-3.9l-10-5.8c-1.2-0.7-2.7-0.4-3.5 0.7zm-9.1-23l-10-5.8c-1.2-0.6-2.7-0.3-3.5 0.8l-7.8 10.5c-1 1.3-0.6 3.1 0.8 3.9l10 5.8c1.2 0.7 2.7 0.4 3.5-0.7l7.8-10.5c1-1.3 0.6-3.2-0.8-4zm-24.8 10.3l-7.8 10.5c-1 1.3-0.6 3.1 0.8 3.9l10 5.8c1.2 0.7 2.7 0.4 3.5-0.7l7.8-10.5c1-1.3 0.6-3.2-0.8-4l-10-5.8c-1.2-0.6-2.7-0.3-3.5 0.8zm8.2 23.2l10 5.8c1.2 0.7 2.7 0.4 3.5-0.7l7.8-10.5c1-1.3 0.6-3.2-0.8-4l-10-5.8c-1.2-0.6-2.7-0.3-3.5 0.8l-7.8 10.5c-1 1.3-0.6 3.1 0.8 3.9zm15.2 8.8l10 5.8c1.2 0.7 2.7 0.3 3.5-0.8l7.8-10.5c0.9-1.3 0.6-3.1-0.8-3.9l-10-5.8c-1.2-0.7-2.7-0.4-3.6 0.7l-7.8 10.6c-0.9 1.2-0.5 3.1 0.9 3.9zm15.2 8.8l10 5.7c1.2 0.7 2.7 0.4 3.5-0.7l7.8-10.5c0.9-1.3 0.6-3.1-0.8-3.9l-10.1-5.8c-1.1-0.7-2.6-0.4-3.5 0.7l-7.8 10.5c-0.9 1.3-0.5 3.1 0.9 4zm24.8-10.3l7.8-10.5c1-1.3 0.6-3.1-0.8-3.9l-10-5.8c-1.2-0.7-2.7-0.4-3.5 0.7l-7.8 10.5c-1 1.3-0.6 3.1 0.8 3.9l10 5.8c1.2 0.7 2.7 0.4 3.5-0.7zm-10.4-43.6l-7.8 10.5c-1 1.3-0.6 3.2 0.8 4l10 5.8c1.2 0.6 2.7 0.3 3.5-0.8l7.8-10.5c1-1.3 0.6-3.1-0.8-3.9l-10-5.8c-1.2-0.7-2.7-0.4-3.5 0.7zm-15.2-8.7l-7.8 10.5c-0.9 1.3-0.6 3.1 0.8 3.9l10 5.8c1.2 0.7 2.7 0.4 3.6-0.7l7.8-10.5c0.9-1.3 0.5-3.2-0.9-4l-10-5.8c-1.2-0.6-2.7-0.3-3.5 0.8zm-15.2-8.8l-7.8 10.5c-0.9 1.3-0.6 3.1 0.8 3.9l10 5.8c1.2 0.7 2.7 0.4 3.5-0.7l7.8-10.5c1-1.3 0.6-3.2-0.8-4l-10-5.8c-1.2-0.6-2.7-0.3-3.5 0.8zm-22.2 5.6l10 5.8c1.2 0.7 2.7 0.4 3.6-0.7l7.8-10.5c0.9-1.3 0.5-3.1-0.9-3.9l-10-5.8c-1.2-0.7-2.7-0.4-3.5 0.7l-7.8 10.5c-0.9 1.3-0.6 3.1 0.8 3.9zm-11.3 15.3l10 5.8c1.2 0.7 2.7 0.4 3.5-0.7l7.8-10.5c1-1.3 0.6-3.1-0.8-3.9l-10-5.8c-1.2-0.7-2.7-0.4-3.5 0.7l-7.8 10.5c-1 1.3-0.6 3.1 0.8 3.9zm-11.3 15.4l10 5.7c1.2 0.7 2.7 0.4 3.5-0.7l7.8-10.5c1-1.3 0.6-3.1-0.8-3.9l-10-5.8c-1.2-0.7-2.7-0.4-3.5 0.7l-7.8 10.5c-1 1.3-0.6 3.1 0.8 4zm2.2 20.3l7.8-10.5c0.9-1.3 0.6-3.1-0.8-3.9l-10-5.8c-1.2-0.7-2.7-0.4-3.5 0.7l-7.8 10.5c-1 1.3-0.6 3.1 0.8 4l10 5.7c1.2 0.7 2.7 0.4 3.5-0.7zm15.2 8.8l7.8-10.5c0.9-1.3 0.6-3.2-0.8-4l-10-5.8c-1.2-0.6-2.7-0.3-3.6 0.8l-7.8 10.5c-0.9 1.3-0.5 3.1 0.9 3.9l10 5.8c1.2 0.7 2.7 0.4 3.5-0.7zm15.2 8.8l7.8-10.5c1-1.3 0.6-3.2-0.8-4l-10-5.8c-1.2-0.6-2.7-0.3-3.5 0.8l-7.8 10.5c-1 1.3-0.6 3.1 0.8 3.9l10 5.8c1.2 0.7 2.7 0.4 3.5-0.7zm15.2 8.7l7.8-10.5c0.9-1.3 0.6-3.1-0.8-3.9l-10.1-5.8c-1.1-0.7-2.6-0.4-3.5 0.7l-7.8 10.6c-0.9 1.2-0.5 3.1 0.9 3.9l10 5.8c1.2 0.7 2.7 0.3 3.5-0.8zm15.2 8.8l7.8-10.5c0.9-1.3 0.5-3.1-0.8-3.9l-10.1-5.8c-1.1-0.7-2.6-0.4-3.5 0.7l-7.8 10.5c-0.9 1.3-0.5 3.1 0.9 4l10 5.7c1.1 0.7 2.7 0.4 3.5-0.7zm22.2-5.6l-10-5.8c-1.2-0.7-2.7-0.4-3.6 0.7l-7.8 10.5c-0.9 1.3-0.5 3.2 0.9 4l10 5.7c1.2 0.7 2.7 0.4 3.5-0.7l7.8-10.5c0.9-1.3 0.6-3.1-0.8-3.9zm11.3-15.3l-10-5.8c-1.2-0.7-2.7-0.4-3.5 0.7l-7.8 10.5c-1 1.3-0.6 3.2 0.8 4l10 5.7c1.2 0.7 2.7 0.4 3.5-0.7l7.8-10.5c0.9-1.3 0.6-3.1-0.8-3.9zm11.3-15.3l-10-5.8c-1.2-0.7-2.7-0.4-3.5 0.7l-7.8 10.5c-1 1.3-0.6 3.1 0.8 4l10 5.7c1.2 0.7 2.7 0.4 3.5-0.7l7.8-10.5c1-1.3 0.6-3.1-0.8-3.9zm12.1-11.4c1-1.3 0.6-3.1-0.8-3.9l-10-5.8c-1.2-0.7-2.7-0.4-3.5 0.7l-7.8 10.5c-1 1.3-0.6 3.1 0.8 3.9l10 5.8c1.2 0.7 2.7 0.4 3.5-0.7z"/>
				<path id="&lt;Path&gt;" class="s12" d="m366.2 392.1l2.6 4.6-47.8 63.8-2.6-4.6z"/>
				<path id="&lt;Path&gt;" class="s4" d="m224.4 401.7l2.7 4.6 93.9 54.2-2.6-4.6z"/>
			</g>
			<g id="&lt;Group&gt;">
				<path id="&lt;Path&gt;" class="s14" d="m532.1 378.4l-94.2-54.4-47.5 64 94 54.2z"/>
				<path id="&lt;Compound Path&gt;" fill-rule="evenodd" class="s11" d="m532.1 378.4l-47.7 63.8-94-54.2 47.5-64zm-34.7-14.8l-7.8 10.5c-0.9 1.3-0.5 3.1 0.9 3.9l10 5.8c1.2 0.7 2.7 0.4 3.5-0.7l7.8-10.5c0.9-1.3 0.6-3.1-0.8-4l-10-5.7c-1.2-0.7-2.7-0.4-3.6 0.7zm-28.1 2.8l-10-5.8c-1.2-0.7-2.7-0.3-3.5 0.8l-7.8 10.5c-1 1.3-0.6 3.1 0.8 3.9l10 5.8c1.2 0.7 2.7 0.4 3.5-0.7l7.8-10.6c1-1.2 0.6-3.1-0.8-3.9zm-6.2 14.2c-0.9 1.3-0.5 3.2 0.9 4l10 5.8c1.2 0.6 2.7 0.3 3.5-0.8l7.8-10.5c0.9-1.3 0.6-3.1-0.8-3.9l-10-5.8c-1.2-0.7-2.7-0.4-3.6 0.7zm-9-23l-10-5.8c-1.2-0.7-2.7-0.3-3.5 0.7l-7.8 10.6c-1 1.2-0.6 3.1 0.8 3.9l10 5.8c1.2 0.7 2.7 0.3 3.5-0.8l7.8-10.5c0.9-1.3 0.6-3.1-0.8-3.9zm-24.9 10.3l-7.8 10.5c-1 1.3-0.6 3.1 0.8 3.9l10 5.8c1.2 0.7 2.7 0.3 3.5-0.7l7.8-10.6c1-1.2 0.6-3.1-0.8-3.9l-10-5.8c-1.2-0.7-2.7-0.3-3.5 0.8zm8.2 23.2l10 5.8c1.2 0.7 2.7 0.4 3.6-0.7l7.8-10.6c0.9-1.2 0.5-3.1-0.9-3.9l-10-5.8c-1.2-0.7-2.7-0.3-3.5 0.8l-7.8 10.5c-0.9 1.3-0.6 3.1 0.8 3.9zm15.2 8.8l10 5.8c1.2 0.6 2.7 0.3 3.5-0.8l7.8-10.5c1-1.3 0.6-3.1-0.8-3.9l-10-5.8c-1.2-0.7-2.7-0.4-3.5 0.7l-7.8 10.5c-1 1.3-0.6 3.2 0.8 4zm15.2 8.7l10 5.8c1.2 0.7 2.7 0.4 3.5-0.7l7.8-10.5c1-1.3 0.6-3.1-0.8-4l-10-5.7c-1.2-0.7-2.7-0.4-3.5 0.7l-7.8 10.5c-1 1.3-0.6 3.1 0.8 3.9zm24.9-10.2l7.8-10.5c0.9-1.3 0.6-3.2-0.8-4l-10.1-5.7c-1.1-0.7-2.6-0.4-3.5 0.7l-7.8 10.5c-0.9 1.3-0.5 3.1 0.9 3.9l10 5.8c1.2 0.7 2.7 0.4 3.5-0.7zm-10.4-43.6l-7.8 10.5c-1 1.3-0.6 3.2 0.8 4l10 5.7c1.2 0.7 2.7 0.4 3.5-0.7l7.8-10.5c0.9-1.3 0.6-3.1-0.8-3.9l-10-5.8c-1.2-0.7-2.7-0.4-3.5 0.7zm-15.2-8.7l-7.8 10.5c-1 1.3-0.6 3.1 0.8 3.9l10 5.8c1.2 0.7 2.7 0.3 3.5-0.8l7.8-10.5c1-1.3 0.6-3.1-0.8-3.9l-10-5.8c-1.2-0.7-2.7-0.3-3.5 0.8zm-15.2-8.9l-7.8 10.6c-1 1.2-0.6 3.1 0.8 3.9l10 5.8c1.2 0.7 2.7 0.3 3.5-0.8l7.8-10.5c1-1.3 0.6-3.1-0.8-3.9l-10-5.8c-1.2-0.7-2.7-0.3-3.5 0.7zm-22.2 5.7l10 5.8c1.2 0.7 2.7 0.4 3.5-0.7l7.8-10.5c1-1.3 0.6-3.2-0.8-4l-10-5.7c-1.2-0.7-2.7-0.4-3.5 0.7l-7.8 10.5c-1 1.3-0.6 3.1 0.8 3.9zm-11.3 15.3l10 5.8c1.2 0.7 2.7 0.4 3.5-0.7l7.8-10.5c1-1.3 0.6-3.2-0.8-4l-10-5.7c-1.2-0.7-2.7-0.4-3.5 0.7l-7.8 10.5c-1 1.3-0.6 3.1 0.8 3.9zm-11.4 15.3l10 5.8c1.2 0.7 2.7 0.4 3.5-0.7l7.8-10.5c1-1.3 0.6-3.2-0.8-4l-10-5.7c-1.2-0.7-2.7-0.4-3.5 0.7l-7.8 10.5c-0.9 1.3-0.6 3.1 0.8 3.9zm2.2 20.4l7.8-10.5c1-1.3 0.6-3.2-0.8-4l-10-5.7c-1.2-0.7-2.7-0.4-3.5 0.7l-7.8 10.5c-1 1.3-0.6 3.1 0.8 3.9l10 5.8c1.2 0.7 2.7 0.4 3.5-0.7zm15.2 8.8l7.8-10.6c1-1.2 0.6-3.1-0.8-3.9l-10-5.8c-1.2-0.7-2.7-0.3-3.5 0.8l-7.8 10.5c-1 1.3-0.6 3.1 0.8 3.9l10 5.8c1.2 0.7 2.7 0.3 3.5-0.7zm15.2 8.8l7.8-10.6c1-1.2 0.6-3.1-0.8-3.9l-10-5.8c-1.2-0.7-2.7-0.3-3.5 0.8l-7.8 10.5c-1 1.3-0.6 3.1 0.8 3.9l10 5.8c1.2 0.7 2.7 0.4 3.5-0.7zm15.2 8.7l7.8-10.5c1-1.3 0.6-3.1-0.8-3.9l-10-5.8c-1.2-0.7-2.7-0.4-3.5 0.7l-7.8 10.5c-1 1.3-0.6 3.2 0.8 4l10 5.8c1.2 0.6 2.7 0.3 3.5-0.8zm15.2 8.8l7.8-10.5c1-1.3 0.6-3.1-0.8-4l-10-5.7c-1.2-0.7-2.7-0.4-3.5 0.7l-7.8 10.5c-1 1.3-0.6 3.1 0.8 3.9l10 5.8c1.2 0.7 2.7 0.4 3.5-0.7zm22.2-5.6l-10-5.8c-1.2-0.7-2.7-0.4-3.5 0.7l-7.8 10.5c-1 1.3-0.6 3.1 0.8 3.9l10 5.8c1.2 0.7 2.7 0.4 3.5-0.7l7.8-10.5c1-1.3 0.6-3.1-0.8-3.9zm11.3-15.4l-10-5.7c-1.2-0.7-2.7-0.4-3.5 0.7l-7.8 10.5c-1 1.3-0.6 3.1 0.8 3.9l10 5.8c1.2 0.7 2.7 0.4 3.5-0.7l7.8-10.5c1-1.3 0.6-3.1-0.8-4zm11.4-15.3l-10-5.7c-1.2-0.7-2.7-0.4-3.6 0.7l-7.7 10.5c-1 1.3-0.6 3.1 0.8 3.9l10 5.8c1.2 0.7 2.7 0.4 3.5-0.7l7.8-10.5c0.9-1.3 0.6-3.2-0.8-4zm12.1-11.3c1-1.3 0.6-3.2-0.8-4l-10-5.7c-1.2-0.7-2.7-0.4-3.5 0.7l-7.8 10.5c-1 1.3-0.6 3.1 0.8 3.9l10 5.8c1.2 0.7 2.7 0.4 3.5-0.7z"/>
				<path id="&lt;Path&gt;" class="s12" d="m532.1 378.4l2.6 4.6-47.7 63.8-2.6-4.6z"/>
				<path id="&lt;Path&gt;" class="s4" d="m390.4 388l2.6 4.6 94 54.2-2.6-4.6z"/>
			</g>
			<g id="&lt;Group&gt;">
				<path id="&lt;Path&gt;" class="s15" d="m475.8 455.6l-94.2-54.4-47.5 64 94 54.2z"/>
				<path id="&lt;Compound Path&gt;" fill-rule="evenodd" class="s11" d="m475.8 455.6l-47.7 63.8-94-54.2 47.5-64zm-34.6-14.8l-7.8 10.5c-1 1.3-0.6 3.1 0.8 3.9l10 5.8c1.2 0.7 2.7 0.4 3.5-0.7l7.8-10.5c1-1.3 0.6-3.1-0.8-3.9l-10-5.8c-1.2-0.7-2.7-0.4-3.5 0.7zm-28.2 2.8l-10-5.8c-1.2-0.6-2.7-0.3-3.5 0.8l-7.8 10.5c-1 1.3-0.6 3.1 0.8 3.9l10 5.8c1.2 0.7 2.7 0.4 3.5-0.7l7.8-10.5c1-1.3 0.6-3.2-0.8-4zm-6.1 14.2c-1 1.3-0.6 3.2 0.8 4l10 5.8c1.2 0.6 2.7 0.3 3.5-0.8l7.8-10.5c1-1.3 0.6-3.1-0.8-3.9l-10-5.8c-1.2-0.7-2.7-0.4-3.5 0.7zm-9.1-23l-10-5.8c-1.2-0.7-2.7-0.3-3.5 0.8l-7.8 10.5c-1 1.3-0.6 3.1 0.8 3.9l10 5.8c1.2 0.7 2.7 0.4 3.5-0.7l7.8-10.6c1-1.2 0.6-3.1-0.8-3.9zm-24.9 10.3l-7.8 10.5c-0.9 1.3-0.6 3.1 0.8 3.9l10.1 5.8c1.1 0.7 2.6 0.4 3.5-0.7l7.8-10.5c0.9-1.3 0.5-3.2-0.9-4l-10-5.8c-1.2-0.6-2.7-0.3-3.5 0.8zm8.2 23.2l10.1 5.8c1.1 0.7 2.7 0.4 3.5-0.7l7.8-10.5c0.9-1.3 0.5-3.2-0.8-4l-10.1-5.8c-1.1-0.6-2.7-0.3-3.5 0.8l-7.8 10.5c-0.9 1.3-0.5 3.1 0.8 3.9zm15.2 8.8l10 5.8c1.2 0.6 2.7 0.3 3.5-0.8l7.8-10.5c1-1.3 0.6-3.1-0.8-3.9l-10-5.8c-1.2-0.7-2.7-0.4-3.5 0.7l-7.8 10.5c-0.9 1.3-0.6 3.2 0.8 4zm15.2 8.7l10 5.8c1.2 0.7 2.7 0.4 3.5-0.7l7.8-10.5c1-1.3 0.6-3.1-0.8-3.9l-10-5.8c-1.2-0.7-2.7-0.4-3.5 0.7l-7.8 10.5c-0.9 1.3-0.6 3.1 0.8 3.9zm24.9-10.2l7.8-10.5c1-1.3 0.6-3.1-0.8-3.9l-10-5.8c-1.2-0.7-2.7-0.4-3.5 0.7l-7.8 10.5c-1 1.3-0.6 3.1 0.8 3.9l10 5.8c1.2 0.7 2.7 0.4 3.5-0.7zm-10.4-43.6l-7.8 10.5c-1 1.3-0.6 3.2 0.8 4l10 5.8c1.2 0.6 2.7 0.3 3.5-0.8l7.8-10.5c1-1.3 0.6-3.1-0.8-3.9l-10-5.8c-1.2-0.7-2.7-0.4-3.5 0.7zm-15.2-8.7l-7.8 10.5c-1 1.3-0.6 3.1 0.8 3.9l10 5.8c1.2 0.7 2.7 0.4 3.5-0.7l7.8-10.5c1-1.3 0.6-3.2-0.8-4l-10-5.8c-1.2-0.6-2.7-0.3-3.5 0.8zm-15.2-8.8l-7.8 10.5c-1 1.3-0.6 3.1 0.8 3.9l10 5.8c1.2 0.7 2.7 0.4 3.5-0.7l7.8-10.6c1-1.2 0.6-3.1-0.8-3.9l-10-5.8c-1.2-0.7-2.7-0.3-3.5 0.8zm-22.2 5.6l10 5.8c1.2 0.7 2.7 0.4 3.5-0.7l7.8-10.5c1-1.3 0.6-3.1-0.8-4l-10-5.7c-1.2-0.7-2.7-0.4-3.5 0.7l-7.8 10.5c-1 1.3-0.6 3.1 0.8 3.9zm-11.3 15.3l10 5.8c1.2 0.7 2.7 0.4 3.5-0.7l7.8-10.5c1-1.3 0.6-3.1-0.8-4l-10-5.7c-1.2-0.7-2.7-0.4-3.5 0.7l-7.8 10.5c-1 1.3-0.6 3.1 0.8 3.9zm-11.4 15.3l10.1 5.8c1.1 0.7 2.6 0.4 3.5-0.7l7.8-10.5c0.9-1.3 0.5-3.1-0.9-3.9l-10-5.8c-1.2-0.7-2.7-0.4-3.5 0.7l-7.8 10.5c-0.9 1.3-0.6 3.1 0.8 3.9zm2.3 20.4l7.8-10.5c0.9-1.3 0.5-3.1-0.9-3.9l-10-5.8c-1.2-0.7-2.7-0.4-3.5 0.7l-7.8 10.5c-0.9 1.3-0.6 3.1 0.8 3.9l10 5.8c1.2 0.7 2.7 0.4 3.6-0.7zm15.2 8.8l7.8-10.5c0.9-1.3 0.5-3.2-0.9-4l-10-5.8c-1.2-0.6-2.7-0.3-3.5 0.8l-7.8 10.5c-0.9 1.3-0.6 3.1 0.8 3.9l10 5.8c1.2 0.7 2.7 0.4 3.6-0.7zm15.2 8.8l7.8-10.5c0.9-1.3 0.5-3.2-0.9-4l-10-5.8c-1.2-0.6-2.7-0.3-3.5 0.8l-7.8 10.5c-0.9 1.3-0.6 3.1 0.8 3.9l10.1 5.8c1.1 0.7 2.6 0.4 3.5-0.7zm15.1 8.7l7.8-10.5c1-1.3 0.6-3.1-0.8-3.9l-10-5.8c-1.2-0.7-2.7-0.4-3.5 0.7l-7.8 10.5c-1 1.3-0.6 3.2 0.8 4l10 5.8c1.2 0.6 2.7 0.3 3.5-0.8zm15.2 8.8l7.8-10.5c1-1.3 0.6-3.1-0.8-3.9l-10-5.8c-1.2-0.7-2.7-0.4-3.5 0.7l-7.8 10.5c-1 1.3-0.6 3.1 0.8 3.9l10 5.8c1.2 0.7 2.7 0.4 3.5-0.7zm22.2-5.6l-10-5.8c-1.2-0.7-2.7-0.4-3.5 0.7l-7.8 10.5c-0.9 1.3-0.6 3.1 0.8 3.9l10 5.8c1.2 0.7 2.7 0.4 3.5-0.7l7.8-10.5c1-1.3 0.6-3.1-0.8-3.9zm11.3-15.3l-10-5.8c-1.2-0.7-2.7-0.4-3.5 0.7l-7.8 10.5c-0.9 1.3-0.6 3.1 0.8 3.9l10 5.8c1.2 0.7 2.7 0.4 3.6-0.7l7.8-10.5c0.9-1.3 0.5-3.1-0.9-3.9zm11.4-15.3l-10-5.8c-1.2-0.7-2.7-0.4-3.5 0.7l-7.8 10.5c-1 1.3-0.6 3.1 0.8 3.9l10 5.8c1.2 0.7 2.7 0.4 3.5-0.7l7.8-10.5c1-1.3 0.6-3.1-0.8-3.9zm12.1-11.4c1-1.3 0.6-3.1-0.8-3.9l-10-5.8c-1.2-0.7-2.7-0.4-3.5 0.7l-7.8 10.5c-1 1.3-0.6 3.1 0.8 3.9l10 5.8c1.2 0.7 2.7 0.4 3.5-0.7z"/>
				<path id="&lt;Path&gt;" class="s12" d="m475.8 455.6l2.7 4.6-47.8 63.8-2.6-4.6z"/>
				<path id="&lt;Path&gt;" class="s4" d="m334.1 465.2l2.6 4.6 94 54.2-2.6-4.6z"/>
			</g>
		</g>
		<g id="&lt;Group&gt;">
			<path id="&lt;Path&gt;" class="s16" d="m593.4 592l-51 29.5v-118.4l51.1-29.6z"/>
			<path id="&lt;Path&gt;" class="s17" d="m593.4 592l-51 29.5v-118.4z"/>
			<g id="&lt;Group&gt;">
				<path id="&lt;Path&gt;" class="s18" d="m551.2 557.5c2.4-1.3 4.3-0.2 4.3 2.4 0 2.7-1.9 6-4.3 7.4-2.3 1.3-4.2 0.2-4.2-2.5 0-2.6 1.9-5.9 4.2-7.3z"/>
			</g>
		</g>
		<g id="&lt;Group&gt;">
			<path id="&lt;Path&gt;" class="s19" d="m736 529.9h-3.6c-2.8 0-5-2.3-5-5.1v-48.2c0-2.8 2.2-5.1 5-5.1h3.6c2.8 0 5.1 2.3 5.1 5.1v48.2c0 2.8-2.3 5.1-5.1 5.1z"/>
			<path id="&lt;Path&gt;" class="s20" d="m769.3 454.4c0-19.3-16.6-58.4-36-58.4-19.3 0-34.1 39.1-34.1 58.4 0 19.4 15.7 35.1 35 35.1 19.4 0 35.1-15.7 35.1-35.1z"/>
		</g>
		<g id="&lt;Group&gt;">
			<path id="&lt;Path&gt;" class="s21" d="m787.4 559.6h-3.6c-2.8 0-5.1-2.3-5.1-5.1v-48.3c0-2.7 2.3-5 5.1-5h3.6c2.8 0 5 2.3 5 5v48.3c0 2.8-2.2 5.1-5 5.1z"/>
			<path id="&lt;Path&gt;" class="s22" d="m820.6 484.1c0-19.3-16.6-58.4-35.9-58.4-19.4 0-34.2 39.1-34.2 58.4 0 19.4 15.7 35.1 35.1 35.1 19.3 0 35-15.7 35-35.1z"/>
		</g>
		<g id="&lt;Group&gt;">
			<path id="&lt;Path&gt;" class="s23" d="m424.6 728.5h-3.6c-2.8 0-5.1-2.2-5.1-5v-48.3c0-2.8 2.3-5 5.1-5h3.6c2.8 0 5 2.2 5 5v48.3c0 2.8-2.2 5-5 5z"/>
			<path id="&lt;Path&gt;" class="s24" d="m457.8 653.1c0-19.4-16.6-58.4-35.9-58.4-19.4 0-34.2 39-34.2 58.4 0 19.4 15.7 35.1 35.1 35.1 19.3 0 35-15.7 35-35.1z"/>
		</g>
		<g id="&lt;Group&gt;">
			<path id="&lt;Path&gt;" class="s25" d="m150.4 570h-3.6c-2.8 0-5-2.3-5-5.1v-48.3c0-2.7 2.2-5 5-5h3.6c2.8 0 5.1 2.3 5.1 5v48.3c0 2.8-2.3 5.1-5.1 5.1z"/>
			<path id="&lt;Path&gt;" class="s26" d="m183.7 494.5c0-19.3-16.6-58.4-36-58.4-19.3 0-34.1 39.1-34.1 58.4 0 19.4 15.7 35.1 35 35.1 19.4 0 35.1-15.7 35.1-35.1z"/>
		</g>
		<g id="&lt;Group&gt;">
			<path id="&lt;Path&gt;" class="s27" d="m208.4 603.5h-3.6c-2.8 0-5-2.3-5-5.1v-48.2c0-2.8 2.2-5.1 5-5.1h3.6c2.8 0 5.1 2.3 5.1 5.1v48.2c0 2.8-2.3 5.1-5.1 5.1z"/>
			<path id="&lt;Path&gt;" class="s28" d="m241.7 528c0-19.3-16.6-58.4-36-58.4-19.3 0-34.1 39.1-34.1 58.4 0 19.4 15.7 35.1 35 35.1 19.4 0 35.1-15.7 35.1-35.1z"/>
		</g>
	</g>
</svg>